<svg xmlns="http://www.w3.org/2000/svg" fill="none" viewBox="0 0 112 70" class="MobileNav_logo__xb2pk"><path fill="currentColor" d="M37.17 29.26v11.21h7.76v-2.53h-4.77v-8.68h-2.99zm35.24 0h-4.53v11.21h3v-3.22h1.54c2.85 0 4.43-1.68 4.43-4 0-2.32-1.59-3.99-4.44-3.99zm-.15 5.49h-1.39V31.8h1.39a1.48 1.48 0 110 2.95zm19.04-1.06l-1.49-.49c-.54-.18-.79-.4-.79-.83 0-.43.37-.77 1.09-.77a2.52 2.52 0 011.94.81l1.72-1.8A4.79 4.79 0 0090 29.13c-2 0-3.83 1.13-3.83 3.34 0 1.85 1.16 2.84 2.79 3.38l1.32.45c.74.24 1.1.47 1.1 1 0 .63-.53.89-1.42.89a2.83 2.83 0 01-2.34-1.22l-2.22 1.58a5.52 5.52 0 004.6 2.08c3 0 4.26-1.48 4.26-3.54.04-1.58-.72-2.66-2.96-3.4zm20.7-1.91v-2.52h-8.09v11.21H112v-2.53h-5.09v-1.92h4.05v-2.39h-4.05v-1.85H112zM0 40.47h8.09v-2.53H3v-1.92h4.05v-2.39H3v-1.85h5.09v-2.52H0v11.21zm27.48-2.28l-2.19-1.55a3.08 3.08 0 110-3.54l2.19-1.55a5.75 5.75 0 100 6.64zm26.1-11.93h3A34.88 34.88 0 0022.76 0h-1.49a34.89 34.89 0 0132.31 26.26zm.62 3c.298 1.852.448 3.724.45 5.6a35.792 35.792 0 01-.45 5.61h3c.6-3.713.6-7.498 0-11.21h-3zM21.27 69.69h1.49a34.88 34.88 0 0033.79-26.23h-3a34.86 34.86 0 01-32.28 26.23z"></path></svg>