<svg width="466" height="331" viewBox="0 0 466 331" fill="none" xmlns="http://www.w3.org/2000/svg">
<path d="M193.335 111.404L145.429 83.7241L145.338 115.694C145.335 116.754 146.086 118.05 147.009 118.583L193.238 145.295L193.335 111.404Z" fill="#474EB8"/>
<path d="M144.092 80.7263L202.211 114.281L202.12 146.251C202.117 147.311 201.366 147.74 200.443 147.207L145.673 115.585C144.75 115.053 143.998 113.757 144.001 112.697L144.092 80.7263Z" fill="white"/>
<path d="M200.56 106.317C201.483 106.85 202.229 108.142 202.226 109.209L202.212 114.281L144.093 80.7262L144.107 75.6544C144.111 74.5874 144.867 74.1623 145.79 74.6952L200.56 106.317Z" fill="#474EB8"/>
<path d="M147.84 80.5635C147.234 80.2133 146.744 79.3645 146.746 78.668C146.748 77.9772 147.242 77.6961 147.848 78.0463C148.449 78.3933 148.939 79.2421 148.937 79.9323C148.935 80.6295 148.441 80.9105 147.84 80.5635Z" fill="#DFE9F7"/>
<path d="M152.21 83.0872C151.604 82.7371 151.119 81.8915 151.121 81.1949C151.123 80.5041 151.611 80.2199 152.217 80.5701C152.818 80.9171 153.308 81.7659 153.307 82.456C153.305 83.1532 152.811 83.4342 152.21 83.0872Z" fill="#F9CC38"/>
<path d="M190.086 119.303C190.78 119.704 191.341 120.675 191.338 121.473C191.336 122.27 190.772 122.592 190.078 122.191L173.613 112.685C172.919 112.285 172.364 111.316 172.366 110.519C172.369 109.722 172.928 109.397 173.621 109.798L190.086 119.303Z" fill="#DFE9F7"/>
<path d="M195.682 116.561C196.376 116.961 196.936 117.933 196.934 118.729C196.931 119.527 196.367 119.848 195.673 119.448L173.631 106.721C172.937 106.321 172.382 105.353 172.384 104.556C172.386 103.758 172.945 103.434 173.639 103.834L195.682 116.561Z" fill="#DFE9F7"/>
<path d="M156.58 85.61C155.98 85.263 155.489 84.4142 155.491 83.7177C155.493 83.0269 155.987 82.7459 156.587 83.0929C157.194 83.443 157.679 84.2886 157.677 84.9788C157.675 85.676 157.187 85.9602 156.58 85.61Z" fill="#7EC8FF"/>
<path d="M168.832 100.813C168.859 100.911 168.875 101.002 168.875 101.084L168.813 122.897C168.813 122.979 168.796 123.051 168.768 123.116C168.713 123.242 168.604 123.304 168.467 123.288C168.396 123.279 168.325 123.257 168.254 123.215L149.271 112.255C149.199 112.214 149.123 112.151 149.057 112.082C148.921 111.941 148.812 111.752 148.758 111.563C148.731 111.466 148.715 111.375 148.715 111.293L148.777 89.4798C148.777 89.3979 148.794 89.3263 148.821 89.2603C148.877 89.1347 148.986 89.0725 149.123 89.0884C149.188 89.0947 149.265 89.1201 149.336 89.1613L168.319 100.121C168.39 100.163 168.461 100.222 168.532 100.294C168.669 100.437 168.778 100.625 168.832 100.813ZM149.887 91.6741L149.834 110.387L158.006 105.73L149.887 91.6741ZM167.703 120.703L167.756 101.991L159.585 106.641L167.703 120.703ZM150.624 111.754L166.909 121.156L158.79 107.094L150.624 111.754ZM166.967 100.623L150.682 91.2211L158.795 105.28L166.967 100.623Z" fill="#DFE9F7"/>
<path d="M190.063 127.891C190.757 128.291 191.318 129.263 191.315 130.06C191.313 130.857 190.749 131.179 190.055 130.778L173.59 121.272C172.896 120.871 172.341 119.903 172.343 119.105C172.345 118.308 172.904 117.983 173.598 118.384L190.063 127.891Z" fill="#DFE9F7"/>
<path d="M6.14901 191.729L6.16483 197.261C6.15012 192.228 9.47324 187.186 16.1263 183.346C29.3418 175.715 50.691 175.715 63.8206 183.346C70.3447 187.137 73.6113 192.099 73.626 197.069L73.6102 191.537C73.5966 186.568 70.3289 181.605 63.8048 177.814C50.6752 170.183 29.326 170.183 16.1105 177.814C9.45744 181.655 6.13431 186.696 6.14901 191.729Z" fill="#24126A"/>
<path d="M79.7646 197.041L79.7488 191.509C79.7635 196.845 76.6066 202.19 70.2872 206.511L70.3031 212.044C76.6225 207.723 79.7793 202.378 79.7646 197.041Z" fill="#24126A"/>
<path d="M0.000205994 191.746L0.0160904 197.278C0.0330505 203.151 3.89231 209.014 11.6006 213.495C26.316 222.046 49.7724 222.485 65.4854 214.825L65.4695 209.293C49.7565 216.951 26.3001 216.514 11.5848 207.963C3.87643 203.482 0.0171738 197.62 0.000205994 191.746Z" fill="#24126A"/>
<path d="M65.471 209.293L65.4868 214.825L84.0693 225.624L84.0535 220.092L65.471 209.293Z" fill="#24126A"/>
<path opacity="0.64" d="M16.1143 180.498C2.89874 188.128 2.82185 200.498 15.9515 208.128C29.0811 215.758 50.4449 215.758 63.6605 208.128C76.8761 200.497 76.9462 188.123 63.8166 180.493C50.687 172.863 29.3299 172.867 16.1143 180.498Z" fill="url(#paint0_linear_46_66)"/>
<path opacity="0.4" d="M42.1966 181.803C39.2886 183.481 39.2716 186.204 42.1604 187.882C45.0491 189.561 49.75 189.561 52.6568 187.882C55.5648 186.204 55.5796 183.481 52.6908 181.803C49.8031 180.123 45.1035 180.124 42.1966 181.803Z" fill="white"/>
<path opacity="0.4" d="M32.5771 181.04C31.4279 181.703 31.4211 182.779 32.5624 183.442C33.7036 184.105 35.5609 184.105 36.7089 183.442C37.857 182.779 37.8637 181.703 36.7225 181.039C35.5823 180.378 33.7263 180.378 32.5771 181.04Z" fill="white"/>
<path d="M11.7758 175.296C-3.85121 184.318 -3.93378 198.944 11.5847 207.964C26.3 216.516 49.7565 216.953 65.4694 209.294L84.052 220.092L88.8682 217.311L70.2856 206.512C83.56 197.435 82.8802 183.848 68.1648 175.296C52.6475 166.276 27.3961 166.276 11.7758 175.296ZM63.6552 205.445C50.4396 213.075 29.0757 213.075 15.9461 205.445C2.81654 197.814 2.89342 185.444 16.109 177.813C29.3246 170.183 50.6737 170.183 63.8033 177.813C76.9329 185.444 76.8708 197.814 63.6552 205.445Z" fill="#453C9E"/>
<path d="M79.7652 220.154L79.781 225.687L115.653 246.534L115.639 241.001L79.7652 220.154Z" fill="#4043BD"/>
<path d="M115.638 241.001L115.653 246.534L125.092 241.084L125.076 235.552L115.638 241.001Z" fill="#5659D6"/>
<path d="M79.765 220.155L115.638 241.001L125.076 235.552L89.2028 214.705L79.765 220.155Z" fill="#6C6FDA"/>
<path d="M216.591 150.695L237.9 24.2761L236.186 23.5545L238.76 22.0784L238.756 22.0931C239.256 21.7606 239.962 21.7809 240.74 22.23L411.036 120.55C412.434 121.358 413.492 123.429 413.247 124.876L391.769 252.299C391.656 252.963 391.328 253.403 390.872 253.596L390.874 253.597L388.355 255.053L387.922 252.702L388.066 252.746L218.801 155.02C217.404 154.214 216.346 152.143 216.591 150.695Z" fill="url(#paint1_linear_46_66)"/>
<path d="M410.088 124.008L412.887 122.77C413.201 123.487 413.355 124.241 413.248 124.877L391.77 252.3C391.657 252.964 391.33 253.404 390.873 253.597L390.875 253.598L388.356 255.054L387.923 252.703L388.067 252.747L379.502 247.802L410.088 124.008Z" fill="url(#paint2_linear_46_66)"/>
<path d="M216.131 156.553L386.426 254.873C387.741 255.632 388.867 255.195 389.098 253.833L410.576 126.409C410.822 124.962 409.763 122.891 408.365 122.084L238.069 23.7638C236.755 23.0048 235.628 23.4425 235.398 24.8044L213.921 152.228C213.674 153.675 214.733 155.746 216.131 156.553Z" fill="#24126A"/>
<g opacity="0.51">
<path d="M237.497 26.1333L408.593 124.871L386.985 252.619L216 153.946L237.497 26.1333Z" fill="#453C9E"/>
</g>
<path d="M109.083 216.88L118.377 221.734L211.567 167.93C213.126 167.03 215.849 167.143 217.65 168.183L378.377 260.978C379.915 260.117 386.928 256.745 386.928 256.745L383.525 262.275C383.525 262.275 383.514 262.266 383.512 262.264C383.372 262.659 383.069 263.026 382.561 263.319L284.413 319.984C282.853 320.884 280.131 320.771 278.33 319.732L113.855 224.774C113.115 224.347 112.663 223.831 112.475 223.307L112.463 223.315L109.083 216.88Z" fill="url(#paint3_linear_46_66)"/>
<path d="M110.519 218.408L279.083 315.729C280.928 316.794 283.719 316.91 285.318 315.987L385.906 257.912C387.504 256.989 387.303 255.379 385.458 254.313L216.894 156.993C215.049 155.927 212.258 155.812 210.661 156.734L110.072 214.808C108.474 215.732 108.674 217.343 110.519 218.408Z" fill="url(#paint4_linear_46_66)"/>
<path d="M110.519 218.408L279.083 315.729C280.928 316.794 283.719 316.91 285.318 315.987L385.906 257.912C387.504 256.989 387.303 255.379 385.458 254.313L216.894 156.993C215.049 155.927 212.258 155.812 210.661 156.734L110.072 214.808C108.474 215.732 108.674 217.343 110.519 218.408Z" fill="#24126A"/>
<path opacity="0.51" d="M110.519 218.408L279.083 315.729C280.928 316.794 283.719 316.91 285.318 315.987L385.906 257.912C387.504 256.989 387.303 255.379 385.458 254.313L216.894 156.993C215.049 155.927 212.258 155.812 210.661 156.734L110.072 214.808C108.474 215.732 108.674 217.343 110.519 218.408Z" fill="#453C9E"/>
<g opacity="0.3">
<path opacity="0.5" d="M110.519 214.826L279.083 312.147C280.928 313.212 283.719 313.327 285.318 312.405L385.906 254.33C387.504 253.407 387.303 251.797 385.458 250.731L216.894 153.411C215.049 152.345 212.258 152.23 210.661 153.152L110.072 211.226C108.474 212.149 108.674 213.761 110.519 214.826Z" fill="url(#paint5_radial_46_66)"/>
<mask id="mask0_46_66" style="mask-type:luminance" maskUnits="userSpaceOnUse" x="108" y="152" width="279" height="162">
<path d="M110.519 214.826L279.083 312.147C280.928 313.212 283.719 313.327 285.318 312.405L385.906 254.33C387.504 253.407 387.303 251.797 385.458 250.731L216.894 153.411C215.049 152.345 212.258 152.23 210.661 153.152L110.072 211.226C108.474 212.149 108.674 213.761 110.519 214.826Z" fill="white"/>
</mask>
<g mask="url(#mask0_46_66)">
<path d="M201.491 321.829C201.491 284.394 223.784 254.047 251.283 254.047C278.781 254.047 301.074 284.394 301.074 321.829C301.074 359.263 278.781 370.481 251.283 370.481C223.784 370.481 201.491 359.263 201.491 321.829Z" fill="url(#paint6_radial_46_66)"/>
</g>
</g>
<path opacity="0.8" d="M282.604 313.431C281.314 313.431 279.964 313.114 278.886 312.491L110.322 215.17C109.224 214.538 108.597 213.669 108.597 212.79C108.597 212.036 109.05 211.358 109.875 210.882L210.463 152.807C212.197 151.805 215.112 151.921 217.095 153.066L385.659 250.386C386.756 251.02 387.384 251.887 387.384 252.766C387.384 253.521 386.93 254.198 386.105 254.674L285.516 312.75C284.724 313.207 283.686 313.431 282.604 313.431ZM213.368 152.922C212.424 152.922 211.527 153.111 210.859 153.497L110.271 211.572C109.87 211.804 109.391 212.203 109.391 212.79C109.391 213.378 109.875 213.994 110.719 214.481L279.283 311.802C281.014 312.804 283.632 312.918 285.118 312.06L385.707 253.984C386.108 253.752 386.587 253.353 386.587 252.766C386.587 252.179 386.103 251.563 385.259 251.075L216.695 153.755C215.743 153.205 214.52 152.922 213.368 152.922Z" fill="url(#paint7_linear_46_66)"/>
<path d="M110.52 217.653L279.084 314.973C280.929 316.039 283.72 316.154 285.318 315.231L385.906 257.157C386.468 256.832 386.796 256.42 386.919 255.978C387.098 256.694 386.781 257.407 385.906 257.911L285.318 315.986C283.719 316.909 280.929 316.792 279.084 315.727L110.52 218.406C109.325 217.716 108.831 216.798 109.059 215.986C109.207 216.578 109.686 217.172 110.52 217.653Z" fill="white"/>
<path d="M83.9617 202.896L131.456 175.243C140.864 169.81 149.738 168.95 156.441 172.818C163.143 176.687 166.834 184.802 166.834 195.665V199.145C166.498 199.372 166.146 199.594 165.786 199.813V195.664C165.786 185.19 162.281 177.398 155.918 173.723C149.551 170.05 141.051 170.91 131.98 176.146L84.4854 203.8C84.2377 203.947 83.9153 203.86 83.7705 203.609C83.6258 203.361 83.7117 203.041 83.9617 202.896Z" fill="#BCBEFF"/>
<path d="M232.075 169.954V62.9238C232.075 41.5 247.17 15.355 265.724 4.64362C274.81 -0.602338 283.382 -1.43368 289.857 2.30341C296.331 6.04164 299.898 13.8789 299.898 24.3708V31.8337C299.548 32.1832 299.2 32.5316 298.85 32.8811V24.3708C298.85 14.268 295.471 6.75309 289.333 3.21054C283.195 -0.330877 274.998 0.498208 266.248 5.54962C247.982 16.0947 233.122 41.8325 233.122 62.9238V169.955C233.122 187.713 222.673 208.729 208.504 221.377C208.504 220.909 208.504 220.441 208.504 219.972C222.113 207.465 232.075 187.155 232.075 169.954Z" fill="#BCBEFF"/>
<path d="M299.897 35.1092C301.616 33.4759 309.636 26.4021 321.338 24.6128C334.591 22.587 340.067 38.0851 340.067 38.0851C340.067 38.0851 341.601 46.135 341.546 50.9003C341.491 55.6644 341.15 72.9677 341.15 72.9677L299.138 48.7659V48.7603C298.968 48.6732 298.85 48.5024 298.85 48.2988V36.0152C299.199 35.6657 299.549 35.4587 299.897 35.1092Z" fill="#173D7A"/>
<path d="M329.677 25.2587L289.856 2.30226L290.013 2.87458C283.875 -1.08986 274.6 -1.51741 262.192 7.58102C237.548 25.6535 234.588 50.8121 233.332 55.5276C232.075 60.242 232.592 90.1116 232.592 90.1116C232.592 90.1116 232.509 162.154 232.428 170.533C232.345 178.912 229.907 188.312 225.199 198.462C220.492 208.613 208.4 220.929 208.4 220.929V235.593C210.331 251.447 217.067 255.143 227.089 256.047C235.178 256.777 243.795 250.937 250.681 244.571C250.428 244.836 250.264 245.004 250.264 245.004V259.668C252.195 275.522 258.93 279.218 268.953 280.122C278.974 281.026 289.813 271.846 297.156 264.075C304.499 256.306 310.693 244.44 314.133 233.736C317.574 223.032 316.433 209.202 316.433 209.202C316.433 209.202 316.516 130.452 316.597 114.925C316.68 99.3989 317.172 102.11 322.265 86.5023C327.359 70.8945 340.859 59.9694 340.859 59.9694L373.255 50.3212L329.677 25.2587Z" fill="#BCBEFF"/>
<path d="M260.355 278.804C259.808 278.061 252.713 273.304 250.906 264.925C249.9 260.264 250.002 253.177 250.002 253.177C250.002 253.177 250.031 249.237 250.126 245.655C250.206 245.584 250.287 245.521 250.366 245.451C250.366 244.983 250.366 244.514 250.366 244.046C250.302 244.105 250.234 244.159 250.169 244.218C250.197 243.409 250.227 242.65 250.263 242.006C250.468 238.282 247.717 230.341 247.717 230.341C247.717 230.341 243.815 219.703 232.191 219.291C221.871 218.927 211.008 226.35 208.697 228.023V223.22C208.543 223.324 208.378 223.423 208.219 223.525C208.232 222.881 208.247 222.223 208.264 221.577C208.343 221.507 208.425 221.444 208.504 221.374C208.504 220.905 208.504 220.437 208.504 219.969C208.439 220.029 208.371 220.082 208.307 220.141C208.334 219.332 208.365 218.573 208.4 217.929C208.606 214.205 205.854 206.265 205.854 206.265C205.854 206.265 201.951 195.627 190.327 195.216C180.007 194.852 169.144 202.276 166.834 203.948V199.144C166.498 199.372 166.146 199.593 165.786 199.813V208.223C165.786 218.411 169.18 226.069 175.345 229.873L175.37 229.901L175.585 230.025C175.642 230.06 175.697 230.1 175.754 230.134C175.792 230.155 175.832 230.169 175.87 230.19L218.491 254.728C218.481 254.713 218.453 254.689 218.437 254.67L260.355 278.804Z" fill="#173D7A"/>
<path d="M198.305 196.894C198.305 196.894 197.986 196.73 197.422 196.5C197.249 196.417 197.083 196.319 196.908 196.241L156.442 172.819C156.442 172.819 149.006 168.911 140.014 172.202C131.021 175.494 83.9023 203.762 83.9023 203.762L125.998 228.014L126.006 228.01C126.041 228.029 126.08 228.029 126.119 228.04L167.861 252.089C167.861 252.089 191.478 237.459 207.817 228.019L208.864 227.415C215.544 223.574 220.849 220.705 222.513 220.264C232.587 217.595 239.596 220.848 241.42 221.849L198.305 196.894Z" fill="#BCBEFF"/>
<path d="M241.419 221.85L241.906 222.131C241.906 222.131 241.729 222.019 241.419 221.85Z" fill="#BCBEFF"/>
<path d="M341.76 59.1844C343.48 57.5511 351.499 50.4773 363.201 48.6879C376.454 46.661 381.931 62.1602 381.931 62.1602C381.931 62.1602 383.464 70.2101 383.409 74.9754C383.355 79.7395 383.013 97.0428 383.013 97.0428L341.001 72.841V72.8354C340.832 72.7483 340.713 72.5775 340.713 72.3739V60.0904C341.061 59.7408 341.411 59.5339 341.76 59.1844Z" fill="#173D7A"/>
<path d="M268.543 280.709C273.175 280.709 278.303 279.163 283.609 276.099C302.029 265.464 317.014 239.507 317.014 218.24V111.209C317.014 90.1185 331.875 64.3795 350.14 53.8333C358.891 48.7842 367.087 47.9517 373.226 51.4942C379.362 55.0379 382.743 62.5528 382.743 72.6557V96.5837C382.743 96.8721 382.977 97.1074 383.266 97.1074C383.556 97.1074 383.79 96.8721 383.79 96.5837V72.6557C383.79 62.1626 380.225 54.3253 373.75 50.5882C367.274 46.8489 358.704 47.6814 349.617 52.9273C331.061 63.6398 315.967 89.7859 315.967 111.209V218.24C315.967 239.176 301.217 264.725 283.085 275.193C274.402 280.205 266.265 281.032 260.172 277.514C254.081 273.999 250.726 266.538 250.726 256.511V243.952C250.726 233.088 247.036 224.974 240.333 221.105C233.631 217.237 224.758 218.096 215.348 223.53L167.855 251.183C167.605 251.327 167.519 251.648 167.664 251.898C167.808 252.149 168.132 252.232 168.379 252.089L215.872 224.436C224.943 219.199 233.444 218.338 239.809 222.013C246.174 225.688 249.679 233.48 249.679 243.954V256.512C249.679 266.929 253.219 274.71 259.648 278.422C262.296 279.949 265.299 280.709 268.543 280.709Z" fill="#396CAA"/>
<path d="M271.82 137.442L264.8 133.388C264.148 133.011 263.609 131.998 263.594 131.124C263.58 130.249 264.096 129.844 264.748 130.221L271.768 134.275C272.42 134.65 272.959 135.665 272.973 136.539C272.989 137.413 272.472 137.817 271.82 137.442Z" fill="#5761D7"/>
<path d="M286.73 146.049L276.377 140.072C275.725 139.695 275.186 138.681 275.172 137.807C275.157 136.933 275.674 136.528 276.326 136.905L286.679 142.882C287.33 143.258 287.87 144.272 287.883 145.147C287.898 146.021 287.381 146.425 286.73 146.049Z" fill="#5761D7"/>
<path d="M271.026 110.683L257.625 102.946C256.973 102.569 256.434 101.556 256.419 100.682C256.406 99.8073 256.921 99.4024 257.573 99.779L270.974 107.517C271.625 107.892 272.165 108.907 272.179 109.781C272.194 110.654 271.678 111.058 271.026 110.683Z" fill="#5761D7"/>
<path d="M262.225 118.752L257.839 116.219C257.187 115.843 256.648 114.829 256.634 113.955C256.619 113.081 257.136 112.676 257.788 113.052L262.174 115.585C262.826 115.961 263.365 116.975 263.379 117.849C263.393 118.723 262.877 119.127 262.225 118.752Z" fill="#5761D7"/>
<path d="M260.871 131.119L258.055 129.494C257.404 129.117 256.864 128.104 256.851 127.229C256.836 126.355 257.353 125.95 258.005 126.327L260.82 127.952C261.471 128.328 262.011 129.342 262.024 130.216C262.038 131.091 261.522 131.495 260.871 131.119Z" fill="#5761D7"/>
<path d="M278.542 128.171L266.827 121.407C266.175 121.031 265.636 120.017 265.622 119.143C265.608 118.269 266.125 117.864 266.776 118.24L278.491 125.004C279.142 125.381 279.682 126.394 279.695 127.269C279.709 128.143 279.193 128.548 278.542 128.171Z" fill="#5761D7"/>
<path d="M278.151 121.37L257.733 109.582C257.082 109.207 256.542 108.192 256.528 107.318C256.514 106.443 257.03 106.038 257.681 106.415L278.098 118.203C278.75 118.579 279.289 119.593 279.303 120.468C279.318 121.342 278.802 121.747 278.151 121.37Z" fill="#5761D7"/>
<path d="M269.663 129.62L257.948 122.856C257.297 122.48 256.757 121.466 256.743 120.592C256.729 119.718 257.246 119.313 257.897 119.689L269.612 126.453C270.263 126.83 270.803 127.843 270.816 128.718C270.83 129.592 270.314 129.996 269.663 129.62Z" fill="#5761D7"/>
<path d="M287.426 133.301L283.17 130.843C282.518 130.468 281.979 129.453 281.965 128.579C281.952 127.704 282.467 127.299 283.119 127.676L287.375 130.134C288.027 130.511 288.566 131.524 288.58 132.398C288.594 133.274 288.077 133.678 287.426 133.301Z" fill="#5761D7"/>
<path d="M275.3 100.001L268.279 95.9468C267.628 95.5713 267.088 94.5567 267.075 93.6824C267.06 92.808 267.577 92.4031 268.228 92.7798L275.25 96.8336C275.901 97.2091 276.441 98.2237 276.455 99.098C276.468 99.9723 275.951 100.376 275.3 100.001Z" fill="#5761D7"/>
<path d="M292.024 109.657L281.672 103.679C281.02 103.302 280.481 102.289 280.467 101.415C280.453 100.54 280.969 100.135 281.621 100.512L291.974 106.49C292.625 106.866 293.165 107.88 293.178 108.754C293.193 109.628 292.676 110.032 292.024 109.657Z" fill="#5761D7"/>
<path d="M271.82 137.442L264.8 133.388C264.148 133.011 263.609 131.998 263.594 131.124C263.58 130.249 264.096 129.844 264.748 130.221L271.768 134.275C272.42 134.65 272.959 135.665 272.973 136.539C272.989 137.413 272.472 137.817 271.82 137.442Z" fill="#5761D7"/>
<path d="M286.73 146.049L276.377 140.072C275.725 139.695 275.186 138.681 275.172 137.807C275.157 136.933 275.674 136.528 276.326 136.905L286.679 142.882C287.33 143.258 287.87 144.272 287.883 145.147C287.898 146.021 287.381 146.425 286.73 146.049Z" fill="#5761D7"/>
<path d="M256.047 95.4595L251.661 92.927C251.009 92.5515 250.47 91.5369 250.456 90.6626C250.442 89.7883 250.959 89.3833 251.61 89.76L255.996 92.2925C256.648 92.668 257.187 93.6826 257.201 94.5569C257.216 95.4324 256.699 95.8362 256.047 95.4595Z" fill="#5761D7"/>
<path d="M271.026 110.683L257.625 102.946C256.973 102.569 256.434 101.556 256.419 100.682C256.406 99.8073 256.921 99.4024 257.573 99.779L270.974 107.517C271.625 107.892 272.165 108.907 272.179 109.781C272.194 110.654 271.678 111.058 271.026 110.683Z" fill="#5761D7"/>
<path d="M262.225 118.752L257.839 116.22C257.187 115.843 256.648 114.829 256.634 113.955C256.619 113.081 257.136 112.676 257.788 113.052L262.174 115.585C262.826 115.962 263.365 116.975 263.379 117.849C263.393 118.724 262.877 119.128 262.225 118.752Z" fill="#5761D7"/>
<path d="M291.907 162.188L280.192 155.424C279.541 155.047 279.001 154.034 278.988 153.159C278.973 152.285 279.49 151.88 280.141 152.257L291.856 159.021C292.507 159.397 293.047 160.411 293.061 161.285C293.074 162.159 292.558 162.563 291.907 162.188Z" fill="#5761D7"/>
<path d="M260.871 131.119L258.055 129.494C257.404 129.117 256.864 128.104 256.851 127.229C256.836 126.355 257.353 125.95 258.005 126.327L260.82 127.952C261.471 128.328 262.011 129.342 262.024 130.216C262.038 131.091 261.522 131.495 260.871 131.119Z" fill="#5761D7"/>
<path d="M261.767 144.786L258.271 142.767C257.62 142.39 257.08 141.377 257.067 140.503C257.052 139.628 257.569 139.223 258.22 139.6L261.717 141.619C262.368 141.994 262.908 143.009 262.922 143.883C262.936 144.758 262.419 145.163 261.767 144.786Z" fill="#5761D7"/>
<path d="M275.369 152.639L266.15 147.317C265.499 146.941 264.959 145.927 264.946 145.053C264.931 144.179 265.448 143.774 266.099 144.15L275.317 149.472C275.968 149.848 276.508 150.862 276.522 151.736C276.537 152.611 276.02 153.015 275.369 152.639Z" fill="#5761D7"/>
<path d="M265.005 153.231L258.378 149.404C257.726 149.028 257.187 148.014 257.173 147.14C257.158 146.265 257.675 145.861 258.327 146.237L264.955 150.064C265.607 150.439 266.146 151.454 266.16 152.328C266.173 153.202 265.656 153.607 265.005 153.231Z" fill="#5761D7"/>
<path d="M278.542 128.171L266.827 121.407C266.175 121.031 265.636 120.017 265.622 119.143C265.608 118.269 266.125 117.864 266.776 118.24L278.491 125.004C279.142 125.381 279.682 126.394 279.695 127.269C279.709 128.143 279.193 128.548 278.542 128.171Z" fill="#5761D7"/>
<path d="M278.151 121.37L257.733 109.582C257.082 109.207 256.542 108.192 256.528 107.318C256.514 106.443 257.03 106.038 257.681 106.415L278.098 118.203C278.75 118.579 279.289 119.593 279.303 120.468C279.318 121.342 278.802 121.747 278.151 121.37Z" fill="#5761D7"/>
<path d="M269.663 129.62L257.948 122.856C257.297 122.48 256.757 121.466 256.743 120.592C256.729 119.718 257.246 119.313 257.897 119.689L269.612 126.453C270.263 126.83 270.803 127.843 270.816 128.718C270.83 129.592 270.314 129.996 269.663 129.62Z" fill="#5761D7"/>
<path d="M287.426 133.301L283.17 130.843C282.518 130.468 281.979 129.453 281.965 128.579C281.952 127.704 282.467 127.299 283.119 127.676L287.375 130.134C288.027 130.511 288.566 131.524 288.58 132.398C288.594 133.274 288.077 133.678 287.426 133.301Z" fill="#5761D7"/>
<path d="M272.245 144.261L258.163 136.131C257.511 135.754 256.972 134.741 256.958 133.866C256.944 132.992 257.461 132.587 258.112 132.964L272.194 141.094C272.845 141.47 273.385 142.484 273.399 143.358C273.412 144.233 272.896 144.637 272.245 144.261Z" fill="#5761D7"/>
<path d="M261.906 92.2676L251.554 86.2898C250.902 85.9132 250.363 84.8997 250.349 84.0254C250.334 83.1511 250.851 82.7461 251.503 83.1228L261.855 89.1006C262.507 89.4761 263.046 90.4907 263.06 91.365C263.075 92.2393 262.558 92.6442 261.906 92.2676Z" fill="#5761D7"/>
<path d="M264.62 159.584L252.63 152.662C251.978 152.285 251.439 151.272 251.425 150.397C251.41 149.523 251.927 149.118 252.579 149.495L264.569 156.418C265.221 156.794 265.76 157.808 265.774 158.683C265.789 159.556 265.272 159.96 264.62 159.584Z" fill="#5761D7"/>
<path d="M270.171 200.425L263.15 196.371C262.499 195.995 261.959 194.981 261.946 194.107C261.931 193.232 262.448 192.828 263.099 193.204L270.12 197.258C270.771 197.634 271.311 198.648 271.326 199.522C271.339 200.397 270.822 200.801 270.171 200.425Z" fill="#5761D7"/>
<path d="M285.079 209.032L274.727 203.055C274.075 202.678 273.535 201.665 273.521 200.79C273.507 199.916 274.023 199.511 274.674 199.888L285.027 205.865C285.679 206.242 286.218 207.256 286.232 208.13C286.248 209.004 285.731 209.408 285.079 209.032Z" fill="#5761D7"/>
<path d="M269.375 173.666L255.974 165.928C255.323 165.551 254.783 164.538 254.77 163.664C254.755 162.789 255.272 162.384 255.924 162.761L269.325 170.499C269.976 170.875 270.516 171.889 270.529 172.763C270.544 173.637 270.027 174.042 269.375 173.666Z" fill="#5761D7"/>
<path d="M260.575 181.735L256.188 179.202C255.537 178.826 254.997 177.812 254.984 176.938C254.969 176.064 255.486 175.659 256.137 176.035L260.524 178.568C261.175 178.945 261.715 179.958 261.728 180.832C261.743 181.707 261.226 182.112 260.575 181.735Z" fill="#5761D7"/>
<path d="M259.22 194.102L256.405 192.477C255.754 192.1 255.214 191.087 255.201 190.212C255.186 189.338 255.703 188.933 256.354 189.31L259.169 190.935C259.821 191.312 260.36 192.325 260.375 193.2C260.388 194.074 259.871 194.479 259.22 194.102Z" fill="#5761D7"/>
<path d="M276.891 191.155L265.177 184.391C264.525 184.014 263.986 183.001 263.972 182.126C263.957 181.252 264.474 180.847 265.126 181.224L276.84 187.988C277.492 188.363 278.031 189.378 278.045 190.252C278.058 191.128 277.543 191.531 276.891 191.155Z" fill="#5761D7"/>
<path d="M276.5 184.355L256.083 172.566C255.431 172.19 254.892 171.176 254.878 170.302C254.864 169.428 255.38 169.023 256.032 169.399L276.449 181.188C277.101 181.564 277.64 182.578 277.654 183.452C277.667 184.326 277.15 184.73 276.5 184.355Z" fill="#5761D7"/>
<path d="M268.012 192.603L256.298 185.84C255.646 185.463 255.107 184.45 255.093 183.575C255.078 182.701 255.595 182.296 256.247 182.673L267.961 189.436C268.613 189.812 269.152 190.827 269.166 191.701C269.18 192.575 268.664 192.98 268.012 192.603Z" fill="#5761D7"/>
<path d="M285.777 196.285L281.52 193.827C280.869 193.452 280.329 192.437 280.316 191.563C280.301 190.689 280.818 190.284 281.469 190.66L285.726 193.118C286.377 193.495 286.917 194.508 286.93 195.383C286.945 196.257 286.428 196.661 285.777 196.285Z" fill="#5761D7"/>
<path d="M313.183 323.275L326.187 315.768L339.19 323.275L326.187 330.783L313.183 323.275Z" fill="#D4ECFF"/>
<path d="M340.786 307.126L353.789 299.619L366.793 307.126L353.789 314.634L340.786 307.126Z" fill="#D4ECFF"/>
<path d="M368.306 291.362L381.309 283.854L394.313 291.362L381.309 298.869L368.306 291.362Z" fill="#D4ECFF"/>
<path d="M353.789 307.126V267.085L340.786 259.577V299.619L353.789 307.126Z" fill="#C13D1A"/>
<path d="M353.789 267.085L366.793 259.577V299.619L353.789 307.126V267.085Z" fill="#24126A"/>
<path d="M353.789 307.126V267.085L340.786 259.577V299.619L353.789 307.126Z" fill="#24126A"/>
<path d="M326.187 323.275V300.753L313.183 293.245V315.768L326.187 323.275Z" fill="#24126A"/>
<path d="M326.187 300.753L339.189 293.245V315.768L326.187 323.275V300.753Z" fill="#24126A"/>
<path d="M313.183 293.245L326.187 285.737L339.19 293.245L326.187 300.753L313.183 293.245Z" fill="#8289E8"/>
<path d="M381.309 291.362V236.305L368.306 228.797V283.854L381.309 291.362Z" fill="#24126A"/>
<path d="M381.309 236.305L394.313 228.797V283.854L381.309 291.362V236.305Z" fill="#24126A"/>
<path d="M368.306 228.797L381.309 221.29L394.313 228.797L381.309 236.305L368.306 228.797Z" fill="#8289E8"/>
<path d="M340.786 259.577L353.789 252.069L366.793 259.577L353.789 267.085L340.786 259.577Z" fill="#8289E8"/>
<path d="M117.748 148.302L127.251 142.858C127.667 142.555 128.115 142.298 128.586 142.093L128.726 142.013L128.732 142.025C131.289 140.985 134.592 141.361 138.194 143.441L167.466 160.339C175.515 164.986 182.1 176.392 182.1 185.686V219.483C182.1 224.015 180.526 227.23 177.988 228.807L178.012 228.851L167.45 234.835L161.511 224.494L138.194 211.034C130.147 206.387 123.561 194.981 123.561 185.687V158.423L117.748 148.302Z" fill="#FF4500"/>
<path d="M117.748 148.302L127.92 145.916C128.336 145.613 130.414 145.621 130.887 145.415L131.641 145.112L132.999 144.86C135.556 143.821 134.592 141.36 138.194 143.44L167.466 160.339C175.515 164.986 182.1 176.392 182.1 185.686V219.483C182.1 224.015 180.526 227.23 177.988 228.807L178.012 228.851L167.45 234.835L161.511 224.494L138.194 211.034C130.147 206.387 123.561 194.981 123.561 185.687V158.423L117.748 148.302Z" fill="#FF4500"/>
<path d="M181.542 180.817C181.897 182.471 182.1 184.11 182.1 185.686V219.483C182.1 224.015 180.526 227.23 177.988 228.807L178.012 228.851L167.45 234.835L161.511 224.494L138.194 211.034C136.827 210.245 135.506 209.247 134.249 208.11L181.542 180.817Z" fill="#FF4500"/>
<path d="M157.406 166.172C165.455 170.819 172.041 182.225 172.041 191.519V225.316C172.041 234.611 165.455 238.412 157.406 233.766L128.136 216.867C120.088 212.22 113.502 200.814 113.502 191.519V157.723C113.502 148.429 120.088 144.627 128.136 149.274L157.406 166.172Z" fill="#FF4500"/>
<path d="M113.502 157.723C113.502 148.429 120.088 144.627 128.136 149.274L157.406 166.172C165.455 170.819 172.041 182.225 172.041 191.519V225.316C172.041 234.611 165.455 238.412 157.406 233.766" fill="#EF4100"/>
<path d="M163.908 236.352H163.91C169.216 236.352 172.645 232.02 172.645 225.316V191.519C172.645 182.009 165.945 170.403 157.71 165.65L128.439 148.751C126.066 147.381 123.777 146.687 121.635 146.687C116.329 146.687 112.899 151.02 112.899 157.723V191.52C112.899 201.03 119.6 212.636 127.835 217.389L157.106 234.288C159.479 235.657 161.767 236.352 163.908 236.352ZM121.635 147.895C123.562 147.895 125.648 148.535 127.834 149.796L157.106 166.694C165.008 171.257 171.438 182.394 171.438 191.519V225.316C171.438 231.379 168.554 235.145 163.91 235.145H163.908C161.981 235.145 159.896 234.505 157.71 233.244L128.439 216.346C120.537 211.783 114.107 200.646 114.107 191.52V157.723C114.106 151.661 116.99 147.895 121.635 147.895Z" fill="#FF4500"/>
<path d="M141.134 203.684L141.117 203.667C138.583 202.205 136.863 200.656 135.859 198.929C135.635 198.546 135.343 198.25 135.05 198.08C134.757 197.911 134.465 197.871 134.243 197.997C133.795 198.246 133.792 199.073 134.239 199.838C135.688 202.338 137.938 204.444 141.109 206.275L141.126 206.285L141.149 206.299C144.32 208.13 146.574 208.624 148.034 207.804C148.484 207.555 148.485 206.73 148.04 205.962C147.815 205.579 147.523 205.283 147.23 205.113C146.937 204.944 146.644 204.902 146.419 205.027C145.407 205.589 143.691 205.155 141.157 203.692L141.134 203.684ZM147.345 201.124C148.907 202.026 150.225 201.342 150.231 199.554C150.235 197.774 148.925 195.519 147.364 194.617C145.796 193.711 144.519 194.473 144.513 196.255C144.509 198.042 145.777 200.22 147.345 201.124ZM134.916 193.949C136.484 194.855 137.802 194.17 137.807 192.383C137.812 190.602 136.501 188.347 134.933 187.442C133.373 186.541 132.096 187.302 132.09 189.083C132.086 190.87 133.354 193.046 134.916 193.949ZM127.24 170.064C128.3 170.675 129.169 170.195 129.173 168.982C129.176 167.777 128.313 166.295 127.251 165.682C126.191 165.07 125.327 165.555 125.324 166.76C125.32 167.973 126.179 169.452 127.24 170.064ZM127.259 163.075C128.886 164.015 130.292 165.884 130.994 167.829L137.959 169.978C138.047 170.005 138.135 170.044 138.222 170.095C138.711 170.377 139.157 170.993 139.306 171.638L141.983 182.93C146.486 185.658 150.712 189.428 154.006 193.657C154.863 193.392 155.938 193.556 157.104 194.23C159.879 195.832 162.135 199.712 162.126 202.874C162.12 204.825 161.25 206.051 159.932 206.328C159.984 206.813 160.012 207.291 160.01 207.752C159.998 211.706 157.975 214.22 154.3 214.825C150.78 215.412 146.127 214.163 141.2 211.319C136.267 208.47 131.628 204.354 128.117 199.709C124.465 194.874 122.454 190.029 122.465 186.075C122.469 185.67 122.494 185.265 122.54 184.862C121.14 183.031 120.215 180.705 120.221 178.68C120.23 175.516 122.493 174.248 125.27 175.85C126.471 176.545 127.579 177.664 128.442 178.97C131.518 178.542 135.417 179.465 139.596 181.599L137.439 172.5L131.446 170.647C131.281 173.041 129.454 173.953 127.233 172.67C124.91 171.329 123.029 168.087 123.038 165.44C123.046 162.8 124.938 161.735 127.259 163.075Z" fill="#FFF6F3"/>
<path d="M123.603 175.219C124.126 175.312 124.685 175.514 125.27 175.852C126.471 176.547 127.579 177.666 128.442 178.971C131.518 178.544 135.417 179.467 139.596 181.601L137.439 172.501L131.446 170.649C131.281 173.042 129.454 173.954 127.233 172.672C124.91 171.331 123.029 168.089 123.038 165.442C123.046 162.801 124.938 161.736 127.259 163.077C128.886 164.016 130.292 165.885 130.994 167.83L137.959 169.979C138.047 170.007 138.135 170.046 138.222 170.096C138.711 170.378 139.157 170.995 139.306 171.639L141.983 182.931C146.486 185.659 150.712 189.43 154.006 193.658C154.863 193.393 155.938 193.558 157.104 194.231C159.879 195.834 162.135 199.714 162.126 202.876C162.12 204.827 161.25 206.053 159.932 206.329C159.984 206.814 160.012 207.292 160.01 207.753C159.998 211.707 157.975 214.222 154.3 214.827C151.88 215.23 148.924 214.765 145.711 213.511L141.728 206.613C144.59 208.171 146.665 208.571 148.034 207.803C148.484 207.555 148.485 206.729 148.04 205.962C147.815 205.578 147.523 205.283 147.23 205.113C146.937 204.943 146.644 204.902 146.419 205.026C145.407 205.589 143.691 205.154 141.157 203.691L141.133 203.684L141.116 203.666C140.493 203.308 139.92 202.942 139.395 202.57L134.005 193.236C134.292 193.514 134.595 193.763 134.916 193.949C136.484 194.854 137.802 194.17 137.807 192.382C137.812 190.601 136.501 188.347 134.933 187.442C133.373 186.54 132.096 187.301 132.09 189.082C132.088 189.438 132.15 189.811 132.243 190.186L123.603 175.219ZM127.252 165.682C126.192 165.07 125.328 165.555 125.325 166.761C125.32 167.973 126.179 169.452 127.24 170.064C128.3 170.675 129.169 170.195 129.173 168.982C129.176 167.777 128.313 166.295 127.252 165.682ZM147.345 201.125C148.907 202.026 150.225 201.342 150.231 199.554C150.235 197.774 148.925 195.52 147.364 194.617C145.796 193.711 144.519 194.474 144.513 196.255C144.509 198.042 145.777 200.22 147.345 201.125Z" fill="#FFE2D9"/>
<path d="M201.99 68.8737L172.319 51.7435C171.732 51.4041 171.202 51.3917 170.785 51.6202C170.785 51.6179 170.788 51.6009 170.788 51.6009L167.91 53.2636C167.91 53.2636 169.184 53.7285 169.933 54.0022V75.6093C169.933 77.367 171.001 79.4097 172.319 80.1709L200.678 96.5434V99.0781L203.585 97.4041L203.569 97.3985C204.06 97.0987 204.375 96.4416 204.375 95.496V73.4353C204.377 71.6765 203.309 69.6349 201.99 68.8737Z" fill="#6767C1"/>
<path d="M199.059 98.9899L169.389 81.8596C168.07 81.0984 167.001 79.0568 167.001 77.298V55.2373C167.001 53.4796 168.07 52.6709 169.389 53.4321L199.059 70.5624C200.378 71.3236 201.447 73.3663 201.447 75.124V97.1858C201.447 98.9435 200.378 99.7511 199.059 98.9899Z" fill="#A3A7F5"/>
<path d="M178.17 74.3221C178.17 75.5991 177.274 76.116 176.168 75.478C175.063 74.8401 174.166 73.2871 174.166 72.0113C174.166 70.7343 175.062 70.2174 176.168 70.8553C177.274 71.4932 178.17 73.0462 178.17 74.3221Z" fill="white"/>
<path d="M184.235 77.8238C184.235 79.1008 183.34 79.6177 182.233 78.9797C181.128 78.3418 180.231 76.7888 180.231 75.513C180.231 74.236 181.127 73.7191 182.233 74.357C183.339 74.9949 184.235 76.5468 184.235 77.8238Z" fill="white"/>
<path d="M190.3 81.3248C190.3 82.6017 189.404 83.1186 188.298 82.4807C187.192 81.8428 186.296 80.2898 186.296 79.0139C186.296 77.737 187.192 77.2201 188.298 77.858C189.403 78.4959 190.3 80.0489 190.3 81.3248Z" fill="white"/>
<path d="M256.621 255.732L261.818 252.712C261.78 252.719 261.742 252.726 261.706 252.734C261.526 252.77 261.356 252.82 261.193 252.876C261.179 252.882 261.162 252.884 261.147 252.889L261.142 252.89C260.936 252.964 260.744 253.054 260.564 253.159L255.368 256.179C255.549 256.074 255.744 255.983 255.951 255.909C255.965 255.903 255.982 255.901 255.997 255.896C256.194 255.828 256.401 255.771 256.621 255.732Z" fill="#474EB8"/>
<path d="M285.727 296.932C285.642 297.238 285.539 297.515 285.425 297.773C285.415 297.797 285.404 297.823 285.393 297.847C285.287 298.075 285.167 298.279 285.039 298.47C284.932 298.631 284.812 298.769 284.69 298.903C284.631 298.968 284.579 299.043 284.517 299.102C284.327 299.283 284.125 299.441 283.909 299.566L289.105 296.546C289.321 296.421 289.524 296.263 289.713 296.082C289.774 296.024 289.827 295.949 289.885 295.883C290.007 295.749 290.127 295.611 290.234 295.45C290.25 295.425 290.272 295.409 290.287 295.383C290.387 295.227 290.481 295.058 290.567 294.877C290.575 294.861 290.58 294.843 290.587 294.827C290.598 294.803 290.607 294.777 290.619 294.752C290.665 294.648 290.712 294.544 290.753 294.432C290.803 294.296 290.851 294.155 290.894 294.007C290.903 293.975 290.912 293.943 290.921 293.911L285.727 296.932Z" fill="#474EB8"/>
<path d="M265.802 239.925C265.777 239.911 265.752 239.896 265.727 239.882C265.646 239.836 265.565 239.791 265.485 239.747C265.381 239.69 265.278 239.637 265.176 239.586C265.119 239.558 265.061 239.532 265.003 239.504C264.984 239.495 264.965 239.486 264.947 239.477C264.922 239.466 264.897 239.454 264.873 239.442C264.772 239.397 264.674 239.355 264.576 239.316C264.477 239.276 264.38 239.24 264.284 239.206C264.276 239.202 264.268 239.2 264.259 239.198C264.25 239.195 264.241 239.192 264.232 239.189C264.154 239.162 264.076 239.136 263.999 239.113C263.903 239.084 263.809 239.058 263.715 239.035C263.676 239.025 263.638 239.018 263.599 239.009C263.576 239.003 263.553 238.999 263.529 238.993C263.491 238.985 263.451 238.975 263.413 238.967C263.313 238.948 263.216 238.932 263.12 238.92C263.063 238.912 263.009 238.908 262.954 238.903C262.933 238.9 262.912 238.898 262.891 238.896C262.869 238.894 262.846 238.89 262.824 238.889C262.707 238.881 262.594 238.878 262.482 238.879C262.439 238.879 262.398 238.884 262.356 238.886C262.326 238.887 262.295 238.888 262.265 238.89C262.227 238.893 262.19 238.893 262.154 238.896C262.014 238.908 261.878 238.93 261.744 238.957C261.743 238.957 261.741 238.957 261.74 238.957C261.587 238.989 261.439 239.029 261.297 239.08C261.284 239.085 261.273 239.093 261.26 239.097C261.076 239.164 260.9 239.244 260.733 239.34L255.537 242.36C255.703 242.263 255.88 242.184 256.064 242.117C256.219 242.061 256.377 242.012 256.544 241.977C256.545 241.977 256.547 241.977 256.548 241.976C256.716 241.941 256.89 241.92 257.069 241.909C257.098 241.907 257.129 241.906 257.159 241.905C257.333 241.898 257.511 241.9 257.694 241.916C257.714 241.918 257.736 241.92 257.757 241.923C257.944 241.941 258.136 241.97 258.334 242.013C258.357 242.018 258.38 242.023 258.402 242.028C258.608 242.075 258.818 242.134 259.036 242.208C259.045 242.211 259.054 242.213 259.064 242.217C259.288 242.295 259.517 242.388 259.752 242.496C259.771 242.505 259.79 242.514 259.808 242.523C260.044 242.634 260.285 242.759 260.532 242.901C260.662 242.976 260.793 243.056 260.926 243.14L266.122 240.12C266.013 240.052 265.907 239.986 265.802 239.925Z" fill="#474EB8"/>
<path d="M302.575 294.688C302.579 294.584 302.581 294.477 302.581 294.37C302.582 294.262 302.58 294.153 302.578 294.042C302.576 293.968 302.571 293.894 302.568 293.819C302.568 293.807 302.567 293.795 302.567 293.783C302.566 293.758 302.564 293.733 302.563 293.707C302.556 293.595 302.547 293.481 302.536 293.365C302.525 293.25 302.512 293.132 302.497 293.015C302.481 292.893 302.464 292.769 302.443 292.644C302.437 292.6 302.428 292.553 302.42 292.508C302.417 292.491 302.414 292.475 302.411 292.458C302.399 292.393 302.389 292.328 302.377 292.263C302.352 292.131 302.325 291.998 302.295 291.863C302.265 291.725 302.233 291.585 302.198 291.444C302.165 291.311 302.13 291.178 302.093 291.042L296.897 294.062C297.032 294.555 297.136 295.027 297.214 295.478C297.218 295.495 297.22 295.511 297.223 295.528C297.298 295.973 297.347 296.398 297.369 296.802C297.37 296.814 297.37 296.825 297.37 296.838C297.392 297.242 297.389 297.625 297.36 297.987C297.36 297.993 297.359 298 297.359 298.005C297.33 298.371 297.277 298.713 297.202 299.034C297.2 299.042 297.197 299.05 297.196 299.058C297.125 299.358 297.031 299.635 296.923 299.894C296.909 299.927 296.895 299.96 296.881 299.991C296.776 300.229 296.653 300.447 296.518 300.649C296.408 300.813 296.281 300.953 296.153 301.093C296.091 301.161 296.037 301.241 295.971 301.303C295.77 301.495 295.552 301.662 295.316 301.799L300.513 298.779C300.748 298.642 300.966 298.475 301.168 298.283C301.233 298.221 301.287 298.141 301.35 298.073C301.477 297.933 301.604 297.791 301.714 297.627C301.726 297.609 301.742 297.597 301.755 297.578C301.851 297.428 301.939 297.27 302.019 297.103C302.04 297.06 302.057 297.013 302.076 296.969C302.09 296.936 302.104 296.905 302.118 296.872C302.142 296.812 302.17 296.756 302.193 296.694C302.238 296.577 302.278 296.454 302.316 296.328C302.344 296.233 302.369 296.134 302.392 296.035C302.395 296.027 302.397 296.019 302.399 296.011C302.402 296.003 302.404 295.995 302.406 295.986C302.431 295.878 302.454 295.766 302.474 295.651C302.493 295.545 302.509 295.436 302.523 295.327C302.536 295.223 302.546 295.116 302.555 295.008C302.556 294.999 302.556 294.99 302.556 294.982C302.556 294.975 302.558 294.969 302.558 294.963C302.564 294.875 302.57 294.783 302.575 294.688Z" fill="#474EB8"/>
<path d="M269.9 237.577C269.913 237.59 269.925 237.602 269.938 237.614C270.298 237.971 270.657 238.363 271.01 238.793C271.02 238.805 271.031 238.819 271.041 238.833C271.399 239.271 271.751 239.747 272.093 240.262L277.29 237.242C277.257 237.193 277.223 237.143 277.189 237.093C277.04 236.872 276.888 236.659 276.735 236.453C276.629 236.309 276.522 236.168 276.414 236.031C276.355 235.956 276.296 235.884 276.237 235.812C276.226 235.799 276.216 235.785 276.205 235.773C276.18 235.743 276.155 235.711 276.13 235.681C276.039 235.571 275.946 235.463 275.853 235.358C275.76 235.253 275.669 235.15 275.575 235.05C275.48 234.947 275.384 234.848 275.289 234.751C275.237 234.697 275.184 234.646 275.131 234.594C275.119 234.582 275.107 234.57 275.094 234.558C275.06 234.525 275.026 234.49 274.992 234.458C274.892 234.361 274.791 234.268 274.689 234.176C274.587 234.084 274.486 233.996 274.384 233.91C274.283 233.825 274.182 233.743 274.081 233.664C274.055 233.642 274.028 233.623 274.001 233.603C273.99 233.593 273.979 233.586 273.968 233.576C273.906 233.529 273.844 233.481 273.783 233.436C273.686 233.365 273.589 233.296 273.491 233.229C273.396 233.164 273.301 233.101 273.206 233.04C273.112 232.98 273.019 232.923 272.925 232.868C272.903 232.856 272.882 232.844 272.861 232.831C272.789 232.789 272.718 232.75 272.646 232.711C272.554 232.661 272.461 232.613 272.369 232.568C272.298 232.532 272.227 232.5 272.157 232.467C272.147 232.462 272.135 232.457 272.125 232.452C272.114 232.448 272.102 232.441 272.091 232.436C271.997 232.395 271.903 232.355 271.809 232.318C271.716 232.28 271.623 232.245 271.53 232.212C271.503 232.203 271.476 232.195 271.449 232.186C271.429 232.18 271.409 232.174 271.39 232.167C271.339 232.15 271.287 232.132 271.237 232.117C271.14 232.088 271.043 232.062 270.946 232.037C270.884 232.021 270.824 232.01 270.763 231.996C270.744 231.992 270.724 231.987 270.703 231.983C270.682 231.978 270.659 231.973 270.638 231.968C270.532 231.948 270.428 231.931 270.325 231.917C270.247 231.907 270.171 231.9 270.095 231.893C270.074 231.892 270.055 231.889 270.035 231.888C270.02 231.887 270.005 231.884 269.99 231.883C269.874 231.875 269.76 231.872 269.647 231.872C269.59 231.872 269.536 231.878 269.481 231.88C269.44 231.881 269.399 231.883 269.36 231.886C269.325 231.888 269.288 231.888 269.253 231.89C269.106 231.904 268.963 231.925 268.821 231.953C268.818 231.955 268.814 231.956 268.811 231.956C268.768 231.965 268.727 231.981 268.684 231.991C268.552 232.022 268.421 232.054 268.295 232.098C268.285 232.102 268.276 232.108 268.266 232.112C268.069 232.184 267.879 232.27 267.699 232.374L262.503 235.394C262.683 235.29 262.872 235.204 263.068 235.132C263.204 235.082 263.346 235.045 263.489 235.01C263.532 234.999 263.572 234.984 263.615 234.975C263.792 234.938 263.977 234.916 264.163 234.903C264.203 234.901 264.243 234.9 264.282 234.898C264.464 234.89 264.649 234.891 264.839 234.906C264.858 234.907 264.878 234.91 264.897 234.911C265.097 234.929 265.3 234.958 265.506 235.001C265.526 235.005 265.547 235.01 265.567 235.014C265.773 235.059 265.982 235.116 266.194 235.185C266.213 235.192 266.233 235.197 266.252 235.204C266.475 235.279 266.7 235.368 266.928 235.471C266.938 235.476 266.949 235.481 266.959 235.486C267.194 235.593 267.429 235.713 267.665 235.85C268.032 236.061 268.402 236.311 268.77 236.595C268.782 236.604 268.794 236.613 268.805 236.622C269.174 236.904 269.538 237.223 269.9 237.577Z" fill="#474EB8"/>
<path d="M309.623 287.109C309.623 286.996 309.621 286.881 309.618 286.766C309.617 286.72 309.613 286.674 309.611 286.628C309.61 286.605 309.609 286.583 309.608 286.561C309.606 286.514 309.604 286.468 309.601 286.421C309.594 286.307 309.585 286.194 309.574 286.08C309.564 285.966 309.55 285.851 309.535 285.734C309.533 285.716 309.53 285.697 309.528 285.679C309.526 285.664 309.523 285.649 309.521 285.634C309.509 285.551 309.498 285.467 309.485 285.382C309.466 285.266 309.446 285.147 309.423 285.029C309.403 284.921 309.381 284.811 309.357 284.7C309.356 284.695 309.354 284.689 309.353 284.683C309.352 284.679 309.352 284.675 309.351 284.671C309.325 284.551 309.297 284.431 309.267 284.311C309.238 284.193 309.207 284.075 309.173 283.956C309.151 283.876 309.127 283.795 309.103 283.714C309.099 283.698 309.094 283.682 309.09 283.666C309.083 283.643 309.076 283.62 309.069 283.596C309.033 283.476 308.994 283.355 308.954 283.234C308.918 283.125 308.879 283.015 308.839 282.904C308.812 282.831 308.783 282.756 308.756 282.682C308.75 282.668 308.746 282.654 308.74 282.639C308.732 282.618 308.724 282.596 308.715 282.574C308.672 282.463 308.628 282.352 308.582 282.241C308.534 282.128 308.486 282.014 308.436 281.901C308.398 281.813 308.356 281.724 308.315 281.636C308.309 281.624 308.304 281.611 308.298 281.599C308.29 281.582 308.283 281.565 308.274 281.548C308.219 281.43 308.161 281.312 308.102 281.194C308.041 281.072 307.978 280.948 307.912 280.825C307.886 280.776 307.856 280.729 307.83 280.68C307.763 280.558 307.692 280.437 307.621 280.315C307.545 280.184 307.476 280.053 307.395 279.921C307.322 279.8 307.243 279.679 307.165 279.558C307.147 279.53 307.13 279.502 307.11 279.473C307.096 279.45 307.082 279.427 307.066 279.403C306.892 279.139 306.709 278.875 306.515 278.612C306.476 278.557 306.435 278.503 306.394 278.449L301.198 281.469C301.454 281.808 301.691 282.15 301.914 282.492C301.933 282.522 301.95 282.55 301.97 282.579C302.131 282.832 302.28 283.083 302.424 283.335C302.494 283.456 302.566 283.578 302.632 283.699C302.8 284.006 302.959 284.313 303.102 284.619C303.108 284.631 303.113 284.643 303.119 284.655C303.275 284.992 303.417 285.327 303.544 285.659C303.55 285.674 303.554 285.688 303.56 285.701C303.686 286.032 303.797 286.361 303.895 286.685C303.899 286.701 303.904 286.716 303.908 286.732C304.006 287.059 304.089 287.383 304.158 287.702C304.159 287.708 304.161 287.713 304.162 287.719C304.23 288.036 304.284 288.347 304.326 288.653C304.328 288.668 304.33 288.683 304.331 288.697C304.371 288.998 304.397 289.291 304.412 289.58C304.413 289.602 304.414 289.624 304.415 289.646C304.427 289.935 304.429 290.218 304.416 290.49C304.416 290.5 304.415 290.511 304.414 290.521C304.4 290.788 304.375 291.048 304.339 291.299C304.336 291.323 304.332 291.346 304.329 291.371C304.293 291.609 304.245 291.838 304.188 292.06C304.18 292.091 304.172 292.121 304.164 292.152C304.105 292.367 304.036 292.574 303.958 292.772C303.942 292.811 303.925 292.85 303.908 292.889C303.847 293.033 303.778 293.169 303.707 293.302C303.665 293.38 303.624 293.459 303.579 293.533C303.533 293.61 303.48 293.679 303.429 293.751C303.315 293.915 303.19 294.069 303.057 294.209C303.005 294.265 302.954 294.321 302.898 294.373C302.709 294.55 302.51 294.71 302.29 294.838L307.486 291.818C307.706 291.69 307.906 291.53 308.094 291.353C308.15 291.301 308.201 291.245 308.253 291.189C308.386 291.048 308.511 290.895 308.625 290.73C308.653 290.689 308.689 290.66 308.717 290.618C308.738 290.585 308.755 290.547 308.775 290.513C308.821 290.438 308.861 290.36 308.903 290.282C308.938 290.215 308.979 290.155 309.012 290.085C309.045 290.016 309.073 289.942 309.103 289.869C309.12 289.83 309.137 289.792 309.153 289.752C309.164 289.723 309.178 289.697 309.188 289.668C309.239 289.533 309.285 289.393 309.327 289.251C309.339 289.212 309.348 289.171 309.359 289.132C309.367 289.102 309.375 289.072 309.383 289.041C309.396 288.987 309.412 288.935 309.425 288.88C309.454 288.753 309.48 288.625 309.503 288.494C309.511 288.447 309.517 288.399 309.524 288.352C309.528 288.329 309.532 288.305 309.535 288.28C309.541 288.237 309.549 288.194 309.555 288.151C309.569 288.035 309.582 287.917 309.592 287.797C309.6 287.699 309.606 287.6 309.61 287.5C309.61 287.491 309.611 287.482 309.612 287.473C309.612 287.463 309.614 287.454 309.615 287.445C309.619 287.336 309.621 287.223 309.623 287.109Z" fill="#474EB8"/>
<path d="M281.164 239.812C281.18 239.827 281.196 239.842 281.212 239.856C281.557 240.18 281.895 240.528 282.222 240.9C282.226 240.905 282.23 240.909 282.233 240.914C282.551 241.278 282.857 241.667 283.15 242.073C283.179 242.113 283.207 242.153 283.236 242.194C283.518 242.592 283.787 243.009 284.039 243.444C284.057 243.475 284.073 243.506 284.091 243.537C284.348 243.988 284.589 244.456 284.807 244.942C284.811 244.949 284.814 244.957 284.818 244.965C285.042 245.466 285.242 245.984 285.416 246.518C285.42 246.532 285.425 246.547 285.429 246.56C285.604 247.097 285.751 247.648 285.867 248.214L291.063 245.194C291.051 245.134 291.039 245.075 291.025 245.015C290.994 244.873 290.96 244.73 290.927 244.59C290.893 244.451 290.856 244.313 290.818 244.176C290.781 244.04 290.741 243.905 290.7 243.772C290.677 243.694 290.651 243.617 290.626 243.54C290.621 243.525 290.617 243.512 290.612 243.497C290.601 243.461 290.589 243.424 290.577 243.387C290.536 243.264 290.493 243.141 290.449 243.019C290.406 242.9 290.362 242.783 290.317 242.667C290.273 242.554 290.228 242.441 290.181 242.329C290.135 242.218 290.088 242.108 290.04 242C290.032 241.982 290.023 241.963 290.015 241.944C290.011 241.936 290.007 241.928 290.004 241.919C289.965 241.833 289.926 241.746 289.886 241.661C289.833 241.548 289.778 241.436 289.723 241.325C289.654 241.186 289.583 241.05 289.51 240.913C289.438 240.778 289.362 240.647 289.288 240.514C289.269 240.484 289.254 240.452 289.236 240.422C289.215 240.388 289.197 240.352 289.177 240.318C289.006 240.028 288.83 239.747 288.645 239.473C288.576 239.37 288.504 239.271 288.432 239.171C288.404 239.131 288.377 239.09 288.349 239.052C288.313 239.001 288.278 238.948 288.24 238.898C288.142 238.765 288.042 238.635 287.942 238.506C287.853 238.394 287.764 238.283 287.674 238.175C287.593 238.079 287.512 237.984 287.429 237.89C287.426 237.887 287.424 237.882 287.42 237.879C287.416 237.873 287.41 237.868 287.405 237.862C287.314 237.758 287.222 237.656 287.128 237.556C287.032 237.452 286.935 237.351 286.838 237.251C286.736 237.147 286.632 237.045 286.529 236.946C286.489 236.909 286.45 236.874 286.411 236.836C286.395 236.822 286.378 236.807 286.363 236.791C286.312 236.743 286.261 236.695 286.209 236.647C286.1 236.549 285.99 236.454 285.88 236.36C285.77 236.267 285.659 236.177 285.548 236.09C285.475 236.032 285.4 235.977 285.327 235.92C285.314 235.911 285.302 235.901 285.288 235.891C285.265 235.874 285.243 235.856 285.221 235.84C285.114 235.761 285.006 235.684 284.899 235.61C284.793 235.538 284.686 235.468 284.581 235.4C284.477 235.334 284.373 235.27 284.27 235.21C284.246 235.195 284.223 235.181 284.199 235.168C284.121 235.123 284.042 235.079 283.964 235.037C283.862 234.981 283.761 234.929 283.659 234.879C283.619 234.859 283.577 234.841 283.536 234.822C283.515 234.812 283.493 234.801 283.47 234.791C283.433 234.774 283.396 234.755 283.358 234.738C283.258 234.693 283.158 234.651 283.059 234.611C282.985 234.582 282.911 234.555 282.837 234.528C282.823 234.523 282.811 234.517 282.797 234.513C282.785 234.508 282.771 234.503 282.759 234.498C282.658 234.463 282.56 234.43 282.46 234.401C282.359 234.37 282.258 234.342 282.157 234.317C282.152 234.316 282.146 234.315 282.139 234.314C282.131 234.312 282.123 234.311 282.114 234.308C282.026 234.287 281.938 234.266 281.851 234.249C281.747 234.229 281.644 234.212 281.541 234.199C281.525 234.196 281.508 234.195 281.492 234.194C281.472 234.192 281.451 234.189 281.432 234.187C281.362 234.179 281.291 234.17 281.221 234.166C281.108 234.158 280.996 234.154 280.885 234.154C280.873 234.154 280.862 234.156 280.851 234.156C280.83 234.156 280.81 234.158 280.789 234.159C280.7 234.161 280.613 234.163 280.527 234.171C280.448 234.178 280.371 234.193 280.294 234.205C280.26 234.211 280.224 234.214 280.19 234.22C280.171 234.223 280.152 234.225 280.133 234.228C279.973 234.26 279.817 234.303 279.667 234.355C279.663 234.356 279.661 234.358 279.658 234.359C279.469 234.426 279.285 234.508 279.111 234.61L273.915 237.63C274.089 237.53 274.271 237.446 274.46 237.379C274.632 237.318 274.811 237.273 274.993 237.24C275.028 237.233 275.064 237.23 275.099 237.224C275.26 237.199 275.425 237.183 275.592 237.179C275.614 237.178 275.634 237.177 275.655 237.176C275.845 237.173 276.039 237.185 276.236 237.207C276.256 237.209 276.276 237.211 276.296 237.213C276.5 237.239 276.707 237.276 276.917 237.327C276.926 237.329 276.935 237.331 276.944 237.333C277.16 237.386 277.38 237.453 277.6 237.532C277.614 237.536 277.627 237.542 277.641 237.548C277.851 237.625 278.062 237.713 278.274 237.811C278.296 237.821 278.316 237.832 278.336 237.841C278.557 237.946 278.779 238.06 279 238.188C279.366 238.398 279.731 238.641 280.093 238.912C280.105 238.921 280.117 238.93 280.129 238.939C280.476 239.205 280.824 239.495 281.164 239.812Z" fill="#474EB8"/>
<path d="M309.658 273.722C309.659 273.677 309.66 273.632 309.662 273.586C309.662 273.472 309.66 273.358 309.657 273.241C309.654 273.125 309.648 273.007 309.64 272.89C309.633 272.785 309.624 272.681 309.615 272.576C309.615 272.571 309.614 272.564 309.614 272.558C309.613 272.549 309.613 272.541 309.612 272.532C309.6 272.412 309.587 272.291 309.571 272.169C309.555 272.045 309.537 271.919 309.518 271.793C309.498 271.666 309.476 271.538 309.451 271.409C309.447 271.386 309.442 271.364 309.438 271.341C309.434 271.326 309.432 271.312 309.429 271.298C309.41 271.205 309.392 271.114 309.372 271.021C309.344 270.89 309.312 270.757 309.279 270.624C309.246 270.49 309.211 270.357 309.174 270.224C309.16 270.175 309.145 270.125 309.131 270.075C309.125 270.055 309.119 270.034 309.113 270.013C309.094 269.949 309.077 269.885 309.056 269.821C309.018 269.695 308.977 269.569 308.935 269.442C308.894 269.316 308.849 269.19 308.804 269.064C308.769 268.967 308.732 268.87 308.695 268.772C308.69 268.761 308.687 268.751 308.682 268.74C308.675 268.723 308.67 268.705 308.662 268.688C308.616 268.57 308.569 268.453 308.52 268.336C308.472 268.219 308.422 268.102 308.37 267.985C308.318 267.869 308.266 267.752 308.212 267.637C308.19 267.59 308.166 267.545 308.145 267.499C308.135 267.477 308.124 267.456 308.114 267.434C308.079 267.363 308.045 267.291 308.01 267.219C307.938 267.075 307.863 266.931 307.786 266.788C307.726 266.678 307.657 266.57 307.594 266.46C307.508 266.31 307.422 266.161 307.332 266.013C307.276 265.921 307.227 265.827 307.17 265.737C307.088 265.609 307.006 265.482 306.921 265.355C306.854 265.257 306.784 265.16 306.716 265.062C306.695 265.033 306.676 265.002 306.654 264.973C306.628 264.937 306.603 264.9 306.577 264.863C306.461 264.704 306.342 264.547 306.22 264.392C306.137 264.286 306.052 264.182 305.967 264.08C305.918 264.02 305.866 263.96 305.815 263.901C305.803 263.888 305.793 263.876 305.782 263.863C305.757 263.834 305.732 263.805 305.707 263.776C305.619 263.676 305.53 263.577 305.439 263.479C305.345 263.378 305.251 263.279 305.155 263.181C305.059 263.083 304.962 262.987 304.862 262.893C304.85 262.881 304.836 262.869 304.824 262.857C304.816 262.849 304.807 262.841 304.799 262.833C304.721 262.76 304.643 262.685 304.563 262.614C304.461 262.522 304.358 262.432 304.253 262.343C304.149 262.255 304.042 262.169 303.936 262.084C303.878 262.039 303.821 261.996 303.763 261.952C303.747 261.941 303.732 261.928 303.717 261.917C303.682 261.891 303.648 261.864 303.613 261.838C303.508 261.761 303.403 261.686 303.297 261.614C303.192 261.541 303.084 261.47 302.977 261.402C302.869 261.333 302.76 261.267 302.65 261.202C302.625 261.187 302.599 261.173 302.574 261.158C302.491 261.11 302.407 261.063 302.323 261.018C302.276 260.992 302.228 260.967 302.181 260.942L296.984 263.962C297.118 264.031 297.249 264.103 297.379 264.178C297.774 264.406 298.155 264.661 298.522 264.938C298.536 264.949 298.552 264.961 298.567 264.973C298.926 265.247 299.273 265.542 299.604 265.855C299.612 265.863 299.62 265.87 299.628 265.878C299.963 266.196 300.282 266.533 300.586 266.885C300.597 266.897 300.608 266.911 300.619 266.923C300.914 267.267 301.193 267.627 301.458 267.996C301.479 268.026 301.499 268.055 301.52 268.085C301.738 268.393 301.94 268.712 302.135 269.035C302.226 269.183 302.312 269.332 302.398 269.483C302.58 269.804 302.757 270.126 302.917 270.455C302.927 270.478 302.938 270.5 302.95 270.522C303.147 270.932 303.326 271.347 303.486 271.762C303.49 271.773 303.494 271.783 303.498 271.795C303.657 272.209 303.796 272.623 303.917 273.035C303.924 273.056 303.929 273.077 303.935 273.099C304.054 273.509 304.153 273.918 304.232 274.32C304.236 274.335 304.238 274.35 304.241 274.364C304.321 274.776 304.381 275.183 304.418 275.58C304.419 275.587 304.419 275.594 304.419 275.601C304.455 275.993 304.469 276.376 304.462 276.747C304.462 276.762 304.461 276.778 304.461 276.794C304.452 277.159 304.421 277.511 304.368 277.848C304.366 277.862 304.364 277.874 304.362 277.888C304.308 278.219 304.23 278.534 304.132 278.832C304.124 278.855 304.117 278.877 304.109 278.901C304.015 279.173 303.898 279.425 303.764 279.661C303.739 279.704 303.717 279.75 303.691 279.791C303.583 279.968 303.453 280.122 303.322 280.275C303.26 280.348 303.206 280.43 303.14 280.497C302.936 280.7 302.711 280.881 302.458 281.028L307.654 278.008C307.908 277.859 308.132 277.68 308.336 277.477C308.404 277.409 308.457 277.328 308.519 277.254C308.622 277.133 308.734 277.021 308.822 276.887C308.846 276.851 308.864 276.81 308.887 276.773C308.913 276.73 308.937 276.685 308.96 276.641C309.003 276.564 309.051 276.492 309.09 276.412C309.154 276.28 309.211 276.145 309.265 276.005C309.279 275.965 309.292 275.922 309.305 275.881C309.313 275.859 309.32 275.836 309.328 275.813C309.347 275.756 309.367 275.7 309.386 275.641C309.42 275.527 309.45 275.411 309.477 275.291C309.504 275.175 309.527 275.058 309.548 274.938C309.553 274.915 309.555 274.892 309.559 274.869C309.561 274.855 309.562 274.843 309.564 274.829C309.576 274.756 309.588 274.683 309.597 274.608C309.611 274.496 309.623 274.383 309.632 274.268C309.641 274.156 309.648 274.043 309.654 273.928C309.656 273.877 309.656 273.825 309.657 273.774C309.657 273.754 309.658 273.738 309.658 273.722Z" fill="#474EB8"/>
<path d="M301.201 281.47C307.167 289.412 304.277 298.334 297.284 294.296C297.156 294.223 297.027 294.145 296.897 294.062C298.829 301.072 294.721 303.981 290.157 301.345C288.664 300.483 287.123 299.029 285.727 296.932C284.763 300.414 281.791 300.719 278.824 299.005C275.858 297.293 272.898 293.563 271.955 288.98C270.555 289.464 269.011 289.137 267.519 288.276C262.956 285.641 258.874 278.004 260.839 273.245C260.709 273.177 260.58 273.106 260.453 273.032C253.468 268.999 250.638 256.774 256.621 255.731C250.664 247.787 253.55 238.869 260.53 242.9C260.66 242.975 260.792 243.055 260.924 243.139C258.992 236.123 263.103 233.213 267.667 235.85C269.159 236.712 270.7 238.165 272.092 240.262C273.057 236.78 276.028 236.475 278.995 238.189C281.961 239.901 284.922 243.631 285.863 248.214C287.266 247.731 288.81 248.058 290.303 248.92C294.867 251.555 298.945 259.191 296.981 263.957C297.114 264.026 297.245 264.099 297.375 264.173C304.363 268.208 307.19 280.424 301.201 281.47Z" fill="#A3A7F5"/>
<path d="M302.683 258.029C302.683 258.015 302.683 258 302.683 257.986C302.682 257.959 302.683 257.932 302.682 257.905C302.678 257.796 302.674 257.688 302.666 257.579C302.659 257.471 302.65 257.361 302.64 257.252C302.631 257.155 302.619 257.058 302.607 256.961C302.606 256.955 302.606 256.949 302.605 256.944C302.604 256.936 302.604 256.929 302.602 256.922C302.588 256.809 302.572 256.695 302.554 256.58C302.536 256.466 302.515 256.352 302.494 256.237C302.471 256.119 302.448 256 302.421 255.883C302.42 255.879 302.42 255.877 302.419 255.874C302.419 255.871 302.418 255.868 302.417 255.866C302.392 255.75 302.365 255.636 302.337 255.521C302.306 255.4 302.274 255.279 302.242 255.158C302.208 255.037 302.173 254.914 302.135 254.792C302.134 254.789 302.133 254.787 302.133 254.783C302.132 254.781 302.132 254.779 302.131 254.776C302.095 254.66 302.058 254.543 302.019 254.427C301.979 254.309 301.939 254.192 301.896 254.074C301.854 253.957 301.81 253.841 301.764 253.726C301.761 253.718 301.758 253.709 301.754 253.701C301.752 253.695 301.75 253.689 301.747 253.684C301.708 253.582 301.667 253.48 301.625 253.38C301.578 253.264 301.528 253.15 301.477 253.035C301.426 252.92 301.374 252.806 301.321 252.692C301.312 252.674 301.304 252.657 301.295 252.639C301.288 252.623 301.28 252.608 301.272 252.593C301.225 252.493 301.176 252.392 301.126 252.293C301.057 252.155 300.986 252.018 300.914 251.881C300.879 251.814 300.839 251.751 300.803 251.685C300.758 251.603 300.711 251.52 300.664 251.439C300.612 251.348 300.563 251.255 300.51 251.165C300.432 251.034 300.348 250.908 300.268 250.78C300.202 250.676 300.139 250.571 300.071 250.467C300.044 250.426 300.02 250.383 299.993 250.343C299.841 250.115 299.685 249.892 299.524 249.674C299.51 249.656 299.497 249.639 299.483 249.621C299.466 249.598 299.449 249.577 299.432 249.554C299.351 249.446 299.269 249.337 299.185 249.231C299.09 249.11 298.994 248.991 298.896 248.873C298.855 248.823 298.813 248.776 298.772 248.727C298.753 248.706 298.735 248.684 298.716 248.663C298.679 248.62 298.643 248.576 298.605 248.534C298.509 248.425 298.413 248.318 298.315 248.213C298.215 248.106 298.115 248.001 298.015 247.898C298.006 247.889 297.997 247.881 297.988 247.872C297.977 247.862 297.967 247.853 297.957 247.842C297.872 247.757 297.787 247.672 297.701 247.589C297.597 247.489 297.491 247.39 297.385 247.295C297.326 247.242 297.266 247.191 297.207 247.14C297.188 247.123 297.169 247.107 297.15 247.091C297.121 247.067 297.093 247.041 297.065 247.017C296.96 246.929 296.854 246.842 296.748 246.758C296.646 246.678 296.544 246.6 296.441 246.525C296.417 246.507 296.391 246.49 296.366 246.471C296.35 246.46 296.333 246.448 296.317 246.436C296.257 246.393 296.196 246.349 296.136 246.307C296.041 246.241 295.946 246.179 295.85 246.118C295.754 246.057 295.659 245.998 295.563 245.941C295.54 245.929 295.519 245.915 295.496 245.903C295.425 245.862 295.353 245.822 295.282 245.783C295.192 245.735 295.1 245.687 295.008 245.642C294.99 245.633 294.973 245.625 294.955 245.617C294.937 245.608 294.919 245.6 294.901 245.591C294.847 245.565 294.792 245.538 294.738 245.514C294.648 245.473 294.558 245.436 294.468 245.4C294.444 245.391 294.42 245.382 294.396 245.373C294.376 245.365 294.357 245.358 294.337 245.35C294.29 245.332 294.243 245.314 294.196 245.297C294.105 245.265 294.014 245.235 293.923 245.207C293.894 245.2 293.866 245.192 293.838 245.184C293.814 245.177 293.791 245.171 293.768 245.164C293.726 245.153 293.684 245.141 293.642 245.129C293.546 245.106 293.45 245.084 293.355 245.065C293.329 245.059 293.303 245.057 293.276 245.052C293.251 245.048 293.225 245.043 293.2 245.04C293.152 245.032 293.104 245.023 293.056 245.016C292.951 245.002 292.846 244.991 292.741 244.983C292.728 244.982 292.717 244.983 292.704 244.982C292.682 244.981 292.658 244.981 292.635 244.98C292.557 244.977 292.479 244.972 292.401 244.972C292.337 244.972 292.272 244.978 292.208 244.981C292.169 244.982 292.131 244.983 292.092 244.987C292.071 244.988 292.048 244.988 292.027 244.99C291.881 245.004 291.736 245.024 291.593 245.052C291.413 245.088 291.233 245.136 291.058 245.196L285.861 248.216C286.037 248.156 286.215 248.108 286.395 248.072C286.561 248.04 286.729 248.019 286.899 248.007C286.937 248.005 286.974 248.003 287.012 248.001C287.154 247.994 287.298 247.993 287.441 248C287.464 248.001 287.487 248.001 287.509 248.002C287.673 248.013 287.838 248.033 288.005 248.06C288.03 248.065 288.056 248.068 288.081 248.072C288.245 248.102 288.409 248.139 288.573 248.184C288.596 248.191 288.619 248.197 288.642 248.204C288.808 248.251 288.973 248.307 289.139 248.369C289.16 248.377 289.18 248.384 289.2 248.391C289.369 248.457 289.538 248.531 289.707 248.611C289.724 248.619 289.742 248.627 289.759 248.635C289.94 248.723 290.121 248.818 290.301 248.922C290.577 249.081 290.852 249.261 291.123 249.456C291.139 249.467 291.155 249.478 291.171 249.49C291.435 249.681 291.697 249.889 291.953 250.11C291.973 250.127 291.992 250.143 292.011 250.16C292.266 250.382 292.517 250.616 292.762 250.863C292.771 250.872 292.781 250.881 292.79 250.891C293.039 251.143 293.281 251.408 293.518 251.683C293.537 251.706 293.556 251.727 293.575 251.75C293.802 252.015 294.021 252.291 294.234 252.575C294.251 252.598 294.269 252.621 294.286 252.643C294.489 252.917 294.684 253.201 294.873 253.489C294.941 253.592 295.004 253.697 295.069 253.801C295.206 254.019 295.34 254.238 295.466 254.461C295.513 254.542 295.559 254.624 295.604 254.706C295.77 255.006 295.927 255.308 296.074 255.615C296.081 255.629 296.089 255.645 296.095 255.66C296.258 256.005 296.41 256.354 296.548 256.705C296.55 256.711 296.552 256.716 296.555 256.722C296.694 257.079 296.82 257.439 296.931 257.799C296.932 257.801 296.932 257.803 296.933 257.804C297.044 258.165 297.139 258.526 297.219 258.886C297.219 258.888 297.22 258.891 297.22 258.894C297.299 259.252 297.36 259.609 297.404 259.962C297.405 259.969 297.405 259.975 297.406 259.982C297.449 260.328 297.474 260.67 297.481 261.008C297.481 261.022 297.481 261.036 297.482 261.051C297.488 261.381 297.475 261.707 297.444 262.024C297.441 262.042 297.44 262.062 297.438 262.08C297.404 262.398 297.353 262.71 297.281 263.013C297.276 263.03 297.272 263.046 297.267 263.063C297.191 263.37 297.096 263.67 296.978 263.959L302.174 260.939C302.199 260.877 302.224 260.815 302.247 260.753C302.3 260.612 302.348 260.469 302.391 260.323C302.418 260.23 302.441 260.137 302.464 260.043C302.469 260.026 302.474 260.01 302.477 259.993C302.481 259.975 302.487 259.958 302.49 259.94C302.519 259.818 302.544 259.694 302.565 259.571C302.586 259.456 302.602 259.34 302.617 259.224C302.624 259.17 302.629 259.114 302.634 259.06C302.636 259.042 302.638 259.022 302.64 259.004C302.643 258.966 302.649 258.927 302.652 258.888C302.661 258.777 302.668 258.665 302.674 258.553C302.678 258.446 302.681 258.338 302.682 258.231C302.685 258.163 302.684 258.096 302.683 258.029Z" fill="#474EB8"/>
<path d="M278.973 247.924C269.05 242.195 260.959 246.816 260.926 258.217C260.894 269.61 268.934 283.545 278.857 289.273C288.772 294.998 296.872 290.382 296.904 278.988C296.936 267.588 288.89 253.649 278.973 247.924ZM278.866 286.163C270.431 281.293 263.6 269.461 263.628 259.777C263.655 250.085 270.531 246.167 278.965 251.037C287.393 255.903 294.232 267.739 294.203 277.431C294.176 287.114 287.294 291.028 278.866 286.163Z" fill="white"/>
<path d="M278.942 258.895L281.28 266.146L286.881 270.136L282.724 272.141L283.811 279.135L278.902 273.126L273.968 273.453L275.091 267.734L270.958 260.943L276.564 263.424L278.942 258.895Z" fill="white"/>
<path d="M207.097 45.2905L207.313 47.8502L202.527 52.94C202.298 53.181 201.95 53.2138 201.566 53.0339C201.514 53.0113 201.462 52.9853 201.41 52.9547C201.08 52.7647 200.762 52.4322 200.525 52.0329L196.858 45.985L193.864 48.09C193.599 48.2822 193.227 48.2325 192.867 48.0255C192.544 47.8389 192.233 47.5346 191.982 47.1274C191.432 46.2452 191.387 45.2396 191.88 44.9037L195.788 42.154C196.029 41.9889 196.365 42.0047 196.712 42.1778C196.74 42.1925 196.768 42.2072 196.797 42.2242C197.154 42.43 197.448 42.7614 197.681 43.1517L201.229 49.0061L205.382 44.561L207.097 45.2905ZM208.101 42.6291L204.756 41.2085C204.024 40.8963 203.507 41.3702 203.601 42.2649C203.699 43.0815 204.262 43.9694 204.92 44.3495C204.978 44.3823 205.037 44.4117 205.095 44.4377L205.383 44.5599L207.097 45.2905L207.313 47.8502L207.341 48.1759C207.411 49.0027 207.984 49.9121 208.666 50.3069L208.799 50.3691C209.529 50.7084 210.071 50.2628 209.99 49.3737L209.606 44.8494C209.571 44.4162 209.381 43.9332 209.106 43.5125C208.872 43.1754 208.59 42.8926 208.299 42.7241C208.234 42.6868 208.167 42.654 208.101 42.6291ZM187.607 28.4103L187.541 51.5138C187.539 52.3541 188.124 53.3812 188.867 53.8098L211.621 66.9474C212.364 67.376 212.964 67.0333 212.967 66.1941C212.969 65.3401 212.372 64.3063 211.629 63.8776L190.205 51.5081L190.266 29.9463C190.268 29.1059 189.671 28.0721 188.94 27.6502C188.198 27.2204 187.609 27.5699 187.607 28.4103Z" fill="white"/>
<path d="M433.788 139.94L438.767 137.047C441.978 135.181 443.264 130.508 443.776 127.09L438.797 129.983C438.285 133.4 436.999 138.073 433.788 139.94Z" fill="#FB5B51"/>
<path d="M425.4 93.8555L420.421 96.7488C424.229 94.5353 431.225 95.6155 439.217 100.23L444.196 97.337C436.203 92.7222 429.208 91.642 425.4 93.8555Z" fill="#EF4100"/>
<path d="M457.931 133.663L462.91 130.77C464.839 129.649 465.948 127.683 465.956 124.903C465.98 116.631 456.238 104.29 444.195 97.3372L439.216 100.23C451.259 107.183 461.001 119.526 460.977 127.797C460.969 130.576 459.859 132.542 457.931 133.663Z" fill="#FB5B51"/>
<path d="M439.216 100.23C427.173 93.2776 417.394 94.3487 417.37 102.62C417.354 108.342 422.021 116.02 428.888 122.508C433.812 135.06 428.107 140.012 427.808 140.272C435.607 142.782 438.042 135.019 438.797 129.983C438.906 130.046 439.022 130.114 439.131 130.176C451.173 137.129 460.953 136.068 460.977 127.796C461 119.524 451.258 107.183 439.216 100.23Z" fill="#FF4500"/>
<path d="M446.6 119.454C446.6 120.954 447.659 122.781 448.966 123.535C450.272 124.29 451.332 123.686 451.332 122.186C451.332 120.686 450.273 118.859 448.966 118.105C447.658 117.35 446.6 117.955 446.6 119.454Z" fill="white"/>
<path d="M439.982 115.634C439.982 117.134 441.042 118.961 442.349 119.715C443.655 120.47 444.715 119.866 444.715 118.366C444.715 116.866 443.655 115.039 442.349 114.285C441.041 113.53 439.982 114.134 439.982 115.634Z" fill="white"/>
<path d="M433.365 111.814C433.365 113.313 434.425 115.14 435.731 115.894C437.038 116.649 438.098 116.045 438.098 114.545C438.098 113.045 437.038 111.219 435.731 110.464C434.424 109.711 433.365 110.315 433.365 111.814Z" fill="white"/>
<path d="M426.749 107.994C426.749 109.494 427.809 111.32 429.115 112.075C430.422 112.829 431.481 112.225 431.481 110.725C431.481 109.226 430.422 107.399 429.115 106.645C427.809 105.89 426.749 106.494 426.749 107.994Z" fill="white"/>
<defs>
<linearGradient id="paint0_linear_46_66" x1="73.6185" y1="194.312" x2="6.15378" y2="194.312" gradientUnits="userSpaceOnUse">
<stop stop-color="white"/>
<stop offset="0.2266" stop-color="#CAD6E9"/>
<stop offset="0.603" stop-color="#7897C6"/>
<stop offset="0.8698" stop-color="#446FB0"/>
<stop offset="1" stop-color="#3060A8"/>
</linearGradient>
<linearGradient id="paint1_linear_46_66" x1="413.283" y1="138.46" x2="216.556" y2="138.46" gradientUnits="userSpaceOnUse">
<stop stop-color="#C0BFF6"/>
<stop offset="0.2938" stop-color="#C5C4F7"/>
<stop offset="0.6399" stop-color="#D3D2F9"/>
<stop offset="1" stop-color="#E9E9FD"/>
</linearGradient>
<linearGradient id="paint2_linear_46_66" x1="413.282" y1="188.912" x2="379.502" y2="188.912" gradientUnits="userSpaceOnUse">
<stop stop-color="#5761D7"/>
<stop offset="0.1779" stop-color="#5C66D9"/>
<stop offset="0.3876" stop-color="#6A73DF"/>
<stop offset="0.6134" stop-color="#8289E8"/>
<stop offset="0.849" stop-color="#A3A7F5"/>
<stop offset="1" stop-color="#BCBEFF"/>
</linearGradient>
<linearGradient id="paint3_linear_46_66" x1="386.926" y1="243.958" x2="109.083" y2="243.958" gradientUnits="userSpaceOnUse">
<stop stop-color="#5761D7"/>
<stop offset="0.1779" stop-color="#5C66D9"/>
<stop offset="0.3876" stop-color="#6A73DF"/>
<stop offset="0.6134" stop-color="#8289E8"/>
<stop offset="0.849" stop-color="#A3A7F5"/>
<stop offset="1" stop-color="#BCBEFF"/>
</linearGradient>
<linearGradient id="paint4_linear_46_66" x1="293.57" y1="236.361" x2="15.5782" y2="236.361" gradientUnits="userSpaceOnUse">
<stop stop-color="#C0BFF6"/>
<stop offset="0.2938" stop-color="#C5C4F7"/>
<stop offset="0.6399" stop-color="#D3D2F9"/>
<stop offset="1" stop-color="#E9E9FD"/>
</linearGradient>
<radialGradient id="paint5_radial_46_66" cx="0" cy="0" r="1" gradientUnits="userSpaceOnUse" gradientTransform="translate(262.775 239.46) scale(175.989 175.989)">
<stop stop-color="#42E8E0"/>
<stop offset="0.1055" stop-color="#37B6BF"/>
<stop offset="0.2197" stop-color="#2C87A1"/>
<stop offset="0.338" stop-color="#235F87"/>
<stop offset="0.4587" stop-color="#1C3F72"/>
<stop offset="0.5824" stop-color="#162561"/>
<stop offset="0.7105" stop-color="#121355"/>
<stop offset="0.8458" stop-color="#10084E"/>
<stop offset="1" stop-color="#0F054C"/>
</radialGradient>
<radialGradient id="paint6_radial_46_66" cx="0" cy="0" r="1" gradientUnits="userSpaceOnUse" gradientTransform="translate(221.904 331.986) rotate(180) scale(85.569 116.482)">
<stop stop-color="#C0BFF6"/>
<stop offset="1" stop-color="#393091"/>
</radialGradient>
<linearGradient id="paint7_linear_46_66" x1="108.596" y1="232.778" x2="387.383" y2="232.778" gradientUnits="userSpaceOnUse">
<stop stop-color="#42E8E0"/>
<stop offset="0.1055" stop-color="#37B6BF"/>
<stop offset="0.2197" stop-color="#2C87A1"/>
<stop offset="0.338" stop-color="#235F87"/>
<stop offset="0.4587" stop-color="#1C3F72"/>
<stop offset="0.5824" stop-color="#162561"/>
<stop offset="0.7105" stop-color="#121355"/>
<stop offset="0.8458" stop-color="#10084E"/>
<stop offset="1" stop-color="#0F054C"/>
</linearGradient>
</defs>
</svg>
