<svg xmlns="http://www.w3.org/2000/svg" width="186" height="32" viewBox="0 0 186 32"><g fill="none" fill-rule="evenodd"><path fill="#4B6CFF" d="M9.172.433c0-.076.02-.15.058-.216.11-.193.347-.268.546-.182l.045.023 8.008 4.624c.3.174.486.494.487.841l.027 9.96v9.696c0 .085-.022.168-.065.242-.134.234-.431.314-.665.18l-8.441-4.85V.434z" transform="translate(0 .412)"/><path fill="#00DD72" d="M0 5.788c0-.085.022-.169.065-.242.134-.234.431-.314.665-.18l8.442 4.85v20.323c0 .076-.02.15-.059.216-.11.192-.347.267-.546.181l-.045-.023L.51 26.286c-.3-.173-.486-.494-.487-.84L0 15.482z" transform="translate(0 .412)"/><path fill="#C8F20F" d="M0 15.51L9.172 20.779 9.172 10.242z" transform="translate(0 .412)"/><path fill="#3DBAFE" d="M9.172 15.51L18.343 20.779 18.343 10.242z" transform="translate(0 .412) rotate(-180 13.757 15.51)"/><path fill="#FFF" fill-rule="nonzero" d="M25.495 25.714v-5.998c0-2.425.944-4.34 3.165-4.34 2.176 0 2.49 1.667 2.501 3.368v6.97h2.45v-7.223c0-2.885-.841-5.131-4.338-5.131-1.762 0-3.09.944-3.727 2.144h-.051V9.197L23.07 7.742v17.972h2.425zM37.966 30.64c1.353 0 2.349-.714 3.191-2.807l5.845-14.243-2.527-.026-3.573 9.445-3.676-9.42-2.552-.025L39.6 25.46l-.587 1.608c-.332.894-.587 1.43-1.583 1.43-.612 0-1.276-.281-1.276-.281l-.485 1.99s.945.435 2.297.435zM54.93 13.36c3.574 0 5.846 2.68 5.846 6.28 0 3.598-2.297 6.355-5.897 6.355-1.914 0-3.318-.817-4.186-2.17l-.025-.025v6.662h-2.45V13.59h2.348v1.914h.05c1.073-1.43 2.528-2.144 4.314-2.144zm-.51 1.99c-2.425 0-3.854 1.839-3.854 4.264 0 2.425 1.429 4.288 3.854 4.288s3.854-1.863 3.854-4.288c0-2.425-1.43-4.263-3.854-4.263zM68.403 13.36c3.37 0 5.743 2.4 5.743 5.794 0 .46-.076 1.072-.076 1.072h-9.343c.128 2.4 1.66 3.855 3.906 3.855 2.271 0 3.726-1.226 4.007-1.404l1.021 1.404c-.153.127-1.71 1.914-5.335 1.914-3.599 0-6.075-2.501-6.075-6.356 0-3.829 2.782-6.28 6.152-6.28zm-.077 1.761c-2.425 0-3.497 2.017-3.573 3.472h7.07c-.025-1.353-1.046-3.472-3.497-3.472zM78.5 25.714v-6.05c0-1.76.537-4.083 2.732-4.083.663 0 1.097.153 1.327.255h.102l.153-2.272s-.46-.204-1.276-.204c-1.302 0-2.4.715-2.986 2.093h-.077l.026-1.863h-2.45v12.124h2.45zM90.467 25.714L93.684 16.653 96.874 25.714 99.121 25.714 103.128 13.59 100.652 13.59 97.844 22.753 94.654 13.564 92.688 13.564 89.497 22.753 86.69 13.59 84.214 13.59 88.221 25.714zM106.135 11.114c.919 0 1.582-.638 1.582-1.506s-.663-1.506-1.582-1.506c-.945 0-1.608.638-1.608 1.506s.663 1.506 1.608 1.506zM107.36 25.714L107.36 13.59 104.91 13.59 104.91 25.714zM114.64 25.995c2.349 0 4.62-1.225 4.62-3.829 0-1.582-1.02-2.552-2.374-3.114-.51-.204-.97-.357-1.633-.587-1.2-.383-2.374-.817-2.374-1.812 0-.996.766-1.506 1.94-1.506s2.348.561 3.063 1.302l1.02-1.506c-.765-.817-1.99-1.583-4.134-1.583s-4.084 1.225-4.084 3.471c0 2.298 1.786 2.936 3.573 3.548.817.281 2.732.69 2.732 2.017s-1.2 1.736-2.323 1.736-2.553-.664-3.574-1.736l-1.174 1.43c1.02 1.327 2.68 2.17 4.722 2.17zM126.474 13.36c3.369 0 5.743 2.4 5.743 5.794 0 .46-.077 1.072-.077 1.072h-9.342c.128 2.4 1.66 3.855 3.905 3.855 2.272 0 3.727-1.226 4.008-1.404l1.02 1.404c-.152.127-1.71 1.914-5.334 1.914-3.6 0-6.075-2.501-6.075-6.356 0-3.829 2.782-6.28 6.152-6.28zm-.077 1.761c-2.425 0-3.497 2.017-3.574 3.472h7.071c-.025-1.353-1.046-3.472-3.497-3.472zM145.78 19.776c1.788 0 2.868 1.176 2.868 2.724 0 .27-.02.686-.023.767l-.001.013h-4.272c.144.912.864 1.368 1.728 1.368.715 0 1.36-.292 1.674-.526l.078-.062.6.828c-.324.336-1.2.936-2.616.936-1.752 0-3.048-1.068-3.048-2.94 0-1.86 1.356-3.108 3.012-3.108zm13.444-1.536v1.656h1.344v1.188h-1.344v2.352c0 .888.156 1.104.696 1.104.312 0 .552-.096.552-.096l.084 1.188c-.072.024-.528.192-1.176.192-1.188 0-1.68-.54-1.68-2.052v-2.688h-.864v-1.188h.864V18.24h1.524zm17.304 1.536c1.788 0 2.868 1.176 2.868 2.724 0 .27-.02.686-.023.767l-.001.013H175.1c.144.912.864 1.368 1.728 1.368.715 0 1.36-.292 1.674-.526l.078-.062.6.828c-.324.336-1.2.936-2.616.936-1.752 0-3.048-1.068-3.048-2.94 0-1.86 1.356-3.108 3.012-3.108zm6.308 0c1.032 0 1.608.276 2.088.624l-.66 1.02c-.336-.252-.828-.492-1.356-.492-.504 0-.756.192-.756.468 0 .252.192.456.84.66l.408.132c1.284.42 1.74.876 1.74 1.716 0 1.104-.876 1.92-2.304 1.92-.888 0-1.884-.36-2.352-.9l.624-1.044c.684.528 1.272.792 1.764.792.576 0 .84-.216.84-.552 0-.3-.228-.468-.972-.72l-.672-.228c-.864-.288-1.308-.804-1.308-1.656 0-1.056.96-1.74 2.076-1.74zm-19.464.108v3.108c0 .864.144 1.548 1.032 1.548.924 0 1.272-.732 1.272-1.704v-2.952h1.536v5.808h-1.488l-.012-.816c-.336.576-.96.924-1.8.924-1.668 0-2.076-1.08-2.076-2.472v-3.444h1.536zm-26.072 0l1.572 4.188 1.572-4.188h1.536l-2.388 5.808h-1.5l-2.388-5.808h1.596zm16.168-.108c1.668 0 2.088 1.08 2.088 2.472v3.444h-1.536v-3.108c0-.864-.156-1.548-1.044-1.548-.948 0-1.272.792-1.272 1.764v2.892h-1.536v-5.808h1.536l-.012.876h.036c.312-.612.9-.984 1.74-.984zm18.624 0c.396 0 .612.108.612.108l-.108 1.332h-.072c-.168-.048-.432-.072-.636-.072-.456 0-.804.192-1.02.564-.144.288-.216.684-.216 1.128v2.856h-1.524v-5.808h1.524l-.024.936h.036c.228-.624.804-1.044 1.428-1.044zm-26.324 1.14c-.858 0-1.334.553-1.427 1.238l-.013.13h2.784c-.024-.636-.264-1.368-1.344-1.368zm30.748 0c-.858 0-1.334.553-1.427 1.238l-.013.13h2.784c-.024-.636-.264-1.368-1.344-1.368z" transform="translate(0 .412)"/></g></svg>