<svg width="158" height="24" viewBox="0 0 158 24" fill="none" xmlns="http://www.w3.org/2000/svg">
<g clip-path="url(#clip0_507_1237)">
<path d="M39.1275 6.98961V10.7943H38.0798C37.0658 10.7943 36.2997 11.0376 35.804 11.5242C35.297 12.0108 35.0491 12.7629 35.0491 13.8026V19.5095H30.6665V6.98961H34.6661V8.3168C35.4772 7.29929 36.5475 6.79053 37.877 6.79053C38.3051 6.79053 38.722 6.85689 39.1275 6.98961Z" fill="white"/>
<path d="M52.7145 14.7429H44.5577C45.0309 15.694 45.9885 16.1696 47.4081 16.1696C48.5347 16.1696 49.6388 15.8488 50.7429 15.1963L52.3202 18.1272C50.8218 19.2442 49.1318 19.7972 47.2504 19.7972C45.1773 19.7972 43.4649 19.1779 42.1129 17.917C40.7609 16.6673 40.085 15.1078 40.085 13.2387C40.085 11.4028 40.7384 9.85437 42.0566 8.58248C43.3747 7.31059 44.9858 6.68018 46.8898 6.68018C48.6924 6.68018 50.1571 7.25529 51.2837 8.40552C52.4103 9.55575 52.9737 10.9604 52.9737 12.6083C52.9962 13.3382 52.9061 14.0461 52.7145 14.7429ZM44.4 11.9447H48.8389C48.8276 11.3917 48.6136 10.9382 48.208 10.5954C47.8024 10.2415 47.3067 10.0645 46.7321 10.0645C46.1688 10.0645 45.6843 10.2304 45.2787 10.5511C44.8619 10.8829 44.5802 11.3364 44.4 11.9447Z" fill="white"/>
<path d="M54.0664 17.3972L56.1056 14.8424C57.2097 15.882 58.3814 16.3908 59.6207 16.3908C60.3642 16.3908 60.7473 16.2028 60.7473 15.8378C60.7473 15.6166 60.4994 15.4064 60.0037 15.2184L58.5729 14.6433C57.266 14.1235 56.3196 13.5705 55.745 12.9622C55.1705 12.365 54.8775 11.5797 54.8775 10.6064C54.8775 9.38985 55.3282 8.42764 56.2182 7.73087C57.1083 7.03409 58.3138 6.68018 59.8234 6.68018C61.8289 6.68018 63.4287 7.28847 64.6116 8.50506L62.5499 11.1373C61.7049 10.4184 60.8036 10.0645 59.846 10.0645C59.2489 10.0645 58.9559 10.2193 58.9559 10.5401C58.9559 10.7723 59.2489 11.0046 59.8234 11.2147L61.0965 11.7124C62.4372 12.2322 63.3949 12.7742 63.9582 13.3493C64.5215 13.9244 64.8144 14.6875 64.8144 15.6387C64.8144 16.9216 64.3187 17.9392 63.3385 18.6912C62.3358 19.4212 61.074 19.7862 59.5418 19.7862C58.4039 19.7862 57.3561 19.576 56.3985 19.1668C55.4296 18.7576 54.6522 18.1604 54.0664 17.3972Z" fill="white"/>
<path d="M78.8748 8.52736C80.024 9.75501 80.5986 11.3144 80.5986 13.2167C80.5986 15.119 80.024 16.6895 78.8635 17.9282C77.7031 19.167 76.2498 19.7974 74.4809 19.7974C73.1402 19.7974 72.0474 19.4103 71.2137 18.6471V24.0001H66.8311V6.99003H70.8306V8.2951C71.608 7.22229 72.8248 6.69141 74.4697 6.69141C76.261 6.69141 77.7256 7.29971 78.8748 8.52736ZM75.3822 15.1854C75.8667 14.7098 76.1146 14.0683 76.1146 13.2499C76.1146 12.4315 75.878 11.79 75.4161 11.3144C74.9429 10.8388 74.3457 10.6066 73.6134 10.6066C72.9037 10.6066 72.3065 10.8388 71.8446 11.3034C71.3714 11.7679 71.1461 12.4094 71.1461 13.2278C71.1461 14.0462 71.3827 14.6988 71.8559 15.1743C72.3291 15.661 72.9149 15.9043 73.6134 15.9043C74.3007 15.8932 74.8978 15.661 75.3822 15.1854Z" fill="white"/>
<path d="M82.1648 13.2389C82.131 11.4583 82.807 9.90991 84.1815 8.59378C85.5559 7.28871 87.2008 6.64724 89.1048 6.68042C91.0089 6.64724 92.6537 7.28871 94.0395 8.59378C95.4253 9.89885 96.1012 11.4472 96.0674 13.2389C96.1012 15.0195 95.4253 16.5679 94.0395 17.8841C92.6537 19.1891 91.0089 19.8306 89.1048 19.7974C87.2008 19.8306 85.5672 19.1891 84.1815 17.8841C82.807 16.579 82.131 15.0306 82.1648 13.2389ZM90.8849 15.108C91.3468 14.6214 91.5722 13.991 91.5722 13.25C91.5722 12.509 91.3356 11.8785 90.8737 11.3919C90.4005 10.9053 89.8259 10.6509 89.1274 10.6509C88.3951 10.6509 87.7979 10.8942 87.3473 11.3808C86.8854 11.8675 86.66 12.4868 86.66 13.261C86.66 14.0463 86.8854 14.6767 87.3473 15.1523C87.8092 15.6278 88.3951 15.8601 89.1274 15.8601C89.8371 15.838 90.423 15.5947 90.8849 15.108Z" fill="white"/>
<path d="M110.736 11.79V19.4988H106.354V12.4204C106.354 11.8674 106.185 11.425 105.835 11.0822C105.486 10.7393 105.047 10.5734 104.495 10.5734C103.954 10.5734 103.503 10.7504 103.165 11.0822C102.827 11.425 102.658 11.8674 102.658 12.4204V19.4988H98.2754V6.99003H102.275V8.0186C103.222 7.13381 104.427 6.69141 105.869 6.69141C107.345 6.69141 108.528 7.15593 109.407 8.08496C110.286 9.00293 110.736 10.2416 110.736 11.79Z" fill="white"/>
<path d="M122.228 0.72998H126.61V19.4876H122.611V18.1825C121.833 19.2443 120.617 19.7862 118.972 19.7862C117.192 19.7862 115.727 19.1779 114.578 17.9503C113.429 16.7226 112.854 15.1632 112.854 13.2609C112.854 11.3586 113.429 9.78804 114.589 8.54934C115.738 7.31063 117.203 6.69127 118.972 6.69127C120.313 6.69127 121.405 7.07837 122.228 7.8415V0.72998ZM121.597 15.1963C122.059 14.7318 122.295 14.0903 122.295 13.2719C122.295 12.4535 122.059 11.8009 121.586 11.3254C121.112 10.8387 120.527 10.5954 119.828 10.5954C119.13 10.5954 118.544 10.8387 118.059 11.3033C117.575 11.7788 117.338 12.4203 117.338 13.2387C117.338 14.0572 117.575 14.6986 118.037 15.1742C118.499 15.6498 119.107 15.8821 119.828 15.8821C120.538 15.8931 121.135 15.6609 121.597 15.1963Z" fill="white"/>
<path d="M129.562 18.4592C129.021 17.9283 128.751 17.2537 128.751 16.4574C128.751 15.661 129.021 14.9864 129.562 14.4555C130.103 13.9246 130.801 13.6592 131.658 13.6592C132.469 13.6592 133.145 13.9246 133.686 14.4555C134.226 14.9864 134.486 15.661 134.486 16.4574C134.486 17.2537 134.215 17.9283 133.686 18.4592C133.156 18.9901 132.469 19.2555 131.658 19.2555C130.801 19.2555 130.103 18.9901 129.562 18.4592Z" fill="white"/>
<path d="M136.863 4.3576C136.345 3.87097 136.085 3.27373 136.085 2.55484C136.085 1.83594 136.345 1.23871 136.863 0.741014C137.381 0.243318 138.012 0 138.756 0C139.499 0 140.141 0.243318 140.671 0.741014C141.2 1.23871 141.459 1.83594 141.459 2.55484C141.459 3.25161 141.2 3.84885 140.671 4.34654C140.141 4.84424 139.51 5.08756 138.756 5.08756C138.012 5.08756 137.381 4.84424 136.863 4.3576ZM136.592 19.4986V6.98986H140.975V19.4986H136.592Z" fill="white"/>
<path d="M143.195 13.2389C143.161 11.4583 143.837 9.90991 145.211 8.59378C146.586 7.28871 148.231 6.64724 150.135 6.68042C152.039 6.64724 153.683 7.28871 155.069 8.59378C156.455 9.89885 157.131 11.4472 157.097 13.2389C157.131 15.0195 156.455 16.5679 155.069 17.8841C153.683 19.1891 152.039 19.8306 150.135 19.7974C148.231 19.8306 146.597 19.1891 145.211 17.8841C143.837 16.579 143.161 15.0306 143.195 13.2389ZM151.915 15.108C152.377 14.6214 152.602 13.991 152.602 13.25C152.602 12.509 152.365 11.8785 151.903 11.3919C151.441 10.9053 150.856 10.6509 150.157 10.6509C149.425 10.6509 148.828 10.8942 148.377 11.3808C147.915 11.8675 147.69 12.4868 147.69 13.261C147.69 14.0463 147.915 14.6767 148.377 15.1523C148.839 15.6278 149.425 15.8601 150.157 15.8601C150.867 15.838 151.453 15.5947 151.915 15.108Z" fill="white"/>
<path d="M9.37316 17.5189C9.86888 18.1161 9.79002 19.0119 9.18163 19.4986C8.92251 19.7087 8.60705 19.8193 8.28033 19.8193C8.23526 19.8193 8.17893 19.8193 8.13387 19.8083C7.75081 19.7751 7.41282 19.5871 7.16496 19.2995L1.27267 12.2765L1.18254 12.199V12.1659C0.731891 11.5465 0.833288 10.7059 1.41913 10.2414C1.92612 9.83221 2.61337 9.82115 3.13162 10.164L3.17668 10.1198L3.43581 10.4294L9.37316 17.5189ZM20.3803 4.30226C19.772 3.81562 18.8707 3.9041 18.3862 4.49028L13.3389 10.5179C13.3051 10.5511 13.2826 10.5732 13.2713 10.5953C12.7756 11.1926 12.8657 12.0884 13.4854 12.5751C13.7445 12.7741 14.0599 12.8847 14.3867 12.8847C14.4317 12.8847 14.4881 12.8847 14.5444 12.8737C14.9274 12.8405 15.2654 12.6525 15.5133 12.3649L20.6057 6.28198C21.0901 5.68475 20.9887 4.79996 20.3803 4.30226Z" fill="#448AFF"/>
<path d="M26.464 5.60756C26.4189 5.22047 26.2274 4.87761 25.9232 4.64535C25.619 4.40203 25.236 4.29143 24.8416 4.32461C24.4473 4.35779 24.0981 4.54581 23.8502 4.85549L14.2738 16.391L9.30541 10.4297C8.79842 9.83245 7.89711 9.74397 7.28873 10.2417C6.99581 10.485 6.81555 10.8278 6.78175 11.2039C6.74795 11.5799 6.86061 11.9449 7.10847 12.2214L13.2035 19.4988C13.4514 19.7864 13.7894 19.9633 14.1724 20.0076C14.2175 20.0076 14.2626 20.0186 14.3076 20.0186C14.6343 20.0186 14.9611 19.908 15.2202 19.6979C15.2991 19.6315 15.3667 19.5652 15.423 19.4878L26.0922 6.72461C26.1147 6.70249 26.126 6.69143 26.1485 6.66931C26.3964 6.35964 26.5091 5.9836 26.464 5.60756Z" fill="#448AFF"/>
</g>
<defs>
<clipPath id="clip0_507_1237">
<rect width="158" height="24" fill="white"/>
</clipPath>
</defs>
</svg>
