<svg width="126" height="34" viewBox="0 0 126 34" fill="none" xmlns="http://www.w3.org/2000/svg">
<g clip-path="url(#clip0_578_268)">
<g clip-path="url(#clip1_578_268)">
<g clip-path="url(#clip2_578_268)">
<path d="M20 6.91016H0V26.9102H20V6.91016Z" fill="#01C573"/>
<path d="M13.2668 19.8285L14.6356 24.0422L10.0025 20.6747L13.2668 19.8285ZM17.5 15.2285H11.7719L10.0031 9.77783L8.22812 15.2297L2.5 15.2222L7.13875 18.5953L5.36375 24.0416L10.0025 20.6747L12.8669 18.5953L17.5 15.2285Z" fill="white"/>
<path d="M45 6.91016H25V26.9102H45V6.91016Z" fill="#01C573"/>
<path d="M38.2668 19.8285L39.6356 24.0422L35.0025 20.6747L38.2668 19.8285ZM42.5 15.2285H36.7719L35.0031 9.77783L33.2281 15.2297L27.5 15.2222L32.1388 18.5953L30.3638 24.0416L35.0025 20.6747L37.8669 18.5953L42.5 15.2285Z" fill="white"/>
<path d="M70 6.91016H50V26.9102H70V6.91016Z" fill="#01C573"/>
<path d="M63.2668 19.8285L64.6356 24.0422L60.0025 20.6747L63.2668 19.8285ZM67.5 15.2285H61.7719L60.0031 9.77783L58.2281 15.2297L52.5 15.2222L57.1387 18.5953L55.3638 24.0416L60.0025 20.6747L62.8669 18.5953L67.5 15.2285Z" fill="white"/>
<path d="M95 6.91016H75V26.9102H95V6.91016Z" fill="#01C573"/>
<path d="M88.2667 19.8285L89.6358 24.0422L85.0025 20.6747L88.2667 19.8285ZM92.5 15.2285H86.7717L85.0033 9.77783L83.2281 15.2297L77.5 15.2222L82.1387 18.5953L80.3638 24.0416L85.0025 20.6747L87.8667 18.5953L92.5 15.2285Z" fill="white"/>
<path d="M120 6.91016H100V26.9102H120V6.91016Z" fill="#01C573"/>
<path d="M113.267 19.8285L114.636 24.0422L110.003 20.6747L113.267 19.8285ZM117.5 15.2285H111.772L110.003 9.77783L108.228 15.2297L102.5 15.2222L107.138 18.5953L105.363 24.0416L110.003 20.6747L112.867 18.5953L117.5 15.2285Z" fill="white"/>
</g>
</g>
</g>
<rect x="109" width="17" height="34" fill="#0D0A1A"/>
<defs>
<clipPath id="clip0_578_268">
<rect width="120" height="20" fill="white" transform="translate(0 6.91016)"/>
</clipPath>
<clipPath id="clip1_578_268">
<rect width="120" height="20" fill="white" transform="translate(0 6.91016)"/>
</clipPath>
<clipPath id="clip2_578_268">
<rect width="120" height="20" fill="white" transform="translate(0 6.91016)"/>
</clipPath>
</defs>
</svg>
