<svg xmlns="http://www.w3.org/2000/svg" width="32" height="24" viewBox="0 0 32 24" fill="none">
<path d="M30.8343 0.0561464C30.7176 -0.00449978 30.5841 -0.0165089 30.4581 0.0225208C30.3323 0.0614004 30.2293 0.146515 30.1681 0.262103L19.7319 19.9736C19.3186 20.7551 18.6908 21.394 17.9166 21.8211L17.8773 21.8428L17.7894 21.8173L17.7669 21.7768L17.4534 21.1681L17.4772 21.1179L28.3203 0.716499C28.3817 0.601061 28.394 0.468811 28.3549 0.344066C28.3157 0.219471 28.2299 0.117243 28.1133 0.0565967C27.9965 -0.00434967 27.863 -0.0163588 27.7371 0.0222206C27.6113 0.0609501 27.5081 0.145915 27.4467 0.261503L16.9707 19.972L16.9036 19.9733L16.8387 19.973L16.8068 19.9139L16.0543 18.4533L16.0805 18.4021L25.5251 0.7174C25.6523 0.479169 25.5602 0.182993 25.3195 0.0570471C25.2029 -0.00389933 25.0693 -0.0163588 24.9433 0.0220705C24.8173 0.0604997 24.7141 0.145164 24.6523 0.260602L15.5735 17.26L15.4424 17.2617L15.4101 17.2033L6.6835 0.266907C6.55977 0.0268741 6.26197 -0.0687487 6.01951 0.0535945C5.902 0.11289 5.81496 0.213917 5.77432 0.338061C5.73369 0.462206 5.7443 0.594607 5.80419 0.710945L16.8552 22.1581L16.8117 22.2531L16.7597 22.2665C16.3518 22.3627 15.9278 22.4023 15.5107 22.3857L15.4493 22.3831L15.4183 22.3274L3.86165 0.28447C3.73549 0.0439871 3.45073 -0.0627441 3.21298 0.0421858C3.08682 0.0977281 2.9922 0.199055 2.94686 0.327553C2.90138 0.456051 2.91123 0.593406 2.97462 0.714248L14.1117 21.9569L14.0107 22.068L13.9392 22.041C12.9645 21.6373 12.1566 20.9022 11.6641 19.9709L1.11153 0.260152C1.04708 0.13976 0.938517 0.0537446 0.805841 0.0177171C0.762323 0.0058581 0.718196 3.6465e-06 0.674527 3.6465e-06C0.584913 3.6465e-06 0.496815 0.0244723 0.417664 0.0722086C0.195677 0.206261 0.122288 0.498984 0.250416 0.738416L10.7907 20.4264C11.7502 22.2405 13.6308 23.3671 15.6987 23.3671C17.7666 23.3671 19.647 22.2405 20.6062 20.427L31.0422 0.715899C31.1035 0.600311 31.1154 0.46806 31.0762 0.343465C31.0369 0.21887 30.9509 0.116943 30.8342 0.0562965L30.8343 0.0561464Z" fill="#090C0A"/>
</svg>