<svg width="425" height="387" viewBox="0 0 425 387" fill="none" xmlns="http://www.w3.org/2000/svg">
<g clip-path="url(#clip0_195_5289)">
<rect width="424.567" height="386.383" rx="27.2741" fill="#0D0A1A"/>
<g opacity="0.5" filter="url(#filter0_f_195_5289)">
<rect width="500.935" height="419.112" transform="matrix(0.79866 0.601782 0.601782 -0.79866 -170.918 101.99)" fill="url(#paint0_linear_195_5289)"/>
</g>
<g opacity="0.3">
<path d="M158.637 237.084H123.391V240.693H158.637V237.084Z" fill="#18053C"/>
<path d="M193.947 264.258H168.499V267.867H193.947V264.258Z" fill="#18053C"/>
<path d="M214.799 264.258H197.911V267.867H214.799V264.258Z" fill="#18053C"/>
<path d="M258.91 264.258H218.137V267.867H258.91V264.258Z" fill="#18053C"/>
<path d="M149.988 318.908H123.788V322.517H149.988V318.908Z" fill="#18053C"/>
<path d="M190.513 237.084H165.491V240.693H190.513V237.084Z" fill="#18053C"/>
<path d="M190.512 277.844H165.49V281.453H190.512V277.844Z" fill="#18053C"/>
<path d="M163.672 291.433H152.981V295.042H163.672V291.433Z" fill="#18053C"/>
<path d="M166.302 305.221H142.289V308.83H166.302V305.221Z" fill="#18053C"/>
<path d="M203.084 305.221H169.934V308.83H203.084V305.221Z" fill="#18053C"/>
<path d="M148.809 291.534H123.788V295.143H148.809V291.534Z" fill="#18053C"/>
<path d="M138.635 305.221H123.788V308.83H138.635V305.221Z" fill="#18053C"/>
<path d="M182.72 291.534H168.713V295.143H182.72V291.534Z" fill="#18053C"/>
<path d="M148.709 264.258H123.688V267.867H148.709V264.258Z" fill="#18053C"/>
<path d="M159.356 277.845H123.688V281.454H159.356V277.845Z" fill="#18053C"/>
<path d="M229.127 237.084H197.249V240.693H229.127V237.084Z" fill="#18053C"/>
<path d="M314.238 264.258H282.359V267.867H314.238V264.258Z" fill="#18053C"/>
<path d="M272.736 277.844H240.857V281.453H272.736V277.844Z" fill="#18053C"/>
<path d="M284.584 237.083H252.706V240.692H284.584V237.083Z" fill="#18053C"/>
<path d="M235.021 277.844H216.329V281.453H235.021V277.844Z" fill="#18053C"/>
<path d="M246.69 237.084H235.021V240.693H246.69V237.084Z" fill="#18053C"/>
<path d="M208.918 277.844H197.249V281.453H208.918V277.844Z" fill="#18053C"/>
<path d="M141.644 250.671H123.39V254.279H141.644V250.671Z" fill="#18053C"/>
<path d="M186.509 319.009H172.096V322.617H186.509V319.009Z" fill="#18053C"/>
<path d="M152.018 250.671H146.124V254.279H152.018V250.671Z" fill="#18053C"/>
<path d="M315.85 250.671H267.131V254.279H315.85V250.671Z" fill="#18053C"/>
<path d="M262.63 250.671H246.69V254.279H262.63V250.671Z" fill="#18053C"/>
<path d="M278.571 264.258H262.632V267.867H278.571V264.258Z" fill="#18053C"/>
<path d="M242.471 250.671H208.557V254.279H242.471V250.671Z" fill="#18053C"/>
<path d="M203.745 250.671H192.076V254.28H203.745V250.671Z" fill="#18053C"/>
<path d="M164.469 264.258H152.801V267.867H164.469V264.258Z" fill="#18053C"/>
<path d="M166.794 319.009H155.126V322.617H166.794V319.009Z" fill="#18053C"/>
<path d="M187.627 250.671H167.297V254.28H187.627V250.671Z" fill="#18053C"/>
<path d="M281.394 265.568H237.712V305.686H281.394V265.568Z" fill="url(#paint1_linear_195_5289)"/>
<path d="M284.804 271.601V299.652C284.804 305.16 282.519 309.617 279.702 309.617H276.389V261.637H279.702C282.519 261.637 284.804 266.099 284.804 271.601Z" fill="url(#paint2_linear_195_5289)"/>
<path d="M154.306 265.568H197.988V305.686H154.306V265.568Z" fill="url(#paint3_linear_195_5289)"/>
<path d="M150.898 299.652V271.601C150.898 266.094 153.183 261.637 156.001 261.637H159.314V309.617H156.001C153.183 309.617 150.898 305.155 150.898 299.652Z" fill="url(#paint4_linear_195_5289)"/>
<path d="M270.558 285.628C270.558 310.62 253.193 331.557 229.866 337.026C225.981 337.939 221.931 338.421 217.765 338.421C213.603 338.421 209.553 337.939 205.668 337.026C182.342 331.557 164.977 310.62 164.977 285.628C164.977 256.471 188.612 232.835 217.765 232.835C225.446 232.835 232.745 234.473 239.327 237.425C248.395 241.487 256.11 248.035 261.602 256.197C267.259 264.606 270.558 274.733 270.558 285.628Z" fill="url(#paint5_linear_195_5289)"/>
<path d="M229.864 290.366V337.026C225.979 337.938 221.928 338.419 217.766 338.419C213.604 338.419 209.553 337.938 205.668 337.026V290.366H229.864Z" fill="#18053C"/>
<path d="M236.069 299.196C246.179 289.086 246.179 272.695 236.069 262.585C225.959 252.475 209.568 252.475 199.458 262.585C189.348 272.695 189.348 289.086 199.458 299.196C209.568 309.306 225.959 309.306 236.069 299.196Z" fill="#18053C"/>
<path d="M217.766 303.45C230.225 303.45 240.326 293.35 240.326 280.89C240.326 268.431 230.225 258.33 217.766 258.33C205.306 258.33 195.206 268.431 195.206 280.89C195.206 293.35 205.306 303.45 217.766 303.45Z" fill="url(#paint6_linear_195_5289)"/>
<path d="M217.768 295.514C225.844 295.514 232.392 288.967 232.392 280.89C232.392 272.814 225.844 266.266 217.768 266.266C209.691 266.266 203.144 272.814 203.144 280.89C203.144 288.967 209.691 295.514 217.768 295.514Z" fill="url(#paint7_linear_195_5289)"/>
<path d="M218.315 252.043H217.216C215.645 252.043 214.371 250.77 214.371 249.199V240.327C214.371 238.756 215.645 237.483 217.216 237.483H218.315C219.886 237.483 221.16 238.756 221.16 240.327V249.199C221.16 250.77 219.886 252.043 218.315 252.043Z" fill="url(#paint8_linear_195_5289)"/>
<path opacity="0.54" d="M233.364 269.945C233.364 273.306 230.64 276.03 227.28 276.03C223.919 276.03 221.195 273.306 221.195 269.945C221.195 266.585 223.919 263.861 227.28 263.861C230.64 263.861 233.364 266.585 233.364 269.945Z" fill="white"/>
<path d="M288.944 352.901H146.59V358.244H288.944V352.901Z" fill="url(#paint9_linear_195_5289)"/>
<path d="M301.233 370H134.299C131.348 370 128.956 367.608 128.956 364.657V362.519C128.956 359.568 131.348 357.176 134.299 357.176H301.233C304.184 357.176 306.577 359.568 306.577 362.519V364.657C306.577 367.608 304.184 370 301.233 370Z" fill="#3C1F83"/>
<path d="M217.766 242.191C218.789 242.191 219.619 241.362 219.619 240.338C219.619 239.314 218.789 238.484 217.766 238.484C216.742 238.484 215.912 239.314 215.912 240.338C215.912 241.362 216.742 242.191 217.766 242.191Z" fill="white"/>
<path d="M264.114 254.961L259.142 268.318L229.864 244.149L241.84 236.19C250.908 240.252 258.623 246.799 264.114 254.961Z" fill="url(#paint10_linear_195_5289)"/>
<path d="M171.417 254.961L176.389 268.318L205.667 244.149L193.692 236.19C184.624 240.252 176.909 246.799 171.417 254.961Z" fill="url(#paint11_linear_195_5289)"/>
<path d="M171.417 316.295L176.389 302.938L205.667 327.107L193.692 335.067C184.624 331.005 176.909 324.457 171.417 316.295Z" fill="url(#paint12_linear_195_5289)"/>
<path d="M264.114 316.295L259.142 302.938L229.864 327.107L241.84 335.067C250.908 331.005 258.623 324.457 264.114 316.295Z" fill="url(#paint13_linear_195_5289)"/>
<path opacity="0.72" d="M301.233 316.032H134.3V357.176H301.233V316.032Z" fill="url(#paint14_linear_195_5289)"/>
<path d="M295.699 207.163L259.217 207.33L259.338 233.773L259.364 239.343L264.908 233.747L295.82 233.605L295.699 207.163Z" fill="url(#paint15_linear_195_5289)"/>
<path d="M280.308 221.515C280.313 223.054 279.069 224.305 277.53 224.31C275.992 224.315 274.74 223.071 274.735 221.532C274.731 219.994 275.974 218.742 277.513 218.737C279.052 218.733 280.303 219.976 280.308 221.515Z" fill="#18053C"/>
<path d="M289.46 221.487C289.465 223.026 288.222 224.278 286.683 224.283C285.144 224.287 283.893 223.044 283.888 221.505C283.883 219.966 285.126 218.715 286.665 218.71C288.204 218.705 289.455 219.949 289.46 221.487Z" fill="#18053C"/>
<path d="M271.368 221.543C271.372 223.082 270.129 224.334 268.59 224.338C267.051 224.343 265.8 223.1 265.795 221.561C265.79 220.022 267.034 218.771 268.572 218.766C270.111 218.761 271.363 220.005 271.368 221.543Z" fill="#18053C"/>
<path d="M189.875 185.999L230.116 186.184L229.982 215.351L229.954 221.495L223.839 215.323L189.741 215.166L189.875 185.999Z" fill="url(#paint16_linear_195_5289)"/>
<path d="M206.852 201.832C206.846 203.529 208.218 204.91 209.915 204.915C211.613 204.92 212.993 203.549 212.998 201.851C213.004 200.154 211.632 198.774 209.935 198.768C208.237 198.763 206.857 200.135 206.852 201.832Z" fill="#18053C"/>
<path d="M196.757 201.8C196.752 203.498 198.123 204.878 199.82 204.883C201.518 204.889 202.898 203.517 202.904 201.82C202.909 200.122 201.537 198.742 199.84 198.737C198.143 198.731 196.762 200.103 196.757 201.8Z" fill="#18053C"/>
<path d="M216.712 201.864C216.707 203.561 218.078 204.941 219.776 204.947C221.473 204.952 222.853 203.581 222.859 201.883C222.864 200.186 221.493 198.806 219.795 198.8C218.098 198.795 216.717 200.166 216.712 201.864Z" fill="#18053C"/>
<path d="M135.798 222.541L166.745 222.683L166.642 245.114L166.62 249.838L161.918 245.092L135.695 244.971L135.798 222.541Z" fill="url(#paint17_linear_195_5289)"/>
<path d="M148.852 234.717C148.847 236.022 149.902 237.084 151.208 237.088C152.513 237.092 153.575 236.037 153.579 234.732C153.583 233.426 152.528 232.365 151.222 232.361C149.917 232.357 148.856 233.412 148.852 234.717Z" fill="#18053C"/>
<path d="M141.09 234.692C141.086 235.998 142.141 237.059 143.446 237.063C144.751 237.067 145.813 236.013 145.817 234.707C145.821 233.402 144.766 232.34 143.461 232.336C142.155 232.332 141.094 233.387 141.09 234.692Z" fill="#18053C"/>
<path d="M156.437 234.741C156.432 236.046 157.487 237.108 158.793 237.112C160.098 237.116 161.16 236.061 161.164 234.756C161.168 233.45 160.113 232.389 158.808 232.385C157.502 232.381 156.441 233.436 156.437 234.741Z" fill="#18053C"/>
<path d="M109.159 270.894L134.011 271.008L133.928 289.021L133.91 292.815L130.134 289.004L109.076 288.907L109.159 270.894Z" fill="url(#paint18_linear_195_5289)"/>
<path d="M119.644 280.672C119.64 281.72 120.487 282.573 121.536 282.576C122.584 282.579 123.436 281.732 123.44 280.684C123.443 279.636 122.596 278.783 121.548 278.78C120.499 278.777 119.647 279.624 119.644 280.672Z" fill="#18053C"/>
<path d="M113.41 280.652C113.407 281.7 114.254 282.553 115.302 282.556C116.35 282.56 117.203 281.712 117.206 280.664C117.209 279.616 116.362 278.763 115.314 278.76C114.266 278.757 113.414 279.604 113.41 280.652Z" fill="#18053C"/>
<path d="M125.733 280.691C125.73 281.739 126.577 282.592 127.625 282.595C128.674 282.599 129.526 281.751 129.529 280.703C129.533 279.655 128.686 278.802 127.637 278.799C126.589 278.796 125.737 279.643 125.733 280.691Z" fill="#18053C"/>
</g>
</g>
<defs>
<filter id="filter0_f_195_5289" x="-272.287" y="-334.108" width="855.029" height="838.92" filterUnits="userSpaceOnUse" color-interpolation-filters="sRGB">
<feFlood flood-opacity="0" result="BackgroundImageFix"/>
<feBlend mode="normal" in="SourceGraphic" in2="BackgroundImageFix" result="shape"/>
<feGaussianBlur stdDeviation="50.6844" result="effect1_foregroundBlur_195_5289"/>
</filter>
<linearGradient id="paint0_linear_195_5289" x1="500.935" y1="1.84739e-05" x2="-77.3101" y2="214.363" gradientUnits="userSpaceOnUse">
<stop stop-color="#0D0A1A"/>
<stop offset="0.716097" stop-color="#473B79" stop-opacity="0.8"/>
<stop offset="1" stop-color="#9B91C6" stop-opacity="0.8"/>
</linearGradient>
<linearGradient id="paint1_linear_195_5289" x1="259.553" y1="218.648" x2="259.553" y2="395.81" gradientUnits="userSpaceOnUse">
<stop stop-color="#3C1382"/>
<stop offset="1" stop-color="#4A3470"/>
</linearGradient>
<linearGradient id="paint2_linear_195_5289" x1="276.389" y1="285.627" x2="284.804" y2="285.627" gradientUnits="userSpaceOnUse">
<stop stop-color="#8A6AD8"/>
<stop offset="1" stop-color="#432296"/>
</linearGradient>
<linearGradient id="paint3_linear_195_5289" x1="176.147" y1="218.648" x2="176.147" y2="395.81" gradientUnits="userSpaceOnUse">
<stop stop-color="#3C1382"/>
<stop offset="1" stop-color="#4A3470"/>
</linearGradient>
<linearGradient id="paint4_linear_195_5289" x1="159.314" y1="285.627" x2="150.898" y2="285.627" gradientUnits="userSpaceOnUse">
<stop stop-color="#8A6AD8"/>
<stop offset="1" stop-color="#432296"/>
</linearGradient>
<linearGradient id="paint5_linear_195_5289" x1="217.767" y1="232.835" x2="217.767" y2="338.421" gradientUnits="userSpaceOnUse">
<stop stop-color="#8969D7"/>
<stop offset="1" stop-color="#432296"/>
</linearGradient>
<linearGradient id="paint6_linear_195_5289" x1="217.766" y1="266.337" x2="217.766" y2="332.854" gradientUnits="userSpaceOnUse">
<stop stop-color="#4A3470"/>
<stop offset="1" stop-color="#6644BC"/>
</linearGradient>
<linearGradient id="paint7_linear_195_5289" x1="217.768" y1="265.536" x2="217.768" y2="372.192" gradientUnits="userSpaceOnUse">
<stop stop-color="#18053C"/>
<stop offset="1" stop-color="#CCABE4"/>
</linearGradient>
<linearGradient id="paint8_linear_195_5289" x1="220.202" y1="251.944" x2="203.278" y2="202.061" gradientUnits="userSpaceOnUse">
<stop stop-color="#3C1382"/>
<stop offset="1" stop-color="#4A3470"/>
</linearGradient>
<linearGradient id="paint9_linear_195_5289" x1="174.595" y1="355.573" x2="334.636" y2="355.573" gradientUnits="userSpaceOnUse">
<stop stop-color="#617AE0"/>
<stop offset="1" stop-color="#B8EBFF"/>
</linearGradient>
<linearGradient id="paint10_linear_195_5289" x1="246.989" y1="220.964" x2="246.989" y2="284.353" gradientUnits="userSpaceOnUse">
<stop stop-color="#896AD7"/>
<stop offset="1" stop-color="#432296"/>
</linearGradient>
<linearGradient id="paint11_linear_195_5289" x1="188.542" y1="220.964" x2="188.542" y2="284.353" gradientUnits="userSpaceOnUse">
<stop stop-color="#896AD7"/>
<stop offset="1" stop-color="#432296"/>
</linearGradient>
<linearGradient id="paint12_linear_195_5289" x1="221.34" y1="416.558" x2="175.692" y2="284.536" gradientUnits="userSpaceOnUse">
<stop stop-color="#896AD7"/>
<stop offset="1" stop-color="#432296"/>
</linearGradient>
<linearGradient id="paint13_linear_195_5289" x1="222.391" y1="392.842" x2="268.04" y2="260.819" gradientUnits="userSpaceOnUse">
<stop stop-color="#896AD7"/>
<stop offset="0.740385" stop-color="#5535A7"/>
<stop offset="1" stop-color="#432296"/>
</linearGradient>
<linearGradient id="paint14_linear_195_5289" x1="217.767" y1="310.221" x2="217.767" y2="414.846" gradientUnits="userSpaceOnUse">
<stop stop-color="#563E94"/>
<stop offset="1" stop-color="#3A1D81"/>
</linearGradient>
<linearGradient id="paint15_linear_195_5289" x1="277.519" y1="174.392" x2="277.519" y2="258.92" gradientUnits="userSpaceOnUse">
<stop stop-color="#8A6AD8"/>
<stop offset="1" stop-color="#432296"/>
</linearGradient>
<linearGradient id="paint16_linear_195_5289" x1="209.929" y1="149.852" x2="209.929" y2="243.089" gradientUnits="userSpaceOnUse">
<stop stop-color="#8A6AD8"/>
<stop offset="1" stop-color="#432296"/>
</linearGradient>
<linearGradient id="paint17_linear_195_5289" x1="151.22" y1="194.742" x2="151.22" y2="266.445" gradientUnits="userSpaceOnUse">
<stop stop-color="#8A6AD8"/>
<stop offset="1" stop-color="#432296"/>
</linearGradient>
<linearGradient id="paint18_linear_195_5289" x1="121.543" y1="248.57" x2="121.543" y2="306.151" gradientUnits="userSpaceOnUse">
<stop stop-color="#8A6AD8"/>
<stop offset="1" stop-color="#432296"/>
</linearGradient>
<clipPath id="clip0_195_5289">
<rect width="424.567" height="386.383" rx="27.2741" fill="white"/>
</clipPath>
</defs>
</svg>
