<svg width="425" height="387" viewBox="0 0 425 387" fill="none" xmlns="http://www.w3.org/2000/svg">
<g clip-path="url(#clip0_195_5412)">
<rect width="424.567" height="386.383" rx="27.2741" fill="#0D0A1A"/>
<g opacity="0.5" filter="url(#filter0_f_195_5412)">
<rect x="638.654" y="101.99" width="500.935" height="419.112" transform="rotate(143.002 638.654 101.99)" fill="url(#paint0_linear_195_5412)"/>
</g>
<g opacity="0.2">
<path d="M96.5944 293.689L75.0273 306.225C70.4047 308.904 64.0219 308.536 56.9809 304.48L45.4856 297.837C31.4953 289.755 20.1378 270.086 20.1837 254.014C20.2144 246.024 23.0461 240.391 27.5922 237.743L49.1745 225.207C44.6131 227.855 41.7815 233.488 41.7661 241.478C41.7201 257.55 53.0624 277.219 67.0679 285.301L78.5478 291.929C85.5889 296 91.9871 296.368 96.5944 293.689Z" fill="#8A6AD8"/>
<path d="M119.217 286.189C119.186 298.97 114.656 307.97 107.37 312.195L85.7873 324.746C93.0885 320.506 97.604 311.506 97.65 298.725C97.7265 273.01 79.5728 241.585 57.1945 228.667L45.6994 222.024C34.4336 215.518 24.2242 214.937 16.8311 219.223L38.4134 206.686C45.7912 202.385 56.016 202.982 67.2816 209.487L78.7616 216.13C101.155 229.049 119.293 260.474 119.217 286.189Z" fill="#8A6AD8"/>
<path d="M57.1938 228.663C79.5734 241.584 97.7207 273.016 97.6478 298.732C97.5749 324.448 79.309 334.857 56.9294 321.936L45.4366 315.301C23.0571 302.38 4.90975 270.947 4.98264 245.232C5.05558 219.516 23.3215 209.107 45.7011 222.027L57.1938 228.663ZM56.9789 304.474C70.9734 312.554 82.3959 306.033 82.4414 289.952C82.487 273.872 71.1388 254.216 57.1443 246.136L45.6516 239.501C31.657 231.421 20.2347 237.93 20.1891 254.011C20.1435 270.092 31.4916 289.759 45.4862 297.839L56.9789 304.474Z" fill="#6644BC"/>
<path d="M77.5361 307.315L77.5974 282.366C77.6128 277.1 81.072 271.835 87.9752 267.824C101.889 259.742 124.573 259.742 138.579 267.824L175.444 289.099C182.485 293.171 185.99 298.513 185.975 303.855L185.914 328.774C185.914 323.432 182.393 318.105 175.367 314.049L138.518 292.774C124.512 284.692 101.812 284.692 87.9141 292.774C81.0108 296.784 77.5515 302.05 77.5361 307.315Z" fill="#422196"/>
<path d="M207.404 303.914L207.343 328.863C207.312 337.297 201.786 345.716 190.735 352.145C168.51 365.064 132.202 365.064 109.824 352.145L72.9744 330.855C61.7087 324.365 56.0912 315.808 56.1065 307.267L56.1831 282.348C56.1831 290.889 61.8006 299.415 73.0509 305.905L109.901 327.18C132.279 340.099 168.571 340.099 190.811 327.18C201.847 320.766 207.388 312.348 207.404 303.914Z" fill="#422196"/>
<path d="M190.544 280.319C212.924 293.24 213.042 314.263 190.808 327.184C168.574 340.105 132.279 340.105 109.9 327.184L73.0469 305.908C50.6673 292.987 50.549 271.963 72.7831 259.042C95.0173 246.121 131.312 246.121 153.692 259.042L190.544 280.319ZM125.007 318.405C139.002 326.485 161.698 326.485 175.602 318.405C189.506 310.325 189.432 297.178 175.437 289.098L138.584 267.822C124.58 259.736 101.883 259.736 87.9798 267.816C74.0761 275.896 74.1502 289.043 88.1545 297.128L125.007 318.405Z" fill="#5E37C1"/>
<path d="M97.4711 302.508C97.5766 301.29 97.6441 300.038 97.6478 298.731C97.7016 279.728 87.7925 257.623 73.5916 242.153C73.4617 242.547 73.3851 242.952 73.2403 243.342C72.922 244.2 70.305 249.505 67.6826 254.942C76.3973 264.598 82.4747 278.206 82.4412 289.952C82.4385 290.889 82.3865 291.784 82.308 292.655C83.868 294.256 85.7977 295.768 88.1553 297.129L97.4711 302.508Z" fill="#6644BC"/>
<path d="M45.6994 222.024L57.1946 228.667C77.6232 240.46 94.523 267.673 97.2558 291.888H118.867C119.085 290.079 119.212 288.186 119.217 286.189C119.294 260.474 101.155 229.049 78.7617 216.131L67.2817 209.488C56.016 202.982 45.7912 202.385 38.4134 206.686L16.8311 219.222C24.2242 214.937 34.4337 215.518 45.6994 222.024ZM221.497 365.937L199.93 378.473C195.308 381.152 188.925 380.785 181.884 376.728L170.388 370.085C156.398 362.003 145.041 342.334 145.087 326.262C145.117 318.272 147.949 312.64 152.495 309.992L174.077 297.455C169.516 300.103 166.684 305.736 166.669 313.726C166.623 329.798 177.965 349.467 191.971 357.549L203.451 364.177C210.492 368.249 216.89 368.616 221.497 365.937Z" fill="#8A6AD8"/>
<path d="M244.121 358.436C244.091 371.217 239.56 380.218 232.274 384.442L210.692 396.994C217.993 392.754 222.508 383.754 222.554 370.973C222.631 345.257 204.477 313.833 182.099 300.914L170.604 294.271C159.338 287.766 149.128 287.184 141.735 291.47L163.318 278.934C170.696 274.633 180.92 275.23 192.186 281.735L203.666 288.378C226.06 301.297 244.198 332.721 244.121 358.436Z" fill="#8A6AD8"/>
<path d="M182.097 300.91C204.477 313.831 222.624 345.264 222.551 370.979C222.478 396.695 204.212 407.104 181.833 394.184L170.34 387.548C147.96 374.627 129.813 343.195 129.886 317.479C129.959 291.763 148.225 281.354 170.604 294.275L182.097 300.91ZM181.882 376.721C195.877 384.801 207.299 378.281 207.345 362.2C207.39 346.119 196.042 326.463 182.048 318.384L170.555 311.748C156.56 303.668 145.138 310.178 145.092 326.259C145.047 342.339 156.395 362.006 170.389 370.086L181.882 376.721Z" fill="#6644BC"/>
<path d="M180.934 337.904H174.596V333.733C153.44 339.453 127.419 337.294 109.901 327.181L108.719 326.498C108.586 326.928 108.47 327.297 108.391 327.535C106.139 334.291 104.113 340.993 102.045 347.651L109.824 352.146C132.203 365.065 168.51 365.065 190.735 352.146C191.734 351.565 192.583 350.933 193.491 350.321C188.239 347.158 184.076 342.857 180.934 337.904Z" fill="#422196"/>
<path d="M125.008 318.406L112.795 311.355C111.193 318.054 109.516 323.913 108.718 326.503L109.901 327.186C127.419 337.3 153.443 339.459 174.596 333.738V321.227C174.471 320.494 174.389 319.755 174.296 319.016C160.316 326.405 138.596 326.251 125.008 318.406Z" fill="#5E37C1"/>
</g>
</g>
<defs>
<filter id="filter0_f_195_5412" x="-115.006" y="-334.108" width="855.029" height="838.92" filterUnits="userSpaceOnUse" color-interpolation-filters="sRGB">
<feFlood flood-opacity="0" result="BackgroundImageFix"/>
<feBlend mode="normal" in="SourceGraphic" in2="BackgroundImageFix" result="shape"/>
<feGaussianBlur stdDeviation="50.6844" result="effect1_foregroundBlur_195_5412"/>
</filter>
<linearGradient id="paint0_linear_195_5412" x1="1139.59" y1="101.99" x2="561.344" y2="316.353" gradientUnits="userSpaceOnUse">
<stop stop-color="#0D0A1A"/>
<stop offset="0.716097" stop-color="#473B79" stop-opacity="0.8"/>
<stop offset="1" stop-color="#9B91C6" stop-opacity="0.8"/>
</linearGradient>
<clipPath id="clip0_195_5412">
<rect width="424.567" height="386.383" rx="27.2741" fill="white"/>
</clipPath>
</defs>
</svg>
