<svg width="531" height="387" viewBox="0 0 531 387" fill="none" xmlns="http://www.w3.org/2000/svg">
<g clip-path="url(#clip0_195_6489)">
<rect width="530.027" height="386.383" rx="27.2741" fill="#0D0A1A"/>
<g opacity="0.5" filter="url(#filter0_f_195_6489)">
<rect width="500.935" height="419.112" transform="matrix(-0.79866 -0.601782 -0.601782 0.79866 695.021 225.995)" fill="url(#paint0_linear_195_6489)"/>
</g>
<g opacity="0.2">
<path d="M425.156 337.656H354.651C350.281 337.656 346.738 334.114 346.738 329.743V264.722C346.738 260.352 350.281 256.809 354.651 256.809H425.156C429.526 256.809 433.069 260.351 433.069 264.722V329.743C433.068 334.113 429.526 337.656 425.156 337.656Z" fill="url(#paint1_linear_195_6489)"/>
<path d="M433.068 263.983C433.068 260.021 429.856 256.809 425.894 256.809H353.914C349.952 256.809 346.739 260.021 346.739 263.983V266.943H433.069V263.983H433.068Z" fill="#151127"/>
<path opacity="0.5" d="M355.622 261.681C355.622 262.721 354.778 263.563 353.739 263.563C352.7 263.563 351.856 262.72 351.856 261.681C351.856 260.641 352.7 259.798 353.739 259.798C354.778 259.798 355.622 260.641 355.622 261.681Z" fill="#FAFDF8"/>
<path opacity="0.5" d="M361.741 261.68C361.741 262.721 360.897 263.563 359.858 263.563C358.819 263.563 357.976 262.72 357.976 261.68C357.976 260.64 358.819 259.798 359.858 259.798C360.897 259.798 361.741 260.64 361.741 261.68Z" fill="#FAFDF8"/>
<path opacity="0.5" d="M367.492 261.68C367.492 262.721 366.648 263.563 365.609 263.563C364.57 263.563 363.727 262.72 363.727 261.68C363.727 260.64 364.57 259.798 365.609 259.798C366.648 259.798 367.492 260.64 367.492 261.68Z" fill="#FAFDF8"/>
<path d="M378.48 280.804C379.338 282.054 379.841 283.567 379.841 285.198C379.841 289.494 376.359 292.976 372.063 292.976C367.768 292.976 364.285 289.494 364.285 285.198C364.285 280.902 367.768 277.42 372.063 277.42V272.197C364.883 272.197 359.062 278.018 359.062 285.198C359.062 292.378 364.883 298.199 372.063 298.199C379.243 298.199 385.064 292.378 385.064 285.198C385.064 282.471 384.224 279.942 382.79 277.852L378.48 280.804Z" fill="#280567"/>
<path d="M378.48 280.804L382.79 277.852C380.447 274.437 376.518 272.197 372.063 272.197V277.42C374.729 277.42 377.078 278.761 378.48 280.804Z" fill="#1C0842"/>
<path d="M372.522 286.144V285.855C372.522 285.654 372.563 285.471 372.646 285.304C372.73 285.136 372.851 285.002 373.011 284.902C373.172 284.8 373.367 284.749 373.596 284.749C373.828 284.749 374.023 284.8 374.181 284.902C374.338 285.002 374.457 285.136 374.538 285.304C374.618 285.471 374.659 285.654 374.659 285.855V286.144C374.659 286.345 374.617 286.529 374.535 286.697C374.455 286.864 374.335 286.998 374.175 287.1C374.018 287.2 373.825 287.25 373.596 287.25C373.363 287.25 373.167 287.2 373.008 287.1C372.849 286.998 372.728 286.864 372.646 286.697C372.563 286.529 372.522 286.345 372.522 286.144ZM373.07 285.855V286.144C373.07 286.311 373.109 286.46 373.188 286.593C373.267 286.723 373.403 286.789 373.596 286.789C373.784 286.789 373.916 286.723 373.993 286.593C374.072 286.46 374.111 286.311 374.111 286.144V285.855C374.111 285.688 374.074 285.54 373.998 285.409C373.923 285.277 373.789 285.21 373.596 285.21C373.408 285.21 373.273 285.277 373.191 285.409C373.11 285.54 373.07 285.688 373.07 285.855ZM369.785 282.999V282.709C369.785 282.509 369.826 282.325 369.908 282.159C369.992 281.991 370.114 281.857 370.273 281.756C370.434 281.654 370.629 281.603 370.858 281.603C371.091 281.603 371.286 281.654 371.443 281.756C371.601 281.857 371.72 281.991 371.8 282.159C371.881 282.325 371.921 282.509 371.921 282.709V282.999C371.921 283.199 371.88 283.384 371.798 283.552C371.717 283.718 371.597 283.852 371.438 283.954C371.281 284.055 371.087 284.105 370.858 284.105C370.626 284.105 370.43 284.055 370.271 283.954C370.111 283.852 369.991 283.718 369.908 283.552C369.826 283.384 369.785 283.199 369.785 282.999ZM370.332 282.709V282.999C370.332 283.165 370.372 283.315 370.45 283.447C370.529 283.578 370.665 283.643 370.858 283.643C371.046 283.643 371.179 283.578 371.255 283.447C371.334 283.315 371.374 283.165 371.374 282.999V282.709C371.374 282.543 371.336 282.394 371.261 282.264C371.186 282.131 371.052 282.065 370.858 282.065C370.67 282.065 370.535 282.131 370.453 282.264C370.373 282.394 370.332 282.543 370.332 282.709ZM369.989 287.175L373.768 281.679H374.379L370.601 287.175H369.989Z" fill="#1C0842"/>
<path d="M407.743 272.197V277.42C412.039 277.42 415.521 280.902 415.521 285.198H420.744C420.744 278.018 414.923 272.197 407.743 272.197Z" fill="#1C0842"/>
<path d="M407.743 292.976C403.447 292.976 399.965 289.494 399.965 285.198C399.965 280.902 403.447 277.42 407.743 277.42V272.197C400.563 272.197 394.742 278.018 394.742 285.198C394.742 292.378 400.563 298.199 407.743 298.199C414.923 298.199 420.744 292.378 420.744 285.198H415.521C415.521 289.494 412.039 292.976 407.743 292.976Z" fill="#280567"/>
<path d="M408.057 286.144V285.855C408.057 285.654 408.099 285.471 408.181 285.304C408.265 285.136 408.387 285.002 408.546 284.902C408.707 284.8 408.902 284.749 409.131 284.749C409.364 284.749 409.559 284.8 409.716 284.902C409.873 285.002 409.992 285.136 410.073 285.304C410.153 285.471 410.194 285.654 410.194 285.855V286.144C410.194 286.345 410.153 286.529 410.07 286.697C409.99 286.864 409.87 286.998 409.711 287.1C409.553 287.2 409.36 287.25 409.131 287.25C408.898 287.25 408.702 287.2 408.543 287.1C408.384 286.998 408.263 286.864 408.181 286.697C408.099 286.529 408.057 286.345 408.057 286.144ZM408.605 285.855V286.144C408.605 286.311 408.644 286.46 408.723 286.593C408.802 286.723 408.938 286.789 409.131 286.789C409.319 286.789 409.451 286.723 409.528 286.593C409.607 286.46 409.646 286.311 409.646 286.144V285.855C409.646 285.688 409.609 285.54 409.534 285.409C409.458 285.277 409.324 285.21 409.131 285.21C408.943 285.21 408.808 285.277 408.726 285.409C408.645 285.54 408.605 285.688 408.605 285.855ZM405.32 282.999V282.709C405.32 282.509 405.361 282.325 405.443 282.159C405.527 281.991 405.649 281.857 405.808 281.756C405.969 281.654 406.164 281.603 406.393 281.603C406.626 281.603 406.821 281.654 406.979 281.756C407.136 281.857 407.255 281.991 407.335 282.159C407.416 282.325 407.456 282.509 407.456 282.709V282.999C407.456 283.199 407.415 283.384 407.333 283.552C407.252 283.718 407.132 283.852 406.973 283.954C406.816 284.055 406.622 284.105 406.393 284.105C406.161 284.105 405.965 284.055 405.806 283.954C405.646 283.852 405.526 283.718 405.443 283.552C405.361 283.384 405.32 283.199 405.32 282.999ZM405.867 282.709V282.999C405.867 283.165 405.907 283.315 405.985 283.447C406.064 283.578 406.2 283.643 406.393 283.643C406.581 283.643 406.714 283.578 406.791 283.447C406.869 283.315 406.909 283.165 406.909 282.999V282.709C406.909 282.543 406.871 282.394 406.796 282.264C406.721 282.131 406.587 282.065 406.393 282.065C406.206 282.065 406.07 282.131 405.988 282.264C405.908 282.394 405.867 282.543 405.867 282.709ZM405.524 287.175L409.303 281.679H409.915L406.136 287.175H405.524Z" fill="#1C0842"/>
<path d="M379.842 317.243C379.842 319.447 378.921 321.432 377.448 322.848L381.253 326.439C383.608 324.087 385.064 320.835 385.064 317.244C385.064 310.064 379.244 304.243 372.063 304.243V309.466C376.359 309.465 379.842 312.947 379.842 317.243Z" fill="#1C0842"/>
<path d="M377.449 322.847C376.051 324.191 374.156 325.021 372.064 325.021C367.768 325.021 364.286 321.539 364.286 317.243C364.286 312.947 367.768 309.465 372.064 309.465V304.242C364.884 304.242 359.063 310.063 359.063 317.243C359.063 324.423 364.884 330.244 372.064 330.244C375.653 330.244 378.902 328.789 381.255 326.438L377.449 322.847Z" fill="#280567"/>
<path d="M372.522 317.502V317.212C372.522 317.012 372.563 316.828 372.646 316.662C372.73 316.494 372.851 316.359 373.011 316.259C373.172 316.157 373.367 316.106 373.596 316.106C373.828 316.106 374.023 316.157 374.181 316.259C374.338 316.359 374.457 316.494 374.538 316.662C374.618 316.828 374.659 317.012 374.659 317.212V317.502C374.659 317.702 374.617 317.887 374.535 318.055C374.455 318.221 374.335 318.355 374.175 318.457C374.018 318.558 373.825 318.608 373.596 318.608C373.363 318.608 373.167 318.558 373.008 318.457C372.849 318.355 372.728 318.221 372.646 318.055C372.563 317.887 372.522 317.702 372.522 317.502ZM373.07 317.212V317.502C373.07 317.668 373.109 317.818 373.188 317.95C373.267 318.081 373.403 318.146 373.596 318.146C373.784 318.146 373.916 318.081 373.993 317.95C374.072 317.818 374.111 317.668 374.111 317.502V317.212C374.111 317.046 374.074 316.897 373.998 316.767C373.923 316.634 373.789 316.568 373.596 316.568C373.408 316.568 373.273 316.634 373.191 316.767C373.11 316.897 373.07 317.046 373.07 317.212ZM369.785 314.356V314.067C369.785 313.866 369.826 313.683 369.908 313.516C369.992 313.348 370.114 313.214 370.273 313.114C370.434 313.012 370.629 312.961 370.858 312.961C371.091 312.961 371.286 313.012 371.443 313.114C371.601 313.214 371.72 313.348 371.8 313.516C371.881 313.683 371.921 313.866 371.921 314.067V314.356C371.921 314.557 371.88 314.741 371.798 314.909C371.717 315.076 371.597 315.21 371.438 315.312C371.281 315.412 371.087 315.462 370.858 315.462C370.626 315.462 370.43 315.412 370.271 315.312C370.111 315.21 369.991 315.076 369.908 314.909C369.826 314.741 369.785 314.557 369.785 314.356ZM370.332 314.067V314.356C370.332 314.523 370.372 314.672 370.45 314.805C370.529 314.935 370.665 315.001 370.858 315.001C371.046 315.001 371.179 314.935 371.255 314.805C371.334 314.672 371.374 314.523 371.374 314.356V314.067C371.374 313.9 371.336 313.752 371.261 313.621C371.186 313.489 371.052 313.422 370.858 313.422C370.67 313.422 370.535 313.489 370.453 313.621C370.373 313.752 370.332 313.9 370.332 314.067ZM369.989 318.532L373.768 313.036H374.379L370.601 318.532H369.989Z" fill="#1C0842"/>
<path d="M407.743 304.242V309.465C412.039 309.465 415.521 312.947 415.521 317.243C415.521 321.539 412.039 325.021 407.743 325.021V330.244C414.923 330.244 420.744 324.423 420.744 317.243C420.744 310.063 414.923 304.242 407.743 304.242Z" fill="#1C0842"/>
<path d="M399.965 317.243C399.965 312.947 403.447 309.465 407.743 309.465V304.242C400.563 304.242 394.742 310.063 394.742 317.243C394.742 324.423 400.563 330.244 407.743 330.244V325.021C403.447 325.021 399.965 321.539 399.965 317.243Z" fill="#280567"/>
<path d="M408.057 317.502V317.212C408.057 317.012 408.099 316.828 408.181 316.662C408.265 316.494 408.387 316.359 408.546 316.259C408.707 316.157 408.902 316.106 409.131 316.106C409.364 316.106 409.559 316.157 409.716 316.259C409.873 316.359 409.992 316.494 410.073 316.662C410.153 316.828 410.194 317.012 410.194 317.212V317.502C410.194 317.702 410.153 317.887 410.07 318.055C409.99 318.221 409.87 318.355 409.711 318.457C409.553 318.558 409.36 318.608 409.131 318.608C408.898 318.608 408.702 318.558 408.543 318.457C408.384 318.355 408.263 318.221 408.181 318.055C408.099 317.887 408.057 317.702 408.057 317.502ZM408.605 317.212V317.502C408.605 317.668 408.644 317.818 408.723 317.95C408.802 318.081 408.938 318.146 409.131 318.146C409.319 318.146 409.451 318.081 409.528 317.95C409.607 317.818 409.646 317.668 409.646 317.502V317.212C409.646 317.046 409.609 316.897 409.534 316.767C409.458 316.634 409.324 316.568 409.131 316.568C408.943 316.568 408.808 316.634 408.726 316.767C408.645 316.897 408.605 317.046 408.605 317.212ZM405.32 314.356V314.067C405.32 313.866 405.361 313.683 405.443 313.516C405.527 313.348 405.649 313.214 405.808 313.114C405.969 313.012 406.164 312.961 406.393 312.961C406.626 312.961 406.821 313.012 406.979 313.114C407.136 313.214 407.255 313.348 407.335 313.516C407.416 313.683 407.456 313.866 407.456 314.067V314.356C407.456 314.557 407.415 314.741 407.333 314.909C407.252 315.076 407.132 315.21 406.973 315.312C406.816 315.412 406.622 315.462 406.393 315.462C406.161 315.462 405.965 315.412 405.806 315.312C405.646 315.21 405.526 315.076 405.443 314.909C405.361 314.741 405.32 314.557 405.32 314.356ZM405.867 314.067V314.356C405.867 314.523 405.907 314.672 405.985 314.805C406.064 314.935 406.2 315.001 406.393 315.001C406.581 315.001 406.714 314.935 406.791 314.805C406.869 314.672 406.909 314.523 406.909 314.356V314.067C406.909 313.9 406.871 313.752 406.796 313.621C406.721 313.489 406.587 313.422 406.393 313.422C406.206 313.422 406.07 313.489 405.988 313.621C405.908 313.752 405.867 313.9 405.867 314.067ZM405.524 318.532L409.303 313.036H409.915L406.136 318.532H405.524Z" fill="#1C0842"/>
<path d="M208.026 275.793H106.1C101.73 275.793 98.1875 272.25 98.1875 267.88V202.101C98.1875 197.731 101.73 194.188 106.1 194.188H208.027C212.397 194.188 215.94 197.731 215.94 202.101V267.88C215.939 272.25 212.396 275.793 208.026 275.793Z" fill="url(#paint2_linear_195_6489)"/>
<path d="M215.939 201.055C215.939 196.964 212.622 193.646 208.53 193.646H105.596C101.505 193.646 98.1875 196.964 98.1875 201.055V204.176H215.939V201.055Z" fill="#151127"/>
<path opacity="0.5" d="M108.778 199.599C108.778 200.639 107.935 201.482 106.895 201.482C105.856 201.482 105.013 200.638 105.013 199.599C105.013 198.56 105.856 197.717 106.895 197.717C107.935 197.717 108.778 198.56 108.778 199.599Z" fill="url(#paint3_linear_195_6489)"/>
<path opacity="0.5" d="M114.897 199.599C114.897 200.639 114.054 201.482 113.014 201.482C111.975 201.482 111.132 200.638 111.132 199.599C111.132 198.56 111.975 197.717 113.014 197.717C114.054 197.717 114.897 198.56 114.897 199.599Z" fill="url(#paint4_linear_195_6489)"/>
<path opacity="0.5" d="M120.648 199.599C120.648 200.639 119.805 201.482 118.765 201.482C117.725 201.482 116.883 200.638 116.883 199.599C116.883 198.56 117.726 197.717 118.765 197.717C119.805 197.717 120.648 198.56 120.648 199.599Z" fill="url(#paint5_linear_195_6489)"/>
<path d="M115.233 226.131C119.431 226.131 122.834 222.727 122.834 218.529C122.834 214.331 119.431 210.927 115.233 210.927C111.034 210.927 107.631 214.331 107.631 218.529C107.631 222.727 111.034 226.131 115.233 226.131Z" fill="#351967"/>
<path d="M118.041 217.085C118.041 218.637 116.784 219.894 115.233 219.894C113.681 219.894 112.424 218.637 112.424 217.085C112.424 215.534 113.681 214.277 115.233 214.277C116.784 214.277 118.041 215.534 118.041 217.085Z" fill="url(#paint6_linear_195_6489)"/>
<path d="M115.233 226.13C117.41 226.13 119.371 225.214 120.757 223.748C120.594 222.105 119.718 220.673 118.441 219.767C117.674 220.684 116.522 221.267 115.233 221.267C113.944 221.267 112.792 220.684 112.025 219.767C110.747 220.672 109.871 222.105 109.709 223.748C111.094 225.214 113.057 226.13 115.233 226.13Z" fill="url(#paint7_linear_195_6489)"/>
<path d="M115.233 226.131C119.431 226.131 122.834 222.727 122.834 218.529C122.834 214.331 119.431 210.927 115.233 210.927C111.034 210.927 107.631 214.331 107.631 218.529C107.631 222.727 111.034 226.131 115.233 226.131Z" stroke="#27006D" stroke-width="0.820299" stroke-miterlimit="10"/>
<path d="M199.43 222.984H132.862C130.401 222.984 128.407 220.989 128.407 218.528C128.407 216.067 130.402 214.073 132.862 214.073H199.43C201.89 214.073 203.885 216.068 203.885 218.528C203.885 220.99 201.89 222.984 199.43 222.984Z" fill="#351967"/>
<path d="M132.862 214.073C130.401 214.073 128.407 216.068 128.407 218.528C128.407 220.989 130.402 222.984 132.862 222.984H167.971V214.073H132.862Z" fill="#27006D"/>
<path d="M115.233 247.453C119.431 247.453 122.834 244.049 122.834 239.851C122.834 235.653 119.431 232.249 115.233 232.249C111.034 232.249 107.631 235.653 107.631 239.851C107.631 244.049 111.034 247.453 115.233 247.453Z" fill="#351967"/>
<path d="M118.041 238.408C118.041 239.959 116.784 241.217 115.233 241.217C113.681 241.217 112.424 239.959 112.424 238.408C112.424 236.857 113.681 235.6 115.233 235.6C116.784 235.599 118.041 236.856 118.041 238.408Z" fill="url(#paint8_linear_195_6489)"/>
<path d="M115.233 247.453C117.41 247.453 119.371 246.536 120.757 245.07C120.594 243.428 119.718 241.995 118.441 241.089C117.674 242.006 116.522 242.589 115.233 242.589C113.944 242.589 112.792 242.006 112.025 241.089C110.747 241.994 109.871 243.428 109.709 245.07C111.094 246.536 113.057 247.453 115.233 247.453Z" fill="url(#paint9_linear_195_6489)"/>
<path d="M115.233 247.453C119.431 247.453 122.834 244.049 122.834 239.851C122.834 235.653 119.431 232.249 115.233 232.249C111.034 232.249 107.631 235.653 107.631 239.851C107.631 244.049 111.034 247.453 115.233 247.453Z" stroke="#27006D" stroke-width="0.820299" stroke-miterlimit="10"/>
<path d="M199.43 244.307H132.862C130.401 244.307 128.407 242.312 128.407 239.851C128.407 237.39 130.402 235.396 132.862 235.396H199.43C201.89 235.396 203.885 237.391 203.885 239.851C203.885 242.312 201.89 244.307 199.43 244.307Z" fill="#351967"/>
<path d="M132.862 235.396C130.401 235.396 128.407 237.391 128.407 239.851C128.407 242.312 130.402 244.307 132.862 244.307H184.94V235.396H132.862Z" fill="#27006D"/>
<path d="M115.233 269.075C119.431 269.075 122.834 265.672 122.834 261.473C122.834 257.275 119.431 253.872 115.233 253.872C111.034 253.872 107.631 257.275 107.631 261.473C107.631 265.672 111.034 269.075 115.233 269.075Z" fill="#351967"/>
<path d="M118.041 260.03C118.041 261.582 116.784 262.839 115.233 262.839C113.681 262.839 112.424 261.582 112.424 260.03C112.424 258.479 113.681 257.222 115.233 257.222C116.784 257.221 118.041 258.479 118.041 260.03Z" fill="url(#paint10_linear_195_6489)"/>
<path d="M115.233 269.076C117.41 269.076 119.371 268.16 120.757 266.693C120.594 265.05 119.718 263.618 118.441 262.712C117.674 263.629 116.522 264.212 115.233 264.212C113.944 264.212 112.792 263.629 112.025 262.712C110.747 263.618 109.871 265.051 109.709 266.693C111.094 268.159 113.057 269.076 115.233 269.076Z" fill="url(#paint11_linear_195_6489)"/>
<path d="M115.233 269.075C119.431 269.075 122.834 265.672 122.834 261.473C122.834 257.275 119.431 253.872 115.233 253.872C111.034 253.872 107.631 257.275 107.631 261.473C107.631 265.672 111.034 269.075 115.233 269.075Z" stroke="#27006D" stroke-width="0.820299" stroke-miterlimit="10"/>
<path d="M199.43 265.929H132.862C130.401 265.929 128.407 263.934 128.407 261.473C128.407 259.012 130.402 257.018 132.862 257.018H199.43C201.89 257.018 203.885 259.013 203.885 261.473C203.885 263.934 201.89 265.929 199.43 265.929Z" fill="#351967"/>
<path d="M132.862 257.018C130.401 257.018 128.407 259.013 128.407 261.473C128.407 263.934 130.402 265.929 132.862 265.929H197.207V257.018H132.862Z" fill="#27006D"/>
<path d="M350.824 362.746H190.089C186.431 362.746 183.466 359.78 183.466 356.123V230.525C183.466 226.867 186.431 223.902 190.089 223.902H350.824C354.482 223.902 357.447 226.867 357.447 230.525V356.123C357.447 359.78 354.482 362.746 350.824 362.746Z" fill="url(#paint12_linear_195_6489)"/>
<path d="M337.122 349.37L323.405 281.137L309.881 327.078L296.404 254.324L282.611 317.051L269.133 327.078L256.012 305.482L242.138 316.428L228.62 284.349L215.142 297.015L203.944 264.721L203.752 349.337L337.122 349.37Z" fill="#280070"/>
<path d="M346.308 350.158H203.752C203.299 350.158 202.932 349.791 202.932 349.337V251.069C202.932 250.616 203.299 250.249 203.752 250.249C204.205 250.249 204.572 250.616 204.572 251.069V348.517H346.309C346.763 348.517 347.13 348.884 347.13 349.337C347.129 349.791 346.762 350.158 346.308 350.158Z" fill="#1C0842"/>
<path d="M203.389 256.703H200.056C199.603 256.703 199.235 256.336 199.235 255.883C199.235 255.43 199.603 255.062 200.056 255.062H203.389C203.841 255.062 204.209 255.43 204.209 255.883C204.209 256.336 203.841 256.703 203.389 256.703Z" fill="#1C0842"/>
<path d="M203.389 265.443H200.056C199.603 265.443 199.235 265.075 199.235 264.623C199.235 264.17 199.603 263.802 200.056 263.802H203.389C203.841 263.802 204.209 264.17 204.209 264.623C204.209 265.075 203.841 265.443 203.389 265.443Z" fill="#1C0842"/>
<path d="M203.389 274.035H200.056C199.603 274.035 199.235 273.667 199.235 273.215C199.235 272.762 199.603 272.394 200.056 272.394H203.389C203.841 272.394 204.209 272.762 204.209 273.215C204.209 273.668 203.841 274.035 203.389 274.035Z" fill="#1C0842"/>
<path d="M203.389 282.653H200.056C199.603 282.653 199.235 282.285 199.235 281.833C199.235 281.38 199.603 281.012 200.056 281.012H203.389C203.841 281.012 204.209 281.38 204.209 281.833C204.209 282.285 203.841 282.653 203.389 282.653Z" fill="#1C0842"/>
<path d="M203.389 291.245H200.056C199.603 291.245 199.235 290.877 199.235 290.425C199.235 289.972 199.603 289.604 200.056 289.604H203.389C203.841 289.604 204.209 289.972 204.209 290.425C204.209 290.877 203.841 291.245 203.389 291.245Z" fill="#1C0842"/>
<path d="M203.389 300.038H200.056C199.603 300.038 199.235 299.671 199.235 299.218C199.235 298.765 199.603 298.398 200.056 298.398H203.389C203.841 298.398 204.209 298.765 204.209 299.218C204.209 299.671 203.841 300.038 203.389 300.038Z" fill="#1C0842"/>
<path d="M203.389 308.631H200.056C199.603 308.631 199.235 308.263 199.235 307.811C199.235 307.358 199.603 306.99 200.056 306.99H203.389C203.841 306.99 204.209 307.358 204.209 307.811C204.209 308.263 203.841 308.631 203.389 308.631Z" fill="#1C0842"/>
<path d="M203.389 317.248H200.056C199.603 317.248 199.235 316.88 199.235 316.427C199.235 315.975 199.603 315.607 200.056 315.607H203.389C203.841 315.607 204.209 315.975 204.209 316.427C204.209 316.88 203.841 317.248 203.389 317.248Z" fill="#1C0842"/>
<path d="M203.389 325.84H200.056C199.603 325.84 199.235 325.472 199.235 325.02C199.235 324.567 199.603 324.199 200.056 324.199H203.389C203.841 324.199 204.209 324.567 204.209 325.02C204.209 325.473 203.841 325.84 203.389 325.84Z" fill="#1C0842"/>
<path d="M203.389 334.458H200.056C199.603 334.458 199.235 334.091 199.235 333.638C199.235 333.185 199.603 332.818 200.056 332.818H203.389C203.841 332.818 204.209 333.185 204.209 333.638C204.209 334.091 203.841 334.458 203.389 334.458Z" fill="#1C0842"/>
<path d="M203.389 343.05H200.056C199.603 343.05 199.235 342.683 199.235 342.229C199.235 341.776 199.603 341.409 200.056 341.409H203.389C203.841 341.409 204.209 341.776 204.209 342.229C204.209 342.683 203.841 343.05 203.389 343.05Z" fill="#1C0842"/>
<path d="M323.4 352.315C322.947 352.315 322.58 351.949 322.58 351.495V349.37C322.58 348.916 322.947 348.549 323.4 348.549C323.854 348.549 324.221 348.916 324.221 349.37V351.495C324.221 351.949 323.853 352.315 323.4 352.315Z" fill="#1C0842"/>
<path d="M309.881 352.315C309.427 352.315 309.061 351.948 309.061 351.495V349.369C309.061 348.916 309.427 348.549 309.881 348.549C310.334 348.549 310.701 348.916 310.701 349.369V351.495C310.701 351.948 310.334 352.315 309.881 352.315Z" fill="#1C0842"/>
<path d="M296.404 352.315C295.951 352.315 295.584 351.948 295.584 351.495V349.369C295.584 348.916 295.951 348.549 296.404 348.549C296.858 348.549 297.225 348.916 297.225 349.369V351.495C297.225 351.948 296.858 352.315 296.404 352.315Z" fill="#1C0842"/>
<path d="M337.121 352.315C336.667 352.315 336.301 351.948 336.301 351.495V349.369C336.301 348.916 336.667 348.549 337.121 348.549C337.575 348.549 337.941 348.916 337.941 349.369V351.495C337.941 351.948 337.575 352.315 337.121 352.315Z" fill="#1C0842"/>
<path d="M282.611 352.315C282.158 352.315 281.791 351.948 281.791 351.495V349.369C281.791 348.916 282.158 348.549 282.611 348.549C283.065 348.549 283.432 348.916 283.432 349.369V351.495C283.432 351.948 283.065 352.315 282.611 352.315Z" fill="#1C0842"/>
<path d="M269.133 352.315C268.679 352.315 268.312 351.948 268.312 351.495V349.369C268.312 348.916 268.679 348.549 269.133 348.549C269.586 348.549 269.953 348.916 269.953 349.369V351.495C269.953 351.948 269.586 352.315 269.133 352.315Z" fill="#1C0842"/>
<path d="M255.615 352.315C255.162 352.315 254.795 351.948 254.795 351.495V349.369C254.795 348.916 255.162 348.549 255.615 348.549C256.068 348.549 256.436 348.916 256.436 349.369V351.495C256.436 351.948 256.068 352.315 255.615 352.315Z" fill="#1C0842"/>
<path d="M242.138 352.315C241.685 352.315 241.317 351.948 241.317 351.495V349.369C241.317 348.916 241.685 348.549 242.138 348.549C242.59 348.549 242.958 348.916 242.958 349.369V351.495C242.958 351.948 242.59 352.315 242.138 352.315Z" fill="#1C0842"/>
<path d="M228.62 352.315C228.167 352.315 227.8 351.948 227.8 351.495V349.369C227.8 348.916 228.167 348.549 228.62 348.549C229.073 348.549 229.44 348.916 229.44 349.369V351.495C229.44 351.948 229.073 352.315 228.62 352.315Z" fill="#1C0842"/>
<path d="M215.142 352.315C214.689 352.315 214.321 351.948 214.321 351.495V349.369C214.321 348.916 214.689 348.549 215.142 348.549C215.594 348.549 215.962 348.916 215.962 349.369V351.495C215.962 351.948 215.595 352.315 215.142 352.315Z" fill="#1C0842"/>
<path d="M215.552 347.873H214.731V346.233H215.552V347.873ZM215.552 344.592H214.731V342.952H215.552V344.592ZM215.552 341.311H214.731V339.67H215.552V341.311ZM215.552 338.03H214.731V336.389H215.552V338.03ZM215.552 334.749H214.731V333.108H215.552V334.749ZM215.552 331.467H214.731V329.827H215.552V331.467ZM215.552 328.186H214.731V326.546H215.552V328.186ZM215.552 324.905H214.731V323.264H215.552V324.905ZM215.552 321.624H214.731V319.983H215.552V321.624ZM215.552 318.343H214.731V316.702H215.552V318.343ZM215.552 315.061H214.731V313.421H215.552V315.061ZM215.552 311.78H214.731V310.14H215.552V311.78ZM215.552 308.499H214.731V306.858H215.552V308.499ZM215.552 305.218H214.731V303.577H215.552V305.218ZM215.552 301.937H214.731V300.296H215.552V301.937ZM215.552 298.655H214.731V297.015H215.552V298.655Z" fill="#1C0842"/>
<path d="M228.697 348.657H227.877V347.017H228.697V348.657ZM228.697 345.376H227.877V343.736H228.697V345.376ZM228.697 342.095H227.877V340.454H228.697V342.095ZM228.697 338.814H227.877V337.173H228.697V338.814ZM228.697 335.533H227.877V333.892H228.697V335.533ZM228.697 332.251H227.877V330.611H228.697V332.251ZM228.697 328.97H227.877V327.33H228.697V328.97ZM228.697 325.689H227.877V324.048H228.697V325.689ZM228.697 322.408H227.877V320.767H228.697V322.408ZM228.697 319.127H227.877V317.486H228.697V319.127ZM228.697 315.845H227.877V314.205H228.697V315.845ZM228.697 312.564H227.877V310.924H228.697V312.564ZM228.697 309.283H227.877V307.642H228.697V309.283ZM228.697 306.002H227.877V304.361H228.697V306.002ZM228.697 302.721H227.877V301.08H228.697V302.721ZM228.697 299.439H227.877V297.799H228.697V299.439ZM228.697 296.158H227.877V294.518H228.697V296.158ZM228.697 292.877H227.877V291.236H228.697V292.877ZM228.697 289.596H227.877V287.955H228.697V289.596ZM228.697 286.315H227.877V284.674H228.697V286.315Z" fill="#1C0842"/>
<path d="M242.56 348.7H241.739V348.403H242.56V348.7ZM242.56 346.762H241.739V345.121H242.56V346.762ZM242.56 343.481H241.739V341.84H242.56V343.481ZM242.56 340.199H241.739V338.559H242.56V340.199ZM242.56 336.918H241.739V335.278H242.56V336.918ZM242.56 333.637H241.739V331.996H242.56V333.637ZM242.56 330.356H241.739V328.715H242.56V330.356ZM242.56 327.075H241.739V325.434H242.56V327.075ZM242.56 323.793H241.739V322.153H242.56V323.793ZM242.56 320.512H241.739V318.872H242.56V320.512ZM242.56 317.231H241.739V315.59H242.56V317.231Z" fill="#1C0842"/>
<path d="M269.543 347.338H268.723V345.698H269.543V347.338ZM269.543 344.057H268.723V342.416H269.543V344.057ZM269.543 340.776H268.723V339.135H269.543V340.776ZM269.543 337.495H268.723V335.854H269.543V337.495ZM269.543 334.214H268.723V332.574H269.543V334.214ZM269.543 330.933H268.723V329.292H269.543V330.933ZM269.543 327.652H268.723V326.011H269.543V327.652Z" fill="#1C0842"/>
<path d="M283.548 347.599H282.728V345.959H283.548V347.599ZM283.548 344.318H282.728V342.678H283.548V344.318ZM283.548 341.037H282.728V339.396H283.548V341.037ZM283.548 337.756H282.728V336.115H283.548V337.756ZM283.548 334.475H282.728V332.834H283.548V334.475ZM283.548 331.193H282.728V329.553H283.548V331.193ZM283.548 327.912H282.728V326.272H283.548V327.912ZM283.548 324.631H282.728V322.99H283.548V324.631ZM283.548 321.35H282.728V319.709H283.548V321.35ZM283.548 318.069H282.728V316.428H283.548V318.069Z" fill="#1C0842"/>
<path d="M296.814 347.838H295.994V346.198H296.814V347.838ZM296.814 344.557H295.994V342.917H296.814V344.557ZM296.814 341.276H295.994V339.635H296.814V341.276ZM296.814 337.995H295.994V336.354H296.814V337.995ZM296.814 334.713H295.994V333.072H296.814V334.713ZM296.814 331.432H295.994V329.791H296.814V331.432ZM296.814 328.15H295.994V326.51H296.814V328.15ZM296.814 324.869H295.994V323.229H296.814V324.869ZM296.814 321.588H295.994V319.947H296.814V321.588ZM296.814 318.307H295.994V316.666H296.814V318.307ZM296.814 315.026H295.994V313.385H296.814V315.026ZM296.814 311.744H295.994V310.104H296.814V311.744ZM296.814 308.463H295.994V306.823H296.814V308.463ZM296.814 305.182H295.994V303.541H296.814V305.182ZM296.814 301.901H295.994V300.26H296.814V301.901ZM296.814 298.62H295.994V296.979H296.814V298.62ZM296.814 295.338H295.994V293.698H296.814V295.338ZM296.814 292.057H295.994V290.417H296.814V292.057ZM296.814 288.776H295.994V287.135H296.814V288.776ZM296.814 285.495H295.994V283.854H296.814V285.495ZM296.814 282.214H295.994V280.573H296.814V282.214ZM296.814 278.932H295.994V277.292H296.814V278.932ZM296.814 275.651H295.994V274.011H296.814V275.651ZM296.814 272.37H295.994V270.729H296.814V272.37ZM296.814 269.089H295.994V267.448H296.814V269.089ZM296.814 265.808H295.994V264.167H296.814V265.808ZM296.814 262.526H295.994V260.886H296.814V262.526ZM296.814 259.245H295.994V257.605H296.814V259.245ZM296.814 255.964H295.994V254.323H296.814V255.964Z" fill="#1C0842"/>
<path d="M311.022 348.7H310.202V347.989H311.022V348.7ZM311.022 346.348H310.202V344.708H311.022V346.348ZM311.022 343.067H310.202V341.426H311.022V343.067ZM311.022 339.786H310.202V338.145H311.022V339.786ZM311.022 336.505H310.202V334.864H311.022V336.505ZM311.022 333.223H310.202V331.582H311.022V333.223ZM311.022 329.941H310.202V328.301H311.022V329.941ZM311.022 326.66H310.202V325.02H311.022V326.66Z" fill="#1C0842"/>
<path d="M323.81 348.7H322.989V347.233H323.81V348.7ZM323.81 345.592H322.989V343.951H323.81V345.592ZM323.81 342.311H322.989V340.67H323.81V342.311ZM323.81 339.03H322.989V337.389H323.81V339.03ZM323.81 335.748H322.989V334.108H323.81V335.748ZM323.81 332.467H322.989V330.827H323.81V332.467ZM323.81 329.186H322.989V327.545H323.81V329.186ZM323.81 325.905H322.989V324.264H323.81V325.905ZM323.81 322.624H322.989V320.983H323.81V322.624ZM323.81 319.342H322.989V317.702H323.81V319.342ZM323.81 316.061H322.989V314.421H323.81V316.061ZM323.81 312.78H322.989V311.139H323.81V312.78ZM323.81 309.499H322.989V307.858H323.81V309.499ZM323.81 306.218H322.989V304.577H323.81V306.218ZM323.81 302.936H322.989V301.296H323.81V302.936ZM323.81 299.655H322.989V298.015H323.81V299.655ZM323.81 296.374H322.989V294.733H323.81V296.374ZM323.81 293.093H322.989V291.452H323.81V293.093ZM323.81 289.812H322.989V288.171H323.81V289.812ZM323.81 286.53H322.989V284.89H323.81V286.53ZM323.81 283.249H322.989V281.609H323.81V283.249Z" fill="#1C0842"/>
<path d="M256.025 348.7H255.205V348.137H256.025V348.7ZM256.025 346.496H255.205V344.855H256.025V346.496ZM256.025 343.215H255.205V341.574H256.025V343.215ZM256.025 339.933H255.205V338.293H256.025V339.933ZM256.025 336.653H255.205V335.012H256.025V336.653ZM256.025 333.372H255.205V331.731H256.025V333.372ZM256.025 330.091H255.205V328.45H256.025V330.091ZM256.025 326.809H255.205V325.169H256.025V326.809ZM256.025 323.528H255.205V321.888H256.025V323.528ZM256.025 320.247H255.205V318.606H256.025V320.247ZM256.025 316.966H255.205V315.325H256.025V316.966ZM256.025 313.685H255.205V312.044H256.025V313.685ZM256.025 310.403H255.205V308.763H256.025V310.403ZM256.025 307.122H255.205V305.482H256.025V307.122Z" fill="#1C0842"/>
<path d="M230.37 284.89C230.37 286.023 229.451 286.941 228.318 286.941C227.185 286.941 226.267 286.023 226.267 284.89C226.267 283.757 227.185 282.838 228.318 282.838C229.451 282.838 230.37 283.756 230.37 284.89Z" fill="#1C0842"/>
<path d="M285.298 316.968C285.298 318.101 284.38 319.02 283.247 319.02C282.114 319.02 281.195 318.101 281.195 316.968C281.195 315.835 282.114 314.917 283.247 314.917C284.38 314.917 285.298 315.835 285.298 316.968Z" fill="#1C0842"/>
<path d="M325.451 281.833C325.451 282.966 324.532 283.884 323.399 283.884C322.266 283.884 321.348 282.966 321.348 281.833C321.348 280.7 322.266 279.781 323.399 279.781C324.533 279.781 325.451 280.7 325.451 281.833Z" fill="#1C0842"/>
<path d="M217.193 296.508C217.193 297.641 216.274 298.559 215.141 298.559C214.009 298.559 213.09 297.641 213.09 296.508C213.09 295.375 214.009 294.456 215.141 294.456C216.274 294.457 217.193 295.375 217.193 296.508Z" fill="#1C0842"/>
<path d="M242.258 318.182C243.391 318.182 244.309 317.264 244.309 316.131C244.309 314.998 243.391 314.079 242.258 314.079C241.125 314.079 240.206 314.998 240.206 316.131C240.206 317.264 241.125 318.182 242.258 318.182Z" fill="#1C0842"/>
<path d="M257.667 306.002C257.667 307.135 256.748 308.053 255.615 308.053C254.482 308.053 253.563 307.135 253.563 306.002C253.563 304.869 254.482 303.95 255.615 303.95C256.748 303.95 257.667 304.869 257.667 306.002Z" fill="#1C0842"/>
<path d="M271.594 325.689C271.594 326.822 270.676 327.74 269.543 327.74C268.41 327.74 267.491 326.822 267.491 325.689C267.491 324.556 268.41 323.637 269.543 323.637C270.676 323.637 271.594 324.556 271.594 325.689Z" fill="#1C0842"/>
<path d="M312.663 325.689C312.663 326.822 311.744 327.74 310.611 327.74C309.478 327.74 308.56 326.822 308.56 325.689C308.56 324.556 309.478 323.637 310.611 323.637C311.744 323.637 312.663 324.556 312.663 325.689Z" fill="#1C0842"/>
<path d="M298.456 255.398C298.456 256.531 297.537 257.45 296.404 257.45C295.271 257.45 294.353 256.531 294.353 255.398C294.353 254.266 295.271 253.347 296.404 253.347C297.537 253.347 298.456 254.266 298.456 255.398Z" fill="#1C0842"/>
<path d="M357.447 230.525C357.447 226.867 354.482 223.902 350.824 223.902H190.089C186.431 223.902 183.466 226.867 183.466 230.525V238.086H357.447V230.525Z" fill="#151127"/>
<path opacity="0.5" d="M194.247 230.961C194.247 232.243 193.207 233.284 191.924 233.284C190.641 233.284 189.601 232.243 189.601 230.961C189.601 229.678 190.641 228.637 191.924 228.637C193.207 228.637 194.247 229.678 194.247 230.961Z" fill="#FAFDF8"/>
<path opacity="0.5" d="M201.798 230.961C201.798 232.243 200.757 233.284 199.474 233.284C198.192 233.284 197.151 232.243 197.151 230.961C197.151 229.678 198.192 228.637 199.474 228.637C200.757 228.637 201.798 229.678 201.798 230.961Z" fill="#FAFDF8"/>
<path opacity="0.5" d="M208.893 230.961C208.893 232.243 207.853 233.284 206.57 233.284C205.287 233.284 204.247 232.243 204.247 230.961C204.247 229.678 205.287 228.637 206.57 228.637C207.852 228.637 208.893 229.678 208.893 230.961Z" fill="#FAFDF8"/>
</g>
</g>
<defs>
<filter id="filter0_f_195_6489" x="-58.6393" y="-176.827" width="855.029" height="838.92" filterUnits="userSpaceOnUse" color-interpolation-filters="sRGB">
<feFlood flood-opacity="0" result="BackgroundImageFix"/>
<feBlend mode="normal" in="SourceGraphic" in2="BackgroundImageFix" result="shape"/>
<feGaussianBlur stdDeviation="50.6844" result="effect1_foregroundBlur_195_6489"/>
</filter>
<linearGradient id="paint0_linear_195_6489" x1="500.935" y1="1.84739e-05" x2="-77.3101" y2="214.363" gradientUnits="userSpaceOnUse">
<stop stop-color="#0D0A1A"/>
<stop offset="0.716097" stop-color="#473B79" stop-opacity="0.8"/>
<stop offset="1" stop-color="#9B91C6" stop-opacity="0.8"/>
</linearGradient>
<linearGradient id="paint1_linear_195_6489" x1="389.904" y1="256.809" x2="389.904" y2="337.656" gradientUnits="userSpaceOnUse">
<stop stop-color="#563E94"/>
<stop offset="1" stop-color="#391C81"/>
</linearGradient>
<linearGradient id="paint2_linear_195_6489" x1="157.064" y1="194.188" x2="157.064" y2="275.793" gradientUnits="userSpaceOnUse">
<stop stop-color="#563E94"/>
<stop offset="1" stop-color="#391C81"/>
</linearGradient>
<linearGradient id="paint3_linear_195_6489" x1="106.895" y1="197.717" x2="106.895" y2="201.482" gradientUnits="userSpaceOnUse">
<stop stop-color="#FAFDF8"/>
<stop offset="1" stop-color="#959794"/>
</linearGradient>
<linearGradient id="paint4_linear_195_6489" x1="113.014" y1="197.717" x2="113.014" y2="201.482" gradientUnits="userSpaceOnUse">
<stop stop-color="#FAFDF8"/>
<stop offset="1" stop-color="#959794"/>
</linearGradient>
<linearGradient id="paint5_linear_195_6489" x1="118.765" y1="197.717" x2="118.765" y2="201.482" gradientUnits="userSpaceOnUse">
<stop stop-color="#FAFDF8"/>
<stop offset="1" stop-color="#959794"/>
</linearGradient>
<linearGradient id="paint6_linear_195_6489" x1="115.233" y1="214.277" x2="115.233" y2="219.894" gradientUnits="userSpaceOnUse">
<stop stop-color="#8A6AD8"/>
<stop offset="1" stop-color="#422196"/>
</linearGradient>
<linearGradient id="paint7_linear_195_6489" x1="115.233" y1="219.767" x2="115.233" y2="226.13" gradientUnits="userSpaceOnUse">
<stop stop-color="#8A6AD8"/>
<stop offset="1" stop-color="#422196"/>
</linearGradient>
<linearGradient id="paint8_linear_195_6489" x1="115.233" y1="235.6" x2="115.233" y2="241.217" gradientUnits="userSpaceOnUse">
<stop stop-color="#8A6AD8"/>
<stop offset="1" stop-color="#422196"/>
</linearGradient>
<linearGradient id="paint9_linear_195_6489" x1="115.233" y1="241.089" x2="115.233" y2="247.453" gradientUnits="userSpaceOnUse">
<stop stop-color="#8A6AD8"/>
<stop offset="1" stop-color="#422196"/>
</linearGradient>
<linearGradient id="paint10_linear_195_6489" x1="115.233" y1="257.222" x2="115.233" y2="262.839" gradientUnits="userSpaceOnUse">
<stop stop-color="#8A6AD8"/>
<stop offset="1" stop-color="#422196"/>
</linearGradient>
<linearGradient id="paint11_linear_195_6489" x1="115.233" y1="262.712" x2="115.233" y2="269.076" gradientUnits="userSpaceOnUse">
<stop stop-color="#8A6AD8"/>
<stop offset="1" stop-color="#422196"/>
</linearGradient>
<linearGradient id="paint12_linear_195_6489" x1="270.456" y1="223.902" x2="270.456" y2="362.746" gradientUnits="userSpaceOnUse">
<stop stop-color="#563E94"/>
<stop offset="1" stop-color="#391C81"/>
</linearGradient>
<clipPath id="clip0_195_6489">
<rect width="530.027" height="386.383" rx="27.2741" fill="white"/>
</clipPath>
</defs>
</svg>
