<svg width="788" height="387" viewBox="0 0 788 387" fill="none" xmlns="http://www.w3.org/2000/svg">
<g clip-path="url(#clip0_195_5276)">
<rect width="787.313" height="386.383" rx="27.2741" fill="#0D0A1A"/>
<g opacity="0.5" filter="url(#filter0_f_195_5276)">
<rect width="855.498" height="419.112" transform="matrix(-1 0 0 1 896.409 37.2747)" fill="url(#paint0_linear_195_5276)"/>
</g>
<g opacity="0.3">
<path d="M750.848 204.584H555.582C553.731 204.584 552.216 206.099 552.216 207.951V342.617C552.216 348.172 556.761 352.717 562.316 352.717H744.115C749.67 352.717 754.215 348.172 754.215 342.617V207.951C754.215 206.099 752.7 204.584 750.848 204.584Z" fill="url(#paint1_linear_195_5276)"/>
<path d="M744.115 184.385H562.316C556.727 184.385 552.216 188.896 552.216 194.484V211.318H754.215V194.484C754.215 188.896 749.704 184.385 744.115 184.385Z" fill="#151127"/>
<path d="M737.381 201.218C739.241 201.218 740.748 199.711 740.748 197.851C740.748 195.992 739.241 194.485 737.381 194.485C735.522 194.485 734.015 195.992 734.015 197.851C734.015 199.711 735.522 201.218 737.381 201.218Z" fill="white"/>
<path d="M723.915 201.218C725.774 201.218 727.281 199.711 727.281 197.851C727.281 195.992 725.774 194.485 723.915 194.485C722.055 194.485 720.548 195.992 720.548 197.851C720.548 199.711 722.055 201.218 723.915 201.218Z" fill="white"/>
<path d="M710.449 201.218C712.308 201.218 713.815 199.711 713.815 197.851C713.815 195.992 712.308 194.485 710.449 194.485C708.589 194.485 707.082 195.992 707.082 197.851C707.082 199.711 708.589 201.218 710.449 201.218Z" fill="white"/>
<path d="M659.948 231.518H579.149C577.297 231.518 575.782 230.003 575.782 228.151C575.782 226.299 577.297 224.784 579.149 224.784H659.948C661.8 224.784 663.315 226.299 663.315 228.151C663.315 230.003 661.8 231.518 659.948 231.518ZM643.115 248.351H579.149C577.297 248.351 575.782 246.836 575.782 244.984C575.782 243.133 577.297 241.618 579.149 241.618H643.115C644.967 241.618 646.482 243.133 646.482 244.984C646.482 246.836 644.967 248.351 643.115 248.351ZM636.382 282.017H579.149C577.297 282.017 575.782 280.502 575.782 278.651V261.818C575.782 259.966 577.297 258.451 579.149 258.451H636.382C638.234 258.451 639.749 259.966 639.749 261.818C639.749 263.669 638.234 265.184 636.382 265.184H582.516V275.284H636.382C638.234 275.284 639.749 276.799 639.749 278.651C639.749 280.502 638.234 282.017 636.382 282.017ZM636.382 298.851H579.149C577.297 298.851 575.782 297.336 575.782 295.484C575.782 293.632 577.297 292.117 579.149 292.117H636.382C638.234 292.117 639.749 293.632 639.749 295.484C639.749 297.336 638.234 298.851 636.382 298.851ZM643.115 315.684H579.149C577.297 315.684 575.782 314.169 575.782 312.317C575.782 310.466 577.297 308.951 579.149 308.951H643.115C644.967 308.951 646.482 310.466 646.482 312.317C646.482 314.169 644.967 315.684 643.115 315.684Z" fill="#1B015B"/>
<path d="M713.347 275.654V259.744C713.347 258.286 714.54 257.093 715.998 257.093C717.457 257.093 718.65 258.286 718.65 259.744V275.654C718.65 277.112 717.457 278.306 715.998 278.306C714.54 278.306 713.347 277.112 713.347 275.654ZM771.683 312.777H755.773C754.315 312.777 753.122 313.97 753.122 315.429C753.122 316.887 754.315 318.081 755.773 318.081H771.683C773.142 318.081 774.335 316.887 774.335 315.429C774.335 313.97 773.142 312.777 771.683 312.777ZM678.875 315.429C678.875 313.97 677.682 312.777 676.224 312.777H660.314C658.855 312.777 657.662 313.97 657.662 315.429C657.662 316.887 658.855 318.081 660.314 318.081H676.224C677.682 318.081 678.875 316.887 678.875 315.429ZM744.132 289.946C744.822 289.946 745.485 289.681 746.015 289.178L757.258 277.935C758.292 276.9 758.292 275.23 757.258 274.196C756.224 273.162 754.553 273.162 753.519 274.196L742.276 285.439C741.242 286.473 741.242 288.143 742.276 289.178C742.807 289.708 743.47 289.946 744.159 289.946H744.132ZM686.008 341.68L674.765 352.923C673.731 353.957 673.731 355.628 674.765 356.662C675.296 357.192 675.959 357.431 676.648 357.431C677.337 357.431 678 357.166 678.531 356.662L689.774 345.419C690.808 344.385 690.808 342.714 689.774 341.68C688.739 340.646 687.069 340.646 686.035 341.68H686.008ZM678.504 274.169C677.47 273.135 675.799 273.135 674.765 274.169C673.731 275.203 673.731 276.874 674.765 277.908L686.008 289.151C686.539 289.681 687.202 289.92 687.891 289.92C688.58 289.92 689.243 289.655 689.774 289.151C690.808 288.117 690.808 286.446 689.774 285.412L678.531 274.169H678.504ZM765.505 345.286C766.327 346.029 766.592 347.196 766.194 348.203C765.796 349.237 764.815 349.9 763.728 349.9H730.45L710.032 372.864C709.528 373.447 708.786 373.765 708.043 373.765C707.725 373.765 707.407 373.712 707.089 373.58C706.055 373.182 705.392 372.201 705.392 371.114V296.867C705.392 295.807 706.002 294.879 706.956 294.454C707.911 294.03 709.025 294.216 709.82 294.905L765.505 345.286ZM756.834 344.597L710.695 302.834V364.14L727.268 345.499C727.772 344.942 728.488 344.597 729.257 344.597H756.834Z" fill="url(#paint2_linear_195_5276)"/>
</g>
</g>
<defs>
<filter id="filter0_f_195_5276" x="-60.4577" y="-64.0942" width="1058.24" height="621.85" filterUnits="userSpaceOnUse" color-interpolation-filters="sRGB">
<feFlood flood-opacity="0" result="BackgroundImageFix"/>
<feBlend mode="normal" in="SourceGraphic" in2="BackgroundImageFix" result="shape"/>
<feGaussianBlur stdDeviation="50.6844" result="effect1_foregroundBlur_195_5276"/>
</filter>
<linearGradient id="paint0_linear_195_5276" x1="855.499" y1="1.84739e-05" x2="53.6534" y2="507.653" gradientUnits="userSpaceOnUse">
<stop stop-color="#0D0A1A"/>
<stop offset="0.716097" stop-color="#473B79" stop-opacity="0.8"/>
<stop offset="1" stop-color="#9B91C6" stop-opacity="0.8"/>
</linearGradient>
<linearGradient id="paint1_linear_195_5276" x1="653.215" y1="204.584" x2="653.215" y2="352.717" gradientUnits="userSpaceOnUse">
<stop stop-color="#563E94"/>
<stop offset="1" stop-color="#391C81"/>
</linearGradient>
<linearGradient id="paint2_linear_195_5276" x1="715.998" y1="257.093" x2="715.998" y2="373.765" gradientUnits="userSpaceOnUse">
<stop stop-color="#8A6AD8"/>
<stop offset="1" stop-color="#422196"/>
</linearGradient>
<clipPath id="clip0_195_5276">
<rect width="787.313" height="386.383" rx="27.2741" fill="white"/>
</clipPath>
</defs>
</svg>
