<svg width="14" height="15" viewBox="0 0 14 15" fill="none" xmlns="http://www.w3.org/2000/svg">
<g clip-path="url(#clip0_331_661)">
<path d="M5.69929 13.4662C5.52354 13.2904 5.4248 13.052 5.4248 12.8034C5.4248 12.5548 5.52354 12.3164 5.69929 12.1406L10.3399 7.49999L5.69929 2.85936C5.52852 2.68255 5.43402 2.44573 5.43616 2.19992C5.4383 1.95411 5.53689 1.71898 5.71071 1.54515C5.88453 1.37133 6.11967 1.27274 6.36548 1.2706C6.61129 1.26847 6.8481 1.36296 7.02492 1.53374L12.3284 6.83717C12.5041 7.01298 12.6028 7.25139 12.6028 7.49999C12.6028 7.74858 12.5041 7.98699 12.3284 8.1628L7.02492 13.4662C6.84911 13.642 6.6107 13.7407 6.3621 13.7407C6.11351 13.7407 5.8751 13.642 5.69929 13.4662Z" fill="#6C5BE7"/>
</g>
<defs>
<clipPath id="clip0_331_661">
<rect width="15" height="13.2625" fill="white" transform="matrix(0 -1 1 0 0.737305 15)"/>
</clipPath>
</defs>
</svg>
