<svg width="26" height="26" viewBox="0 0 26 26" fill="none" xmlns="http://www.w3.org/2000/svg">
<path d="M13.0003 2.16663C11.5777 2.16663 10.1689 2.44684 8.85459 2.99126C7.54023 3.53569 6.34597 4.33367 5.34 5.33964C3.30836 7.37128 2.16699 10.1268 2.16699 13C2.16699 17.7883 5.27616 21.8508 9.57699 23.2916C10.1187 23.3783 10.292 23.0425 10.292 22.75V20.9191C7.29116 21.5691 6.65199 19.4675 6.65199 19.4675C6.15366 18.2108 5.44949 17.875 5.44949 17.875C4.46366 17.2033 5.52533 17.225 5.52533 17.225C6.60866 17.3008 7.18283 18.3408 7.18283 18.3408C8.12533 19.9875 9.71782 19.5 10.3353 19.24C10.4328 18.5358 10.7145 18.0591 11.0178 17.7883C8.61282 17.5175 6.08866 16.5858 6.08866 12.4583C6.08866 11.2558 6.50033 10.2916 7.20449 9.52246C7.09616 9.25163 6.71699 8.12496 7.31283 6.66246C7.31283 6.66246 8.22283 6.36996 10.292 7.76746C11.1478 7.52913 12.0795 7.40996 13.0003 7.40996C13.9212 7.40996 14.8528 7.52913 15.7087 7.76746C17.7778 6.36996 18.6878 6.66246 18.6878 6.66246C19.2837 8.12496 18.9045 9.25163 18.7962 9.52246C19.5003 10.2916 19.912 11.2558 19.912 12.4583C19.912 16.5966 17.377 17.5066 14.9612 17.7775C15.3512 18.1133 15.7087 18.7741 15.7087 19.7816V22.75C15.7087 23.0425 15.882 23.3891 16.4345 23.2916C20.7353 21.84 23.8337 17.7883 23.8337 13C23.8337 11.5773 23.5534 10.1686 23.009 8.85422C22.4646 7.53986 21.6666 6.3456 20.6606 5.33964C19.6547 4.33367 18.4604 3.53569 17.1461 2.99126C15.8317 2.44684 14.423 2.16663 13.0003 2.16663Z" fill="#6C5BE7"/>
</svg>
