<svg width="26" height="24" viewBox="0 0 26 24" fill="none" xmlns="http://www.w3.org/2000/svg">
<g clip-path="url(#clip0_331_620)">
<path d="M21.3772 7.49773C21.1005 7.4028 20.8214 7.31485 20.5403 7.23397C20.5875 7.04101 20.631 6.85037 20.6696 6.66309C21.3031 3.58768 20.889 1.11006 19.4743 0.29431C18.1179 -0.487721 15.8997 0.327724 13.6594 2.27742C13.4387 2.46991 13.2228 2.66796 13.012 2.87136C12.8709 2.7361 12.7273 2.60347 12.5813 2.47354C10.2333 0.388865 7.87993 -0.489752 6.46679 0.328334C5.11164 1.1128 4.71037 3.44194 5.28074 6.35658C5.33749 6.64524 5.40156 6.93242 5.4729 7.21783C5.13977 7.31248 4.81833 7.41323 4.51069 7.52048C1.75795 8.48025 0 9.98429 0 11.5444C0 13.1557 1.88723 14.7718 4.75434 15.7518C4.98679 15.8309 5.22116 15.9043 5.45726 15.9717C5.38058 16.2791 5.31251 16.5886 5.25312 16.8998C4.70935 19.7638 5.13398 22.0379 6.48548 22.8174C7.88135 23.6224 10.2242 22.7951 12.5054 20.8009C12.6904 20.6388 12.8713 20.4721 13.0479 20.3009C13.2762 20.5211 13.5106 20.735 13.7507 20.9422C15.9605 22.8436 18.1429 23.6114 19.4931 22.8298C20.8876 22.0225 21.3409 19.5795 20.7525 16.6073C20.7061 16.3744 20.6541 16.1427 20.5966 15.9124C20.7611 15.8636 20.9226 15.8135 21.08 15.7613C24.0607 14.7738 26 13.1772 26 11.5444C26 9.9786 24.1853 8.4644 21.3772 7.49773ZM20.7307 14.707C20.5885 14.7541 20.4427 14.7995 20.294 14.8436C19.965 13.8019 19.5209 12.6943 18.9775 11.5498C19.496 10.4326 19.923 9.33906 20.2428 8.30414C20.5088 8.38112 20.7669 8.46227 21.0157 8.54789C23.4217 9.37623 24.8893 10.6008 24.8893 11.5444C24.8893 12.5495 23.3043 13.8542 20.7307 14.707ZM19.6629 16.823C19.9231 18.1372 19.9602 19.3255 19.7878 20.2545C19.633 21.0892 19.3217 21.6457 18.9365 21.8686C18.1172 22.3429 16.365 21.7264 14.4752 20.1002C14.2518 19.9076 14.0338 19.7088 13.8214 19.504C14.5541 18.7028 15.2863 17.7714 16.0009 16.7369C17.2578 16.6254 18.4453 16.443 19.5221 16.194C19.574 16.4025 19.621 16.6123 19.6629 16.823ZM8.86397 21.7867C8.06345 22.0693 7.42584 22.0774 7.04041 21.8552C6.2203 21.3822 5.87935 19.5562 6.34441 17.107C6.39969 16.8175 6.46299 16.5297 6.53423 16.2438C7.59921 16.4794 8.77805 16.6488 10.0379 16.751C10.7574 17.7633 11.5107 18.6937 12.2699 19.5084C12.1085 19.6645 11.9434 19.8166 11.7745 19.9646C10.7657 20.8464 9.75488 21.472 8.86397 21.7867ZM5.11367 14.7008C3.84587 14.2675 2.79886 13.7043 2.08122 13.0898C1.4363 12.5376 1.11079 11.9892 1.11079 11.5444C1.11079 10.5976 2.5222 9.39005 4.87632 8.56932C5.16202 8.46979 5.46102 8.37584 5.77129 8.28769C6.0967 9.34597 6.52346 10.4525 7.03848 11.5714C6.51676 12.7069 6.0839 13.8311 5.75534 14.9018C5.53984 14.8401 5.32588 14.7731 5.11367 14.7008ZM6.37081 6.14319C5.8822 3.64608 6.20669 1.7624 7.02335 1.28962C7.89313 0.786076 9.81652 1.50402 11.8438 3.30412C11.976 3.42176 12.1061 3.5418 12.2339 3.66415C11.4785 4.47533 10.7321 5.39884 10.019 6.40512C8.79623 6.51847 7.62572 6.70047 6.54956 6.94432C6.48326 6.67885 6.42366 6.41166 6.37081 6.14319ZM17.5861 8.9127C17.3319 8.47364 17.0683 8.0401 16.7954 7.6124C17.625 7.71731 18.4198 7.85655 19.1662 8.02677C18.9421 8.74502 18.6628 9.49587 18.3341 10.2657C18.0938 9.80978 17.8444 9.35868 17.5861 8.9127ZM13.0125 4.45807C13.5248 5.01311 14.0379 5.63274 14.5425 6.30508C13.5188 6.25673 12.4933 6.25653 11.4696 6.30447C11.9747 5.63833 12.4922 5.01951 13.0125 4.45807ZM8.40958 8.92022C8.15449 9.36261 7.90976 9.81089 7.67559 10.2647C7.35221 9.4976 7.07545 8.74329 6.84948 8.01489C7.59129 7.84894 8.38236 7.71325 9.20664 7.61026C8.93074 8.04058 8.66498 8.47742 8.40958 8.92022ZM9.2303 15.5575C8.3787 15.4625 7.57575 15.3338 6.83414 15.1723C7.06367 14.4309 7.34652 13.6605 7.67691 12.877C7.91201 13.3311 8.15775 13.7797 8.41395 14.2223C8.6774 14.6773 8.9502 15.1229 9.2303 15.5575ZM13.0432 18.709C12.5167 18.1411 11.9916 17.5127 11.4788 16.8369C11.9767 16.8564 12.4842 16.8664 13 16.8664C13.53 16.8664 14.0538 16.8545 14.5694 16.8315C14.0632 17.5195 13.552 18.1488 13.0432 18.709ZM18.3445 12.837C18.6921 13.6292 18.985 14.3955 19.2176 15.1242C18.4638 15.2962 17.6498 15.4347 16.7922 15.5376C17.067 15.102 17.3332 14.6609 17.5904 14.2147C17.852 13.7611 18.1034 13.3017 18.3445 12.837ZM16.6283 13.6597C16.2345 14.3439 15.8185 15.0151 15.381 15.6722C14.5886 15.7283 13.7944 15.7562 13 15.7558C12.1909 15.7558 11.4038 15.7306 10.646 15.6814C10.1971 15.0258 9.77318 14.3535 9.37513 13.6658C8.97896 12.9818 8.609 12.283 8.26587 11.5709C8.60813 10.8586 8.97706 10.1595 9.37188 9.47495L9.37178 9.47505C9.76645 8.79034 10.187 8.12087 10.6325 7.46808C11.4057 7.40958 12.1986 7.37911 12.9999 7.37911C13.8049 7.37911 14.5989 7.40988 15.3719 7.46879C15.8129 8.1206 16.2307 8.78777 16.6247 9.46906C17.0208 10.1521 17.3946 10.8478 17.7455 11.5552C17.3982 12.2697 17.0256 12.9717 16.6283 13.6597ZM18.9196 1.25651C19.7902 1.75864 20.1288 3.78349 19.5818 6.43884C19.5468 6.60825 19.5076 6.7808 19.465 6.95579C18.3862 6.70676 17.2148 6.52162 15.9885 6.40654C15.2741 5.38919 14.5338 4.46426 13.7907 3.66354C13.9854 3.47581 14.1848 3.29294 14.3887 3.11511C16.3082 1.44471 18.1022 0.785162 18.9196 1.25651ZM13 9.22267C14.2822 9.22267 15.3217 10.2622 15.3217 11.5444C15.3217 12.8266 14.2822 13.8661 13 13.8661C11.7178 13.8661 10.6783 12.8266 10.6783 11.5444C10.6783 10.2622 11.7178 9.22267 13 9.22267Z" fill="#00D8FF"/>
</g>
<defs>
<clipPath id="clip0_331_620">
<rect width="26" height="23.1562" fill="white"/>
</clipPath>
</defs>
</svg>
