<svg width="26" height="23" viewBox="0 0 26 23" fill="none" xmlns="http://www.w3.org/2000/svg">
<g clip-path="url(#clip0_331_602)">
<path d="M24.9813 17.1583C23.5938 17.8815 16.406 20.8368 14.8758 21.6346C13.3455 22.4325 12.4954 22.4248 11.2865 21.8469C10.0777 21.269 2.42866 18.1793 1.05077 17.5206C0.362172 17.1916 0 16.9137 0 16.6513V14.0232C0 14.0232 9.9582 11.8554 11.5658 11.2786C13.1734 10.7018 13.7311 10.681 15.0992 11.1821C16.4674 11.6834 24.6479 13.1593 26 13.6546L25.9994 16.2454C25.9996 16.5052 25.6876 16.7902 24.9813 17.1583Z" fill="#912626"/>
<path d="M24.9808 14.5458C23.5934 15.2687 16.4058 18.2242 14.8755 19.0219C13.3454 19.8198 12.4953 19.812 11.2865 19.2341C10.0776 18.6567 2.42884 15.5664 1.05105 14.9082C-0.326749 14.2495 -0.355593 13.7963 0.997829 13.2663C2.35125 12.7362 9.95808 9.75175 11.5659 9.17498C13.1734 8.59841 13.7311 8.57739 15.0992 9.0787C16.4673 9.57981 23.612 12.4237 24.9639 12.9188C26.3163 13.4145 26.3682 13.8227 24.9808 14.5458Z" fill="#C6302B"/>
<path d="M24.9813 12.906C23.5938 13.6293 16.406 16.5846 14.8758 17.3827C13.3455 18.1802 12.4954 18.1725 11.2865 17.5946C10.0776 17.017 2.42866 13.927 1.05077 13.2684C0.362172 12.9393 0 12.6618 0 12.3993V9.77096C0 9.77096 9.9582 7.60321 11.5658 7.02644C13.1734 6.44967 13.7311 6.42874 15.0992 6.92996C16.4675 7.43117 24.648 8.90677 26 9.40209L25.9994 11.9933C25.9996 12.2529 25.6876 12.5379 24.9813 12.906Z" fill="#912626"/>
<path d="M24.9808 10.2934C23.5934 11.0166 16.4058 13.9718 14.8755 14.7698C13.3454 15.5675 12.4953 15.5597 11.2865 14.9818C10.0776 14.4043 2.42884 11.3141 1.05105 10.6558C-0.326749 9.99738 -0.355593 9.54401 0.997829 9.01385C2.35125 8.484 9.95818 5.49938 11.5659 4.92271C13.1734 4.34604 13.7311 4.32512 15.0992 4.82633C16.4673 5.32744 23.612 8.17109 24.9639 8.66641C26.3163 9.16203 26.3682 9.57031 24.9808 10.2934Z" fill="#C6302B"/>
<path d="M24.9813 8.496C23.5938 9.21912 16.406 12.1746 14.8758 12.9727C13.3455 13.7703 12.4954 13.7625 11.2865 13.1846C10.0776 12.607 2.42866 9.5169 1.05077 8.85857C0.362172 8.52921 0 8.25164 0 7.9894V5.36097C0 5.36097 9.9582 3.19332 11.5658 2.61665C13.1734 2.03977 13.7311 2.01905 15.0992 2.52016C16.4675 3.02137 24.648 4.49697 26 4.99229L25.9994 7.58336C25.9996 7.84285 25.6876 8.12783 24.9813 8.496Z" fill="#912626"/>
<path d="M24.9807 5.88353C23.5933 6.60665 16.4057 9.56212 14.8755 10.3598C13.3453 11.1575 12.4953 11.1496 11.2865 10.5721C10.0777 9.99417 2.42879 6.90423 1.0511 6.2458C-0.3268 5.58747 -0.355542 5.134 0.997778 4.60394C2.3512 4.07399 9.95813 1.08978 11.5659 0.512902C13.1734 -0.0638713 13.7311 -0.08459 15.0991 0.416621C16.4673 0.917832 23.612 3.76148 24.9639 4.2568C26.3163 4.75202 26.3682 5.1604 24.9807 5.88353Z" fill="#C6302B"/>
<path d="M16.1775 3.32687L13.9421 3.55894L13.4417 4.76307L12.6335 3.41939L10.0522 3.18743L11.9783 2.49284L11.4004 1.42664L13.2036 2.13189L14.9036 1.57532L14.4441 2.67778L16.1775 3.32687ZM13.3082 9.16854L9.13636 7.43822L15.1143 6.5206L13.3082 9.16854ZM7.52426 3.99617C9.28891 3.99617 10.7194 4.5507 10.7194 5.23462C10.7194 5.91875 9.28891 6.47317 7.52426 6.47317C5.75961 6.47317 4.3291 5.91864 4.3291 5.23462C4.3291 4.5507 5.75961 3.99617 7.52426 3.99617Z" fill="#262626"/>
<path d="M18.8193 3.65601L22.3574 5.05412L18.8224 6.4509L18.8193 3.65601Z" fill="#621B1C"/>
<path d="M14.9053 5.20433L18.8195 3.65601L18.8225 6.4509L18.4387 6.60101L14.9053 5.20433Z" fill="#9A2928"/>
</g>
<defs>
<clipPath id="clip0_331_602">
<rect width="26" height="22.3438" fill="white"/>
</clipPath>
</defs>
</svg>
