<svg width="16" height="16" viewBox="0 0 16 16" fill="none" xmlns="http://www.w3.org/2000/svg">
<path d="M8 4.66667C7.08333 4.66667 6.29861 4.99306 5.64583 5.64583C4.99306 6.29861 4.66667 7.08333 4.66667 8C4.66667 8.7 4.86556 9.3325 5.26333 9.8975C5.66167 10.4625 6.18667 10.8694 6.83833 11.1183C6.94278 11.1656 7.02167 11.2433 7.075 11.3517C7.12722 11.46 7.13167 11.5667 7.08833 11.6717C7.04444 11.77 6.97583 11.8464 6.8825 11.9008C6.78917 11.9553 6.69361 11.9606 6.59583 11.9167C5.76361 11.6178 5.09528 11.1119 4.59083 10.3992C4.08639 9.68639 3.83389 8.88667 3.83333 8C3.83333 6.84611 4.23944 5.86333 5.05167 5.05167C5.86389 4.24 6.84667 3.83389 8 3.83333C8.87944 3.83333 9.67889 4.08583 10.3983 4.59083C11.1178 5.09528 11.6256 5.76167 11.9217 6.59C11.9622 6.68833 11.9533 6.78667 11.895 6.885C11.8367 6.98333 11.7583 7.05278 11.66 7.09333C11.545 7.13667 11.435 7.13111 11.33 7.07667C11.2256 7.02222 11.1497 6.9375 11.1025 6.8225C10.8536 6.17083 10.4467 5.64861 9.88167 5.25583C9.31667 4.86306 8.68944 4.66667 8 4.66667ZM8 1.33333C6.13889 1.33333 4.5625 1.97917 3.27083 3.27083C1.97917 4.5625 1.33333 6.13889 1.33333 8C1.33333 9.85667 1.95778 11.4206 3.20667 12.6917C4.45556 13.9639 5.99611 14.6192 7.82833 14.6575C7.94722 14.6636 8.04806 14.7089 8.13083 14.7933C8.21361 14.8778 8.25333 14.9792 8.25 15.0975C8.24667 15.2158 8.20528 15.3169 8.12583 15.4008C8.04639 15.4847 7.94722 15.5247 7.82833 15.5208C6.78778 15.5047 5.82278 15.2872 4.93333 14.8683C4.04444 14.4494 3.27056 13.8964 2.61167 13.2092C1.95278 12.5219 1.43611 11.7286 1.06167 10.8292C0.687222 9.92972 0.5 8.98667 0.5 8C0.5 6.96444 0.697222 5.99056 1.09167 5.07833C1.48667 4.16611 2.02194 3.3725 2.6975 2.6975C3.3725 2.02139 4.16611 1.48611 5.07833 1.09167C5.99056 0.697222 6.96444 0.5 8 0.5C9.97778 0.5 11.7142 1.19778 13.2092 2.59333C14.7042 3.98889 15.4747 5.72861 15.5208 7.8125C15.5275 7.92806 15.4908 8.02806 15.4108 8.1125C15.3314 8.19806 15.2325 8.2425 15.1142 8.24583C14.9958 8.24917 14.8908 8.2075 14.7992 8.12083C14.7075 8.03417 14.6586 7.93139 14.6525 7.8125C14.6042 6.06028 13.9319 4.54222 12.6358 3.25833C11.3392 1.975 9.79389 1.33333 8 1.33333ZM14.035 14.8917L10.4683 11.3125L10.035 12.6317C9.97667 12.7939 9.86611 12.8744 9.70333 12.8733C9.54111 12.8711 9.43611 12.7889 9.38833 12.6267L8.18083 8.60583C8.14694 8.47472 8.17639 8.3625 8.26917 8.26917C8.3625 8.17639 8.47472 8.14694 8.60583 8.18083L12.6267 9.38833C12.7889 9.43611 12.8708 9.54111 12.8725 9.70333C12.8742 9.86555 12.7936 9.97611 12.6308 10.035L11.3125 10.4683L14.8958 14.035C15.0147 14.1539 15.0742 14.2967 15.0742 14.4633C15.0742 14.63 15.0147 14.7725 14.8958 14.8908C14.7769 15.0092 14.6336 15.0686 14.4658 15.0692C14.2981 15.0697 14.1544 15.0103 14.035 14.8908" fill="#6C5BE7"/>
</svg>
