<svg width="35" height="29" viewBox="0 0 35 29" fill="none" xmlns="http://www.w3.org/2000/svg">
<path fill-rule="evenodd" clip-rule="evenodd" d="M20.5833 6.33337C20.1634 6.33337 19.7607 6.50019 19.4637 6.79712C19.1668 7.09405 19 7.49678 19 7.91671V20.5834C19 21.0033 19.1668 21.406 19.4637 21.703C19.7607 21.9999 20.1634 22.1667 20.5833 22.1667H26.9167C27.3366 22.1667 27.7393 21.9999 28.0363 21.703C28.3332 21.406 28.5 21.0033 28.5 20.5834V7.91671C28.5 7.49678 28.3332 7.09405 28.0363 6.79712C27.7393 6.50019 27.3366 6.33337 26.9167 6.33337H20.5833ZM25.3333 9.50004H22.1667V19H25.3333V9.50004Z" fill="#6C5BE7"/>
<path d="M7.91659 6.33337C7.49666 6.33337 7.09393 6.50019 6.797 6.79712C6.50007 7.09405 6.33325 7.49678 6.33325 7.91671C6.33325 8.33663 6.50007 8.73936 6.797 9.03629C7.09393 9.33323 7.49666 9.50004 7.91659 9.50004H14.2499C14.6698 9.50004 15.0726 9.33323 15.3695 9.03629C15.6664 8.73936 15.8333 8.33663 15.8333 7.91671C15.8333 7.49678 15.6664 7.09405 15.3695 6.79712C15.0726 6.50019 14.6698 6.33337 14.2499 6.33337H7.91659ZM7.91659 12.6667C7.49666 12.6667 7.09393 12.8335 6.797 13.1305C6.50007 13.4274 6.33325 13.8301 6.33325 14.25C6.33325 14.67 6.50007 15.0727 6.797 15.3696C7.09393 15.6666 7.49666 15.8334 7.91659 15.8334H14.2499C14.6698 15.8334 15.0726 15.6666 15.3695 15.3696C15.6664 15.0727 15.8333 14.67 15.8333 14.25C15.8333 13.8301 15.6664 13.4274 15.3695 13.1305C15.0726 12.8335 14.6698 12.6667 14.2499 12.6667H7.91659ZM6.33325 20.5834C6.33325 20.1634 6.50007 19.7607 6.797 19.4638C7.09393 19.1669 7.49666 19 7.91659 19H14.2499C14.6698 19 15.0726 19.1669 15.3695 19.4638C15.6664 19.7607 15.8333 20.1634 15.8333 20.5834C15.8333 21.0033 15.6664 21.406 15.3695 21.703C15.0726 21.9999 14.6698 22.1667 14.2499 22.1667H7.91659C7.49666 22.1667 7.09393 21.9999 6.797 21.703C6.50007 21.406 6.33325 21.0033 6.33325 20.5834Z" fill="#6C5BE7"/>
<path fill-rule="evenodd" clip-rule="evenodd" d="M4.75 0C3.49022 0 2.28204 0.500445 1.39124 1.39124C0.500445 2.28204 0 3.49022 0 4.75V23.75C0 25.0098 0.500445 26.218 1.39124 27.1088C2.28204 27.9996 3.49022 28.5 4.75 28.5H30.0833C31.3431 28.5 32.5513 27.9996 33.4421 27.1088C34.3329 26.218 34.8333 25.0098 34.8333 23.75V4.75C34.8333 3.49022 34.3329 2.28204 33.4421 1.39124C32.5513 0.500445 31.3431 0 30.0833 0H4.75ZM30.0833 3.16667H4.75C4.33007 3.16667 3.92735 3.33348 3.63041 3.63041C3.33348 3.92735 3.16667 4.33007 3.16667 4.75V23.75C3.16667 24.1699 3.33348 24.5727 3.63041 24.8696C3.92735 25.1665 4.33007 25.3333 4.75 25.3333H30.0833C30.5033 25.3333 30.906 25.1665 31.2029 24.8696C31.4999 24.5727 31.6667 24.1699 31.6667 23.75V4.75C31.6667 4.33007 31.4999 3.92735 31.2029 3.63041C30.906 3.33348 30.5033 3.16667 30.0833 3.16667Z" fill="#6C5BE7"/>
</svg>
