<svg width="38" height="38" viewBox="0 0 38 38" fill="none" xmlns="http://www.w3.org/2000/svg">
<path d="M33.725 4.27499C33.2297 3.77909 32.6414 3.38568 31.9939 3.11726C31.3465 2.84885 30.6524 2.71069 29.9515 2.71069C29.2506 2.71069 28.5565 2.84885 27.909 3.11726C27.2615 3.38568 26.6733 3.77909 26.1779 4.27499L6.11123 24.3431C5.51409 24.9402 5.07981 25.6812 4.85181 26.4955L2.75231 33.9937C2.7038 34.1675 2.70237 34.3511 2.74818 34.5257C2.79398 34.7002 2.88536 34.8594 3.01297 34.987C3.14057 35.1147 3.2998 35.206 3.47435 35.2518C3.6489 35.2976 3.83249 35.2962 4.00631 35.2477L11.5032 33.1482C12.318 32.9219 13.0601 32.4879 13.6569 31.8888L30.1964 15.3506C30.6134 15.8013 30.8397 16.3959 30.8278 17.0097C30.8159 17.6235 30.5668 18.2089 30.1327 18.6431L27.4414 21.3343C27.3414 21.4275 27.2612 21.5398 27.2056 21.6647C27.15 21.7895 27.1201 21.9243 27.1176 22.061C27.1152 22.1977 27.1404 22.3334 27.1916 22.4602C27.2428 22.5869 27.319 22.702 27.4156 22.7987C27.5123 22.8953 27.6274 22.9715 27.7541 23.0227C27.8809 23.0739 28.0166 23.0991 28.1533 23.0967C28.29 23.0942 28.4248 23.0643 28.5496 23.0087C28.6745 22.9531 28.7868 22.8729 28.88 22.7729L31.5712 20.083C32.3872 19.267 32.8508 18.1637 32.8627 17.0099C32.8746 15.856 32.4339 14.7434 31.635 13.9107L33.725 11.8207C34.2207 11.3254 34.614 10.7372 34.8823 10.0899C35.1505 9.4425 35.2886 8.74861 35.2886 8.04785C35.2886 7.34709 35.1505 6.6532 34.8823 6.00583C34.614 5.35847 34.2207 4.77031 33.725 4.27499ZM27.6179 5.71356C28.237 5.09465 29.0766 4.74702 29.952 4.74715C30.8274 4.74728 31.6669 5.09515 32.2858 5.71424C32.9047 6.33333 33.2523 7.17293 33.2522 8.04833C33.2521 8.92373 32.9042 9.76323 32.2851 10.3821L12.2184 30.4502C11.869 30.8019 11.434 31.0563 10.9562 31.1885L5.20059 32.7994L6.81152 27.0451C6.94539 26.5681 7.19961 26.1335 7.54981 25.783L27.6179 5.71356Z" fill="#6C5BE7"/>
</svg>
