<svg width="34" height="32" viewBox="0 0 34 32" fill="none" xmlns="http://www.w3.org/2000/svg">
<path d="M1.95825 3.33333C1.95825 2.91341 2.12507 2.51068 2.422 2.21375C2.71893 1.91681 3.12166 1.75 3.54159 1.75H13.0416L16.9999 6.5H30.4583C30.8782 6.5 31.2809 6.66682 31.5778 6.96375C31.8748 7.26068 32.0416 7.66341 32.0416 8.08333V28.6667C32.0416 29.0866 31.8748 29.4893 31.5778 29.7863C31.2809 30.0832 30.8782 30.25 30.4583 30.25H3.54159C3.12166 30.25 2.71893 30.0832 2.422 29.7863C2.12507 29.4893 1.95825 29.0866 1.95825 28.6667V3.33333Z" stroke="#6C5BE7" stroke-width="2" stroke-linejoin="round"/>
<path d="M9.08325 14.4166L13.0416 18.375L9.08325 22.3333" stroke="#6C5BE7" stroke-width="2" stroke-linecap="round" stroke-linejoin="round"/>
<path d="M18.5833 22.3334H24.9166" stroke="#6C5BE7" stroke-width="2" stroke-linecap="round"/>
</svg>
