<svg width="34" height="34" viewBox="0 0 34 34" fill="none" xmlns="http://www.w3.org/2000/svg">
<g clip-path="url(#clip0_184_54)">
<path d="M27.4025 29.2853C28.1314 29.2853 28.8305 28.9958 29.3459 28.4804C29.8613 27.965 30.1509 27.2659 30.1509 26.537C30.1509 26.1761 30.0798 25.8187 29.9417 25.4853C29.8035 25.1518 29.6011 24.8489 29.3459 24.5936C29.0907 24.3384 28.7877 24.136 28.4543 23.9979C28.1208 23.8598 27.7634 23.7887 27.4025 23.7887C27.0416 23.7887 26.6842 23.8598 26.3508 23.9979C26.0173 24.136 25.7144 24.3384 25.4592 24.5936C25.204 24.8489 25.0015 25.1518 24.8634 25.4853C24.7253 25.8187 24.6542 26.1761 24.6542 26.537C24.6542 27.2659 24.9437 27.965 25.4592 28.4804C25.9746 28.9958 26.6736 29.2853 27.4025 29.2853ZM12.8321 18.1277C14.4776 19.0781 16.3657 19.5251 18.2626 19.4133C20.1595 19.3016 21.9821 18.636 23.5046 17.499C25.0271 16.362 26.1828 14.8035 26.8286 13.0164C27.4744 11.2293 27.5819 9.29198 27.1378 7.44436C26.6938 5.59674 25.7177 3.9199 24.3303 2.62139C22.943 1.32288 21.2053 0.459721 19.3324 0.138751C17.4595 -0.182219 15.5335 0.0530925 13.793 0.81556C12.0524 1.57803 10.5737 2.83417 9.53978 4.42851C9.451 4.56829 9.36364 4.70996 9.27769 4.85351C9.19269 4.99943 9.12186 5.14393 9.04111 5.29268C7.90819 7.51038 7.66985 10.0784 8.37527 12.4667C9.0807 14.855 10.6761 16.8814 12.8321 18.1277ZM12.8321 18.1234H6.83961L3.84619 23.3127L6.84103 28.5076H12.8321L15.8298 23.3127L12.8321 18.1234ZM12.8321 28.5076L9.66161 33.9986H16.0083L12.8321 28.5076Z" fill="#6C5BE7"/>
</g>
<defs>
<clipPath id="clip0_184_54">
<rect width="34" height="34" fill="white"/>
</clipPath>
</defs>
</svg>
