<svg width="24" height="30" viewBox="0 0 24 30" fill="none" xmlns="http://www.w3.org/2000/svg">
<path d="M14.1818 17.8846C14.1818 18.4551 14.0219 19.0128 13.7222 19.4872C13.4225 19.9616 12.9966 20.3313 12.4982 20.5497C11.9999 20.768 11.4515 20.8251 10.9225 20.7138C10.3934 20.6025 9.90749 20.3278 9.52607 19.9243C9.14466 19.5209 8.88491 19.0069 8.77968 18.4474C8.67444 17.8878 8.72845 17.3078 8.93487 16.7807C9.14129 16.2536 9.49086 15.8031 9.93935 15.4861C10.3879 15.1692 10.9151 15 11.4545 15C12.1779 15 12.8716 15.3039 13.383 15.8449C13.8945 16.3859 14.1818 17.1196 14.1818 17.8846ZM24 9.23077V27.6923C24 28.3043 23.7701 28.8913 23.361 29.3241C22.9518 29.7569 22.3968 30 21.8182 30H2.18182C1.60316 30 1.04821 29.7569 0.63904 29.3241C0.229869 28.8913 0 28.3043 0 27.6923V2.30769C0 1.69565 0.229869 1.10868 0.63904 0.675908C1.04821 0.243131 1.60316 3.56767e-07 2.18182 3.56767e-07H15.2727C15.416 -0.00011883 15.558 0.0296259 15.6904 0.0875353C15.8228 0.145445 15.9432 0.230384 16.0445 0.3375L23.6809 8.41442C23.7822 8.52166 23.8625 8.64895 23.9172 8.78902C23.972 8.92909 24.0001 9.0792 24 9.23077ZM17.1355 22.2606L15.6082 20.6466C16.252 19.5646 16.4963 18.2695 16.2945 17.009C16.0926 15.7484 15.4587 14.6107 14.5139 13.8132C13.5692 13.0158 12.3797 12.6144 11.1728 12.6859C9.96593 12.7573 8.82624 13.2966 7.97151 14.2006C7.11678 15.1047 6.60693 16.3101 6.53936 17.5866C6.4718 18.8631 6.85126 20.1212 7.60524 21.1205C8.35923 22.1198 9.43488 22.7903 10.6267 23.0038C11.8185 23.2173 13.0429 22.9588 14.0659 22.2779L15.5918 23.8933C15.6932 24.0005 15.8135 24.0855 15.9459 24.1435C16.0784 24.2015 16.2203 24.2314 16.3636 24.2314C16.507 24.2314 16.6489 24.2015 16.7813 24.1435C16.9138 24.0855 17.0341 24.0005 17.1355 23.8933C17.2368 23.7861 17.3172 23.6588 17.3721 23.5187C17.4269 23.3787 17.4552 23.2285 17.4552 23.0769C17.4552 22.9253 17.4269 22.7752 17.3721 22.6351C17.3172 22.4951 17.2368 22.3678 17.1355 22.2606ZM21.2727 9.23077L15.2727 2.88462V9.23077H21.2727Z" fill="#6C5BE7"/>
</svg>
