<svg width="34" height="28" viewBox="0 0 34 28" fill="none" xmlns="http://www.w3.org/2000/svg">
<path d="M31.5406 1.33337H2.45954C1.74555 1.33337 1.16675 1.91218 1.16675 2.62617V25.3739C1.16675 26.0879 1.74555 26.6667 2.45954 26.6667H31.5406C32.2546 26.6667 32.8334 26.0879 32.8334 25.3739V2.62617C32.8334 1.91218 32.2546 1.33337 31.5406 1.33337Z" stroke="#6C5BE7"/>
<path d="M10.6667 10.0006C9.08341 7.66673 6.311 9.20098 6.50971 11.5997C6.70841 14.0001 9.87508 14.0001 10.0722 16.4004C10.2709 18.7991 7.50008 20.3334 5.91675 17.9988M18.5834 9.25007H15.4167V19.5417H18.5834M15.4167 14.7917H18.5834" stroke="#6C5BE7" stroke-linecap="round" stroke-linejoin="round"/>
<path d="M28.0835 11.625C28.0835 10.3133 27.0202 9.25 25.7085 9.25C24.3968 9.25 23.3335 10.3133 23.3335 11.625V17.1667C23.3335 18.4783 24.3968 19.5417 25.7085 19.5417C27.0202 19.5417 28.0835 18.4783 28.0835 17.1667V11.625Z" stroke="#6C5BE7" stroke-linecap="round" stroke-linejoin="round"/>
</svg>
