<svg width="38" height="38" viewBox="0 0 38 38" fill="none" xmlns="http://www.w3.org/2000/svg">
<path d="M22.5625 14.25H15.4375C15.1226 14.25 14.8205 14.3751 14.5978 14.5978C14.3751 14.8205 14.25 15.1226 14.25 15.4375V22.5625C14.25 22.8774 14.3751 23.1795 14.5978 23.4022C14.8205 23.6249 15.1226 23.75 15.4375 23.75H22.5625C22.8774 23.75 23.1795 23.6249 23.4022 23.4022C23.6249 23.1795 23.75 22.8774 23.75 22.5625V15.4375C23.75 15.1226 23.6249 14.8205 23.4022 14.5978C23.1795 14.3751 22.8774 14.25 22.5625 14.25ZM21.375 21.375H16.625V16.625H21.375V21.375ZM34.4375 21.375H32.0625V16.625H34.4375C34.7524 16.625 35.0545 16.4999 35.2772 16.2772C35.4999 16.0545 35.625 15.7524 35.625 15.4375C35.625 15.1226 35.4999 14.8205 35.2772 14.5978C35.0545 14.3751 34.7524 14.25 34.4375 14.25H32.0625V8.3125C32.0625 7.68261 31.8123 7.07852 31.3669 6.63312C30.9215 6.18772 30.3174 5.9375 29.6875 5.9375H23.75V3.5625C23.75 3.24756 23.6249 2.94551 23.4022 2.72281C23.1795 2.50011 22.8774 2.375 22.5625 2.375C22.2476 2.375 21.9455 2.50011 21.7228 2.72281C21.5001 2.94551 21.375 3.24756 21.375 3.5625V5.9375H16.625V3.5625C16.625 3.24756 16.4999 2.94551 16.2772 2.72281C16.0545 2.50011 15.7524 2.375 15.4375 2.375C15.1226 2.375 14.8205 2.50011 14.5978 2.72281C14.3751 2.94551 14.25 3.24756 14.25 3.5625V5.9375H8.3125C7.68261 5.9375 7.07852 6.18772 6.63312 6.63312C6.18772 7.07852 5.9375 7.68261 5.9375 8.3125V14.25H3.5625C3.24756 14.25 2.94551 14.3751 2.72281 14.5978C2.50011 14.8205 2.375 15.1226 2.375 15.4375C2.375 15.7524 2.50011 16.0545 2.72281 16.2772C2.94551 16.4999 3.24756 16.625 3.5625 16.625H5.9375V21.375H3.5625C3.24756 21.375 2.94551 21.5001 2.72281 21.7228C2.50011 21.9455 2.375 22.2476 2.375 22.5625C2.375 22.8774 2.50011 23.1795 2.72281 23.4022C2.94551 23.6249 3.24756 23.75 3.5625 23.75H5.9375V29.6875C5.9375 30.3174 6.18772 30.9215 6.63312 31.3669C7.07852 31.8123 7.68261 32.0625 8.3125 32.0625H14.25V34.4375C14.25 34.7524 14.3751 35.0545 14.5978 35.2772C14.8205 35.4999 15.1226 35.625 15.4375 35.625C15.7524 35.625 16.0545 35.4999 16.2772 35.2772C16.4999 35.0545 16.625 34.7524 16.625 34.4375V32.0625H21.375V34.4375C21.375 34.7524 21.5001 35.0545 21.7228 35.2772C21.9455 35.4999 22.2476 35.625 22.5625 35.625C22.8774 35.625 23.1795 35.4999 23.4022 35.2772C23.6249 35.0545 23.75 34.7524 23.75 34.4375V32.0625H29.6875C30.3174 32.0625 30.9215 31.8123 31.3669 31.3669C31.8123 30.9215 32.0625 30.3174 32.0625 29.6875V23.75H34.4375C34.7524 23.75 35.0545 23.6249 35.2772 23.4022C35.4999 23.1795 35.625 22.8774 35.625 22.5625C35.625 22.2476 35.4999 21.9455 35.2772 21.7228C35.0545 21.5001 34.7524 21.375 34.4375 21.375ZM29.6875 29.6875H8.3125V8.3125H29.6875V29.6875Z" fill="#6C5BE7"/>
</svg>
