<svg width="130" height="185" viewBox="0 0 130 185" fill="none" xmlns="http://www.w3.org/2000/svg">
<path fill-rule="evenodd" clip-rule="evenodd" d="M-63.5322 70.2875C-54.2025 57.4537 -43.3057 46.9924 -31.5042 36.383C-17.751 24.0192 -6.621 7.30676 11.3654 2.956C30.7732 -1.73861 52.7878 0.856482 69.3804 11.9799C85.7565 22.9581 89.2835 44.6125 99.0426 61.7332C109.589 80.2346 129.522 95.3864 129.051 116.663C128.577 138.155 113.703 157.817 96.6304 170.886C81.0184 182.836 60.0361 182.779 40.4363 184.495C24.5771 185.883 9.68431 181.684 -6.136 179.881C-25.1698 177.712 -46.0608 183.451 -61.9989 172.82C-79.0149 161.47 -93.1679 142.057 -93.4734 121.627C-93.7758 101.405 -75.4225 86.6436 -63.5322 70.2875Z" fill="#6C5BE7"/>
</svg>
