<svg width="112" height="185" viewBox="0 0 112 185" fill="none" xmlns="http://www.w3.org/2000/svg">
<path fill-rule="evenodd" clip-rule="evenodd" d="M30.4678 70.2874C39.7975 57.4536 50.6943 46.9923 62.4958 36.3829C76.249 24.019 87.379 7.30663 105.365 2.95588C124.773 -1.73873 146.788 0.85636 163.38 11.9797C179.757 22.958 183.284 44.6124 193.043 61.7331C203.589 80.2344 223.522 95.3862 223.051 116.663C222.577 138.155 207.703 157.817 190.63 170.886C175.018 182.836 154.036 182.779 134.436 184.494C118.577 185.883 103.684 181.684 87.864 179.881C68.8302 177.712 47.9392 183.451 32.0011 172.82C14.9851 161.47 0.832075 142.057 0.526569 121.627C0.224169 101.405 18.5775 86.6435 30.4678 70.2874Z" fill="#6C5BE7"/>
</svg>
