<svg width="484" height="385" viewBox="0 0 484 385" fill="none" xmlns="http://www.w3.org/2000/svg">
<g clip-path="url(#clip0_13465_50609)">
<path d="M459.253 228.096L445.545 225.915C443.088 225.52 441.112 223.767 440.271 221.431C439.738 219.988 439.154 218.562 438.518 217.188C437.488 214.92 437.625 212.309 439.085 210.299L447.228 199.081C449.152 196.419 448.86 192.76 446.541 190.44L435.77 179.669C433.451 177.35 429.792 177.058 427.129 178.982L415.911 187.125C413.901 188.585 411.273 188.723 409.022 187.692C407.631 187.056 406.222 186.472 404.779 185.94C402.443 185.081 400.674 183.122 400.296 180.649L398.114 166.94C397.598 163.693 394.798 161.305 391.517 161.305H376.297C373.016 161.305 370.215 163.693 369.7 166.94L367.518 180.649C367.123 183.105 365.371 185.081 363.018 185.94C361.574 186.472 360.149 187.056 358.774 187.692C356.507 188.723 353.896 188.585 351.886 187.125L340.668 178.982C338.005 177.058 334.346 177.35 332.027 179.669L321.256 190.44C318.937 192.76 318.645 196.419 320.569 199.081L328.711 210.299C330.172 212.309 330.309 214.937 329.278 217.188C328.643 218.579 328.059 219.988 327.526 221.431C326.667 223.767 324.709 225.537 322.235 225.915L308.526 228.096C305.279 228.612 302.892 231.412 302.892 234.693V249.914C302.892 253.195 305.279 255.995 308.526 256.51L322.235 258.692C324.692 259.087 326.667 260.839 327.526 263.176C328.059 264.619 328.643 266.045 329.278 267.419C330.309 269.686 330.172 272.298 328.711 274.308L320.569 285.525C318.645 288.188 318.937 291.847 321.256 294.166L332.027 304.937C334.346 307.257 338.005 307.549 340.668 305.625L351.886 297.482C353.896 296.022 356.524 295.884 358.774 296.915C360.166 297.55 361.574 298.135 363.018 298.667C365.354 299.526 367.123 301.484 367.518 303.958L369.7 317.667C370.215 320.914 373.016 323.302 376.297 323.302H391.517C394.798 323.302 397.598 320.914 398.114 317.667L400.296 303.958C400.691 301.502 402.443 299.526 404.779 298.667C406.222 298.135 407.648 297.55 409.022 296.915C411.29 295.884 413.901 296.022 415.911 297.482L427.129 305.625C429.792 307.549 433.451 307.257 435.77 304.937L446.541 294.166C448.86 291.847 449.152 288.188 447.228 285.525L439.085 274.308C437.625 272.298 437.488 269.669 438.518 267.419C439.154 266.027 439.738 264.619 440.271 263.176C441.13 260.839 443.088 259.07 445.545 258.675L459.253 256.493C462.5 255.978 464.888 253.178 464.888 249.896V234.676C464.888 231.395 462.5 228.595 459.253 228.079V228.096ZM383.907 278.259C364.048 278.259 347.952 262.162 347.952 242.303C347.952 222.445 364.048 206.348 383.907 206.348C403.766 206.348 419.862 222.445 419.862 242.303C419.862 262.162 403.766 278.259 383.907 278.259Z" fill="#B78EF0" stroke="#2F263A" stroke-width="1.85531" stroke-linecap="round" stroke-linejoin="round"/>
<path d="M349.635 77.3524C349.635 71.5081 344.901 66.7703 339.062 66.7703C333.222 66.7703 328.488 71.5081 328.488 77.3524V129.714C328.488 135.558 333.222 140.296 339.062 140.296C344.901 140.296 349.635 135.558 349.635 129.714V77.3524Z" fill="#FFBE4A" stroke="#2F263A" stroke-width="1.85531" stroke-linecap="round" stroke-linejoin="round"/>
<path d="M349.635 162.284C349.635 156.44 344.901 151.702 339.062 151.702C333.222 151.702 328.488 156.44 328.488 162.284V214.645C328.488 220.49 333.222 225.227 339.062 225.227C344.901 225.227 349.635 220.49 349.635 214.645V162.284Z" fill="#FFBE4A" stroke="#2F263A" stroke-width="1.85531" stroke-linecap="round" stroke-linejoin="round"/>
<path d="M314.556 24.5442H154.106C140.567 24.5442 129.592 35.5196 129.592 49.0584V332.904C129.592 346.443 140.567 357.418 154.106 357.418H314.556C328.095 357.418 339.07 346.443 339.07 332.904V49.0584C339.07 35.5196 328.095 24.5442 314.556 24.5442Z" fill="#4DBBFF" stroke="#2F263A" stroke-width="1.85531" stroke-linecap="round" stroke-linejoin="round"/>
<path d="M309.833 40.2458H158.814C150.531 40.2458 143.816 46.9603 143.816 55.243V299.2C143.816 307.482 150.531 314.197 158.814 314.197H309.833C318.115 314.197 324.83 307.482 324.83 299.2V55.243C324.83 46.9603 318.115 40.2458 309.833 40.2458Z" fill="white" stroke="#2F263A" stroke-width="1.85531" stroke-linecap="round" stroke-linejoin="round"/>
<path d="M402.409 113.772C402.409 125.247 432.695 117.362 434.791 125.247V86.6808C432.695 78.7957 402.409 83.2966 402.409 75.2053V113.772Z" fill="#4DBBFF" stroke="#2F263A" stroke-width="1.85531" stroke-linecap="round" stroke-linejoin="round"/>
<path d="M419.691 111.194C419.691 114.338 415.86 114.974 413.18 113.994C409.796 112.758 402.409 110.301 402.409 113.771V95.8193C402.409 92.3491 409.796 94.8057 413.18 96.0426C415.86 97.0218 419.691 96.3862 419.691 93.2424" fill="#FFBE4A"/>
<path d="M419.691 111.194C419.691 114.338 415.86 114.974 413.18 113.994C409.796 112.758 402.409 110.301 402.409 113.771V95.8193C402.409 92.3491 409.796 94.8057 413.18 96.0426C415.86 97.0218 419.691 96.3862 419.691 93.2424" stroke="#2F263A" stroke-width="1.85531" stroke-linecap="round" stroke-linejoin="round"/>
<path d="M375.747 96.8673C375.747 96.8673 419.691 98.5336 419.691 111.194V76.4932C419.691 63.8324 375.747 62.166 375.747 62.166" fill="#4DBBFF"/>
<path d="M375.747 96.8673C375.747 96.8673 419.691 98.5336 419.691 111.194V76.4932C419.691 63.8324 375.747 62.166 375.747 62.166" stroke="#2F263A" stroke-width="1.85531" stroke-linecap="round" stroke-linejoin="round"/>
<path d="M373.033 151.169C370.731 151.169 368.858 149.297 368.858 146.995V59.4686C368.858 57.1667 370.731 55.2942 373.033 55.2942C375.335 55.2942 377.207 57.1667 377.207 59.4686V146.995C377.207 149.297 375.335 151.169 373.033 151.169Z" fill="white" stroke="#2F263A" stroke-width="1.85531" stroke-linecap="round" stroke-linejoin="round"/>
<path d="M83.2995 138.368C99.7447 133.39 109.041 116.024 104.063 99.5785C99.0857 83.1333 81.7191 73.8369 65.2738 78.8146C48.8286 83.7922 39.5322 101.159 44.5099 117.604C49.4875 134.049 66.8542 143.346 83.2995 138.368Z" fill="#FF9D80" stroke="#2F263A" stroke-width="1.85531" stroke-linecap="round" stroke-linejoin="round"/>
<path d="M84.4799 116.313C83.0541 116.313 81.8172 117.035 81.0098 118.083L63.8825 109.51C63.9512 109.201 64.0714 108.909 64.0714 108.583C64.0714 108.256 63.9512 107.964 63.8825 107.655L81.0098 99.0829C81.8344 100.131 83.0541 100.852 84.4799 100.852C86.9536 100.852 88.9636 98.8424 88.9636 96.3687C88.9636 93.8949 86.9536 91.885 84.4799 91.885C82.0061 91.885 79.9962 93.8949 79.9962 96.3687C79.9962 96.6092 80.0993 96.8325 80.1336 97.073L62.9205 105.68C62.0959 104.735 60.9277 104.099 59.5706 104.099C57.0968 104.099 55.0869 106.109 55.0869 108.583C55.0869 111.057 57.0968 113.067 59.5706 113.067C60.9277 113.067 62.0959 112.431 62.9205 111.486L80.1336 120.093C80.0993 120.333 79.9962 120.539 79.9962 120.797C79.9962 123.271 82.0061 125.281 84.4799 125.281C86.9536 125.281 88.9636 123.271 88.9636 120.797C88.9636 118.323 86.9536 116.313 84.4799 116.313Z" fill="#2F263A"/>
<path d="M85.8999 341.725C85.1225 341.725 84.3571 341.426 83.7592 340.84C79.2623 336.343 73.2825 333.868 66.932 333.868C60.5814 333.868 54.6017 336.343 50.1048 340.84C48.9208 342.024 47.0073 342.024 45.8353 340.84C44.6513 339.656 44.6513 337.743 45.8353 336.571C51.4682 330.938 58.9669 327.828 66.932 327.828C74.8971 327.828 82.3958 330.938 88.0287 336.571C89.2127 337.755 89.2127 339.668 88.0287 340.84C87.4427 341.426 86.6653 341.725 85.888 341.725H85.8999Z" fill="#4DBBFF" stroke="#2F263A" stroke-width="1.29164" stroke-linecap="round" stroke-linejoin="round"/>
<path d="M80.5781 350.743C79.8007 350.743 79.0353 350.444 78.4373 349.858C75.3637 346.784 71.2855 345.098 66.9441 345.098C62.6028 345.098 58.5126 346.784 55.4509 349.858C54.2669 351.042 52.3534 351.042 51.1814 349.858C50.0093 348.674 49.9974 346.76 51.1814 345.588C55.3911 341.379 60.9882 339.058 66.9561 339.058C72.9239 339.058 78.521 341.379 82.7308 345.588C83.9148 346.772 83.9148 348.686 82.7308 349.858C82.1448 350.444 81.3674 350.743 80.59 350.743H80.5781Z" fill="#4DBBFF" stroke="#2F263A" stroke-width="1.29164" stroke-linecap="round" stroke-linejoin="round"/>
<path d="M75.6509 359.354C74.8736 359.354 74.1081 359.055 73.5102 358.469C69.994 354.964 63.8707 354.964 60.3785 358.469C59.1945 359.653 57.281 359.653 56.097 358.469C54.913 357.285 54.913 355.371 56.097 354.199C58.9912 351.305 62.8422 349.702 66.9443 349.702C71.0465 349.702 74.8975 351.293 77.7917 354.199C78.9757 355.383 78.9757 357.296 77.7917 358.469C77.2057 359.055 76.4283 359.354 75.6509 359.354Z" fill="#4DBBFF" stroke="#2F263A" stroke-width="1.29164" stroke-linecap="round" stroke-linejoin="round"/>
<path d="M71.8357 365.142C71.8357 367.845 69.6471 370.034 66.9442 370.034C64.2413 370.034 62.0527 367.845 62.0527 365.142C62.0527 362.44 64.2413 360.251 66.9442 360.251C69.6471 360.251 71.8357 362.44 71.8357 365.142Z" fill="#FFBE4A" stroke="#2F263A" stroke-width="1.29164" stroke-linecap="round" stroke-linejoin="round"/>
<path d="M288.157 60.5637C292.684 32.6746 273.745 6.39621 245.856 1.86918C217.967 -2.65785 191.689 16.2808 187.162 44.1699C182.635 72.0589 201.573 98.3374 229.462 102.864C257.352 107.391 283.63 88.4528 288.157 60.5637Z" fill="#FFBE4A" stroke="#2F263A" stroke-width="1.85531" stroke-linecap="round" stroke-linejoin="round"/>
<path d="M237.646 52.3744L275.44 17.8965C279.7 22.5691 283.067 27.9976 285.352 33.89C287.637 39.7823 288.805 46.0526 288.805 52.3744H237.646Z" fill="white" stroke="#2F263A" stroke-width="1.85531" stroke-linecap="round" stroke-linejoin="round"/>
<path d="M237.647 52.3741H288.805C288.805 80.4443 265.717 103.533 237.647 103.533C209.577 103.533 186.488 80.4443 186.488 52.3741C186.488 40.2974 190.766 28.5986 198.565 19.3735L237.647 52.3741Z" fill="#20DF78" stroke="#2F263A" stroke-width="1.85531" stroke-linecap="round" stroke-linejoin="round"/>
<path d="M237.646 52.374H288.805C288.805 64.9661 284.15 77.1287 275.749 86.5084C267.349 95.888 255.77 101.849 243.247 103.223L237.646 52.374Z" fill="#8C4AE8" stroke="#2F263A" stroke-width="1.85531" stroke-linecap="round" stroke-linejoin="round"/>
<path d="M304.815 292.929H246.768C237.66 292.929 230.276 300.313 230.276 309.421V367.468C230.276 376.576 237.66 383.96 246.768 383.96H304.815C313.923 383.96 321.307 376.576 321.307 367.468V309.421C321.307 300.313 313.923 292.929 304.815 292.929Z" fill="#20DF78" stroke="#2F263A" stroke-width="1.85531" stroke-linecap="round" stroke-linejoin="round"/>
<path d="M270.011 358.484C268.104 358.484 266.283 357.728 264.943 356.388L250.753 342.198C247.953 339.398 247.953 334.863 250.753 332.062C253.554 329.262 258.089 329.262 260.889 332.062L270.011 341.184L290.677 320.518C293.477 317.718 298.012 317.718 300.813 320.518C303.613 323.318 303.613 327.854 300.813 330.654L275.061 356.388C273.722 357.728 271.883 358.484 269.994 358.484H270.011Z" fill="white" stroke="#2F263A" stroke-width="1.85531" stroke-linecap="round" stroke-linejoin="round"/>
<path d="M28.1334 210.024C28.1334 216.088 23.2031 221.019 17.139 221.019C11.0749 221.019 6.14453 216.088 6.14453 210.024C6.14453 203.96 11.0749 199.03 17.139 199.03C23.2031 199.03 28.1334 203.96 28.1334 210.024Z" fill="#7566FF" stroke="#2F263A" stroke-width="1.85531" stroke-linecap="round" stroke-linejoin="round"/>
<path d="M52.9746 242.303H84.8413V302.79C84.8413 309.73 79.2067 315.365 72.2664 315.365H58.2142C55.3281 315.365 52.9746 313.011 52.9746 310.125V242.303Z" fill="#FFBE4A" stroke="#2F263A" stroke-width="1.85531" stroke-linecap="round" stroke-linejoin="round"/>
<path d="M43.5088 243.763H94.3066V250.617C94.3066 256.75 89.3419 261.715 83.2091 261.715H54.6063C48.4735 261.715 43.5088 256.75 43.5088 250.617V243.763Z" fill="#433359" stroke="#2F263A" stroke-width="1.85531" stroke-linecap="round" stroke-linejoin="round"/>
<path d="M42.3228 171.612C28.408 171.612 17.1387 182.881 17.1387 196.796V223.235C17.1387 237.149 28.408 248.419 42.3228 248.419H43.0272V171.595H42.3228V171.612Z" fill="#7C52A8" stroke="#2F263A" stroke-width="1.85531" stroke-linecap="round" stroke-linejoin="round"/>
<path d="M94.7872 171.612H43.0273V248.436H94.7872V171.612Z" fill="#FF668B" stroke="#2F263A" stroke-width="1.85531" stroke-linecap="round" stroke-linejoin="round"/>
<path d="M94.7881 171.612C124.009 171.612 172.436 153.798 189.701 129.301V290.73C172.436 266.233 124.009 248.419 94.7881 248.419V171.595V171.612Z" fill="#FFD766" stroke="#2F263A" stroke-width="1.85531" stroke-linecap="round" stroke-linejoin="round"/>
<path d="M189.7 290.73C204.918 290.73 217.255 254.597 217.255 210.024C217.255 165.451 204.918 129.318 189.7 129.318C174.482 129.318 162.146 165.451 162.146 210.024C162.146 254.597 174.482 290.73 189.7 290.73Z" fill="#FF668B" stroke="#2F263A" stroke-width="1.7007" stroke-linecap="round" stroke-linejoin="round"/>
<path d="M191.573 275.218C202.114 275.218 210.659 246.03 210.659 210.024C210.659 174.019 202.114 144.831 191.573 144.831C181.032 144.831 172.487 174.019 172.487 210.024C172.487 246.03 181.032 275.218 191.573 275.218Z" fill="#DB4570" stroke="#2F263A" stroke-width="1.85531" stroke-linecap="round" stroke-linejoin="round"/>
<path d="M172.487 210.024C172.487 215.298 172.693 220.4 173.037 225.313L192.621 221.019V199.03L173.037 194.735C172.693 199.648 172.487 204.75 172.487 210.024Z" fill="white" stroke="#2F263A" stroke-width="1.85531" stroke-linecap="round" stroke-linejoin="round"/>
<path d="M191.573 221.637C195.206 221.637 198.152 216.437 198.152 210.024C198.152 203.61 195.206 198.411 191.573 198.411C187.939 198.411 184.993 203.61 184.993 210.024C184.993 216.437 187.939 221.637 191.573 221.637Z" fill="white" stroke="#2F263A" stroke-width="1.85531" stroke-linecap="round" stroke-linejoin="round"/>
<path d="M323.163 140.708H263.707C252.111 140.708 241.993 149.452 241.237 161.03C240.412 173.708 250.462 184.256 262.968 184.256H266.541C268.208 184.256 269.565 185.613 269.565 187.28V196.436C269.565 199.133 272.829 200.49 274.736 198.583L288.169 185.149C288.736 184.583 289.509 184.256 290.317 184.256H322.424C334.02 184.256 344.138 175.512 344.894 163.934C345.718 151.256 335.669 140.708 323.163 140.708Z" fill="#FF668B" stroke="#2F263A" stroke-width="1.7007" stroke-linecap="round" stroke-linejoin="round"/>
<path d="M277.406 167.813C280.392 167.813 282.813 165.392 282.813 162.406C282.813 159.42 280.392 157 277.406 157C274.42 157 272 159.42 272 162.406C272 165.392 274.42 167.813 277.406 167.813Z" fill="white" stroke="#2F263A" stroke-width="1.01368" stroke-linecap="round" stroke-linejoin="round"/>
<path d="M293.543 167.813C296.529 167.813 298.949 165.392 298.949 162.406C298.949 159.42 296.529 157 293.543 157C290.557 157 288.137 159.42 288.137 162.406C288.137 165.392 290.557 167.813 293.543 167.813Z" fill="white" stroke="#2F263A" stroke-width="1.01368" stroke-linecap="round" stroke-linejoin="round"/>
<path d="M309.69 167.813C312.676 167.813 315.097 165.392 315.097 162.406C315.097 159.42 312.676 157 309.69 157C306.705 157 304.284 159.42 304.284 162.406C304.284 165.392 306.705 167.813 309.69 167.813Z" fill="white" stroke="#2F263A" stroke-width="1.01368" stroke-linecap="round" stroke-linejoin="round"/>
<path d="M419.862 144.538C411.153 135.537 393.476 151.238 419.862 166.407C446.249 151.238 428.572 135.554 419.862 144.538Z" fill="#FF80B8" stroke="#2F263A" stroke-width="1.7007" stroke-linecap="round" stroke-linejoin="round"/>
<path d="M109.011 144.229C102.243 137.237 88.4997 149.434 109.011 161.236C129.523 149.452 115.78 137.237 109.011 144.229Z" fill="#4DBBFF" stroke="#2F263A" stroke-width="1.85531" stroke-linecap="round" stroke-linejoin="round"/>
<path d="M108.599 49.2301C108.599 53.0438 105.507 56.136 101.693 56.136C97.8793 56.136 94.7871 53.0438 94.7871 49.2301C94.7871 45.4164 97.8793 42.3242 101.693 42.3242C105.507 42.3242 108.599 45.4164 108.599 49.2301Z" stroke="white" stroke-width="1.85531" stroke-linecap="round" stroke-linejoin="round"/>
<path d="M43.5083 155.138C45.7 155.138 47.4767 153.361 47.4767 151.169C47.4767 148.978 45.7 147.201 43.5083 147.201C41.3167 147.201 39.54 148.978 39.54 151.169C39.54 153.361 41.3167 155.138 43.5083 155.138Z" stroke="#E8D6FF" stroke-width="1.85531" stroke-linecap="round" stroke-linejoin="round"/>
<path d="M362.605 22.7578L363.911 26.7432C364.1 27.3273 364.65 27.7224 365.268 27.7224H369.46C370.834 27.7224 371.418 29.4919 370.302 30.2993L366.9 32.773C366.402 33.1338 366.196 33.7866 366.385 34.3707L367.69 38.3561C368.12 39.6617 366.608 40.7612 365.492 39.9538L362.09 37.48C361.592 37.1193 360.922 37.1193 360.407 37.48L357.005 39.9538C355.889 40.7612 354.377 39.6789 354.806 38.3561L356.112 34.3707C356.301 33.7866 356.095 33.1338 355.597 32.773L352.195 30.2993C351.078 29.4919 351.645 27.7224 353.037 27.7224H357.229C357.847 27.7224 358.397 27.3273 358.586 26.7432L359.891 22.7578C360.321 21.4522 362.176 21.4522 362.605 22.7578Z" stroke="#FFD766" stroke-width="1.85531" stroke-linecap="round" stroke-linejoin="round"/>
<path d="M450.371 163.864C450.749 163.864 451.145 164.088 451.282 164.534L452.158 167.231C452.278 167.627 452.656 167.901 453.069 167.901H455.903C456.831 167.901 457.226 169.087 456.47 169.636L454.185 171.303C453.842 171.543 453.704 171.99 453.842 172.385L454.718 175.082C454.941 175.752 454.409 176.353 453.807 176.353C453.618 176.353 453.429 176.302 453.24 176.164L450.956 174.498C450.784 174.378 450.595 174.309 450.389 174.309C450.182 174.309 449.994 174.378 449.822 174.498L447.537 176.164C447.365 176.302 447.159 176.353 446.97 176.353C446.369 176.353 445.836 175.769 446.06 175.082L446.936 172.385C447.056 171.99 446.936 171.56 446.592 171.303L444.307 169.636C443.551 169.087 443.947 167.901 444.874 167.901H447.709C448.121 167.901 448.499 167.627 448.619 167.231L449.495 164.534C449.633 164.088 450.028 163.864 450.406 163.864M450.371 162.009C449.152 162.009 448.07 162.799 447.692 163.95L447.022 166.029H444.84C443.62 166.029 442.538 166.819 442.16 167.97C441.782 169.138 442.194 170.392 443.191 171.114L444.96 172.402L444.29 174.481C444.015 175.357 444.153 176.267 444.685 177.006C445.218 177.745 446.077 178.174 446.97 178.174C447.571 178.174 448.138 177.985 448.619 177.625L450.389 176.336L452.158 177.625C452.639 177.985 453.223 178.174 453.807 178.174C454.701 178.174 455.559 177.728 456.092 177.006C456.625 176.267 456.762 175.357 456.487 174.481L455.817 172.402L457.587 171.114C458.583 170.392 458.995 169.121 458.617 167.97C458.239 166.802 457.157 166.029 455.937 166.029H453.756L453.086 163.95C452.708 162.782 451.626 162.009 450.406 162.009H450.371Z" fill="white"/>
<path d="M38.75 57.6311C41.5501 57.6311 41.5501 60.603 44.3331 60.603C47.1161 60.603 47.1161 57.6311 49.9162 57.6311C52.7164 57.6311 52.7164 60.603 55.4994 60.603C58.2823 60.603 58.2995 57.6311 61.0997 57.6311C63.8998 57.6311 63.8998 60.603 66.6828 60.603C69.4658 60.603 69.4829 57.6311 72.2831 57.6311C75.0832 57.6311 75.0832 60.603 77.8834 60.603C80.6835 60.603 80.6835 57.6311 83.4837 57.6311" stroke="#20DF78" stroke-width="1.85531" stroke-linecap="round" stroke-linejoin="round"/>
<path d="M38.75 65.3271C41.5501 65.3271 41.5501 68.2991 44.3331 68.2991C47.1161 68.2991 47.1161 65.3271 49.9162 65.3271C52.7164 65.3271 52.7164 68.2991 55.4994 68.2991C58.2823 68.2991 58.2995 65.3271 61.0997 65.3271C63.8998 65.3271 63.8998 68.2991 66.6828 68.2991C69.4658 68.2991 69.4829 65.3271 72.2831 65.3271C75.0832 65.3271 75.0832 68.2991 77.8834 68.2991C80.6835 68.2991 80.6835 65.3271 83.4837 65.3271" stroke="#20DF78" stroke-width="1.85531" stroke-linecap="round" stroke-linejoin="round"/>
<path d="M363.756 346.888C366.556 346.888 366.556 349.86 369.339 349.86C372.122 349.86 372.122 346.888 374.922 346.888C377.722 346.888 377.722 349.86 380.505 349.86C383.288 349.86 383.305 346.888 386.106 346.888C388.906 346.888 388.906 349.86 391.689 349.86C394.472 349.86 394.489 346.888 397.289 346.888C400.089 346.888 400.089 349.86 402.889 349.86C405.689 349.86 405.689 346.888 408.49 346.888" stroke="#FF80B8" stroke-width="1.85531" stroke-linecap="round" stroke-linejoin="round"/>
<path d="M363.756 354.567C366.556 354.567 366.556 357.539 369.339 357.539C372.122 357.539 372.122 354.567 374.922 354.567C377.722 354.567 377.722 357.539 380.505 357.539C383.288 357.539 383.305 354.567 386.106 354.567C388.906 354.567 388.906 357.539 391.689 357.539C394.472 357.539 394.489 354.567 397.289 354.567C400.089 354.567 400.089 357.539 402.889 357.539C405.689 357.539 405.689 354.567 408.49 354.567" stroke="#FF80B8" stroke-width="1.85531" stroke-linecap="round" stroke-linejoin="round"/>
<path d="M402.632 36.5522C402.632 37.3253 401.996 37.9609 401.223 37.9609C400.45 37.9609 399.814 37.3253 399.814 36.5522C399.814 35.7792 400.45 35.1436 401.223 35.1436C401.996 35.1436 402.632 35.7792 402.632 36.5522Z" fill="#4DBBFF"/>
<path d="M410.62 36.5522C410.62 37.3253 409.984 37.9609 409.211 37.9609C408.438 37.9609 407.803 37.3253 407.803 36.5522C407.803 35.7792 408.438 35.1436 409.211 35.1436C409.984 35.1436 410.62 35.7792 410.62 36.5522Z" fill="#4DBBFF"/>
<path d="M418.591 36.5522C418.591 37.3253 417.955 37.9609 417.182 37.9609C416.409 37.9609 415.773 37.3253 415.773 36.5522C415.773 35.7792 416.409 35.1436 417.182 35.1436C417.955 35.1436 418.591 35.7792 418.591 36.5522Z" fill="#4DBBFF"/>
<path d="M402.632 43.1836C402.632 43.9566 401.996 44.5922 401.223 44.5922C400.45 44.5922 399.814 43.9566 399.814 43.1836C399.814 42.4105 400.45 41.7749 401.223 41.7749C401.996 41.7749 402.632 42.4105 402.632 43.1836Z" fill="#4DBBFF"/>
<path d="M410.62 43.1836C410.62 43.9566 409.984 44.5922 409.211 44.5922C408.438 44.5922 407.803 43.9566 407.803 43.1836C407.803 42.4105 408.438 41.7749 409.211 41.7749C409.984 41.7749 410.62 42.4105 410.62 43.1836Z" fill="#4DBBFF"/>
<path d="M418.591 43.1836C418.591 43.9566 417.955 44.5922 417.182 44.5922C416.409 44.5922 415.773 43.9566 415.773 43.1836C415.773 42.4105 416.409 41.7749 417.182 41.7749C417.955 41.7749 418.591 42.4105 418.591 43.1836Z" fill="#4DBBFF"/>
<path d="M401.223 51.2228C402.001 51.2228 402.632 50.5922 402.632 49.8142C402.632 49.0362 402.001 48.4055 401.223 48.4055C400.445 48.4055 399.814 49.0362 399.814 49.8142C399.814 50.5922 400.445 51.2228 401.223 51.2228Z" fill="#4DBBFF"/>
<path d="M410.62 49.8142C410.62 50.5872 409.984 51.2228 409.211 51.2228C408.438 51.2228 407.803 50.5872 407.803 49.8142C407.803 49.0411 408.438 48.4055 409.211 48.4055C409.984 48.4055 410.62 49.0411 410.62 49.8142Z" fill="#4DBBFF"/>
<path d="M418.591 49.8142C418.591 50.5872 417.955 51.2228 417.182 51.2228C416.409 51.2228 415.773 50.5872 415.773 49.8142C415.773 49.0411 416.409 48.4055 417.182 48.4055C417.955 48.4055 418.591 49.0411 418.591 49.8142Z" fill="#4DBBFF"/>
<path d="M467.705 203.393C467.705 204.166 467.069 204.801 466.296 204.801C465.523 204.801 464.888 204.166 464.888 203.393C464.888 202.62 465.523 201.984 466.296 201.984C467.069 201.984 467.705 202.62 467.705 203.393Z" fill="#FF668B"/>
<path d="M475.676 203.393C475.676 204.166 475.04 204.801 474.267 204.801C473.494 204.801 472.858 204.166 472.858 203.393C472.858 202.62 473.494 201.984 474.267 201.984C475.04 201.984 475.676 202.62 475.676 203.393Z" fill="#FF668B"/>
<path d="M483.664 203.393C483.664 204.166 483.028 204.801 482.255 204.801C481.482 204.801 480.847 204.166 480.847 203.393C480.847 202.62 481.482 201.984 482.255 201.984C483.028 201.984 483.664 202.62 483.664 203.393Z" fill="#FF668B"/>
<path d="M467.705 210.024C467.705 210.797 467.069 211.433 466.296 211.433C465.523 211.433 464.888 210.797 464.888 210.024C464.888 209.251 465.523 208.615 466.296 208.615C467.069 208.615 467.705 209.251 467.705 210.024Z" fill="#FF668B"/>
<path d="M475.676 210.024C475.676 210.797 475.04 211.433 474.267 211.433C473.494 211.433 472.858 210.797 472.858 210.024C472.858 209.251 473.494 208.615 474.267 208.615C475.04 208.615 475.676 209.251 475.676 210.024Z" fill="#FF668B"/>
<path d="M483.664 210.024C483.664 210.797 483.028 211.433 482.255 211.433C481.482 211.433 480.847 210.797 480.847 210.024C480.847 209.251 481.482 208.615 482.255 208.615C483.028 208.615 483.664 209.251 483.664 210.024Z" fill="#FF668B"/>
<path d="M467.705 216.655C467.705 217.428 467.069 218.063 466.296 218.063C465.523 218.063 464.888 217.428 464.888 216.655C464.888 215.882 465.523 215.246 466.296 215.246C467.069 215.246 467.705 215.882 467.705 216.655Z" fill="#FF668B"/>
<path d="M475.676 216.655C475.676 217.428 475.04 218.063 474.267 218.063C473.494 218.063 472.858 217.428 472.858 216.655C472.858 215.882 473.494 215.246 474.267 215.246C475.04 215.246 475.676 215.882 475.676 216.655Z" fill="#FF668B"/>
<path d="M483.664 216.655C483.664 217.428 483.028 218.063 482.255 218.063C481.482 218.063 480.847 217.428 480.847 216.655C480.847 215.882 481.482 215.246 482.255 215.246C483.028 215.246 483.664 215.882 483.664 216.655Z" fill="#FF668B"/>
</g>
<defs>
<clipPath id="clip0_13465_50609">
<rect width="483.664" height="384" fill="white" transform="translate(0 0.5)"/>
</clipPath>
</defs>
</svg>
