<svg width="77" height="76" viewBox="0 0 77 76" fill="none" xmlns="http://www.w3.org/2000/svg">
<g clip-path="url(#clip0_493_2074)">
<path fill-rule="evenodd" clip-rule="evenodd" d="M17.2407 0H59.1113C68.5937 0 76.3521 7.75839 76.3521 17.2407V58.7593C76.3521 68.2418 68.5937 76.0002 59.1113 76.0002H17.2407C7.75839 76.0002 0 68.2418 0 58.7593V17.2407C0 7.75839 7.75839 0 17.2407 0Z" fill="#0D0A1A"/>
<g clip-path="url(#clip1_493_2074)">
<path d="M28.0153 24.2974C29.4481 24.2974 30.6097 23.1359 30.6097 21.703C30.6097 20.2702 29.4481 19.1086 28.0153 19.1086C26.5824 19.1086 25.4209 20.2702 25.4209 21.703C25.4209 23.1359 26.5824 24.2974 28.0153 24.2974Z" fill="#EA4335"/>
<path d="M28.0153 35.1075C29.4481 35.1075 30.6097 33.9459 30.6097 32.5131C30.6097 31.0802 29.4481 29.9187 28.0153 29.9187C26.5824 29.9187 25.4209 31.0802 25.4209 32.5131C25.4209 33.9459 26.5824 35.1075 28.0153 35.1075Z" fill="#EA4335"/>
<path d="M28.0153 45.9173C29.4481 45.9173 30.6097 44.7557 30.6097 43.3229C30.6097 41.8901 29.4481 40.7285 28.0153 40.7285C26.5824 40.7285 25.4209 41.8901 25.4209 43.3229C25.4209 44.7557 26.5824 45.9173 28.0153 45.9173Z" fill="#EA4335"/>
<path d="M28.0153 56.7273C29.4481 56.7273 30.6097 55.5658 30.6097 54.133C30.6097 52.7001 29.4481 51.5386 28.0153 51.5386C26.5824 51.5386 25.4209 52.7001 25.4209 54.133C25.4209 55.5658 26.5824 56.7273 28.0153 56.7273Z" fill="#EA4335"/>
<path d="M37.31 19.3248C38.9816 19.3248 40.3368 17.9697 40.3368 16.298C40.3368 14.6264 38.9816 13.2712 37.31 13.2712C35.6383 13.2712 34.2832 14.6264 34.2832 16.298C34.2832 17.9697 35.6383 19.3248 37.31 19.3248Z" fill="#FBBC04"/>
<path d="M37.31 30.1347C38.9816 30.1347 40.3368 28.7796 40.3368 27.108C40.3368 25.4363 38.9816 24.0812 37.31 24.0812C35.6383 24.0812 34.2832 25.4363 34.2832 27.108C34.2832 28.7796 35.6383 30.1347 37.31 30.1347Z" fill="#FBBC04"/>
<path d="M37.31 40.9446C38.9816 40.9446 40.3368 39.5894 40.3368 37.9178C40.3368 36.2461 38.9816 34.891 37.31 34.891C35.6383 34.891 34.2832 36.2461 34.2832 37.9178C34.2832 39.5894 35.6383 40.9446 37.31 40.9446Z" fill="#FBBC04"/>
<path d="M37.31 51.7546C38.9816 51.7546 40.3368 50.3995 40.3368 48.7278C40.3368 47.0562 38.9816 45.701 37.31 45.701C35.6383 45.701 34.2832 47.0562 34.2832 48.7278C34.2832 50.3995 35.6383 51.7546 37.31 51.7546Z" fill="#FBBC04"/>
<path d="M37.31 62.7806C38.9816 62.7806 40.3368 61.4255 40.3368 59.7538C40.3368 58.0822 38.9816 56.7271 37.31 56.7271C35.6383 56.7271 34.2832 58.0822 34.2832 59.7538C34.2832 61.4255 35.6383 62.7806 37.31 62.7806Z" fill="#FBBC04"/>
<path d="M46.4989 25.3783C48.4691 25.3783 50.0662 23.7812 50.0662 21.8111C50.0662 19.8409 48.4691 18.2438 46.4989 18.2438C44.5288 18.2438 42.9316 19.8409 42.9316 21.8111C42.9316 23.7812 44.5288 25.3783 46.4989 25.3783Z" fill="#34A853"/>
<path d="M46.4989 36.1884C48.4691 36.1884 50.0662 34.5913 50.0662 32.6211C50.0662 30.651 48.4691 29.0538 46.4989 29.0538C44.5288 29.0538 42.9316 30.651 42.9316 32.6211C42.9316 34.5913 44.5288 36.1884 46.4989 36.1884Z" fill="#34A853"/>
<path d="M46.4989 46.9985C48.4691 46.9985 50.0662 45.4013 50.0662 43.4312C50.0662 41.461 48.4691 39.8639 46.4989 39.8639C44.5288 39.8639 42.9316 41.461 42.9316 43.4312C42.9316 45.4013 44.5288 46.9985 46.4989 46.9985Z" fill="#34A853"/>
<path d="M46.4989 57.8083C48.4691 57.8083 50.0662 56.2111 50.0662 54.241C50.0662 52.2708 48.4691 50.6737 46.4989 50.6737C44.5288 50.6737 42.9316 52.2708 42.9316 54.241C42.9316 56.2111 44.5288 57.8083 46.4989 57.8083Z" fill="#34A853"/>
<path d="M55.6888 31.2158C57.9575 31.2158 59.7966 29.3767 59.7966 27.108C59.7966 24.8394 57.9575 23.0002 55.6888 23.0002C53.4202 23.0002 51.5811 24.8394 51.5811 27.108C51.5811 29.3767 53.4202 31.2158 55.6888 31.2158Z" fill="#4285F4"/>
<path d="M18.7177 29.2699C19.9117 29.2699 20.8796 28.3019 20.8796 27.1079C20.8796 25.9139 19.9117 24.9459 18.7177 24.9459C17.5236 24.9459 16.5557 25.9139 16.5557 27.1079C16.5557 28.3019 17.5236 29.2699 18.7177 29.2699Z" fill="#4285F4"/>
<path d="M18.7177 40.08C19.9117 40.08 20.8796 39.112 20.8796 37.918C20.8796 36.7239 19.9117 35.756 18.7177 35.756C17.5236 35.756 16.5557 36.7239 16.5557 37.918C16.5557 39.112 17.5236 40.08 18.7177 40.08Z" fill="#4285F4"/>
<path d="M18.7177 50.8901C19.9117 50.8901 20.8796 49.9222 20.8796 48.7282C20.8796 47.5341 19.9117 46.5662 18.7177 46.5662C17.5236 46.5662 16.5557 47.5341 16.5557 48.7282C16.5557 49.9222 17.5236 50.8901 18.7177 50.8901Z" fill="#4285F4"/>
<path d="M55.6888 42.0259C57.9575 42.0259 59.7966 40.1867 59.7966 37.9181C59.7966 35.6494 57.9575 33.8103 55.6888 33.8103C53.4202 33.8103 51.5811 35.6494 51.5811 37.9181C51.5811 40.1867 53.4202 42.0259 55.6888 42.0259Z" fill="#4285F4"/>
<path d="M55.6888 52.8357C57.9575 52.8357 59.7966 50.9966 59.7966 48.7279C59.7966 46.4592 57.9575 44.6201 55.6888 44.6201C53.4202 44.6201 51.5811 46.4592 51.5811 48.7279C51.5811 50.9966 53.4202 52.8357 55.6888 52.8357Z" fill="#4285F4"/>
</g>
</g>
<defs>
<clipPath id="clip0_493_2074">
<rect width="76.3521" height="76" fill="white"/>
</clipPath>
<clipPath id="clip1_493_2074">
<rect width="49.5096" height="49.5096" fill="white" transform="translate(13.4209 13.2719)"/>
</clipPath>
</defs>
</svg>
