<svg width="77" height="76" viewBox="0 0 77 76" fill="none" xmlns="http://www.w3.org/2000/svg">
<g clip-path="url(#clip0_493_2013)">
<path fill-rule="evenodd" clip-rule="evenodd" d="M17.2407 0H59.1113C68.5937 0 76.3521 7.75839 76.3521 17.2407V58.7593C76.3521 68.2418 68.5937 76.0002 59.1113 76.0002H17.2407C7.75839 76.0002 0 68.2418 0 58.7593V17.2407C0 7.75839 7.75839 0 17.2407 0Z" fill="black"/>
<path fill-rule="evenodd" clip-rule="evenodd" d="M32.0413 44.8119L57.5771 19.1297V19.1538L64.9528 11.7684C64.8209 11.9568 64.6874 12.1401 64.5554 12.3234C58.9509 20.0514 56.2145 23.8302 58.4103 33.2858L58.3975 33.2714C59.9113 39.7076 58.2913 46.8453 53.0616 52.0814C46.4677 58.6882 35.9165 60.1585 27.2281 54.2113L33.2864 51.4041C38.8313 53.5839 44.8992 52.6269 49.2587 48.2609C53.6198 43.895 54.5994 37.5375 52.4069 32.2452C51.9903 31.2429 50.7418 30.9903 49.8684 31.6369L32.0413 44.8119ZM28.3622 48.0131L28.3575 48.018L11.333 63.2455C12.4124 61.7575 13.7524 60.35 15.0893 58.9439C18.8599 54.977 22.6016 51.0454 20.3189 45.4892C17.2625 38.054 19.0417 29.3414 24.7026 23.6741C30.587 17.7881 39.2528 16.3033 46.4902 19.2857C48.0925 19.8809 49.4887 20.7287 50.5762 21.517L44.5325 24.3112C38.9053 21.948 32.4579 23.5551 28.5232 27.4947C23.2016 32.8177 22.1255 42.0482 28.3622 48.0131Z" fill="white"/>
</g>
<defs>
<clipPath id="clip0_493_2013">
<rect width="76.3521" height="76" fill="white"/>
</clipPath>
</defs>
</svg>
