<svg width="77" height="76" viewBox="0 0 77 76" fill="none" xmlns="http://www.w3.org/2000/svg">
<g clip-path="url(#clip0_493_1995)">
<path fill-rule="evenodd" clip-rule="evenodd" d="M17.2407 0H59.1113C68.5937 0 76.3521 7.75839 76.3521 17.2407V58.7593C76.3521 68.2418 68.5937 76.0002 59.1113 76.0002H17.2407C7.75839 76.0002 0 68.2418 0 58.7593V17.2407C0 7.75839 7.75839 0 17.2407 0Z" fill="white"/>
<path fill-rule="evenodd" clip-rule="evenodd" d="M23.4143 14.438L36.8329 26.8012V26.7984V14.4665H39.445V26.8565L52.9237 14.438V28.5339H58.4576V48.8659H52.9407V61.4176L39.445 49.5607V61.5538H36.8329V49.7562L23.4295 61.5615V48.8659H17.8955V28.5339H23.4143V14.438ZM34.8637 31.1141H20.5076V46.2858H23.4263V41.5L34.8637 31.1141ZM26.0415 42.6449V55.8041L36.8329 46.2993V32.8432L26.0415 42.6449ZM39.5201 46.1736V32.8305L50.3147 42.6328V48.8659H50.3286V55.6698L39.5201 46.1736ZM52.9407 46.2858H55.8455V31.1141H41.5963L52.9407 41.3925V46.2858ZM50.3116 28.5339V20.3729L41.4539 28.5339H50.3116ZM34.884 28.5339H26.0264V20.3729L34.884 28.5339Z" fill="black"/>
</g>
<defs>
<clipPath id="clip0_493_1995">
<rect width="76.3521" height="76" fill="white"/>
</clipPath>
</defs>
</svg>
