<svg width="137" height="84" viewBox="0 0 137 84" fill="none" xmlns="http://www.w3.org/2000/svg">
<g filter="url(#filter0_d_481_300)">
<g clip-path="url(#clip0_481_300)">
<path d="M57.4629 44.8805H59.4912C59.6249 44.8805 59.7364 44.8358 59.7809 44.6795L60.3605 42.9154H64.9071L65.4868 44.6795C65.5314 44.8358 65.6427 44.8805 65.7765 44.8805H67.8047C68.0055 44.8805 68.0947 44.7688 68.0278 44.5902L63.9934 33.1346C63.9489 33.0006 63.7928 32.9336 63.6591 32.9336H61.564C61.4303 32.9336 61.2965 33.0006 61.2297 33.1346L57.1955 44.5902C57.1286 44.7688 57.1955 44.8805 57.3961 44.8805H57.4629ZM61.0959 40.7493L62.6561 35.9929L64.2162 40.7493H61.0737H61.0959Z" fill="white"/>
<path d="M69.9663 44.8806H71.8386C71.9944 44.8806 72.106 44.7689 72.106 44.6349V40.2358C72.106 39.097 72.6184 38.4717 73.5325 38.4717C74.4461 38.4717 74.8697 39.097 74.8697 40.2358V44.6349C74.8697 44.7912 74.9812 44.8806 75.1371 44.8806H76.9871C77.1429 44.8806 77.2545 44.7689 77.2545 44.6349V40.2358C77.2545 39.097 77.7673 38.4717 78.681 38.4717C79.5947 38.4717 80.0182 39.097 80.0182 40.2358V44.6349C80.0182 44.7912 80.1298 44.8806 80.2859 44.8806H82.1579C82.3141 44.8806 82.4253 44.7689 82.4253 44.6349V39.7446C82.4253 37.5562 81.3112 36.328 79.5058 36.328C78.1905 36.328 77.366 36.9532 76.8979 37.8241C76.4297 36.8416 75.5829 36.328 74.4908 36.328C73.3317 36.328 72.5741 36.9086 72.106 37.6902L72.0614 36.7969C72.0614 36.596 71.9498 36.529 71.794 36.529H69.9886C69.8324 36.529 69.7212 36.6406 69.7212 36.7746V44.6349C69.7212 44.7912 69.8324 44.8806 69.9886 44.8806H69.9663Z" fill="white"/>
<path d="M84.6772 44.8806H86.5492C86.7054 44.8806 86.8169 44.7689 86.8169 44.6349V40.3028C86.8169 39.1193 87.4633 38.4941 88.4659 38.4941C89.4691 38.4941 90.0262 39.1193 90.0262 40.3028V44.6349C90.0262 44.7912 90.1377 44.8806 90.2936 44.8806H92.1436C92.2998 44.8806 92.4113 44.7689 92.4113 44.6349V39.7669C92.4113 37.5785 91.1187 36.328 89.3576 36.328C88.0876 36.328 87.2848 36.9532 86.7946 37.8018L86.7277 36.8192C86.7277 36.6183 86.6162 36.5513 86.4603 36.5513H84.6549C84.4988 36.5513 84.3872 36.6629 84.3872 36.7969V44.6573C84.3872 44.8136 84.4988 44.9029 84.6549 44.9029L84.6772 44.8806Z" fill="white"/>
<path d="M95.6652 35.0104C96.4231 35.0104 96.9805 34.4298 96.9805 33.6929C96.9805 32.956 96.4231 32.3977 95.6652 32.3977C94.9077 32.3977 94.3276 32.9783 94.3276 33.6929C94.3276 34.4075 94.9077 35.0104 95.6652 35.0104ZM94.4618 44.6125C94.4618 44.7688 94.5734 44.8582 94.7292 44.8582H96.6012C96.757 44.8582 96.8689 44.7465 96.8689 44.6125V36.7522C96.8689 36.5959 96.757 36.5065 96.6012 36.5065H94.7292C94.5734 36.5065 94.4618 36.6182 94.4618 36.7522V44.6125Z" fill="white"/>
<path d="M102.976 45.0815C104.336 45.0815 105.494 44.5009 106.23 43.5854C106.342 43.4737 106.297 43.3397 106.185 43.2281L105.16 42.2232C105.027 42.0892 104.826 42.1115 104.714 42.2232C104.247 42.6921 103.756 42.9154 103.088 42.9154C101.683 42.9154 100.814 41.8882 100.814 40.6601C100.814 39.4319 101.683 38.4717 103.043 38.4717C103.734 38.4717 104.224 38.7173 104.693 39.1639C104.804 39.2756 105.004 39.2979 105.138 39.1639L106.163 38.1591C106.163 38.1591 106.297 37.9134 106.208 37.8018C105.473 36.8862 104.336 36.3055 102.932 36.3055C100.391 36.3055 98.5186 38.1814 98.5186 40.6601C98.5186 43.1387 100.413 45.0815 102.998 45.0815H102.976Z" fill="white"/>
<path d="M43.8892 46.3988L42.1508 47.4037C41.5713 47.7384 40.8803 47.7384 40.3008 47.4037L38.5623 46.4211C38.0943 47.2249 37.6262 48.051 37.1582 48.8552L40.0779 50.5298C40.7911 50.9317 41.6827 50.9317 42.3959 50.5298L45.338 48.8552C44.8699 48.051 44.4019 47.2249 43.9116 46.4211L43.8892 46.3988ZM49.2608 40.2802V42.2899C49.2608 42.9375 48.9042 43.5627 48.3246 43.8754L46.5862 44.8803C47.0542 45.6842 47.5222 46.5103 48.0126 47.3141L50.9547 45.6396C51.6679 45.2375 52.1137 44.4783 52.1137 43.6521V40.2802H49.2831H49.2608ZM42.3736 26.9711C41.6604 26.5692 40.7689 26.5692 40.0557 26.9711L37.1358 28.6459C37.6039 29.4498 38.0943 30.276 38.5623 31.0799L40.3008 30.0974C40.8803 29.7624 41.5713 29.7624 42.1508 30.0974L43.9116 31.1023C44.3796 30.2984 44.8476 29.4721 45.338 28.6682L42.3959 26.9935L42.3736 26.9711ZM31.4969 31.8615C30.7837 32.2635 30.3379 33.0227 30.3379 33.849V37.2208H33.1908V35.2111C33.1908 34.5635 33.5474 33.9606 34.1269 33.6256L35.8877 32.6207C35.4196 31.8169 34.9516 30.9906 34.4613 30.1867L31.5192 31.8838L31.4969 31.8615ZM50.9324 31.8615L47.9904 30.1867C47.5222 30.9906 47.0542 31.7945 46.5862 32.6207C47.1656 32.9557 47.7452 33.2906 48.3246 33.6256C48.9042 33.9606 49.2608 34.5635 49.2608 35.2111V37.2208H52.0914V33.849C52.0914 33.0227 51.6456 32.2858 50.9324 31.8615ZM34.1046 43.8754C33.5251 43.5404 33.1685 42.9375 33.1685 42.2899V40.3025H30.3379V43.6521C30.3379 44.4783 30.7837 45.2152 31.4969 45.6396L34.439 47.3141C34.907 46.5103 35.3751 45.6842 35.8431 44.8803L34.0823 43.8754H34.1046ZM45.026 36.35L41.6604 34.4072C41.3929 34.2509 41.0587 34.2509 40.7911 34.4072L37.4256 36.35C37.1582 36.5063 36.9798 36.7966 36.9798 37.1092V40.9947C36.9798 41.3073 37.1358 41.5977 37.4256 41.754L40.7911 43.6967C41.0587 43.853 41.3929 43.853 41.6604 43.6967L45.026 41.754C45.2934 41.5977 45.4717 41.3073 45.4717 40.9947V37.1092C45.4717 36.7966 45.3157 36.5063 45.026 36.35ZM42.7526 39.7889C42.7526 39.7889 42.708 39.9452 42.6411 39.9898L41.3483 40.7268C41.3483 40.7268 41.1923 40.7714 41.1255 40.7268L39.8327 39.9898C39.8327 39.9898 39.7213 39.8782 39.7213 39.7889V38.3151C39.7213 38.3151 39.7659 38.1587 39.8327 38.1364L41.1255 37.3995C41.1255 37.3995 41.2815 37.3548 41.3483 37.3995L42.6411 38.1364C42.6411 38.1364 42.7526 38.2481 42.7526 38.3151V39.7889Z" fill="white"/>
</g>
</g>
<defs>
<filter id="filter0_d_481_300" x="-19.6333" y="-9.14336" width="175.323" height="102.287" filterUnits="userSpaceOnUse" color-interpolation-filters="sRGB">
<feFlood flood-opacity="0" result="BackgroundImageFix"/>
<feColorMatrix in="SourceAlpha" type="matrix" values="0 0 0 0 0 0 0 0 0 0 0 0 0 0 0 0 0 0 127 0" result="hardAlpha"/>
<feOffset dy="3.33027"/>
<feGaussianBlur stdDeviation="15"/>
<feComposite in2="hardAlpha" operator="out"/>
<feColorMatrix type="matrix" values="0 0 0 0 0 0 0 0 0 0 0 0 0 0 0 0 0 0 0.2 0"/>
<feBlend mode="normal" in2="BackgroundImageFix" result="effect1_dropShadow_481_300"/>
<feBlend mode="normal" in="SourceGraphic" in2="effect1_dropShadow_481_300" result="shape"/>
</filter>
<clipPath id="clip0_481_300">
<rect width="76.0563" height="24" fill="white" transform="translate(30 26.6697)"/>
</clipPath>
</defs>
</svg>
