<svg width="142" height="84" viewBox="0 0 142 84" fill="none" xmlns="http://www.w3.org/2000/svg">
<g filter="url(#filter0_d_481_111)">
<g clip-path="url(#clip0_481_111)">
<path d="M96.5874 41.5302C96.5874 37.8968 98.8867 35.3413 102.157 35.3413C105.428 35.3413 107.763 37.8953 107.763 41.5302C107.763 45.1652 105.428 47.5745 102.157 47.5745C98.8862 47.5745 96.5874 45.0552 96.5874 41.5302ZM93.1734 41.5302C93.1734 46.8915 96.9107 50.6697 102.157 50.6697C107.403 50.6697 111.176 46.8915 111.176 41.5302C111.176 36.169 107.439 32.2475 102.157 32.2475C96.874 32.2475 93.1734 36.0981 93.1734 41.5302ZM75.7446 32.4631L82.7884 50.4531H86.095L93.1383 32.4631H89.5808L84.4778 46.3518H84.4056L79.3026 32.4631H75.7446ZM62.053 40.8819C62.2683 37.5711 64.4607 35.3413 67.4435 35.3413C70.0304 35.3413 71.9712 36.9967 72.2588 39.4798H66.2931C64.1731 39.4798 63.0227 39.7316 62.1614 40.8835H62.053V40.8819ZM58.6395 41.4217C58.6395 46.7829 62.4129 50.6682 67.6227 50.6682C71.1446 50.6682 74.2344 48.8696 75.5639 46.0261L72.6895 44.5863C71.6836 46.4573 69.7428 47.573 67.6227 47.573C65.0705 47.573 62.7712 45.6296 62.7712 43.7586C62.7712 42.7876 63.4182 42.3549 64.3522 42.3549H75.7431V41.384C75.7431 35.9865 72.2935 32.2445 67.3351 32.2445C62.3767 32.2445 58.639 36.0951 58.639 41.4202M48.8653 50.4511H52.0996V39.4069C52.0996 37.0324 53.5722 35.3408 55.6215 35.3408C56.4843 35.3408 57.3817 35.6287 57.8139 36.0237C58.1376 35.1598 58.6405 34.2975 59.3949 33.4336C58.5321 32.7144 57.0595 32.2455 55.6215 32.2455C51.669 32.2455 48.8653 35.196 48.8653 39.4054V50.4511ZM33.2343 38.5441V29.7634H38.5526C40.3489 29.7634 41.5354 30.8067 41.5354 32.3898C41.5354 34.1884 39.9905 35.5558 36.8285 36.5992C34.6723 37.2821 33.7026 37.8581 33.3427 38.5426L33.2343 38.5441ZM33.2343 47.3594V43.6897C33.2343 42.0705 34.6 40.4874 36.5048 39.8753C38.1942 39.2994 39.5945 38.7235 40.781 38.1129C42.362 39.0491 43.3317 40.6669 43.3317 42.3585C43.3317 45.2366 40.6003 47.3594 36.8993 47.3594H33.2343ZM30 50.4531H37.1869C42.6496 50.4531 46.7452 47.0352 46.7452 42.5017C46.7452 40.0186 45.4879 37.7887 43.2595 36.3489C44.4098 35.197 44.9489 33.8658 44.9489 32.2465C44.9489 28.901 42.5412 26.6697 38.9124 26.6697H30V50.4531Z" fill="white"/>
</g>
</g>
<defs>
<filter id="filter0_d_481_111" x="-19.6333" y="-9.14336" width="181.266" height="102.287" filterUnits="userSpaceOnUse" color-interpolation-filters="sRGB">
<feFlood flood-opacity="0" result="BackgroundImageFix"/>
<feColorMatrix in="SourceAlpha" type="matrix" values="0 0 0 0 0 0 0 0 0 0 0 0 0 0 0 0 0 0 127 0" result="hardAlpha"/>
<feOffset dy="3.33027"/>
<feGaussianBlur stdDeviation="15"/>
<feComposite in2="hardAlpha" operator="out"/>
<feColorMatrix type="matrix" values="0 0 0 0 0 0 0 0 0 0 0 0 0 0 0 0 0 0 0.2 0"/>
<feBlend mode="normal" in2="BackgroundImageFix" result="effect1_dropShadow_481_111"/>
<feBlend mode="normal" in="SourceGraphic" in2="effect1_dropShadow_481_111" result="shape"/>
</filter>
<clipPath id="clip0_481_111">
<rect width="82" height="24" fill="white" transform="translate(30 26.6697)"/>
</clipPath>
</defs>
</svg>
