<svg width="131" height="84" viewBox="0 0 131 84" fill="none" xmlns="http://www.w3.org/2000/svg">
<g filter="url(#filter0_d_481_114)">
<g clip-path="url(#clip0_481_114)">
<path d="M41.9871 36.8609L31.9996 26.6697C29.338 29.3854 29.338 33.7885 31.9996 36.5044L38.9377 43.584L41.9871 40.4724C42.9655 39.474 42.9655 37.8592 41.9871 36.8609Z" fill="#CCCCCC"/>
<path d="M41.9873 36.8654L34.6312 29.3594C35.584 30.5611 36.1579 32.0883 36.1579 33.753C36.1579 35.418 35.7318 37.0454 34.1198 38.6687L33.7096 39.0837C33.2684 39.5315 32.698 40.1148 31.9982 40.8335C29.3339 43.5522 29.3339 47.9509 31.9982 50.6696L41.9873 40.4769C42.9658 39.4785 42.9658 37.8637 41.9873 36.8654Z" fill="white"/>
<path d="M53.2598 33.3467C54.8072 33.3467 56.0851 33.8124 57.11 34.7488C58.1306 35.6669 58.6434 36.8537 58.6434 38.2797C58.6433 39.73 58.1333 40.9317 57.1111 41.8803C56.0885 42.8291 54.8123 43.2983 53.2598 43.2983H49.4365V33.3467H53.2598ZM51.4504 41.442H53.2598C54.2106 41.442 54.9971 41.14 55.6316 40.5285C56.269 39.9144 56.5861 39.1673 56.5861 38.2797C56.5861 37.4054 56.2685 36.6743 55.634 36.0901C54.9928 35.4996 54.2021 35.2024 53.2598 35.2024H51.4504V41.442Z" fill="white"/>
<path d="M62.9948 35.9789C63.9916 35.9789 64.8203 36.3109 65.4634 36.9738C66.1243 37.6396 66.4562 38.4842 66.4712 39.5297V39.532C66.4712 39.8678 66.4563 40.1296 66.4261 40.3084L66.4067 40.4244L61.2294 40.4238L61.2323 40.4314C61.4803 41.1778 62.0897 41.6107 62.986 41.6267L63.0382 41.6273C63.667 41.6273 64.0841 41.4376 64.3032 41.0695L64.3442 41.001H66.3915L66.3352 41.1803C65.9271 42.4757 64.6179 43.2978 62.9948 43.2979C61.8745 43.2979 60.972 42.9567 60.2655 42.2608C59.5749 41.5657 59.229 40.6912 59.229 39.6457C59.229 38.6001 59.575 37.7257 60.2667 37.0295C60.9778 36.329 61.8835 35.9789 62.9948 35.9789ZM62.9081 37.65C62.0483 37.65 61.4386 38.1209 61.2118 38.9092L61.2077 38.9238H64.4755L64.4702 38.8975C64.3021 38.1145 63.7654 37.6664 62.9544 37.65H62.9081Z" fill="white"/>
<path d="M68.0853 36.2917L70.1394 40.7358L72.2129 36.2917H74.2853L70.9648 43.2979H69.3183L65.998 36.2917H68.0853Z" fill="white"/>
<path d="M80.2525 33.3467V33.8998L76.2146 42.4238H80.2545V43.298H74.791V42.7448L78.8329 34.2208L74.795 34.2208V33.3467H80.2525Z" fill="white"/>
<path d="M84.3752 36.1687C85.3499 36.1687 86.1408 36.5097 86.7611 37.1953C87.3821 37.8666 87.7073 38.7275 87.7221 39.7482V39.7816C87.7217 39.9217 87.7184 39.9678 87.7004 40.0212L87.6682 40.1162H81.783L81.7889 40.1672C81.862 40.7705 82.1086 41.2864 82.523 41.7129L82.5682 41.758C83.0475 42.2301 83.6619 42.4716 84.3898 42.4716C85.3696 42.4716 86.1466 42.05 86.4571 41.3718L86.4946 41.2904H87.4924L87.425 41.4756C87.0138 42.6008 85.8328 43.3031 84.3752 43.3031C83.3521 43.3031 82.493 42.9588 81.8328 42.2789C81.165 41.5918 80.8408 40.7504 80.8408 39.7359C80.8408 38.7335 81.1718 37.8878 81.8328 37.207C82.5079 36.5124 83.3528 36.1688 84.3752 36.1687ZM84.3465 37.0142C83.6293 37.0142 83.045 37.2441 82.5682 37.7138C82.135 38.1405 81.8792 38.6547 81.793 39.2736L81.7859 39.3269H86.7482L86.7412 39.2689C86.6603 38.6589 86.4334 38.1483 86.0627 37.7414L86.0205 37.6962C85.5854 37.241 85.0306 37.0142 84.3465 37.0142Z" fill="white"/>
<path d="M92.7904 36.3488V37.2211L92.6518 37.2228C91.594 37.2364 90.6574 37.8456 90.1018 38.8848L90.118 38.8551V43.298H89.1875V36.5337H90.118V37.5297L90.1456 37.4975C90.7618 36.7849 91.6372 36.366 92.59 36.3492L92.65 36.3488H92.7904Z" fill="white"/>
<path d="M97.0233 36.1298C98.0325 36.1298 98.8905 36.4745 99.5925 37.1663C100.301 37.8639 100.659 38.7112 100.659 39.6969C100.659 40.6984 100.3 41.5598 99.5925 42.2563C98.8905 42.948 98.0325 43.2923 97.0233 43.2923C95.9985 43.2922 95.1273 42.9469 94.4259 42.2563C93.7245 41.5655 93.3735 40.7068 93.3735 39.6969C93.3735 38.7029 93.7239 37.8581 94.4259 37.1663C95.1273 36.4755 95.9985 36.1298 97.0233 36.1298ZM97.0233 36.9899C96.2709 36.99 95.6265 37.2565 95.0877 37.7874C94.5645 38.3163 94.3041 38.9504 94.3041 39.6969C94.3041 40.4597 94.5657 41.1072 95.0865 41.6334C95.6265 42.1656 96.2709 42.4326 97.0233 42.4327C97.7739 42.4327 98.4039 42.1673 98.9307 41.6346C99.4527 41.1071 99.7143 40.4597 99.7143 39.6969C99.7143 38.9504 99.4539 38.3163 98.9307 37.7874C98.4039 37.2547 97.7739 36.9899 97.0233 36.9899Z" fill="white"/>
</g>
</g>
<defs>
<filter id="filter0_d_481_114" x="-19.6333" y="-9.14336" width="170.066" height="102.287" filterUnits="userSpaceOnUse" color-interpolation-filters="sRGB">
<feFlood flood-opacity="0" result="BackgroundImageFix"/>
<feColorMatrix in="SourceAlpha" type="matrix" values="0 0 0 0 0 0 0 0 0 0 0 0 0 0 0 0 0 0 127 0" result="hardAlpha"/>
<feOffset dy="3.33027"/>
<feGaussianBlur stdDeviation="15"/>
<feComposite in2="hardAlpha" operator="out"/>
<feColorMatrix type="matrix" values="0 0 0 0 0 0 0 0 0 0 0 0 0 0 0 0 0 0 0.2 0"/>
<feBlend mode="normal" in2="BackgroundImageFix" result="effect1_dropShadow_481_114"/>
<feBlend mode="normal" in="SourceGraphic" in2="effect1_dropShadow_481_114" result="shape"/>
</filter>
<clipPath id="clip0_481_114">
<rect width="70.8" height="24" fill="white" transform="translate(30 26.6697)"/>
</clipPath>
</defs>
</svg>
