<svg xmlns="http://www.w3.org/2000/svg" width="206" height="79" viewBox="0 0 206 79" fill="fff">
<path fill-rule="evenodd" clip-rule="evenodd" d="M200.83 20.248H184.82L175.775 34.4803L167.187 20.248H150.467L165.542 44.0114L150.467 66.2203L167.247 66.3343L200.83 20.248Z" fill="#fff"/>
<path fill-rule="evenodd" clip-rule="evenodd" d="M126.254 55.1622C120.315 55.1622 114.925 50.5012 114.925 43.2806C114.925 36.1518 120.315 31.3989 126.254 31.3989C131.918 31.3989 137.309 36.1518 137.309 43.2806C137.309 50.5012 131.918 55.1622 126.254 55.1622ZM126.253 19.1514C112.366 19.1514 100.854 28.8397 100.854 43.2803C100.854 57.8123 112.366 67.5006 126.253 67.5006C139.867 67.5006 151.378 57.8123 151.378 43.2803C151.378 28.8397 139.867 19.1514 126.253 19.1514Z" fill="#fff"/>
<path fill-rule="evenodd" clip-rule="evenodd" d="M180.541 58.9695L184.819 66.2213H201.63L188.973 47.6873L180.541 58.9695Z" fill="#fff"/>
<path fill-rule="evenodd" clip-rule="evenodd" d="M79.7458 8.40308V11.4923C79.7458 13.5622 78.9066 15.5894 77.4424 17.0535C75.9782 18.5182 73.9523 19.3577 71.8827 19.3577H60.4077C55.4893 19.3646 50.7302 21.3796 47.2945 24.8978C43.8582 21.3801 39.0996 19.3646 34.1802 19.3577H22.7058C20.6361 19.3577 18.6102 18.5182 17.146 17.0535C15.6824 15.5894 14.8427 13.5622 14.8427 11.4923V8.40308H4.34082V11.4923C4.34082 21.6223 12.5794 29.8638 22.7058 29.8638H34.1802C43.7691 29.8638 46.9785 42.5992 47.0102 42.7279L47.2644 43.7753L47.6457 42.767C47.6943 42.6382 52.6074 29.8638 60.4082 29.8638H71.8827C82.0095 29.8638 90.2476 21.6223 90.2476 11.4923V8.40308H79.7458Z" fill="#fff"/>
<path fill-rule="evenodd" clip-rule="evenodd" d="M59.6913 35.9595L47.3196 56.6003L35.0614 36.0022L21.3242 35.9526L42.3949 70.5128L44.04 70.5455C44.4947 70.5545 44.9646 70.5582 45.443 70.5582C46.0754 70.5582 46.7226 70.5524 47.3713 70.5461C48.0005 70.5403 48.6308 70.5344 49.2458 70.5344C49.681 70.5344 50.1087 70.5376 50.5228 70.5455L52.2454 70.5793L73.3398 35.9806L59.6913 35.9595Z" fill="#fff"/>
</svg>