<svg width="138" height="84" viewBox="0 0 138 84" fill="none" xmlns="http://www.w3.org/2000/svg">
<g filter="url(#filter0_d_482_410)">
<mask id="mask0_482_410" style="mask-type:luminance" maskUnits="userSpaceOnUse" x="30" y="26" width="78" height="25">
<path d="M107.76 26.6697H30V50.6697H107.76V26.6697Z" fill="white"/>
</mask>
<g mask="url(#mask0_482_410)">
<path fill-rule="evenodd" clip-rule="evenodd" d="M69.664 28.819C69.5609 29.3766 69.6931 29.9662 70.2385 30.29C69.6828 28.1228 71.0084 27.2617 72.2359 26.6697C70.8058 28.4501 73.7292 28.4963 73.8956 30.5424C74.0374 32.2868 72.6657 33.647 71.0864 34.2405C71.1047 32.4772 69.0932 32.2371 68.8912 30.7948C68.8118 30.2306 69.1792 29.201 69.664 28.819Z" fill="white"/>
<path d="M36.0971 48.5381V45.391C35.3757 45.9225 34.5919 46.1883 33.7457 46.1883C32.511 46.1883 31.578 45.6953 30.9468 44.7091C30.3156 43.7231 30 42.3838 30 40.6914C30 39.8382 30.111 39.0724 30.3329 38.394C30.5549 37.7157 30.8497 37.1387 31.2173 36.6631C31.585 36.1875 32.015 35.8239 32.5075 35.5721C33 35.3203 33.5168 35.1945 34.0578 35.1945C35.1815 35.1945 36.1249 35.5162 36.8879 36.1596C37.3735 35.6281 38.0324 35.3553 38.8648 35.3413C38.9619 35.4253 39.0625 35.5301 39.1665 35.6561C39.2705 35.7819 39.3677 35.9218 39.4579 36.0757C39.548 36.2295 39.6278 36.3903 39.6971 36.5582C39.7665 36.7261 39.8151 36.8799 39.8428 37.0198C39.4544 37.3135 39.2601 37.8171 39.2601 38.5304V50.3634L39.1145 50.5103H37.8451C37.2069 50.5103 36.7561 50.3634 36.4925 50.0697C36.2289 49.776 36.0971 49.2655 36.0971 48.5381ZM34.5572 43.5447C35.126 43.5447 35.6393 43.3139 36.0971 42.8524V38.3206C35.5977 37.859 35.1468 37.6282 34.7445 37.6282C33.8012 37.6282 33.3295 38.6773 33.3295 40.7753C33.3295 42.6216 33.7387 43.5447 34.5572 43.5447ZM41.7365 42.4327V38.1317C41.7365 37.2226 41.57 36.5233 41.2371 36.0337C41.7503 35.5721 42.3746 35.3413 43.1099 35.3413C43.8451 35.3413 44.3445 35.5092 44.6081 35.8449C44.8717 36.1805 45.0035 36.6911 45.0035 37.3765V41.8243C45.0035 42.3139 45.059 42.6705 45.17 42.8943C45.281 43.1181 45.5723 43.2301 46.044 43.2301C46.5018 43.2301 46.9665 42.9923 47.4382 42.5167V35.5092C47.896 35.4253 48.4301 35.3833 49.0405 35.3833C49.6509 35.3833 50.1989 35.4253 50.6845 35.5092V42.9783C50.6845 43.7335 50.8787 44.2441 51.2671 44.5099C51.1977 44.7896 51.066 45.0938 50.8717 45.4225C50.6775 45.7512 50.4764 45.9925 50.2683 46.1463C49.1307 46.1043 48.3122 45.6148 47.8128 44.6777C46.7168 45.6708 45.6833 46.1673 44.7122 46.1673C43.7411 46.1673 43.0023 45.8281 42.496 45.1497C41.9897 44.4714 41.7365 43.5657 41.7365 42.4327ZM62.0464 44.4679C61.9771 44.7616 61.8451 45.0763 61.6509 45.412C61.4568 45.7477 61.2555 45.9925 61.0474 46.1463C60.0765 46.1183 59.3271 45.7477 58.8 45.0343C57.8984 45.8736 56.9203 46.2932 55.866 46.2932C55.3249 46.2932 54.8533 46.2058 54.4509 46.0309C54.0486 45.8561 53.7087 45.6218 53.4313 45.3281C53.1539 45.0343 52.9457 44.6952 52.807 44.3105C52.6683 43.9259 52.5989 43.5238 52.5989 43.1041C52.5989 42.5027 52.7065 41.9747 52.9215 41.5201C53.1365 41.0655 53.4313 40.6879 53.8059 40.3871C54.1804 40.0865 54.6174 39.8591 55.1169 39.7053C55.6163 39.5514 56.1504 39.4745 56.7193 39.4745C57.0383 39.4745 57.3191 39.478 57.5619 39.485C57.8047 39.492 58.0163 39.5025 58.1967 39.5165V39.1178C58.1967 38.2367 57.7458 37.7961 56.8441 37.7961C56.2613 37.7961 55.2417 38.0199 53.7851 38.4674C53.3689 37.9779 53.1053 37.2156 52.9943 36.1805C53.3273 36.0547 53.6983 35.9358 54.1076 35.8239C54.5169 35.712 54.9365 35.6141 55.3665 35.5301C55.7966 35.4462 56.2197 35.3798 56.636 35.3309C57.052 35.2819 57.4268 35.2574 57.7595 35.2574C58.2451 35.2574 58.7133 35.3273 59.1642 35.4672C59.6152 35.6071 60.0106 35.8204 60.3505 36.1071C60.6903 36.3939 60.9609 36.7645 61.1619 37.2191C61.3632 37.6737 61.4637 38.2157 61.4637 38.8451V43.1041C61.4637 43.7475 61.6579 44.2021 62.0464 44.4679ZM55.7619 42.8943C55.7619 43.5517 56.1365 43.8805 56.8857 43.8805C57.2742 43.8805 57.7111 43.6776 58.1967 43.272V41.5935C57.9193 41.5795 57.6868 41.5691 57.4995 41.5621C57.3123 41.5551 57.17 41.5516 57.0729 41.5516C56.1989 41.5516 55.7619 41.9991 55.7619 42.8943ZM67.9561 43.5867H68.5182C68.6845 44.0483 68.7679 44.5099 68.7679 44.9714C68.7679 45.433 68.7469 45.7337 68.7055 45.8736C67.8731 46.0135 67.1307 46.0834 66.4787 46.0834C65.5353 46.0834 64.8661 45.8491 64.4707 45.3805C64.0753 44.912 63.8777 44.1741 63.8777 43.1671V30.6837L64.0025 30.5368H65.2718C65.9238 30.5368 66.3816 30.6837 66.6453 30.9774C66.9087 31.2711 67.0405 31.7816 67.0405 32.509V42.6006C67.0405 43.258 67.3457 43.5867 67.9561 43.5867ZM74.1573 37.9219V45.9785C73.9215 46.0205 73.6649 46.0519 73.3875 46.0729C73.11 46.0939 72.8257 46.1044 72.5342 46.1044C72.243 46.1044 71.9549 46.0939 71.6706 46.0729C71.3863 46.0519 71.1261 46.0205 70.8904 45.9785V39.0339C70.8904 38.2227 70.5643 37.8171 69.9123 37.8171H69.6002C69.5169 37.5513 69.4754 37.1806 69.4754 36.7051C69.4754 36.2435 69.5169 35.8519 69.6002 35.5301C69.9607 35.5022 70.2937 35.4777 70.5989 35.4567C70.9041 35.4357 71.1816 35.4253 71.4313 35.4253H71.8891C72.5966 35.4253 73.1515 35.6491 73.5538 36.0966C73.9561 36.5442 74.1573 37.1527 74.1573 37.9219ZM77.0916 45.9785V37.7961L75.3018 37.8171C75.2187 37.4674 75.177 37.0827 75.177 36.6631C75.177 36.2435 75.2187 35.8519 75.3018 35.4882L76.925 35.5092C76.8557 34.9917 76.8211 34.5231 76.8211 34.1035C76.8211 33.0545 77.1575 32.1838 77.8303 31.4914C78.5029 30.799 79.3805 30.4529 80.4625 30.4529C81.5445 30.4529 82.6059 30.6487 83.6465 31.0403C83.6602 31.404 83.5978 31.7991 83.4592 32.2257C83.3203 32.6523 83.1471 32.9775 82.9389 33.2013C82.287 33.0055 81.7527 32.9076 81.3367 32.9076C80.407 32.9076 79.9423 33.3901 79.9423 34.3553C79.9423 34.7609 79.9701 35.1525 80.0256 35.5301L82.7517 35.4882C82.8347 35.8519 82.8765 36.2435 82.8765 36.6631C82.8765 37.0827 82.8347 37.4674 82.7517 37.8171L80.2544 37.7751V45.9785C79.7828 46.0624 79.2625 46.1044 78.6939 46.1044C78.125 46.1044 77.591 46.0624 77.0916 45.9785ZM88.7863 37.9219V45.9785C88.5504 46.0205 88.2938 46.0519 88.0164 46.0729C87.7389 46.0939 87.4546 46.1044 87.1631 46.1044C86.8719 46.1044 86.5839 46.0939 86.2995 46.0729C86.0153 46.0519 85.755 46.0205 85.5193 45.9785V39.0339C85.5193 38.2227 85.1932 37.8171 84.5413 37.8171H84.2291C84.1458 37.5513 84.1043 37.1806 84.1043 36.7051C84.1043 36.2435 84.1458 35.8519 84.2291 35.5301C84.5899 35.5022 84.9226 35.4777 85.2279 35.4567C85.5331 35.4357 85.8105 35.4253 86.0602 35.4253H86.518C87.2255 35.4253 87.7805 35.6491 88.1827 36.0966C88.5853 36.5442 88.7863 37.1527 88.7863 37.9219ZM85.1448 31.2921C85.5471 31.0683 86.0673 30.9564 86.7053 30.9564C87.3575 30.9564 87.8637 31.0683 88.2245 31.2921C88.3909 31.6697 88.4742 32.0754 88.4742 32.509C88.4742 32.9426 88.3909 33.3482 88.2245 33.7258C87.8222 33.9357 87.2951 34.0405 86.6429 34.0405C85.9909 34.0405 85.4915 33.9357 85.1448 33.7258C84.9782 33.3482 84.8949 32.9426 84.8949 32.509C84.8949 32.0754 84.9782 31.6697 85.1448 31.2921ZM90.6176 37.0198C90.6869 36.7401 90.8187 36.4288 91.0131 36.0861C91.2072 35.7435 91.4013 35.4952 91.5957 35.3413C92.8719 35.4393 93.7597 36.0757 94.2591 37.2506C94.7863 35.9917 95.6535 35.3623 96.8607 35.3623C97.2213 35.3623 97.6787 35.4183 98.234 35.5301C98.234 35.9637 98.1607 36.4778 98.0153 37.0722C97.87 37.6667 97.672 38.1737 97.422 38.5933C97.186 38.5094 96.8327 38.4395 96.361 38.3835C95.6673 38.3835 95.0986 38.7402 94.6545 39.4535V45.9785C94.1967 46.0624 93.6593 46.1044 93.0419 46.1044C92.4246 46.1044 91.88 46.0624 91.4082 45.9785V39.2018C91.4082 38.1527 91.1447 37.4254 90.6176 37.0198ZM107.286 41.8033H101.855C101.882 42.4327 102.042 42.9223 102.333 43.272C102.625 43.6217 103.103 43.7965 103.769 43.7965C104.102 43.7965 104.487 43.7475 104.924 43.6497C105.361 43.5517 105.864 43.3909 106.433 43.1671C106.891 43.6427 107.175 44.2861 107.286 45.0973C106.176 45.8946 104.817 46.2932 103.207 46.2932C102.333 46.2932 101.601 46.1533 101.012 45.8736C100.422 45.5939 99.9433 45.2022 99.576 44.6987C99.208 44.1951 98.948 43.6007 98.7953 42.9153C98.6433 42.2299 98.5667 41.4817 98.5667 40.6704C98.5667 39.8871 98.66 39.1633 98.848 38.4989C99.0353 37.8345 99.3193 37.2575 99.7007 36.768C100.083 36.2785 100.568 35.8938 101.157 35.6141C101.747 35.3343 102.437 35.1945 103.228 35.1945C103.894 35.1945 104.494 35.3063 105.028 35.5301C105.562 35.7539 106.017 36.0617 106.391 36.4533C106.765 36.8449 107.053 37.3135 107.255 37.859C107.456 38.4045 107.557 38.9989 107.557 39.6423C107.557 40.4955 107.466 41.2159 107.286 41.8033ZM101.834 39.5375H104.581V39.3067C104.581 38.7891 104.466 38.3625 104.237 38.0269C104.008 37.6911 103.665 37.5233 103.207 37.5233C102.763 37.5233 102.434 37.6807 102.219 37.9954C102.003 38.3101 101.875 38.8241 101.834 39.5375Z" fill="white"/>
</g>
</g>
<defs>
<filter id="filter0_d_482_410" x="-19.6333" y="-9.14336" width="177.026" height="102.287" filterUnits="userSpaceOnUse" color-interpolation-filters="sRGB">
<feFlood flood-opacity="0" result="BackgroundImageFix"/>
<feColorMatrix in="SourceAlpha" type="matrix" values="0 0 0 0 0 0 0 0 0 0 0 0 0 0 0 0 0 0 127 0" result="hardAlpha"/>
<feOffset dy="3.33027"/>
<feGaussianBlur stdDeviation="15"/>
<feComposite in2="hardAlpha" operator="out"/>
<feColorMatrix type="matrix" values="0 0 0 0 0 0 0 0 0 0 0 0 0 0 0 0 0 0 0.2 0"/>
<feBlend mode="normal" in2="BackgroundImageFix" result="effect1_dropShadow_482_410"/>
<feBlend mode="normal" in="SourceGraphic" in2="effect1_dropShadow_482_410" result="shape"/>
</filter>
</defs>
</svg>
