<svg width="195" height="42" viewBox="0 0 195 42" fill="none" xmlns="http://www.w3.org/2000/svg">
<g clip-path="url(#clip0_481_285)">
<path d="M56.7343 15.937V19.7813H55.6757C54.6511 19.7813 53.877 20.0272 53.3761 20.5188C52.8638 21.0105 52.6134 21.7705 52.6134 22.821V28.5874H48.1851V15.937H52.2264V17.278C53.0459 16.2499 54.1274 15.7358 55.4708 15.7358C55.9033 15.7358 56.3246 15.8029 56.7343 15.937Z" fill="white"/>
<path d="M70.4663 23.77H62.2244C62.7026 24.731 63.6701 25.2115 65.1045 25.2115C66.2429 25.2115 67.3585 24.8874 68.4741 24.2281L70.0679 27.1896C68.5539 28.3182 66.8462 28.877 64.9452 28.877C62.8505 28.877 61.1202 28.2512 59.7541 26.9772C58.388 25.7144 57.7051 24.1387 57.7051 22.2501C57.7051 20.395 58.3653 18.8305 59.6972 17.5453C61.0291 16.2602 62.657 15.6232 64.5808 15.6232C66.4022 15.6232 67.8822 16.2043 69.0206 17.3665C70.1589 18.5287 70.7282 19.948 70.7282 21.6131C70.7509 22.3506 70.6599 23.0659 70.4663 23.77ZM62.0651 20.9426H66.5503C66.5389 20.3838 66.3226 19.9256 65.9128 19.5792C65.503 19.2216 65.0021 19.0428 64.4215 19.0428C63.8523 19.0428 63.3628 19.2104 62.9529 19.5345C62.5318 19.8697 62.2472 20.3279 62.0651 20.9426Z" fill="white"/>
<path d="M71.8306 26.452L73.891 23.8705C75.0066 24.921 76.1906 25.4351 77.4428 25.4351C78.194 25.4351 78.5811 25.2451 78.5811 24.8763C78.5811 24.6528 78.3307 24.4404 77.8298 24.2504L76.3841 23.6693C75.0635 23.1441 74.1073 22.5853 73.5267 21.9707C72.9462 21.3673 72.6501 20.5738 72.6501 19.5903C72.6501 18.3611 73.1055 17.3889 74.0048 16.6848C74.9042 15.9808 76.1223 15.6232 77.6476 15.6232C79.674 15.6232 81.2905 16.2378 82.4857 17.4671L80.4025 20.1268C79.5487 19.4004 78.638 19.0428 77.6704 19.0428C77.0671 19.0428 76.7711 19.1992 76.7711 19.5233C76.7711 19.758 77.0671 19.9927 77.6476 20.205L78.934 20.7079C80.2887 21.2331 81.2563 21.7807 81.8255 22.3618C82.3947 22.9429 82.6906 23.714 82.6906 24.6751C82.6906 25.9714 82.1898 26.9996 81.1994 27.7594C80.1862 28.4971 78.9112 28.8659 77.3631 28.8659C76.2133 28.8659 75.1546 28.6535 74.187 28.24C73.208 27.8265 72.4225 27.2231 71.8306 26.452Z" fill="white"/>
<path d="M96.8978 17.4897C98.059 18.7302 98.6396 20.3059 98.6396 22.228C98.6396 24.1502 98.059 25.737 96.8864 26.9886C95.7139 28.2404 94.2454 28.8773 92.4581 28.8773C91.1034 28.8773 89.9992 28.4862 89.1568 27.715V33.1239H84.7285V15.9364H88.7697V17.2551C89.5552 16.1711 90.7847 15.6346 92.4468 15.6346C94.2568 15.6346 95.7366 16.2493 96.8978 17.4897ZM93.3688 24.2172C93.8583 23.7367 94.1088 23.0885 94.1088 22.2616C94.1088 21.4346 93.8698 20.7864 93.403 20.3059C92.9249 19.8253 92.3215 19.5907 91.5815 19.5907C90.8644 19.5907 90.261 19.8253 89.7943 20.2948C89.3162 20.7641 89.0885 21.4123 89.0885 22.2392C89.0885 23.0662 89.3276 23.7256 89.8057 24.206C90.2839 24.6978 90.8758 24.9436 91.5815 24.9436C92.276 24.9324 92.8793 24.6978 93.3688 24.2172Z" fill="white"/>
<path d="M100.223 22.2513C100.189 20.4522 100.872 18.8876 102.261 17.5577C103.649 16.239 105.311 15.5909 107.235 15.6244C109.159 15.5909 110.821 16.239 112.221 17.5577C113.622 18.8764 114.305 20.4409 114.27 22.2513C114.305 24.0505 113.622 25.615 112.221 26.945C110.821 28.2636 109.159 28.9118 107.235 28.8782C105.311 28.9118 103.661 28.2636 102.261 26.945C100.872 25.6263 100.189 24.0617 100.223 22.2513ZM109.034 24.1399C109.501 23.6482 109.728 23.0113 109.728 22.2625C109.728 21.5138 109.489 20.8767 109.023 20.3851C108.544 19.8934 107.964 19.6363 107.258 19.6363C106.518 19.6363 105.915 19.8822 105.459 20.3738C104.993 20.8656 104.765 21.4914 104.765 22.2737C104.765 23.0671 104.993 23.7041 105.459 24.1847C105.926 24.6651 106.518 24.8999 107.258 24.8999C107.975 24.8775 108.567 24.6317 109.034 24.1399Z" fill="white"/>
<path d="M129.09 20.7864V28.5756H124.662V21.4234C124.662 20.8646 124.491 20.4176 124.138 20.0713C123.785 19.7248 123.342 19.5571 122.784 19.5571C122.237 19.5571 121.781 19.736 121.44 20.0713C121.098 20.4176 120.928 20.8646 120.928 21.4234V28.5756H116.5V15.9364H120.541V16.9757C121.498 16.0817 122.715 15.6346 124.172 15.6346C125.663 15.6346 126.859 16.104 127.747 17.0427C128.635 17.9703 129.09 19.2219 129.09 20.7864Z" fill="white"/>
<path d="M140.703 9.61157H145.13V28.5648H141.09V27.2461C140.304 28.319 139.075 28.8665 137.413 28.8665C135.614 28.8665 134.134 28.2519 132.973 27.0115C131.812 25.771 131.231 24.1953 131.231 22.2732C131.231 20.351 131.812 18.7641 132.984 17.5125C134.145 16.2608 135.625 15.635 137.413 15.635C138.768 15.635 139.871 16.0262 140.703 16.7973V9.61157ZM140.065 24.2288C140.532 23.7594 140.77 23.1112 140.77 22.2843C140.77 21.4574 140.532 20.7979 140.054 20.3175C139.575 19.8257 138.984 19.5799 138.278 19.5799C137.572 19.5799 136.98 19.8257 136.49 20.2952C136.001 20.7756 135.762 21.4238 135.762 22.2507C135.762 23.0778 136.001 23.7259 136.468 24.2064C136.935 24.687 137.549 24.9217 138.278 24.9217C138.995 24.9328 139.598 24.6982 140.065 24.2288Z" fill="white"/>
<path d="M148.114 27.5238C147.568 26.9873 147.295 26.3057 147.295 25.5011C147.295 24.6964 147.568 24.0147 148.114 23.4783C148.661 22.9419 149.366 22.6737 150.232 22.6737C151.052 22.6737 151.735 22.9419 152.281 23.4783C152.827 24.0147 153.09 24.6964 153.09 25.5011C153.09 26.3057 152.816 26.9873 152.281 27.5238C151.746 28.0602 151.052 28.3284 150.232 28.3284C149.366 28.3284 148.661 28.0602 148.114 27.5238Z" fill="white"/>
<path d="M155.491 13.2774C154.967 12.7857 154.705 12.1823 154.705 11.4559C154.705 10.7295 154.967 10.126 155.491 9.62313C156.014 9.12025 156.652 8.87439 157.403 8.87439C158.154 8.87439 158.803 9.12025 159.338 9.62313C159.873 10.126 160.135 10.7295 160.135 11.4559C160.135 12.1599 159.873 12.7634 159.338 13.2663C158.803 13.7691 158.165 14.015 157.403 14.015C156.652 14.015 156.014 13.7691 155.491 13.2774ZM155.217 28.5763V15.9371H159.646V28.5763H155.217Z" fill="white"/>
<path d="M161.888 22.2513C161.854 20.4522 162.537 18.8876 163.925 17.5577C165.314 16.239 166.976 15.5909 168.9 15.6244C170.824 15.5909 172.485 16.239 173.886 17.5577C175.286 18.8764 175.969 20.4409 175.935 22.2513C175.969 24.0505 175.286 25.615 173.886 26.945C172.485 28.2636 170.824 28.9118 168.9 28.8782C166.976 28.9118 165.325 28.2636 163.925 26.945C162.537 25.6263 161.854 24.0617 161.888 22.2513ZM170.699 24.1399C171.166 23.6482 171.393 23.0113 171.393 22.2625C171.393 21.5138 171.154 20.8767 170.687 20.3851C170.22 19.8934 169.629 19.6363 168.923 19.6363C168.183 19.6363 167.58 19.8822 167.124 20.3738C166.657 20.8656 166.43 21.4914 166.43 22.2737C166.43 23.0671 166.657 23.7041 167.124 24.1847C167.591 24.6651 168.183 24.8999 168.923 24.8999C169.64 24.8775 170.232 24.6317 170.699 24.1399Z" fill="white"/>
<path d="M26.6715 26.5747C27.1724 27.1781 27.0927 28.0833 26.4779 28.575C26.2161 28.7873 25.8974 28.8991 25.5672 28.8991C25.5217 28.8991 25.4648 28.8991 25.4193 28.888C25.0322 28.8544 24.6907 28.6645 24.4402 28.3739L18.4865 21.2776L18.3954 21.1993V21.1659C17.9401 20.54 18.0425 19.6906 18.6345 19.2213C19.1468 18.8078 19.8412 18.7967 20.3648 19.1431L20.4104 19.0984L20.6722 19.4113L26.6715 26.5747ZM37.7934 13.2202C37.1788 12.7285 36.2681 12.8179 35.7785 13.4102L30.6786 19.5007C30.6444 19.5342 30.6217 19.5566 30.6103 19.5789C30.1094 20.1824 30.2004 21.0876 30.8266 21.5793C31.0884 21.7804 31.4071 21.8922 31.7373 21.8922C31.7828 21.8922 31.8398 21.8922 31.8967 21.881C32.2837 21.8475 32.6252 21.6575 32.8757 21.3669L38.0212 15.2206C38.5106 14.6171 38.4082 13.7231 37.7934 13.2202Z" fill="white"/>
<path d="M43.9404 14.5402C43.8948 14.1491 43.7013 13.8026 43.3939 13.5679C43.0865 13.3221 42.6995 13.2103 42.301 13.2439C41.9026 13.2774 41.5498 13.4674 41.2993 13.7803L31.623 25.4361L26.6028 19.4126C26.0905 18.8091 25.1798 18.7197 24.5651 19.2226C24.2691 19.4685 24.087 19.8149 24.0528 20.1949C24.0187 20.5748 24.1325 20.9436 24.3829 21.223L30.5416 28.5763C30.792 28.8669 31.1336 29.0456 31.5206 29.0904C31.5661 29.0904 31.6117 29.1015 31.6572 29.1015C31.9873 29.1015 32.3175 28.9897 32.5793 28.7775C32.659 28.7104 32.7273 28.6434 32.7842 28.5652L43.5647 15.6689C43.5874 15.6465 43.5988 15.6354 43.6216 15.613C43.872 15.3001 43.9859 14.9201 43.9404 14.5402Z" fill="white"/>
</g>
<defs>
<clipPath id="clip0_481_285">
<rect width="159.648" height="24.2503" fill="white" transform="translate(17.2002 8.87488)"/>
</clipPath>
</defs>
</svg>
