<svg width="174" height="84" viewBox="0 0 174 84" fill="none" xmlns="http://www.w3.org/2000/svg">
<g filter="url(#filter0_d_482_399)">
<path fill-rule="evenodd" clip-rule="evenodd" d="M43.8411 26.8974C43.9293 26.9129 44.0118 26.9517 44.0799 27.0099C44.1481 27.068 44.1994 27.1434 44.2284 27.2281V27.2848L44.8142 30.28C45.5937 30.5813 46.3281 30.9882 46.9968 31.4894L47.233 31.6783L50.1715 30.6674C50.2647 30.6309 50.3671 30.625 50.4639 30.6504C50.5607 30.6759 50.6469 30.7315 50.7101 30.8091C51.7456 31.9536 52.5365 33.2976 53.0344 34.7585C53.0718 34.8385 53.0829 34.9283 53.0659 35.0149C53.0489 35.1015 53.0048 35.1805 52.9399 35.2404H52.8926L50.5589 37.2718C50.6394 37.7303 50.6773 38.1953 50.6723 38.6607C50.6743 39.0365 50.6522 39.4121 50.6061 39.7851L50.5589 40.0591L52.8926 42.0433C52.9748 42.1006 53.0341 42.1851 53.0601 42.282C53.086 42.3788 53.0769 42.4816 53.0344 42.5724C52.5421 44.0318 51.7577 45.3756 50.729 46.5218C50.6738 46.5909 50.6 46.6428 50.5162 46.6712C50.4325 46.6997 50.3424 46.7036 50.2565 46.6824H50.1904L47.2519 45.6526C46.6057 46.179 45.8904 46.6145 45.126 46.947L44.8331 47.0604L44.2473 50.065C44.2273 50.1633 44.1776 50.2532 44.105 50.3224C44.0323 50.3917 43.9402 50.437 43.8411 50.4524C43.0803 50.5915 42.309 50.6642 41.5356 50.6697C40.7586 50.6581 39.9841 50.5791 39.2208 50.4335C39.1329 50.4171 39.0509 50.378 38.9829 50.3199C38.9149 50.2619 38.8633 50.187 38.8334 50.1028V50.0461L38.2759 47.0415C37.4824 46.7475 36.7372 46.3367 36.065 45.8226L35.8477 45.6526L32.8809 46.6635C32.7875 46.6986 32.6855 46.7037 32.5891 46.6784C32.4926 46.653 32.4064 46.5983 32.3423 46.5218C31.3165 45.3734 30.5325 44.0303 30.0369 42.5724C30.0022 42.4919 29.9927 42.4028 30.0096 42.3168C30.0264 42.2308 30.0689 42.1519 30.1314 42.0905V42.0433L32.4652 40.0591C32.3873 39.5972 32.3525 39.1291 32.3612 38.6607C32.3563 38.2883 32.3752 37.9159 32.4179 37.5458L32.4652 37.2718L30.1786 35.2782C30.0986 35.2213 30.0408 35.1384 30.015 35.0437C29.9891 34.9489 29.9969 34.8482 30.0369 34.7585C30.5325 33.3007 31.3165 31.9575 32.3423 30.8091C32.3982 30.7409 32.4721 30.6897 32.5556 30.6613C32.6391 30.6329 32.7289 30.6285 32.8147 30.6485H32.8809L35.8193 31.6783C36.471 31.1425 37.2007 30.7092 37.983 30.3934L38.2759 30.28L38.8523 27.2848C38.8708 27.192 38.9153 27.1064 38.9805 27.0378C39.0457 26.9693 39.129 26.9206 39.2208 26.8974C40.7459 26.5938 42.3159 26.5938 43.8411 26.8974ZM109.035 34.9286C109.603 34.9256 110.164 35.0584 110.67 35.316C111.184 35.5828 111.63 35.9642 111.974 36.4309C112.361 36.971 112.649 37.5757 112.824 38.2167C113.043 38.9943 113.148 39.7994 113.136 40.6071C113.142 41.3899 113.02 42.1685 112.777 42.9125C112.573 43.5774 112.253 44.2011 111.832 44.755C111.398 45.2837 110.853 45.7097 110.235 46.0022C109.623 46.3007 108.951 46.4528 108.27 46.4462C107.766 46.4602 107.265 46.3735 106.796 46.1911C106.398 46.036 106.03 45.8121 105.709 45.5297V49.7815H102.336V35.1459H104.528C104.679 35.1614 104.824 35.2098 104.953 35.2876C105.099 35.3858 105.203 35.5337 105.246 35.7034L105.501 36.5159L105.662 36.3459C105.83 36.1759 106.01 36.018 106.201 35.8734C106.452 35.6814 106.721 35.5137 107.004 35.3727C107.306 35.232 107.623 35.1243 107.949 35.0514C108.296 34.9715 108.651 34.9303 109.007 34.9286H109.035ZM77.3546 34.9758C78.0527 34.9679 78.7468 35.0831 79.4049 35.316C80.0038 35.5296 80.5487 35.8714 81.0017 36.3175C81.4591 36.7687 81.8137 37.3134 82.041 37.9143C82.3044 38.5981 82.4328 39.3265 82.419 40.0591C82.4362 40.2603 82.4362 40.4626 82.419 40.6638C82.4082 40.7964 82.3696 40.9251 82.3056 41.0417C82.2534 41.1321 82.1691 41.1996 82.0694 41.2307C81.9479 41.2724 81.8198 41.2916 81.6914 41.2874H75.1248V41.4669C75.1824 42.1583 75.4759 42.8088 75.9562 43.3094C76.4544 43.7365 77.0958 43.9592 77.7514 43.933C78.0939 43.9404 78.4353 43.8925 78.7624 43.7912C79.0222 43.7072 79.2749 43.603 79.5183 43.4794L80.123 43.1676C80.3064 43.0816 80.5063 43.0365 80.7088 43.0354C80.8252 43.0284 80.9416 43.0507 81.0472 43.1002C81.1528 43.1497 81.2444 43.2249 81.3135 43.3188L82.2583 44.5093L82.1072 44.6699C81.8283 44.9747 81.5106 45.2415 81.1623 45.4636C80.7745 45.7049 80.3589 45.8984 79.9246 46.04C79.5096 46.1777 79.0825 46.2758 78.649 46.3329C78.2483 46.3881 77.8442 46.4165 77.4397 46.4179C76.6933 46.4089 75.9545 46.2681 75.2571 46.0022C74.5787 45.7618 73.96 45.3784 73.443 44.8778C72.9046 44.3418 72.486 43.6977 72.2147 42.9881C71.8978 42.1625 71.7438 41.2834 71.7611 40.3992C71.7581 39.6789 71.8895 38.9644 72.1485 38.2922C72.395 37.662 72.7643 37.0871 73.2351 36.601C73.732 36.091 74.3265 35.6861 74.9831 35.4105C75.7264 35.1076 76.5238 34.9597 77.3263 34.9758H77.3546ZM95.3728 34.9758C96.0678 34.968 96.7587 35.0832 97.4136 35.316C98.0136 35.5273 98.559 35.8694 99.0104 36.3175C99.4679 36.7705 99.8252 37.3145 100.059 37.9143C100.315 38.6 100.44 39.3274 100.428 40.0591C100.439 40.2605 100.439 40.4624 100.428 40.6638C100.414 40.7971 100.372 40.9259 100.305 41.0417C100.256 41.1315 100.175 41.1992 100.078 41.2307C99.9528 41.2695 99.8216 41.2855 99.6907 41.2779H93.1429V41.4575C93.2073 42.1593 93.5187 42.8156 94.0216 43.3094C94.5189 43.7381 95.1609 43.9611 95.8168 43.933C96.1687 43.9428 96.5198 43.8949 96.8562 43.7912C97.1153 43.7056 97.3679 43.6014 97.612 43.4794L98.2167 43.1676C98.4001 43.0816 98.6 43.0365 98.8025 43.0354C98.9189 43.0293 99.0349 43.0519 99.1404 43.1014C99.2459 43.1508 99.3375 43.2255 99.4072 43.3188L100.352 44.5093L100.201 44.6699C99.922 44.9747 99.6044 45.2415 99.2561 45.4636C98.8694 45.707 98.4535 45.9006 98.0183 46.04C97.6069 46.1789 97.1829 46.277 96.7522 46.3329C96.3514 46.3877 95.9474 46.4162 95.5428 46.4179C94.7649 46.4181 93.9934 46.2772 93.2658 46.0022C92.5874 45.7618 91.9687 45.3784 91.4517 44.8778C90.9166 44.3391 90.4984 43.6958 90.2234 42.9881C89.9142 42.1607 89.7636 41.2824 89.7793 40.3992C89.7717 39.6785 89.9032 38.9631 90.1667 38.2922C90.412 37.6402 90.7882 37.0454 91.2721 36.5443C91.7691 36.0343 92.3635 35.6294 93.0201 35.3538C93.7611 35.071 94.552 34.9424 95.3444 34.9758H95.3728ZM119.939 34.9758C120.734 34.9667 121.525 35.1011 122.272 35.3727C122.946 35.6389 123.557 36.041 124.068 36.5537C124.58 37.0633 124.979 37.675 125.239 38.3489C125.524 39.1034 125.665 39.9046 125.655 40.711C125.666 41.5298 125.525 42.3436 125.239 43.1109C124.978 43.7785 124.576 44.3821 124.06 44.8809C123.545 45.3797 122.929 45.7621 122.254 46.0022C121.506 46.2769 120.716 46.4146 119.92 46.4084C119.118 46.4154 118.321 46.2778 117.567 46.0022C116.891 45.7529 116.273 45.3669 115.753 44.8683C115.234 44.3571 114.828 43.7422 114.563 43.0637C114.277 42.2964 114.136 41.4826 114.147 40.6638C114.137 39.8574 114.278 39.0562 114.563 38.3017C114.832 37.6417 115.238 37.0461 115.753 36.5537C116.276 36.0536 116.897 35.6675 117.577 35.4199C118.325 35.1325 119.118 34.9821 119.92 34.9758H119.939ZM140.498 31.924V35.1648H143.238V37.4324H140.498V43.0542C140.506 43.2457 140.572 43.4302 140.687 43.5834C140.751 43.6676 140.834 43.7349 140.93 43.7794C141.025 43.8239 141.13 43.8442 141.235 43.8385C141.339 43.85 141.444 43.85 141.547 43.8385L141.765 43.7534L141.935 43.6684C141.997 43.6542 142.061 43.6542 142.124 43.6684C142.211 43.6614 142.297 43.6848 142.369 43.7345C142.444 43.7962 142.507 43.8696 142.558 43.9518L143.579 45.5297L143.418 45.6431C143.017 45.91 142.577 46.1139 142.114 46.2478C141.568 46.4106 141.002 46.4934 140.432 46.4935C139.95 46.5 139.47 46.42 139.015 46.2573C138.627 46.1197 138.275 45.8969 137.985 45.6053C137.7 45.3152 137.481 44.9672 137.343 44.5849C137.193 44.1535 137.12 43.6996 137.125 43.2432V37.4324H136.086C135.953 37.4171 135.827 37.361 135.727 37.2718C135.662 37.2083 135.612 37.1315 135.579 37.0467C135.546 36.9619 135.532 36.8712 135.538 36.7805V35.4861L137.333 35.1459L137.995 32.4437V32.3586C138.047 32.2153 138.147 32.0942 138.277 32.0151C138.408 31.9361 138.561 31.904 138.713 31.924H140.47H140.498ZM70.9769 30.6485V33.483H66.5267V46.2384H62.8418V33.5208H58.4011V30.6863L70.9769 30.6485ZM87.7951 30.2233V46.2856H84.4315V30.2233H87.7951ZM133.743 34.9475C134.185 34.9259 134.622 35.0559 134.981 35.316L134.546 37.7537V37.8387C134.524 37.9326 134.471 38.0161 134.395 38.0749C134.289 38.1375 134.168 38.1672 134.045 38.16C133.901 38.1714 133.755 38.1714 133.611 38.16C133.404 38.1264 133.196 38.1106 132.987 38.1127C132.545 38.108 132.11 38.23 131.735 38.4645C131.36 38.6989 131.06 39.0359 130.87 39.4355V46.2384H127.497V35.1459H129.623C129.722 35.1501 129.821 35.166 129.916 35.1932C130.018 35.2122 130.113 35.2558 130.193 35.32C130.274 35.3842 130.338 35.4672 130.379 35.5616C130.423 35.6817 130.458 35.8048 130.483 35.9301L130.663 36.9695L130.804 36.7616C131.146 36.2668 131.567 35.8325 132.052 35.4766C132.534 35.1294 133.111 34.9382 133.705 34.9286L133.743 34.9475ZM41.5356 31.65C40.1464 31.6481 38.7878 32.0585 37.6319 32.8292C36.476 33.5998 35.5747 34.6961 35.0422 35.9793C34.5097 37.2625 34.3699 38.6748 34.6404 40.0374C34.911 41.4001 35.5798 42.6518 36.5622 43.6342C37.5445 44.6165 38.7963 45.2853 40.1589 45.5559C41.5216 45.8265 42.9339 45.6867 44.2171 45.1542C45.5002 44.6217 46.5965 43.7204 47.3672 42.5645C48.1379 41.4086 48.5482 40.05 48.5464 38.6607C48.5464 36.8014 47.8077 35.0182 46.493 33.7034C45.1782 32.3886 43.395 31.65 41.5356 31.65ZM107.835 37.4986C107.61 37.4948 107.385 37.517 107.164 37.5647C106.975 37.6094 106.791 37.676 106.616 37.7631C106.444 37.8503 106.285 37.9617 106.144 38.0938C105.987 38.2334 105.842 38.385 105.709 38.5473V43.2716L105.813 43.3849C106.018 43.5901 106.262 43.7509 106.531 43.8574C106.835 43.9652 107.154 44.0196 107.476 44.018C107.773 44.0225 108.066 43.9612 108.336 43.8385C108.609 43.704 108.843 43.5024 109.016 43.2527C109.228 42.9372 109.379 42.5846 109.46 42.2133C109.584 41.7031 109.641 41.1791 109.63 40.6543C109.637 40.1567 109.593 39.6596 109.498 39.1709C109.433 38.8364 109.308 38.5163 109.13 38.2261C108.999 37.9995 108.805 37.8157 108.572 37.697C108.347 37.5704 108.094 37.5022 107.835 37.4986ZM119.92 37.4986C119.584 37.4723 119.247 37.5323 118.941 37.6729C118.635 37.8135 118.371 38.0299 118.172 38.3017C117.749 39.0482 117.555 39.9025 117.614 40.7583C117.556 41.614 117.75 42.468 118.172 43.2149C118.369 43.488 118.634 43.7055 118.94 43.8462C119.246 43.9869 119.584 44.0461 119.92 44.018C120.25 44.046 120.582 43.9865 120.882 43.8455C121.183 43.7045 121.44 43.487 121.63 43.2149C122.048 42.4668 122.238 41.613 122.178 40.7583C122.24 39.9034 122.049 39.0492 121.63 38.3017C121.444 38.0214 121.189 37.7941 120.889 37.6417C120.59 37.4894 120.256 37.4173 119.92 37.4324V37.4986ZM45.9764 35.6089V37.6875H42.5939V42.7047H40.4774V37.6875H37.1043V35.6089H45.9764ZM77.3924 37.2624C77.1172 37.2459 76.8414 37.2851 76.5817 37.3776C76.3219 37.4701 76.0835 37.6141 75.8807 37.8009C75.4668 38.2365 75.2021 38.7924 75.1248 39.3883H79.3293C79.3286 39.1297 79.2937 38.8723 79.2254 38.6229C79.1623 38.3772 79.0462 38.1482 78.8853 37.9521C78.7239 37.7452 78.5125 37.5826 78.2711 37.4797C77.998 37.343 77.6978 37.2687 77.3924 37.2624ZM95.4011 37.2624C95.1273 37.2461 94.8531 37.2854 94.5949 37.3779C94.3367 37.4705 94.0999 37.6144 93.8988 37.8009C93.4988 38.2415 93.2475 38.7969 93.1807 39.3883H97.3853C97.3846 39.1297 97.3496 38.8723 97.2813 38.6229C97.2183 38.3772 97.1022 38.1482 96.9412 37.9521C96.7798 37.7452 96.5685 37.5826 96.3271 37.4797C96.0391 37.3373 95.7223 37.2629 95.4011 37.2624Z" fill="white"/>
</g>
<defs>
<filter id="filter0_d_482_399" x="-19.6333" y="-9.14336" width="212.845" height="102.287" filterUnits="userSpaceOnUse" color-interpolation-filters="sRGB">
<feFlood flood-opacity="0" result="BackgroundImageFix"/>
<feColorMatrix in="SourceAlpha" type="matrix" values="0 0 0 0 0 0 0 0 0 0 0 0 0 0 0 0 0 0 127 0" result="hardAlpha"/>
<feOffset dy="3.33027"/>
<feGaussianBlur stdDeviation="15"/>
<feComposite in2="hardAlpha" operator="out"/>
<feColorMatrix type="matrix" values="0 0 0 0 0 0 0 0 0 0 0 0 0 0 0 0 0 0 0.2 0"/>
<feBlend mode="normal" in2="BackgroundImageFix" result="effect1_dropShadow_482_399"/>
<feBlend mode="normal" in="SourceGraphic" in2="effect1_dropShadow_482_399" result="shape"/>
</filter>
</defs>
</svg>
