<svg width="1313" height="1312" viewBox="0 0 1313 1312" fill="none" xmlns="http://www.w3.org/2000/svg">
<path fill-rule="evenodd" clip-rule="evenodd" d="M1240.11 0H1312V71.8889H1240.11V0ZM1240.11 72.8889H1312V144.778H1240.11V72.8889ZM1239.11 145.778V217.667H1167.22V145.778H1239.11ZM1239.11 290.556V218.667H1167.22V290.556H1239.11ZM1239.11 291.556V363.444H1167.22V291.556H1239.11ZM1239.11 436.333V364.444H1167.22V436.333H1239.11ZM1239.11 437.333V509.222H1167.22V437.333H1239.11ZM1239.11 582.111V510.222H1167.22V582.111H1239.11ZM1239.11 583.111V655H1167.22V583.111H1239.11ZM1239.11 727.889V656H1167.22V727.889H1239.11ZM1239.11 728.889V800.778H1167.22V728.889H1239.11ZM1239.11 873.667V801.778H1167.22V873.667H1239.11ZM1239.11 874.667V946.556H1167.22V874.667H1239.11ZM1239.11 1019.44V947.556H1167.22V1019.44H1239.11ZM1239.11 1020.44V1092.33H1167.22V1020.44H1239.11ZM1239.11 1165.22V1093.33H1167.22V1165.22H1239.11ZM1239.11 1166.22V1238.11H1167.22V1166.22H1239.11ZM1239.11 1311V1239.11H1167.22V1311H1239.11ZM1240.11 1311H1312V1239.11H1240.11V1311ZM1313 1311L1313 1312H1H0V0H1V71.8889H72.8889V0H1V-1H1313V0V71.8889V72.8889V144.778V145.778V217.667V218.667V290.556V291.556V363.444V364.444V436.333V437.333V509.222V510.222V582.111V583.111V655V656V727.889V728.889V800.778V801.778V873.667V874.667V946.556V947.556V1019.44V1020.44V1092.33V1093.33V1165.22V1166.22V1238.11V1239.11V1311ZM1 1311H72.8889V1239.11H1V1311ZM73.8889 1311V1239.11H145.778V1311H73.8889ZM146.778 1311V1239.11H218.667V1311H146.778ZM219.667 1311V1239.11H291.556V1311H219.667ZM292.556 1311V1239.11H364.444V1311H292.556ZM365.444 1311V1239.11H437.333V1311H365.444ZM438.333 1311V1239.11H510.222V1311H438.333ZM511.222 1311V1239.11H583.111V1311H511.222ZM584.111 1311V1239.11H656V1311H584.111ZM657 1311V1239.11H728.889V1311H657ZM729.889 1311V1239.11H801.778V1311H729.889ZM802.778 1311V1239.11H874.667V1311H802.778ZM875.667 1311V1239.11H947.556V1311H875.667ZM948.556 1311V1239.11H1020.44V1311H948.556ZM1021.44 1311V1239.11H1093.33V1311H1021.44ZM1094.33 1311V1239.11H1166.22V1311H1094.33ZM1166.22 1166.22V1238.11H1094.33V1166.22H1166.22ZM1093.33 1166.22V1238.11H1021.44V1166.22H1093.33ZM1020.44 1166.22V1238.11H948.556V1166.22H1020.44ZM947.556 1166.22V1238.11H875.667V1166.22H947.556ZM874.667 1166.22V1238.11H802.778V1166.22H874.667ZM801.778 1166.22V1238.11H729.889V1166.22H801.778ZM728.889 1166.22V1238.11H657V1166.22H728.889ZM656 1166.22V1238.11H584.111V1166.22H656ZM583.111 1166.22V1238.11H511.222V1166.22H583.111ZM510.222 1166.22V1238.11H438.333V1166.22H510.222ZM437.333 1166.22V1238.11H365.444V1166.22H437.333ZM364.444 1166.22V1238.11H292.556V1166.22H364.444ZM291.556 1166.22V1238.11H219.667V1166.22H291.556ZM218.667 1166.22V1238.11H146.778V1166.22H218.667ZM145.778 1166.22V1238.11H73.8889V1166.22H145.778ZM72.8889 1166.22V1238.11H1V1166.22H72.8889ZM1312 1166.22V1238.11H1240.11V1166.22H1312ZM1166.22 1165.22V1093.33H1094.33V1165.22H1166.22ZM1093.33 1165.22V1093.33H1021.44V1165.22H1093.33ZM1020.44 1165.22V1093.33H948.556V1165.22H1020.44ZM947.556 1165.22V1093.33H875.667V1165.22H947.556ZM874.667 1165.22V1093.33H802.778V1165.22H874.667ZM801.778 1165.22V1093.33H729.889V1165.22H801.778ZM728.889 1165.22V1093.33H657V1165.22H728.889ZM656 1165.22V1093.33H584.111V1165.22H656ZM583.111 1165.22V1093.33H511.222V1165.22H583.111ZM510.222 1165.22V1093.33H438.333V1165.22H510.222ZM437.333 1165.22V1093.33H365.444V1165.22H437.333ZM364.444 1165.22V1093.33H292.556V1165.22H364.444ZM291.556 1165.22V1093.33H219.667V1165.22H291.556ZM218.667 1165.22V1093.33H146.778V1165.22H218.667ZM145.778 1165.22V1093.33H73.8889V1165.22H145.778ZM72.8889 1165.22V1093.33H1V1165.22H72.8889ZM1312 1165.22V1093.33H1240.11V1165.22H1312ZM1166.22 1020.44V1092.33H1094.33V1020.44H1166.22ZM1093.33 1020.44V1092.33H1021.44V1020.44H1093.33ZM1020.44 1020.44V1092.33H948.556V1020.44H1020.44ZM947.556 1020.44V1092.33H875.667V1020.44H947.556ZM874.667 1020.44V1092.33H802.778V1020.44H874.667ZM801.778 1020.44V1092.33H729.889V1020.44H801.778ZM728.889 1020.44V1092.33H657V1020.44H728.889ZM656 1020.44V1092.33H584.111V1020.44H656ZM583.111 1020.44V1092.33H511.222V1020.44H583.111ZM510.222 1020.44V1092.33H438.333V1020.44H510.222ZM437.333 1020.44V1092.33H365.444V1020.44H437.333ZM364.444 1020.44V1092.33H292.556V1020.44H364.444ZM291.556 1020.44V1092.33H219.667V1020.44H291.556ZM218.667 1020.44V1092.33H146.778V1020.44H218.667ZM145.778 1020.44V1092.33H73.8889V1020.44H145.778ZM72.8889 1020.44V1092.33H1V1020.44H72.8889ZM1312 1020.44V1092.33H1240.11V1020.44H1312ZM1166.22 1019.44V947.556H1094.33V1019.44H1166.22ZM1093.33 1019.44V947.556H1021.44V1019.44H1093.33ZM1020.44 1019.44V947.556H948.556V1019.44H1020.44ZM947.556 1019.44V947.556H875.667V1019.44H947.556ZM874.667 1019.44V947.556H802.778V1019.44H874.667ZM801.778 1019.44V947.556H729.889V1019.44H801.778ZM728.889 1019.44V947.556H657V1019.44H728.889ZM656 1019.44V947.556H584.111V1019.44H656ZM583.111 1019.44V947.556H511.222V1019.44H583.111ZM510.222 1019.44V947.556H438.333V1019.44H510.222ZM437.333 1019.44V947.556H365.444V1019.44H437.333ZM364.444 1019.44V947.556H292.556V1019.44H364.444ZM291.556 1019.44V947.556H219.667V1019.44H291.556ZM218.667 1019.44V947.556H146.778V1019.44H218.667ZM145.778 1019.44V947.556H73.8889V1019.44H145.778ZM72.8889 1019.44V947.556H1V1019.44H72.8889ZM1312 1019.44V947.556H1240.11V1019.44H1312ZM1166.22 874.667V946.556H1094.33V874.667H1166.22ZM1093.33 874.667V946.556H1021.44V874.667H1093.33ZM1020.44 874.667V946.556H948.556V874.667H1020.44ZM947.556 874.667V946.556H875.667V874.667H947.556ZM874.667 874.667V946.556H802.778V874.667H874.667ZM801.778 874.667V946.556H729.889V874.667H801.778ZM728.889 874.667V946.556H657V874.667H728.889ZM656 874.667V946.556H584.111V874.667H656ZM583.111 874.667V946.556H511.222V874.667H583.111ZM510.222 874.667V946.556H438.333V874.667H510.222ZM437.333 874.667V946.556H365.444V874.667H437.333ZM364.444 874.667V946.556H292.556V874.667H364.444ZM291.556 874.667V946.556H219.667V874.667H291.556ZM218.667 874.667V946.556H146.778V874.667H218.667ZM145.778 874.667V946.556H73.8889V874.667H145.778ZM72.8889 874.667V946.556H1V874.667H72.8889ZM1312 874.667V946.556H1240.11V874.667H1312ZM1166.22 873.667V801.778H1094.33V873.667H1166.22ZM1093.33 873.667V801.778H1021.44V873.667H1093.33ZM1020.44 873.667V801.778H948.556V873.667H1020.44ZM947.556 873.667V801.778H875.667V873.667H947.556ZM874.667 873.667V801.778H802.778V873.667H874.667ZM801.778 873.667V801.778H729.889V873.667H801.778ZM728.889 873.667V801.778H657V873.667H728.889ZM656 873.667V801.778H584.111V873.667H656ZM583.111 873.667V801.778H511.222V873.667H583.111ZM510.222 873.667V801.778H438.333V873.667H510.222ZM437.333 873.667V801.778H365.444V873.667H437.333ZM364.444 873.667V801.778H292.556V873.667H364.444ZM291.556 873.667V801.778H219.667V873.667H291.556ZM218.667 873.667V801.778H146.778V873.667H218.667ZM145.778 873.667V801.778H73.8889V873.667H145.778ZM72.8889 873.667V801.778H1V873.667H72.8889ZM1312 873.667V801.778H1240.11V873.667H1312ZM1166.22 728.889V800.778H1094.33V728.889H1166.22ZM1093.33 728.889V800.778H1021.44V728.889H1093.33ZM1020.44 728.889V800.778H948.556V728.889H1020.44ZM947.556 728.889V800.778H875.667V728.889H947.556ZM874.667 728.889V800.778H802.778V728.889H874.667ZM801.778 728.889V800.778H729.889V728.889H801.778ZM728.889 728.889V800.778H657V728.889H728.889ZM656 728.889V800.778H584.111V728.889H656ZM583.111 728.889V800.778H511.222V728.889H583.111ZM510.222 728.889V800.778H438.333V728.889H510.222ZM437.333 728.889V800.778H365.444V728.889H437.333ZM364.444 728.889V800.778H292.556V728.889H364.444ZM291.556 728.889V800.778H219.667V728.889H291.556ZM218.667 728.889V800.778H146.778V728.889H218.667ZM145.778 728.889V800.778H73.8889V728.889H145.778ZM72.8889 728.889V800.778H1V728.889H72.8889ZM1312 728.889V800.778H1240.11V728.889H1312ZM1166.22 727.889V656H1094.33V727.889H1166.22ZM1093.33 727.889V656H1021.44V727.889H1093.33ZM1020.44 727.889V656H948.556V727.889H1020.44ZM947.556 727.889V656H875.667V727.889H947.556ZM874.667 727.889V656H802.778V727.889H874.667ZM801.778 727.889V656H729.889V727.889H801.778ZM728.889 727.889V656H657V727.889H728.889ZM656 727.889V656H584.111V727.889H656ZM583.111 727.889V656H511.222V727.889H583.111ZM510.222 727.889V656H438.333V727.889H510.222ZM437.333 727.889V656H365.444V727.889H437.333ZM364.444 727.889V656H292.556V727.889H364.444ZM291.556 727.889V656H219.667V727.889H291.556ZM218.667 727.889V656H146.778V727.889H218.667ZM145.778 727.889V656H73.8889V727.889H145.778ZM72.8889 727.889V656H1V727.889H72.8889ZM1312 727.889V656H1240.11V727.889H1312ZM1166.22 583.111V655H1094.33V583.111H1166.22ZM1093.33 583.111V655H1021.44V583.111H1093.33ZM1020.44 583.111V655H948.556V583.111H1020.44ZM947.556 583.111V655H875.667V583.111H947.556ZM874.667 583.111V655H802.778V583.111H874.667ZM801.778 583.111V655H729.889V583.111H801.778ZM728.889 583.111V655H657V583.111H728.889ZM656 583.111V655H584.111V583.111H656ZM583.111 583.111V655H511.222V583.111H583.111ZM510.222 583.111V655H438.333V583.111H510.222ZM437.333 583.111V655H365.444V583.111H437.333ZM364.444 583.111V655H292.556V583.111H364.444ZM291.556 583.111V655H219.667V583.111H291.556ZM218.667 583.111V655H146.778V583.111H218.667ZM145.778 583.111V655H73.8889V583.111H145.778ZM72.8889 583.111V655H1V583.111H72.8889ZM1312 583.111V655H1240.11V583.111H1312ZM1166.22 582.111V510.222H1094.33V582.111H1166.22ZM1093.33 582.111V510.222H1021.44V582.111H1093.33ZM1020.44 582.111V510.222H948.556V582.111H1020.44ZM947.556 582.111V510.222H875.667V582.111H947.556ZM874.667 582.111V510.222H802.778V582.111H874.667ZM801.778 582.111V510.222H729.889V582.111H801.778ZM728.889 582.111V510.222H657V582.111H728.889ZM656 582.111V510.222H584.111V582.111H656ZM583.111 582.111V510.222H511.222V582.111H583.111ZM510.222 582.111V510.222H438.333V582.111H510.222ZM437.333 582.111V510.222H365.444V582.111H437.333ZM364.444 582.111V510.222H292.556V582.111H364.444ZM291.556 582.111V510.222H219.667V582.111H291.556ZM218.667 582.111V510.222H146.778V582.111H218.667ZM145.778 582.111V510.222H73.8889V582.111H145.778ZM72.8889 582.111V510.222H1V582.111H72.8889ZM1312 582.111V510.222H1240.11V582.111H1312ZM1166.22 437.333V509.222H1094.33V437.333H1166.22ZM1093.33 437.333V509.222H1021.44V437.333H1093.33ZM1020.44 437.333V509.222H948.556V437.333H1020.44ZM947.556 437.333V509.222H875.667V437.333H947.556ZM874.667 437.333V509.222H802.778V437.333H874.667ZM801.778 437.333V509.222H729.889V437.333H801.778ZM728.889 437.333V509.222H657V437.333H728.889ZM656 437.333V509.222H584.111V437.333H656ZM583.111 437.333V509.222H511.222V437.333H583.111ZM510.222 437.333V509.222H438.333V437.333H510.222ZM437.333 437.333V509.222H365.444V437.333H437.333ZM364.444 437.333V509.222H292.556V437.333H364.444ZM291.556 437.333V509.222H219.667V437.333H291.556ZM218.667 437.333V509.222H146.778V437.333H218.667ZM145.778 437.333V509.222H73.8889V437.333H145.778ZM72.8889 437.333V509.222H1V437.333H72.8889ZM1312 437.333V509.222H1240.11V437.333H1312ZM1166.22 436.333V364.444H1094.33V436.333H1166.22ZM1093.33 436.333V364.444H1021.44V436.333H1093.33ZM1020.44 436.333V364.444H948.556V436.333H1020.44ZM947.556 436.333V364.444H875.667V436.333H947.556ZM874.667 436.333V364.444H802.778V436.333H874.667ZM801.778 436.333V364.444H729.889V436.333H801.778ZM728.889 436.333V364.444H657V436.333H728.889ZM656 436.333V364.444H584.111V436.333H656ZM583.111 436.333V364.444H511.222V436.333H583.111ZM510.222 436.333V364.444H438.333V436.333H510.222ZM437.333 436.333V364.444H365.444V436.333H437.333ZM364.444 436.333V364.444H292.556V436.333H364.444ZM291.556 436.333V364.444H219.667V436.333H291.556ZM218.667 436.333V364.444H146.778V436.333H218.667ZM145.778 436.333V364.444H73.8889V436.333H145.778ZM72.8889 436.333V364.444H1V436.333H72.8889ZM1312 436.333V364.444H1240.11V436.333H1312ZM1166.22 291.556V363.444H1094.33V291.556H1166.22ZM1093.33 291.556V363.444H1021.44V291.556H1093.33ZM1020.44 291.556V363.444H948.556V291.556H1020.44ZM947.556 291.556V363.444H875.667V291.556H947.556ZM874.667 291.556V363.444H802.778V291.556H874.667ZM801.778 291.556V363.444H729.889V291.556H801.778ZM728.889 291.556V363.444H657V291.556H728.889ZM656 291.556V363.444H584.111V291.556H656ZM583.111 291.556V363.444H511.222V291.556H583.111ZM510.222 291.556V363.444H438.333V291.556H510.222ZM437.333 291.556V363.444H365.444V291.556H437.333ZM364.444 291.556V363.444H292.556V291.556H364.444ZM291.556 291.556V363.444H219.667V291.556H291.556ZM218.667 291.556V363.444H146.778V291.556H218.667ZM145.778 291.556V363.444H73.8889V291.556H145.778ZM72.8889 291.556V363.444H1V291.556H72.8889ZM1312 291.556V363.444H1240.11V291.556H1312ZM1166.22 290.556V218.667H1094.33V290.556H1166.22ZM1093.33 290.556V218.667H1021.44V290.556H1093.33ZM1020.44 290.556V218.667H948.556V290.556H1020.44ZM947.556 290.556V218.667H875.667V290.556H947.556ZM874.667 290.556V218.667H802.778V290.556H874.667ZM801.778 290.556V218.667H729.889V290.556H801.778ZM728.889 290.556V218.667H657V290.556H728.889ZM656 290.556V218.667H584.111V290.556H656ZM583.111 290.556V218.667H511.222V290.556H583.111ZM510.222 290.556V218.667H438.333V290.556H510.222ZM437.333 290.556V218.667H365.444V290.556H437.333ZM364.444 290.556V218.667H292.556V290.556H364.444ZM291.556 290.556V218.667H219.667V290.556H291.556ZM218.667 290.556V218.667H146.778V290.556H218.667ZM145.778 290.556V218.667H73.8889V290.556H145.778ZM72.8889 290.556V218.667H1V290.556H72.8889ZM1312 290.556V218.667H1240.11V290.556H1312ZM1166.22 145.778V217.667H1094.33V145.778H1166.22ZM1093.33 145.778V217.667H1021.44V145.778H1093.33ZM1020.44 145.778V217.667H948.556V145.778H1020.44ZM947.556 145.778V217.667H875.667V145.778H947.556ZM874.667 145.778V217.667H802.778V145.778H874.667ZM801.778 145.778V217.667H729.889V145.778H801.778ZM728.889 145.778V217.667H657V145.778H728.889ZM656 145.778V217.667H584.111V145.778H656ZM583.111 145.778V217.667H511.222V145.778H583.111ZM510.222 145.778V217.667H438.333V145.778H510.222ZM437.333 145.778V217.667H365.444V145.778H437.333ZM364.444 145.778V217.667H292.556V145.778H364.444ZM291.556 145.778V217.667H219.667V145.778H291.556ZM218.667 145.778V217.667H146.778V145.778H218.667ZM145.778 145.778V217.667H73.8889V145.778H145.778ZM72.8889 145.778V217.667H1V145.778H72.8889ZM1312 145.778V217.667H1240.11V145.778H1312ZM1239.11 144.778V72.8889H1167.22V144.778H1239.11ZM1166.22 144.778V72.8889H1094.33V144.778H1166.22ZM1093.33 144.778V72.8889H1021.44V144.778H1093.33ZM1020.44 144.778V72.8889H948.556V144.778H1020.44ZM947.556 144.778V72.8889H875.667V144.778H947.556ZM874.667 144.778V72.8889H802.778V144.778H874.667ZM801.778 144.778V72.8889H729.889V144.778H801.778ZM728.889 144.778V72.8889H657V144.778H728.889ZM656 144.778V72.8889H584.111V144.778H656ZM583.111 144.778V72.8889H511.222V144.778H583.111ZM510.222 144.778V72.8889H438.333V144.778H510.222ZM437.333 144.778V72.8889H365.444V144.778H437.333ZM364.444 144.778V72.8889H292.556V144.778H364.444ZM291.556 144.778V72.8889H219.667V144.778H291.556ZM218.667 144.778V72.8889H146.778V144.778H218.667ZM145.778 144.778V72.8889H73.8889V144.778H145.778ZM72.8889 144.778V72.8889H1V144.778H72.8889ZM145.778 71.8889H73.8889V0H145.778V71.8889ZM218.667 71.8889H146.778V0H218.667V71.8889ZM291.556 71.8889H219.667V0H291.556V71.8889ZM364.444 71.8889H292.556V0H364.444V71.8889ZM437.333 71.8889H365.444V0H437.333V71.8889ZM510.222 71.8889H438.333V0H510.222V71.8889ZM583.111 71.8889H511.222V0H583.111V71.8889ZM656 71.8889H584.111V0H656V71.8889ZM728.889 71.8889H657V0H728.889V71.8889ZM801.778 71.8889H729.889V0H801.778V71.8889ZM874.667 71.8889H802.778V0H874.667V71.8889ZM947.556 71.8889H875.667V0H947.556V71.8889ZM1020.44 71.8889H948.556V0H1020.44V71.8889ZM1093.33 71.8889H1021.44V0H1093.33V71.8889ZM1166.22 71.8889H1094.33V0H1166.22V71.8889ZM1239.11 71.8889H1167.22V0H1239.11V71.8889Z" fill="url(#paint0_radial_3634_1830)" fill-opacity="0.4"/>
<defs>
<radialGradient id="paint0_radial_3634_1830" cx="0" cy="0" r="1" gradientUnits="userSpaceOnUse" gradientTransform="translate(656.5 91) rotate(90) scale(584 757.903)">
<stop stop-color="#3C00E2" stop-opacity="0.2"/>
<stop offset="1" stop-color="#3C00E2" stop-opacity="0"/>
</radialGradient>
</defs>
</svg>
