<svg width="18" height="19" viewBox="0 0 18 19" fill="none" xmlns="http://www.w3.org/2000/svg">
<g id="Highlight_03">
<g id="Group">
<path id="Vector" fill-rule="evenodd" clip-rule="evenodd" d="M1.60407 9.7042C2.16311 7.43316 2.1265 5.24614 2.1935 2.94258C2.20652 2.49271 1.85281 2.11869 1.4039 2.10514C0.954712 2.09159 0.579839 2.44662 0.566547 2.8965C0.503076 5.08082 0.554348 7.15943 0.0237887 9.31665C-0.0836251 9.75297 0.183559 10.1947 0.619724 10.3004C1.05562 10.4088 1.49693 10.1405 1.60407 9.7042Z" fill="#FFD233"/>
<path id="Vector_2" fill-rule="evenodd" clip-rule="evenodd" d="M6.35353 14.1053C10.1461 10.6418 13.7195 6.1865 16.2172 1.68777C16.435 1.29481 16.2931 0.798849 15.9003 0.582044C15.5076 0.365237 15.0117 0.506173 14.7939 0.899134C12.3787 5.2488 8.92279 9.55783 5.25553 12.9048C4.92407 13.2083 4.90101 13.7232 5.204 14.0538C5.50698 14.3845 6.02207 14.4088 6.35353 14.1053Z" fill="#FFD233"/>
<path id="Vector_3" fill-rule="evenodd" clip-rule="evenodd" d="M7.31431 17.8886C10.783 18.4604 14.3583 17.4848 17.5124 16.1054C17.9239 15.9238 18.1116 15.4442 17.9317 15.0349C17.7516 14.623 17.2712 14.436 16.8598 14.6149C13.9873 15.8723 10.7385 16.8046 7.57931 16.2843C7.1361 16.2111 6.71702 16.5119 6.64406 16.9537C6.57082 17.3954 6.87136 17.8155 7.31431 17.8886Z" fill="#FFD233"/>
</g>
</g>
</svg>
