<svg width="1440" height="686" viewBox="0 0 1440 686" fill="none" xmlns="http://www.w3.org/2000/svg">
<path d="M1476.97 685L1513 685L1513 648.971M1476.97 685L1476.97 648.971M1476.97 685L1440.94 685M1476.97 648.971L1513 648.971M1476.97 648.971L1476.97 612.943M1476.97 648.971L1440.94 648.971M1513 648.971L1513 612.943M1476.97 612.943L1513 612.943M1476.97 612.943L1476.97 576.914M1476.97 612.943L1440.94 612.943M1513 612.943L1513 576.914M1476.97 576.914L1513 576.914M1476.97 576.914L1476.97 540.885M1476.97 576.914L1440.94 576.914M1513 576.914L1513 540.885M1476.97 540.885L1513 540.885M1476.97 540.885L1476.97 504.856M1476.97 540.885L1440.94 540.885M1513 540.885L1513 504.856M1476.97 504.856L1513 504.856M1476.97 504.856L1476.97 468.828M1476.97 504.856L1440.94 504.856M1513 504.856L1513 468.828M1476.97 468.828L1513 468.828M1476.97 468.828L1476.97 432.799M1476.97 468.828L1440.94 468.828M1513 468.828L1513 432.799M1476.97 432.799L1513 432.799M1476.97 432.799L1476.97 396.77M1476.97 432.799L1440.94 432.799M1513 432.799L1513 396.77M1476.97 396.77L1513 396.77M1476.97 396.77L1476.97 360.742M1476.97 396.77L1440.94 396.77M1513 396.77L1513 360.742M1476.97 360.742L1513 360.742M1476.97 360.742L1476.97 324.713M1476.97 360.742L1440.94 360.742M1513 360.742L1513 324.713M1476.97 324.713L1513 324.713M1476.97 324.713L1476.97 288.684M1476.97 324.713L1440.94 324.713M1513 324.713L1513 288.684M1476.97 288.684L1513 288.684M1476.97 288.684L1476.97 252.655M1476.97 288.684L1440.94 288.684M1513 288.684L1513 252.655M1476.97 252.655L1513 252.655M1476.97 252.655L1476.97 216.627M1476.97 252.655L1440.94 252.655M1513 252.655L1513 216.627M1476.97 216.627L1513 216.627M1476.97 216.627L1476.97 180.598M1476.97 216.627L1440.94 216.627M1513 216.627L1513 180.598M1476.97 180.598L1513 180.598M1476.97 180.598L1476.97 144.569M1476.97 180.598L1440.94 180.598M1513 180.598L1513 144.569M1476.97 144.569L1513 144.569M1476.97 144.569L1476.97 108.541M1476.97 144.569L1440.94 144.569M1513 144.569L1513 108.541M1476.97 108.541L1513 108.541M1476.97 108.541L1476.97 72.512M1476.97 108.541L1440.94 108.541M1513 108.541L1513 72.512M1476.97 72.512L1513 72.512M1476.97 72.512L1476.97 36.4832M1476.97 72.512L1440.94 72.512M1513 72.512L1513 36.4832M1476.97 36.4832L1513 36.4832M1476.97 36.4832L1476.97 0.454526M1476.97 36.4832L1440.94 36.4832M1513 36.4832L1513 0.454529L1476.97 0.454526M1476.97 0.454526L1440.94 0.454523M1440.94 685L1440.94 648.971M1440.94 685L1404.91 685M1440.94 648.971L1440.94 612.943M1440.94 648.971L1404.91 648.971M1440.94 612.943L1440.94 576.914M1440.94 612.943L1404.91 612.943M1440.94 576.914L1440.94 540.885M1440.94 576.914L1404.91 576.914M1440.94 540.885L1440.94 504.856M1440.94 540.885L1404.91 540.885M1440.94 504.856L1440.94 468.828M1440.94 504.856L1404.91 504.856M1440.94 468.828L1440.94 432.799M1440.94 468.828L1404.91 468.828M1440.94 432.799L1440.94 396.77M1440.94 432.799L1404.91 432.799M1440.94 396.77L1440.94 360.742M1440.94 396.77L1404.91 396.77M1440.94 360.742L1440.94 324.713M1440.94 360.742L1404.91 360.742M1440.94 324.713L1440.94 288.684M1440.94 324.713L1404.91 324.713M1440.94 288.684L1440.94 252.655M1440.94 288.684L1404.91 288.684M1440.94 252.655L1440.94 216.627M1440.94 252.655L1404.91 252.655M1440.94 216.627L1440.94 180.598M1440.94 216.627L1404.91 216.627M1440.94 180.598L1440.94 144.569M1440.94 180.598L1404.91 180.598M1440.94 144.569L1440.94 108.541M1440.94 144.569L1404.91 144.569M1440.94 108.541L1440.94 72.512M1440.94 108.541L1404.91 108.541M1440.94 72.512L1440.94 36.4832M1440.94 72.512L1404.91 72.512M1440.94 36.4832L1440.94 0.454523M1440.94 36.4832L1404.91 36.4832M1440.94 0.454523L1404.91 0.454519M1404.91 685L1404.91 648.971M1404.91 685L1368.89 685M1404.91 648.971L1404.91 612.943M1404.91 648.971L1368.89 648.971M1404.91 612.943L1404.91 576.914M1404.91 612.943L1368.89 612.943M1404.91 576.914L1404.91 540.885M1404.91 576.914L1368.89 576.914M1404.91 540.885L1404.91 504.856M1404.91 540.885L1368.89 540.885M1404.91 504.856L1404.91 468.828M1404.91 504.856L1368.89 504.856M1404.91 468.828L1404.91 432.799M1404.91 468.828L1368.89 468.828M1404.91 432.799L1404.91 396.77M1404.91 432.799L1368.89 432.799M1404.91 396.77L1404.91 360.742M1404.91 396.77L1368.89 396.77M1404.91 360.742L1404.91 324.713M1404.91 360.742L1368.89 360.742M1404.91 324.713L1404.91 288.684M1404.91 324.713L1368.89 324.713M1404.91 288.684L1404.91 252.655M1404.91 288.684L1368.89 288.684M1404.91 252.655L1404.91 216.627M1404.91 252.655L1368.89 252.655M1404.91 216.627L1404.91 180.598M1404.91 216.627L1368.89 216.627M1404.91 180.598L1404.91 144.569M1404.91 180.598L1368.89 180.598M1404.91 144.569L1404.91 108.541M1404.91 144.569L1368.89 144.569M1404.91 108.541L1404.91 72.512M1404.91 108.541L1368.89 108.541M1404.91 72.512L1404.91 36.4832M1404.91 72.512L1368.89 72.512M1404.91 36.4832L1404.91 0.454519M1404.91 36.4832L1368.89 36.4832M1404.91 0.454519L1368.89 0.454516M1368.89 685L1368.89 648.971M1368.89 685L1332.86 685M1368.89 648.971L1368.89 612.943M1368.89 648.971L1332.86 648.971M1368.89 612.943L1368.89 576.914M1368.89 612.943L1332.86 612.943M1368.89 576.914L1368.89 540.885M1368.89 576.914L1332.86 576.914M1368.89 540.885L1368.89 504.856M1368.89 540.885L1332.86 540.885M1368.89 504.856L1368.89 468.828M1368.89 504.856L1332.86 504.856M1368.89 468.828L1368.89 432.799M1368.89 468.828L1332.86 468.828M1368.89 432.799L1368.89 396.77M1368.89 432.799L1332.86 432.799M1368.89 396.77L1368.89 360.742M1368.89 396.77L1332.86 396.77M1368.89 360.742L1368.89 324.713M1368.89 360.742L1332.86 360.742M1368.89 324.713L1368.89 288.684M1368.89 324.713L1332.86 324.713M1368.89 288.684L1368.89 252.655M1368.89 288.684L1332.86 288.684M1368.89 252.655L1368.89 216.627M1368.89 252.655L1332.86 252.655M1368.89 216.627L1368.89 180.598M1368.89 216.627L1332.86 216.627M1368.89 180.598L1368.89 144.569M1368.89 180.598L1332.86 180.598M1368.89 144.569L1368.89 108.541M1368.89 144.569L1332.86 144.569M1368.89 108.541L1368.89 72.512M1368.89 108.541L1332.86 108.541M1368.89 72.512L1368.89 36.4832M1368.89 72.512L1332.86 72.5119M1368.89 36.4832L1368.89 0.454516M1368.89 36.4832L1332.86 36.4832M1368.89 0.454516L1332.86 0.454513M1332.86 685L1332.86 648.971M1332.86 685L1296.83 685M1332.86 648.971L1332.86 612.943M1332.86 648.971L1296.83 648.971M1332.86 612.943L1332.86 576.914M1332.86 612.943L1296.83 612.943M1332.86 576.914L1332.86 540.885M1332.86 576.914L1296.83 576.914M1332.86 540.885L1332.86 504.856M1332.86 540.885L1296.83 540.885M1332.86 504.856L1332.86 468.828M1332.86 504.856L1296.83 504.856M1332.86 468.828L1332.86 432.799M1332.86 468.828L1296.83 468.828M1332.86 432.799L1332.86 396.77M1332.86 432.799L1296.83 432.799M1332.86 396.77L1332.86 360.742M1332.86 396.77L1296.83 396.77M1332.86 360.742L1332.86 324.713M1332.86 360.742L1296.83 360.742M1332.86 324.713L1332.86 288.684M1332.86 324.713L1296.83 324.713M1332.86 288.684L1332.86 252.655M1332.86 288.684L1296.83 288.684M1332.86 252.655L1332.86 216.627M1332.86 252.655L1296.83 252.655M1332.86 216.627L1332.86 180.598M1332.86 216.627L1296.83 216.627M1332.86 180.598L1332.86 144.569M1332.86 180.598L1296.83 180.598M1332.86 144.569L1332.86 108.541M1332.86 144.569L1296.83 144.569M1332.86 108.541L1332.86 72.5119M1332.86 108.541L1296.83 108.541M1332.86 72.5119L1332.86 36.4832M1332.86 72.5119L1296.83 72.5119M1332.86 36.4832L1332.86 0.454513M1332.86 36.4832L1296.83 36.4832M1332.86 0.454513L1296.83 0.45451M1296.83 685L1296.83 648.971M1296.83 685L1260.8 685M1296.83 648.971L1296.83 612.943M1296.83 648.971L1260.8 648.971M1296.83 612.943L1296.83 576.914M1296.83 612.943L1260.8 612.943M1296.83 576.914L1296.83 540.885M1296.83 576.914L1260.8 576.914M1296.83 540.885L1296.83 504.856M1296.83 540.885L1260.8 540.885M1296.83 504.856L1296.83 468.828M1296.83 504.856L1260.8 504.856M1296.83 468.828L1296.83 432.799M1296.83 468.828L1260.8 468.828M1296.83 432.799L1296.83 396.77M1296.83 432.799L1260.8 432.799M1296.83 396.77L1296.83 360.742M1296.83 396.77L1260.8 396.77M1296.83 360.742L1296.83 324.713M1296.83 360.742L1260.8 360.742M1296.83 324.713L1296.83 288.684M1296.83 324.713L1260.8 324.713M1296.83 288.684L1296.83 252.655M1296.83 288.684L1260.8 288.684M1296.83 252.655L1296.83 216.627M1296.83 252.655L1260.8 252.655M1296.83 216.627L1296.83 180.598M1296.83 216.627L1260.8 216.627M1296.83 180.598L1296.83 144.569M1296.83 180.598L1260.8 180.598M1296.83 144.569L1296.83 108.541M1296.83 144.569L1260.8 144.569M1296.83 108.541L1296.83 72.5119M1296.83 108.541L1260.8 108.541M1296.83 72.5119L1296.83 36.4832M1296.83 72.5119L1260.8 72.5119M1296.83 36.4832L1296.83 0.45451M1296.83 36.4832L1260.8 36.4832M1296.83 0.45451L1260.8 0.454507M1260.8 685L1260.8 648.971M1260.8 685L1224.77 685M1260.8 648.971L1260.8 612.943M1260.8 648.971L1224.77 648.971M1260.8 612.943L1260.8 576.914M1260.8 612.943L1224.77 612.943M1260.8 576.914L1260.8 540.885M1260.8 576.914L1224.77 576.914M1260.8 540.885L1260.8 504.856M1260.8 540.885L1224.77 540.885M1260.8 504.856L1260.8 468.828M1260.8 504.856L1224.77 504.856M1260.8 468.828L1260.8 432.799M1260.8 468.828L1224.77 468.828M1260.8 432.799L1260.8 396.77M1260.8 432.799L1224.77 432.799M1260.8 396.77L1260.8 360.742M1260.8 396.77L1224.77 396.77M1260.8 360.742L1260.8 324.713M1260.8 360.742L1224.77 360.742M1260.8 324.713L1260.8 288.684M1260.8 324.713L1224.77 324.713M1260.8 288.684L1260.8 252.655M1260.8 288.684L1224.77 288.684M1260.8 252.655L1260.8 216.627M1260.8 252.655L1224.77 252.655M1260.8 216.627L1260.8 180.598M1260.8 216.627L1224.77 216.627M1260.8 180.598L1260.8 144.569M1260.8 180.598L1224.77 180.598M1260.8 144.569L1260.8 108.541M1260.8 144.569L1224.77 144.569M1260.8 108.541L1260.8 72.5119M1260.8 108.541L1224.77 108.541M1260.8 72.5119L1260.8 36.4832M1260.8 72.5119L1224.77 72.5119M1260.8 36.4832L1260.8 0.454507M1260.8 36.4832L1224.77 36.4832M1260.8 0.454507L1224.77 0.454504M1224.77 685L1224.77 648.971M1224.77 685L1188.74 685M1224.77 648.971L1224.77 612.943M1224.77 648.971L1188.74 648.971M1224.77 612.943L1224.77 576.914M1224.77 612.943L1188.74 612.943M1224.77 576.914L1224.77 540.885M1224.77 576.914L1188.74 576.914M1224.77 540.885L1224.77 504.856M1224.77 540.885L1188.74 540.885M1224.77 504.856L1224.77 468.828M1224.77 504.856L1188.74 504.856M1224.77 468.828L1224.77 432.799M1224.77 468.828L1188.74 468.828M1224.77 432.799L1224.77 396.77M1224.77 432.799L1188.74 432.799M1224.77 396.77L1224.77 360.742M1224.77 396.77L1188.74 396.77M1224.77 360.742L1224.77 324.713M1224.77 360.742L1188.74 360.742M1224.77 324.713L1224.77 288.684M1224.77 324.713L1188.74 324.713M1224.77 288.684L1224.77 252.655M1224.77 288.684L1188.74 288.684M1224.77 252.655L1224.77 216.627M1224.77 252.655L1188.74 252.655M1224.77 216.627L1224.77 180.598M1224.77 216.627L1188.74 216.627M1224.77 180.598L1224.77 144.569M1224.77 180.598L1188.74 180.598M1224.77 144.569L1224.77 108.541M1224.77 144.569L1188.74 144.569M1224.77 108.541L1224.77 72.5119M1224.77 108.541L1188.74 108.541M1224.77 72.5119L1224.77 36.4832M1224.77 72.5119L1188.74 72.5119M1224.77 36.4832L1224.77 0.454504M1224.77 36.4832L1188.74 36.4832M1224.77 0.454504L1188.74 0.4545M1188.74 685L1188.74 648.971M1188.74 685L1152.71 685M1188.74 648.971L1188.74 612.943M1188.74 648.971L1152.71 648.971M1188.74 612.943L1188.74 576.914M1188.74 612.943L1152.71 612.943M1188.74 576.914L1188.74 540.885M1188.74 576.914L1152.71 576.914M1188.74 540.885L1188.74 504.856M1188.74 540.885L1152.71 540.885M1188.74 504.856L1188.74 468.828M1188.74 504.856L1152.71 504.856M1188.74 468.828L1188.74 432.799M1188.74 468.828L1152.71 468.828M1188.74 432.799L1188.74 396.77M1188.74 432.799L1152.71 432.799M1188.74 396.77L1188.74 360.742M1188.74 396.77L1152.71 396.77M1188.74 360.742L1188.74 324.713M1188.74 360.742L1152.71 360.742M1188.74 324.713L1188.74 288.684M1188.74 324.713L1152.71 324.713M1188.74 288.684L1188.74 252.655M1188.74 288.684L1152.71 288.684M1188.74 252.655L1188.74 216.627M1188.74 252.655L1152.71 252.655M1188.74 216.627L1188.74 180.598M1188.74 216.627L1152.71 216.627M1188.74 180.598L1188.74 144.569M1188.74 180.598L1152.71 180.598M1188.74 144.569L1188.74 108.541M1188.74 144.569L1152.71 144.569M1188.74 108.541L1188.74 72.5119M1188.74 108.541L1152.71 108.541M1188.74 72.5119L1188.74 36.4832M1188.74 72.5119L1152.71 72.5119M1188.74 36.4832L1188.74 0.4545M1188.74 36.4832L1152.71 36.4832M1188.74 0.4545L1152.71 0.454497M1152.71 685L1152.71 648.971M1152.71 685L1116.68 685M1152.71 648.971L1152.71 612.943M1152.71 648.971L1116.68 648.971M1152.71 612.943L1152.71 576.914M1152.71 612.943L1116.68 612.943M1152.71 576.914L1152.71 540.885M1152.71 576.914L1116.68 576.914M1152.71 540.885L1152.71 504.856M1152.71 540.885L1116.68 540.885M1152.71 504.856L1152.71 468.828M1152.71 504.856L1116.68 504.856M1152.71 468.828L1152.71 432.799M1152.71 468.828L1116.68 468.828M1152.71 432.799L1152.71 396.77M1152.71 432.799L1116.68 432.799M1152.71 396.77L1152.71 360.742M1152.71 396.77L1116.68 396.77M1152.71 360.742L1152.71 324.713M1152.71 360.742L1116.68 360.742M1152.71 324.713L1152.71 288.684M1152.71 324.713L1116.68 324.713M1152.71 288.684L1152.71 252.655M1152.71 288.684L1116.68 288.684M1152.71 252.655L1152.71 216.627M1152.71 252.655L1116.68 252.655M1152.71 216.627L1152.71 180.598M1152.71 216.627L1116.68 216.627M1152.71 180.598L1152.71 144.569M1152.71 180.598L1116.68 180.598M1152.71 144.569L1152.71 108.541M1152.71 144.569L1116.68 144.569M1152.71 108.541L1152.71 72.5119M1152.71 108.541L1116.68 108.541M1152.71 72.5119L1152.71 36.4832M1152.71 72.5119L1116.68 72.5119M1152.71 36.4832L1152.71 0.454497M1152.71 36.4832L1116.68 36.4832M1152.71 0.454497L1116.68 0.454494M1116.68 685L1116.68 648.971M1116.68 685L1080.66 685M1116.68 648.971L1116.68 612.943M1116.68 648.971L1080.66 648.971M1116.68 612.943L1116.68 576.914M1116.68 612.943L1080.66 612.943M1116.68 576.914L1116.68 540.885M1116.68 576.914L1080.66 576.914M1116.68 540.885L1116.68 504.856M1116.68 540.885L1080.66 540.885M1116.68 504.856L1116.68 468.828M1116.68 504.856L1080.66 504.856M1116.68 468.828L1116.68 432.799M1116.68 468.828L1080.66 468.828M1116.68 432.799L1116.68 396.77M1116.68 432.799L1080.66 432.799M1116.68 396.77L1116.68 360.742M1116.68 396.77L1080.66 396.77M1116.68 360.742L1116.68 324.713M1116.68 360.742L1080.66 360.742M1116.68 324.713L1116.68 288.684M1116.68 324.713L1080.66 324.713M1116.68 288.684L1116.68 252.655M1116.68 288.684L1080.66 288.684M1116.68 252.655L1116.68 216.627M1116.68 252.655L1080.66 252.655M1116.68 216.627L1116.68 180.598M1116.68 216.627L1080.66 216.627M1116.68 180.598L1116.68 144.569M1116.68 180.598L1080.66 180.598M1116.68 144.569L1116.68 108.541M1116.68 144.569L1080.66 144.569M1116.68 108.541L1116.68 72.5119M1116.68 108.541L1080.66 108.541M1116.68 72.5119L1116.68 36.4832M1116.68 72.5119L1080.66 72.5119M1116.68 36.4832L1116.68 0.454494M1116.68 36.4832L1080.66 36.4832M1116.68 0.454494L1080.66 0.454491M1080.66 685L1080.66 648.971M1080.66 685L1044.63 685M1080.66 648.971L1080.66 612.943M1080.66 648.971L1044.63 648.971M1080.66 612.943L1080.66 576.914M1080.66 612.943L1044.63 612.943M1080.66 576.914L1080.66 540.885M1080.66 576.914L1044.63 576.914M1080.66 540.885L1080.66 504.856M1080.66 540.885L1044.63 540.885M1080.66 504.856L1080.66 468.828M1080.66 504.856L1044.63 504.856M1080.66 468.828L1080.66 432.799M1080.66 468.828L1044.63 468.828M1080.66 432.799L1080.66 396.77M1080.66 432.799L1044.63 432.799M1080.66 396.77L1080.66 360.742M1080.66 396.77L1044.63 396.77M1080.66 360.742L1080.66 324.713M1080.66 360.742L1044.63 360.742M1080.66 324.713L1080.66 288.684M1080.66 324.713L1044.63 324.713M1080.66 288.684L1080.66 252.655M1080.66 288.684L1044.63 288.684M1080.66 252.655L1080.66 216.627M1080.66 252.655L1044.63 252.655M1080.66 216.627L1080.66 180.598M1080.66 216.627L1044.63 216.627M1080.66 180.598L1080.66 144.569M1080.66 180.598L1044.63 180.598M1080.66 144.569L1080.66 108.541M1080.66 144.569L1044.63 144.569M1080.66 108.541L1080.66 72.5119M1080.66 108.541L1044.63 108.541M1080.66 72.5119L1080.66 36.4832M1080.66 72.5119L1044.63 72.5119M1080.66 36.4832L1080.66 0.454491M1080.66 36.4832L1044.63 36.4832M1080.66 0.454491L1044.63 0.454488M1044.63 685L1044.63 648.971M1044.63 685L1008.6 685M1044.63 648.971L1044.63 612.943M1044.63 648.971L1008.6 648.971M1044.63 612.943L1044.63 576.914M1044.63 612.943L1008.6 612.943M1044.63 576.914L1044.63 540.885M1044.63 576.914L1008.6 576.914M1044.63 540.885L1044.63 504.856M1044.63 540.885L1008.6 540.885M1044.63 504.856L1044.63 468.828M1044.63 504.856L1008.6 504.856M1044.63 468.828L1044.63 432.799M1044.63 468.828L1008.6 468.828M1044.63 432.799L1044.63 396.77M1044.63 432.799L1008.6 432.799M1044.63 396.77L1044.63 360.742M1044.63 396.77L1008.6 396.77M1044.63 360.742L1044.63 324.713M1044.63 360.742L1008.6 360.742M1044.63 324.713L1044.63 288.684M1044.63 324.713L1008.6 324.713M1044.63 288.684L1044.63 252.655M1044.63 288.684L1008.6 288.684M1044.63 252.655L1044.63 216.627M1044.63 252.655L1008.6 252.655M1044.63 216.627L1044.63 180.598M1044.63 216.627L1008.6 216.627M1044.63 180.598L1044.63 144.569M1044.63 180.598L1008.6 180.598M1044.63 144.569L1044.63 108.541M1044.63 144.569L1008.6 144.569M1044.63 108.541L1044.63 72.5119M1044.63 108.541L1008.6 108.541M1044.63 72.5119L1044.63 36.4832M1044.63 72.5119L1008.6 72.5119M1044.63 36.4832L1044.63 0.454488M1044.63 36.4832L1008.6 36.4832M1044.63 0.454488L1008.6 0.454485M1008.6 685L1008.6 648.971M1008.6 685L972.569 685M1008.6 648.971L1008.6 612.943M1008.6 648.971L972.569 648.971M1008.6 612.943L1008.6 576.914M1008.6 612.943L972.569 612.943M1008.6 576.914L1008.6 540.885M1008.6 576.914L972.569 576.914M1008.6 540.885L1008.6 504.856M1008.6 540.885L972.569 540.885M1008.6 504.856L1008.6 468.828M1008.6 504.856L972.569 504.856M1008.6 468.828L1008.6 432.799M1008.6 468.828L972.569 468.828M1008.6 432.799L1008.6 396.77M1008.6 432.799L972.569 432.799M1008.6 396.77L1008.6 360.742M1008.6 396.77L972.569 396.77M1008.6 360.742L1008.6 324.713M1008.6 360.742L972.569 360.742M1008.6 324.713L1008.6 288.684M1008.6 324.713L972.569 324.713M1008.6 288.684L1008.6 252.655M1008.6 288.684L972.569 288.684M1008.6 252.655L1008.6 216.627M1008.6 252.655L972.569 252.655M1008.6 216.627L1008.6 180.598M1008.6 216.627L972.569 216.627M1008.6 180.598L1008.6 144.569M1008.6 180.598L972.569 180.598M1008.6 144.569L1008.6 108.541M1008.6 144.569L972.569 144.569M1008.6 108.541L1008.6 72.5119M1008.6 108.541L972.569 108.541M1008.6 72.5119L1008.6 36.4832M1008.6 72.5119L972.569 72.5119M1008.6 36.4832L1008.6 0.454485M1008.6 36.4832L972.569 36.4832M1008.6 0.454485L972.569 0.454482M972.569 685L972.569 648.971M972.569 685L936.541 685M972.569 648.971L972.569 612.943M972.569 648.971L936.541 648.971M972.569 612.943L972.569 576.914M972.569 612.943L936.541 612.943M972.569 576.914L972.569 540.885M972.569 576.914L936.541 576.914M972.569 540.885L972.569 504.856M972.569 540.885L936.541 540.885M972.569 504.856L972.569 468.828M972.569 504.856L936.541 504.856M972.569 468.828L972.569 432.799M972.569 468.828L936.541 468.828M972.569 432.799L972.569 396.77M972.569 432.799L936.541 432.799M972.569 396.77L972.569 360.742M972.569 396.77L936.541 396.77M972.569 360.742L972.569 324.713M972.569 360.742L936.541 360.742M972.569 324.713L972.569 288.684M972.569 324.713L936.541 324.713M972.569 288.684L972.569 252.655M972.569 288.684L936.541 288.684M972.569 252.655L972.569 216.627M972.569 252.655L936.541 252.655M972.569 216.627L972.569 180.598M972.569 216.627L936.541 216.627M972.569 180.598L972.569 144.569M972.569 180.598L936.541 180.598M972.569 144.569L972.569 108.541M972.569 144.569L936.541 144.569M972.569 108.541L972.569 72.5119M972.569 108.541L936.541 108.541M972.569 72.5119L972.569 36.4832M972.569 72.5119L936.541 72.5119M972.569 36.4832L972.569 0.454482M972.569 36.4832L936.541 36.4832M972.569 0.454482L936.541 0.454478M936.541 685L936.541 648.971M936.541 685L900.512 685M936.541 648.971L936.541 612.943M936.541 648.971L900.512 648.971M936.541 612.943L936.541 576.914M936.541 612.943L900.512 612.943M936.541 576.914L936.541 540.885M936.541 576.914L900.512 576.914M936.541 540.885L936.541 504.856M936.541 540.885L900.512 540.885M936.541 504.856L936.541 468.828M936.541 504.856L900.512 504.856M936.541 468.828L936.541 432.799M936.541 468.828L900.512 468.828M936.541 432.799L936.541 396.77M936.541 432.799L900.512 432.799M936.541 396.77L936.541 360.742M936.541 396.77L900.512 396.77M936.541 360.742L936.541 324.713M936.541 360.742L900.512 360.742M936.541 324.713L936.541 288.684M936.541 324.713L900.512 324.713M936.541 288.684L936.541 252.655M936.541 288.684L900.512 288.684M936.541 252.655L936.541 216.627M936.541 252.655L900.512 252.655M936.541 216.627L936.541 180.598M936.541 216.627L900.512 216.627M936.541 180.598L936.541 144.569M936.541 180.598L900.512 180.598M936.541 144.569L936.541 108.541M936.541 144.569L900.512 144.569M936.541 108.541L936.541 72.5119M936.541 108.541L900.512 108.541M936.541 72.5119L936.541 36.4832M936.541 72.5119L900.512 72.5119M936.541 36.4832L936.541 0.454478M936.541 36.4832L900.512 36.4832M936.541 0.454478L900.512 0.454475M900.512 685L900.512 648.971M900.512 685L864.483 685M900.512 648.971L900.512 612.943M900.512 648.971L864.483 648.971M900.512 612.943L900.512 576.914M900.512 612.943L864.483 612.943M900.512 576.914L900.512 540.885M900.512 576.914L864.483 576.914M900.512 540.885L900.512 504.856M900.512 540.885L864.483 540.885M900.512 504.856L900.512 468.828M900.512 504.856L864.483 504.856M900.512 468.828L900.512 432.799M900.512 468.828L864.483 468.828M900.512 432.799L900.512 396.77M900.512 432.799L864.483 432.799M900.512 396.77L900.512 360.742M900.512 396.77L864.483 396.77M900.512 360.742L900.512 324.713M900.512 360.742L864.483 360.742M900.512 324.713L900.512 288.684M900.512 324.713L864.483 324.713M900.512 288.684L900.512 252.655M900.512 288.684L864.483 288.684M900.512 252.655L900.512 216.627M900.512 252.655L864.483 252.655M900.512 216.627L900.512 180.598M900.512 216.627L864.483 216.627M900.512 180.598L900.512 144.569M900.512 180.598L864.483 180.598M900.512 144.569L900.512 108.541M900.512 144.569L864.483 144.569M900.512 108.541L900.512 72.5119M900.512 108.541L864.483 108.541M900.512 72.5119L900.512 36.4832M900.512 72.5119L864.483 72.5119M900.512 36.4832L900.512 0.454475M900.512 36.4832L864.483 36.4832M900.512 0.454475L864.483 0.454472M864.483 685L864.483 648.971M864.483 685L828.455 685M864.483 648.971L864.483 612.943M864.483 648.971L828.455 648.971M864.483 612.943L864.483 576.914M864.483 612.943L828.455 612.943M864.483 576.914L864.483 540.885M864.483 576.914L828.455 576.914M864.483 540.885L864.483 504.856M864.483 540.885L828.455 540.885M864.483 504.856L864.483 468.828M864.483 504.856L828.455 504.856M864.483 468.828L864.483 432.799M864.483 468.828L828.455 468.828M864.483 432.799L864.483 396.77M864.483 432.799L828.455 432.799M864.483 396.77L864.483 360.742M864.483 396.77L828.455 396.77M864.483 360.742L864.483 324.713M864.483 360.742L828.455 360.742M864.483 324.713L864.483 288.684M864.483 324.713L828.455 324.713M864.483 288.684L864.483 252.655M864.483 288.684L828.455 288.684M864.483 252.655L864.483 216.627M864.483 252.655L828.455 252.655M864.483 216.627L864.483 180.598M864.483 216.627L828.455 216.627M864.483 180.598L864.483 144.569M864.483 180.598L828.455 180.598M864.483 144.569L864.483 108.541M864.483 144.569L828.455 144.569M864.483 108.541L864.483 72.5119M864.483 108.541L828.455 108.541M864.483 72.5119L864.483 36.4832M864.483 72.5119L828.455 72.5119M864.483 36.4832L864.483 0.454472M864.483 36.4832L828.455 36.4832M864.483 0.454472L828.455 0.454469M828.455 685L828.455 648.971M828.455 685L792.426 685M828.455 648.971L828.455 612.943M828.455 648.971L792.426 648.971M828.455 612.943L828.455 576.914M828.455 612.943L792.426 612.943M828.455 576.914L828.455 540.885M828.455 576.914L792.426 576.914M828.455 540.885L828.455 504.856M828.455 540.885L792.426 540.885M828.455 504.856L828.455 468.828M828.455 504.856L792.426 504.856M828.455 468.828L828.455 432.799M828.455 468.828L792.426 468.828M828.455 432.799L828.455 396.77M828.455 432.799L792.426 432.799M828.455 396.77L828.455 360.742M828.455 396.77L792.426 396.77M828.455 360.742L828.455 324.713M828.455 360.742L792.426 360.742M828.455 324.713L828.455 288.684M828.455 324.713L792.426 324.713M828.455 288.684L828.455 252.655M828.455 288.684L792.426 288.684M828.455 252.655L828.455 216.627M828.455 252.655L792.426 252.655M828.455 216.627L828.455 180.598M828.455 216.627L792.426 216.627M828.455 180.598L828.455 144.569M828.455 180.598L792.426 180.598M828.455 144.569L828.455 108.541M828.455 144.569L792.426 144.569M828.455 108.541L828.455 72.5119M828.455 108.541L792.426 108.541M828.455 72.5119L828.455 36.4832M828.455 72.5119L792.426 72.5119M828.455 36.4832L828.455 0.454469M828.455 36.4832L792.426 36.4832M828.455 0.454469L792.426 0.454466M792.426 685L792.426 648.971M792.426 685L756.397 685M792.426 648.971L792.426 612.943M792.426 648.971L756.397 648.971M792.426 612.943L792.426 576.914M792.426 612.943L756.397 612.943M792.426 576.914L792.426 540.885M792.426 576.914L756.397 576.914M792.426 540.885L792.426 504.856M792.426 540.885L756.397 540.885M792.426 504.856L792.426 468.828M792.426 504.856L756.397 504.856M792.426 468.828L792.426 432.799M792.426 468.828L756.397 468.828M792.426 432.799L792.426 396.77M792.426 432.799L756.397 432.799M792.426 396.77L792.426 360.742M792.426 396.77L756.397 396.77M792.426 360.742L792.426 324.713M792.426 360.742L756.397 360.742M792.426 324.713L792.426 288.684M792.426 324.713L756.397 324.713M792.426 288.684L792.426 252.655M792.426 288.684L756.397 288.684M792.426 252.655L792.426 216.627M792.426 252.655L756.397 252.655M792.426 216.627L792.426 180.598M792.426 216.627L756.397 216.627M792.426 180.598L792.426 144.569M792.426 180.598L756.397 180.598M792.426 144.569L792.426 108.541M792.426 144.569L756.397 144.569M792.426 108.541L792.426 72.5119M792.426 108.541L756.397 108.541M792.426 72.5119L792.426 36.4832M792.426 72.5119L756.397 72.5119M792.426 36.4832L792.426 0.454466M792.426 36.4832L756.397 36.4831M792.426 0.454466L756.397 0.454463M756.397 685L756.397 648.971M756.397 685L720.368 685M756.397 648.971L756.397 612.943M756.397 648.971L720.368 648.971M756.397 612.943L756.397 576.914M756.397 612.943L720.368 612.943M756.397 576.914L756.397 540.885M756.397 576.914L720.368 576.914M756.397 540.885L756.397 504.856M756.397 540.885L720.368 540.885M756.397 504.856L756.397 468.828M756.397 504.856L720.368 504.856M756.397 468.828L756.397 432.799M756.397 468.828L720.368 468.828M756.397 432.799L756.397 396.77M756.397 432.799L720.368 432.799M756.397 396.77L756.397 360.742M756.397 396.77L720.368 396.77M756.397 360.742L756.397 324.713M756.397 360.742L720.368 360.742M756.397 324.713L756.397 288.684M756.397 324.713L720.368 324.713M756.397 288.684L756.397 252.655M756.397 288.684L720.368 288.684M756.397 252.655L756.397 216.627M756.397 252.655L720.368 252.655M756.397 216.627L756.397 180.598M756.397 216.627L720.368 216.627M756.397 180.598L756.397 144.569M756.397 180.598L720.368 180.598M756.397 144.569L756.397 108.541M756.397 144.569L720.368 144.569M756.397 108.541L756.397 72.5119M756.397 108.541L720.368 108.541M756.397 72.5119L756.397 36.4831M756.397 72.5119L720.368 72.5119M756.397 36.4831L756.397 0.454463M756.397 36.4831L720.368 36.4831M756.397 0.454463L720.368 0.45446M720.368 685L720.368 648.971M720.368 685L684.34 685M720.368 648.971L720.368 612.943M720.368 648.971L684.34 648.971M720.368 612.943L720.368 576.914M720.368 612.943L684.34 612.943M720.368 576.914L720.368 540.885M720.368 576.914L684.34 576.914M720.368 540.885L720.368 504.856M720.368 540.885L684.34 540.885M720.368 504.856L720.368 468.828M720.368 504.856L684.34 504.856M720.368 468.828L720.368 432.799M720.368 468.828L684.34 468.828M720.368 432.799L720.368 396.77M720.368 432.799L684.34 432.799M720.368 396.77L720.368 360.742M720.368 396.77L684.34 396.77M720.368 360.742L720.368 324.713M720.368 360.742L684.34 360.742M720.368 324.713L720.368 288.684M720.368 324.713L684.34 324.713M720.368 288.684L720.368 252.655M720.368 288.684L684.34 288.684M720.368 252.655L720.368 216.627M720.368 252.655L684.34 252.655M720.368 216.627L720.368 180.598M720.368 216.627L684.34 216.627M720.368 180.598L720.368 144.569M720.368 180.598L684.34 180.598M720.368 144.569L720.368 108.541M720.368 144.569L684.34 144.569M720.368 108.541L720.368 72.5119M720.368 108.541L684.34 108.541M720.368 72.5119L720.368 36.4831M720.368 72.5119L684.34 72.5119M720.368 36.4831L720.368 0.45446M720.368 36.4831L684.34 36.4831M720.368 0.45446L684.34 0.454456M684.34 685L684.34 648.971M684.34 685L648.311 685M684.34 648.971L684.34 612.943M684.34 648.971L648.311 648.971M684.34 612.943L684.34 576.914M684.34 612.943L648.311 612.943M684.34 576.914L684.34 540.885M684.34 576.914L648.311 576.914M684.34 540.885L684.34 504.856M684.34 540.885L648.311 540.885M684.34 504.856L684.34 468.828M684.34 504.856L648.311 504.856M684.34 468.828L684.34 432.799M684.34 468.828L648.311 468.828M684.34 432.799L684.34 396.77M684.34 432.799L648.311 432.799M684.34 396.77L684.34 360.742M684.34 396.77L648.311 396.77M684.34 360.742L684.34 324.713M684.34 360.742L648.311 360.742M684.34 324.713L684.34 288.684M684.34 324.713L648.311 324.713M684.34 288.684L684.34 252.655M684.34 288.684L648.311 288.684M684.34 252.655L684.34 216.627M684.34 252.655L648.311 252.655M684.34 216.627L684.34 180.598M684.34 216.627L648.311 216.627M684.34 180.598L684.34 144.569M684.34 180.598L648.311 180.598M684.34 144.569L684.34 108.541M684.34 144.569L648.311 144.569M684.34 108.541L684.34 72.5119M684.34 108.541L648.311 108.541M684.34 72.5119L684.34 36.4831M684.34 72.5119L648.311 72.5119M684.34 36.4831L684.34 0.454456M684.34 36.4831L648.311 36.4831M684.34 0.454456L648.311 0.454453M648.311 685L648.311 648.971M648.311 685L612.282 685M648.311 648.971L648.311 612.943M648.311 648.971L612.282 648.971M648.311 612.943L648.311 576.914M648.311 612.943L612.282 612.943M648.311 576.914L648.311 540.885M648.311 576.914L612.282 576.914M648.311 540.885L648.311 504.856M648.311 540.885L612.282 540.885M648.311 504.856L648.311 468.828M648.311 504.856L612.282 504.856M648.311 468.828L648.311 432.799M648.311 468.828L612.282 468.828M648.311 432.799L648.311 396.77M648.311 432.799L612.282 432.799M648.311 396.77L648.311 360.742M648.311 396.77L612.282 396.77M648.311 360.742L648.311 324.713M648.311 360.742L612.282 360.742M648.311 324.713L648.311 288.684M648.311 324.713L612.282 324.713M648.311 288.684L648.311 252.655M648.311 288.684L612.282 288.684M648.311 252.655L648.311 216.627M648.311 252.655L612.282 252.655M648.311 216.627L648.311 180.598M648.311 216.627L612.282 216.627M648.311 180.598L648.311 144.569M648.311 180.598L612.282 180.598M648.311 144.569L648.311 108.541M648.311 144.569L612.282 144.569M648.311 108.541L648.311 72.5119M648.311 108.541L612.282 108.541M648.311 72.5119L648.311 36.4831M648.311 72.5119L612.282 72.5119M648.311 36.4831L648.311 0.454453M648.311 36.4831L612.282 36.4831M648.311 0.454453L612.282 0.45445M612.282 685L612.282 648.971M612.282 685L576.254 685M612.282 648.971L612.282 612.943M612.282 648.971L576.254 648.971M612.282 612.943L612.282 576.914M612.282 612.943L576.254 612.942M612.282 576.914L612.282 540.885M612.282 576.914L576.254 576.914M612.282 540.885L612.282 504.856M612.282 540.885L576.254 540.885M612.282 504.856L612.282 468.828M612.282 504.856L576.254 504.856M612.282 468.828L612.282 432.799M612.282 468.828L576.254 468.828M612.282 432.799L612.282 396.77M612.282 432.799L576.254 432.799M612.282 396.77L612.282 360.742M612.282 396.77L576.254 396.77M612.282 360.742L612.282 324.713M612.282 360.742L576.254 360.742M612.282 324.713L612.282 288.684M612.282 324.713L576.254 324.713M612.282 288.684L612.282 252.655M612.282 288.684L576.254 288.684M612.282 252.655L612.282 216.627M612.282 252.655L576.254 252.655M612.282 216.627L612.282 180.598M612.282 216.627L576.254 216.627M612.282 180.598L612.282 144.569M612.282 180.598L576.254 180.598M612.282 144.569L612.282 108.541M612.282 144.569L576.254 144.569M612.282 108.541L612.282 72.5119M612.282 108.541L576.254 108.541M612.282 72.5119L612.282 36.4831M612.282 72.5119L576.254 72.5119M612.282 36.4831L612.282 0.45445M612.282 36.4831L576.254 36.4831M612.282 0.45445L576.254 0.454447M576.254 685L576.254 648.971M576.254 685L540.225 685M576.254 648.971L576.254 612.942M576.254 648.971L540.225 648.971M576.254 612.942L576.254 576.914M576.254 612.942L540.225 612.942M576.254 576.914L576.254 540.885M576.254 576.914L540.225 576.914M576.254 540.885L576.254 504.856M576.254 540.885L540.225 540.885M576.254 504.856L576.254 468.828M576.254 504.856L540.225 504.856M576.254 468.828L576.254 432.799M576.254 468.828L540.225 468.828M576.254 432.799L576.254 396.77M576.254 432.799L540.225 432.799M576.254 396.77L576.254 360.742M576.254 396.77L540.225 396.77M576.254 360.742L576.254 324.713M576.254 360.742L540.225 360.742M576.254 324.713L576.254 288.684M576.254 324.713L540.225 324.713M576.254 288.684L576.254 252.655M576.254 288.684L540.225 288.684M576.254 252.655L576.254 216.627M576.254 252.655L540.225 252.655M576.254 216.627L576.254 180.598M576.254 216.627L540.225 216.627M576.254 180.598L576.254 144.569M576.254 180.598L540.225 180.598M576.254 144.569L576.254 108.541M576.254 144.569L540.225 144.569M576.254 108.541L576.254 72.5119M576.254 108.541L540.225 108.541M576.254 72.5119L576.254 36.4831M576.254 72.5119L540.225 72.5119M576.254 36.4831L576.254 0.454447M576.254 36.4831L540.225 36.4831M576.254 0.454447L540.225 0.454444M540.225 685L540.225 648.971M540.225 685L504.196 685M540.225 648.971L540.225 612.942M540.225 648.971L504.196 648.971M540.225 612.942L540.225 576.914M540.225 612.942L504.196 612.942M540.225 576.914L540.225 540.885M540.225 576.914L504.196 576.914M540.225 540.885L540.225 504.856M540.225 540.885L504.196 540.885M540.225 504.856L540.225 468.828M540.225 504.856L504.196 504.856M540.225 468.828L540.225 432.799M540.225 468.828L504.196 468.828M540.225 432.799L540.225 396.77M540.225 432.799L504.196 432.799M540.225 396.77L540.225 360.742M540.225 396.77L504.196 396.77M540.225 360.742L540.225 324.713M540.225 360.742L504.196 360.742M540.225 324.713L540.225 288.684M540.225 324.713L504.196 324.713M540.225 288.684L540.225 252.655M540.225 288.684L504.196 288.684M540.225 252.655L540.225 216.627M540.225 252.655L504.196 252.655M540.225 216.627L540.225 180.598M540.225 216.627L504.196 216.627M540.225 180.598L540.225 144.569M540.225 180.598L504.196 180.598M540.225 144.569L540.225 108.541M540.225 144.569L504.196 144.569M540.225 108.541L540.225 72.5119M540.225 108.541L504.196 108.541M540.225 72.5119L540.225 36.4831M540.225 72.5119L504.196 72.5119M540.225 36.4831L540.225 0.454444M540.225 36.4831L504.196 36.4831M540.225 0.454444L504.196 0.454441M504.196 685L504.196 648.971M504.196 685L468.167 685M504.196 648.971L504.196 612.942M504.196 648.971L468.167 648.971M504.196 612.942L504.196 576.914M504.196 612.942L468.167 612.942M504.196 576.914L504.196 540.885M504.196 576.914L468.167 576.914M504.196 540.885L504.196 504.856M504.196 540.885L468.167 540.885M504.196 504.856L504.196 468.828M504.196 504.856L468.167 504.856M504.196 468.828L504.196 432.799M504.196 468.828L468.167 468.828M504.196 432.799L504.196 396.77M504.196 432.799L468.168 432.799M504.196 396.77L504.196 360.742M504.196 396.77L468.168 396.77M504.196 360.742L504.196 324.713M504.196 360.742L468.168 360.742M504.196 324.713L504.196 288.684M504.196 324.713L468.168 324.713M504.196 288.684L504.196 252.655M504.196 288.684L468.168 288.684M504.196 252.655L504.196 216.627M504.196 252.655L468.168 252.655M504.196 216.627L504.196 180.598M504.196 216.627L468.168 216.627M504.196 180.598L504.196 144.569M504.196 180.598L468.168 180.598M504.196 144.569L504.196 108.541M504.196 144.569L468.168 144.569M504.196 108.541L504.196 72.5119M504.196 108.541L468.168 108.541M504.196 72.5119L504.196 36.4831M504.196 72.5119L468.168 72.5119M504.196 36.4831L504.196 0.454441M504.196 36.4831L468.168 36.4831M504.196 0.454441L468.168 0.454437M468.167 685L468.167 648.971M468.167 685L432.139 685M468.167 648.971L468.167 612.942M468.167 648.971L432.139 648.971M468.167 612.942L468.167 576.914M468.167 612.942L432.139 612.942M468.167 576.914L468.167 540.885M468.167 576.914L432.139 576.914M468.167 540.885L468.167 504.856M468.167 540.885L432.139 540.885M468.167 504.856L468.167 468.828M468.167 504.856L432.139 504.856M468.167 468.828L468.168 432.799M468.167 468.828L432.139 468.828M468.168 432.799L468.168 396.77M468.168 432.799L432.139 432.799M468.168 396.77L468.168 360.742M468.168 396.77L432.139 396.77M468.168 360.742L468.168 324.713M468.168 360.742L432.139 360.742M468.168 324.713L468.168 288.684M468.168 324.713L432.139 324.713M468.168 288.684L468.168 252.655M468.168 288.684L432.139 288.684M468.168 252.655L468.168 216.627M468.168 252.655L432.139 252.655M468.168 216.627L468.168 180.598M468.168 216.627L432.139 216.627M468.168 180.598L468.168 144.569M468.168 180.598L432.139 180.598M468.168 144.569L468.168 108.541M468.168 144.569L432.139 144.569M468.168 108.541L468.168 72.5119M468.168 108.541L432.139 108.541M468.168 72.5119L468.168 36.4831M468.168 72.5119L432.139 72.5119M468.168 36.4831L468.168 0.454437M468.168 36.4831L432.139 36.4831M468.168 0.454437L432.139 0.454434M432.139 685L432.139 648.971M432.139 685L396.11 685M432.139 648.971L432.139 612.942M432.139 648.971L396.11 648.971M432.139 612.942L432.139 576.914M432.139 612.942L396.11 612.942M432.139 576.914L432.139 540.885M432.139 576.914L396.11 576.914M432.139 540.885L432.139 504.856M432.139 540.885L396.11 540.885M432.139 504.856L432.139 468.828M432.139 504.856L396.11 504.856M432.139 468.828L432.139 432.799M432.139 468.828L396.11 468.828M432.139 432.799L432.139 396.77M432.139 432.799L396.11 432.799M432.139 396.77L432.139 360.742M432.139 396.77L396.11 396.77M432.139 360.742L432.139 324.713M432.139 360.742L396.11 360.742M432.139 324.713L432.139 288.684M432.139 324.713L396.11 324.713M432.139 288.684L432.139 252.655M432.139 288.684L396.11 288.684M432.139 252.655L432.139 216.627M432.139 252.655L396.11 252.655M432.139 216.627L432.139 180.598M432.139 216.627L396.11 216.627M432.139 180.598L432.139 144.569M432.139 180.598L396.11 180.598M432.139 144.569L432.139 108.541M432.139 144.569L396.11 144.569M432.139 108.541L432.139 72.5119M432.139 108.541L396.11 108.541M432.139 72.5119L432.139 36.4831M432.139 72.5119L396.11 72.5119M432.139 36.4831L432.139 0.454434M432.139 36.4831L396.11 36.4831M432.139 0.454434L396.11 0.454431M396.11 685L396.11 648.971M396.11 685L360.081 685M396.11 648.971L396.11 612.942M396.11 648.971L360.081 648.971M396.11 612.942L396.11 576.914M396.11 612.942L360.081 612.942M396.11 576.914L396.11 540.885M396.11 576.914L360.081 576.914M396.11 540.885L396.11 504.856M396.11 540.885L360.081 540.885M396.11 504.856L396.11 468.828M396.11 504.856L360.081 504.856M396.11 468.828L396.11 432.799M396.11 468.828L360.081 468.828M396.11 432.799L396.11 396.77M396.11 432.799L360.081 432.799M396.11 396.77L396.11 360.742M396.11 396.77L360.081 396.77M396.11 360.742L396.11 324.713M396.11 360.742L360.081 360.742M396.11 324.713L396.11 288.684M396.11 324.713L360.081 324.713M396.11 288.684L396.11 252.655M396.11 288.684L360.081 288.684M396.11 252.655L396.11 216.627M396.11 252.655L360.081 252.655M396.11 216.627L396.11 180.598M396.11 216.627L360.081 216.627M396.11 180.598L396.11 144.569M396.11 180.598L360.081 180.598M396.11 144.569L396.11 108.541M396.11 144.569L360.081 144.569M396.11 108.541L396.11 72.5119M396.11 108.541L360.081 108.541M396.11 72.5119L396.11 36.4831M396.11 72.5119L360.081 72.5119M396.11 36.4831L396.11 0.454431M396.11 36.4831L360.081 36.4831M396.11 0.454431L360.081 0.454428M360.081 685L360.081 648.971M360.081 685L324.053 685M360.081 648.971L360.081 612.942M360.081 648.971L324.053 648.971M360.081 612.942L360.081 576.914M360.081 612.942L324.053 612.942M360.081 576.914L360.081 540.885M360.081 576.914L324.053 576.914M360.081 540.885L360.081 504.856M360.081 540.885L324.053 540.885M360.081 504.856L360.081 468.828M360.081 504.856L324.053 504.856M360.081 468.828L360.081 432.799M360.081 468.828L324.053 468.828M360.081 432.799L360.081 396.77M360.081 432.799L324.053 432.799M360.081 396.77L360.081 360.742M360.081 396.77L324.053 396.77M360.081 360.742L360.081 324.713M360.081 360.742L324.053 360.742M360.081 324.713L360.081 288.684M360.081 324.713L324.053 324.713M360.081 288.684L360.081 252.655M360.081 288.684L324.053 288.684M360.081 252.655L360.081 216.627M360.081 252.655L324.053 252.655M360.081 216.627L360.081 180.598M360.081 216.627L324.053 216.627M360.081 180.598L360.081 144.569M360.081 180.598L324.053 180.598M360.081 144.569L360.081 108.541M360.081 144.569L324.053 144.569M360.081 108.541L360.081 72.5119M360.081 108.541L324.053 108.541M360.081 72.5119L360.081 36.4831M360.081 72.5119L324.053 72.5119M360.081 36.4831L360.081 0.454428M360.081 36.4831L324.053 36.4831M360.081 0.454428L324.053 0.454425M324.053 685L324.053 648.971M324.053 685L288.024 685M324.053 648.971L324.053 612.942M324.053 648.971L288.024 648.971M324.053 612.942L324.053 576.914M324.053 612.942L288.024 612.942M324.053 576.914L324.053 540.885M324.053 576.914L288.024 576.914M324.053 540.885L324.053 504.856M324.053 540.885L288.024 540.885M324.053 504.856L324.053 468.828M324.053 504.856L288.024 504.856M324.053 468.828L324.053 432.799M324.053 468.828L288.024 468.828M324.053 432.799L324.053 396.77M324.053 432.799L288.024 432.799M324.053 396.77L324.053 360.742M324.053 396.77L288.024 396.77M324.053 360.742L324.053 324.713M324.053 360.742L288.024 360.742M324.053 324.713L324.053 288.684M324.053 324.713L288.024 324.713M324.053 288.684L324.053 252.655M324.053 288.684L288.024 288.684M324.053 252.655L324.053 216.627M324.053 252.655L288.024 252.655M324.053 216.627L324.053 180.598M324.053 216.627L288.024 216.627M324.053 180.598L324.053 144.569M324.053 180.598L288.024 180.598M324.053 144.569L324.053 108.541M324.053 144.569L288.024 144.569M324.053 108.541L324.053 72.5119M324.053 108.541L288.024 108.541M324.053 72.5119L324.053 36.4831M324.053 72.5119L288.024 72.5119M324.053 36.4831L324.053 0.454425M324.053 36.4831L288.024 36.4831M324.053 0.454425L288.024 0.454422M288.024 685L288.024 648.971M288.024 685L251.995 685M288.024 648.971L288.024 612.942M288.024 648.971L251.995 648.971M288.024 612.942L288.024 576.914M288.024 612.942L251.995 612.942M288.024 576.914L288.024 540.885M288.024 576.914L251.995 576.914M288.024 540.885L288.024 504.856M288.024 540.885L251.995 540.885M288.024 504.856L288.024 468.828M288.024 504.856L251.995 504.856M288.024 468.828L288.024 432.799M288.024 468.828L251.995 468.828M288.024 432.799L288.024 396.77M288.024 432.799L251.995 432.799M288.024 396.77L288.024 360.742M288.024 396.77L251.995 396.77M288.024 360.742L288.024 324.713M288.024 360.742L251.995 360.741M288.024 324.713L288.024 288.684M288.024 324.713L251.995 324.713M288.024 288.684L288.024 252.655M288.024 288.684L251.995 288.684M288.024 252.655L288.024 216.627M288.024 252.655L251.995 252.655M288.024 216.627L288.024 180.598M288.024 216.627L251.995 216.627M288.024 180.598L288.024 144.569M288.024 180.598L251.995 180.598M288.024 144.569L288.024 108.541M288.024 144.569L251.995 144.569M288.024 108.541L288.024 72.5119M288.024 108.541L251.995 108.541M288.024 72.5119L288.024 36.4831M288.024 72.5119L251.995 72.5119M288.024 36.4831L288.024 0.454422M288.024 36.4831L251.995 36.4831M288.024 0.454422L251.995 0.454419M251.995 685L251.995 648.971M251.995 685L215.966 685M251.995 648.971L251.995 612.942M251.995 648.971L215.966 648.971M251.995 612.942L251.995 576.914M251.995 612.942L215.966 612.942M251.995 576.914L251.995 540.885M251.995 576.914L215.966 576.914M251.995 540.885L251.995 504.856M251.995 540.885L215.966 540.885M251.995 504.856L251.995 468.828M251.995 504.856L215.966 504.856M251.995 468.828L251.995 432.799M251.995 468.828L215.966 468.828M251.995 432.799L251.995 396.77M251.995 432.799L215.966 432.799M251.995 396.77L251.995 360.741M251.995 396.77L215.966 396.77M251.995 360.741L251.995 324.713M251.995 360.741L215.966 360.741M251.995 324.713L251.995 288.684M251.995 324.713L215.966 324.713M251.995 288.684L251.995 252.655M251.995 288.684L215.966 288.684M251.995 252.655L251.995 216.627M251.995 252.655L215.966 252.655M251.995 216.627L251.995 180.598M251.995 216.627L215.966 216.627M251.995 180.598L251.995 144.569M251.995 180.598L215.966 180.598M251.995 144.569L251.995 108.541M251.995 144.569L215.966 144.569M251.995 108.541L251.995 72.5119M251.995 108.541L215.966 108.541M251.995 72.5119L251.995 36.4831M251.995 72.5119L215.966 72.5118M251.995 36.4831L251.995 0.454419M251.995 36.4831L215.966 36.4831M251.995 0.454419L215.966 0.454415M215.966 685L215.966 648.971M215.966 685L179.938 685M215.966 648.971L215.966 612.942M215.966 648.971L179.938 648.971M215.966 612.942L215.966 576.914M215.966 612.942L179.938 612.942M215.966 576.914L215.966 540.885M215.966 576.914L179.938 576.914M215.966 540.885L215.966 504.856M215.966 540.885L179.938 540.885M215.966 504.856L215.966 468.828M215.966 504.856L179.938 504.856M215.966 468.828L215.966 432.799M215.966 468.828L179.938 468.828M215.966 432.799L215.966 396.77M215.966 432.799L179.938 432.799M215.966 396.77L215.966 360.741M215.966 396.77L179.938 396.77M215.966 360.741L215.966 324.713M215.966 360.741L179.938 360.741M215.966 324.713L215.966 288.684M215.966 324.713L179.938 324.713M215.966 288.684L215.966 252.655M215.966 288.684L179.938 288.684M215.966 252.655L215.966 216.627M215.966 252.655L179.938 252.655M215.966 216.627L215.966 180.598M215.966 216.627L179.938 216.627M215.966 180.598L215.966 144.569M215.966 180.598L179.938 180.598M215.966 144.569L215.966 108.541M215.966 144.569L179.938 144.569M215.966 108.541L215.966 72.5118M215.966 108.541L179.938 108.541M215.966 72.5118L215.966 36.4831M215.966 72.5118L179.938 72.5118M215.966 36.4831L215.966 0.454415M215.966 36.4831L179.938 36.4831M215.966 0.454415L179.938 0.454412M179.938 685L179.938 648.971M179.938 685L143.909 685M179.938 648.971L179.938 612.942M179.938 648.971L143.909 648.971M179.938 612.942L179.938 576.914M179.938 612.942L143.909 612.942M179.938 576.914L179.938 540.885M179.938 576.914L143.909 576.914M179.938 540.885L179.938 504.856M179.938 540.885L143.909 540.885M179.938 504.856L179.938 468.828M179.938 504.856L143.909 504.856M179.938 468.828L179.938 432.799M179.938 468.828L143.909 468.828M179.938 432.799L179.938 396.77M179.938 432.799L143.909 432.799M179.938 396.77L179.938 360.741M179.938 396.77L143.909 396.77M179.938 360.741L179.938 324.713M179.938 360.741L143.909 360.741M179.938 324.713L179.938 288.684M179.938 324.713L143.909 324.713M179.938 288.684L179.938 252.655M179.938 288.684L143.909 288.684M179.938 252.655L179.938 216.627M179.938 252.655L143.909 252.655M179.938 216.627L179.938 180.598M179.938 216.627L143.909 216.627M179.938 180.598L179.938 144.569M179.938 180.598L143.909 180.598M179.938 144.569L179.938 108.541M179.938 144.569L143.909 144.569M179.938 108.541L179.938 72.5118M179.938 108.541L143.909 108.541M179.938 72.5118L179.938 36.4831M179.938 72.5118L143.909 72.5118M179.938 36.4831L179.938 0.454412M179.938 36.4831L143.909 36.4831M179.938 0.454412L143.909 0.454409M143.909 685L143.909 648.971M143.909 685L107.88 685M143.909 648.971L143.909 612.942M143.909 648.971L107.88 648.971M143.909 612.942L143.909 576.914M143.909 612.942L107.88 612.942M143.909 576.914L143.909 540.885M143.909 576.914L107.88 576.914M143.909 540.885L143.909 504.856M143.909 540.885L107.88 540.885M143.909 504.856L143.909 468.828M143.909 504.856L107.88 504.856M143.909 468.828L143.909 432.799M143.909 468.828L107.88 468.828M143.909 432.799L143.909 396.77M143.909 432.799L107.88 432.799M143.909 396.77L143.909 360.741M143.909 396.77L107.88 396.77M143.909 360.741L143.909 324.713M143.909 360.741L107.88 360.741M143.909 324.713L143.909 288.684M143.909 324.713L107.88 324.713M143.909 288.684L143.909 252.655M143.909 288.684L107.88 288.684M143.909 252.655L143.909 216.627M143.909 252.655L107.88 252.655M143.909 216.627L143.909 180.598M143.909 216.627L107.88 216.627M143.909 180.598L143.909 144.569M143.909 180.598L107.88 180.598M143.909 144.569L143.909 108.541M143.909 144.569L107.88 144.569M143.909 108.541L143.909 72.5118M143.909 108.541L107.88 108.541M143.909 72.5118L143.909 36.4831M143.909 72.5118L107.88 72.5118M143.909 36.4831L143.909 0.454409M143.909 36.4831L107.88 36.4831M143.909 0.454409L107.88 0.454406M107.88 685L107.88 648.971M107.88 685L71.8516 685M107.88 648.971L107.88 612.942M107.88 648.971L71.8516 648.971M107.88 612.942L107.88 576.914M107.88 612.942L71.8516 612.942M107.88 576.914L107.88 540.885M107.88 576.914L71.8516 576.914M107.88 540.885L107.88 504.856M107.88 540.885L71.8516 540.885M107.88 504.856L107.88 468.828M107.88 504.856L71.8516 504.856M107.88 468.828L107.88 432.799M107.88 468.828L71.8516 468.828M107.88 432.799L107.88 396.77M107.88 432.799L71.8516 432.799M107.88 396.77L107.88 360.741M107.88 396.77L71.8516 396.77M107.88 360.741L107.88 324.713M107.88 360.741L71.8516 360.741M107.88 324.713L107.88 288.684M107.88 324.713L71.8516 324.713M107.88 288.684L107.88 252.655M107.88 288.684L71.8516 288.684M107.88 252.655L107.88 216.627M107.88 252.655L71.8516 252.655M107.88 216.627L107.88 180.598M107.88 216.627L71.8516 216.627M107.88 180.598L107.88 144.569M107.88 180.598L71.8516 180.598M107.88 144.569L107.88 108.541M107.88 144.569L71.8516 144.569M107.88 108.541L107.88 72.5118M107.88 108.541L71.8516 108.541M107.88 72.5118L107.88 36.4831M107.88 72.5118L71.8516 72.5118M107.88 36.4831L107.88 0.454406M107.88 36.4831L71.8516 36.4831M107.88 0.454406L71.8516 0.454403M71.8516 685L71.8516 648.971M71.8516 685L35.8229 685M71.8516 648.971L71.8516 612.942M71.8516 648.971L35.8229 648.971M71.8516 612.942L71.8516 576.914M71.8516 612.942L35.8229 612.942M71.8516 576.914L71.8516 540.885M71.8516 576.914L35.8229 576.914M71.8516 540.885L71.8516 504.856M71.8516 540.885L35.8229 540.885M71.8516 504.856L71.8516 468.828M71.8516 504.856L35.8229 504.856M71.8516 468.828L71.8516 432.799M71.8516 468.828L35.8229 468.828M71.8516 432.799L71.8516 396.77M71.8516 432.799L35.8229 432.799M71.8516 396.77L71.8516 360.741M71.8516 396.77L35.8229 396.77M71.8516 360.741L71.8516 324.713M71.8516 360.741L35.8229 360.741M71.8516 324.713L71.8516 288.684M71.8516 324.713L35.8229 324.713M71.8516 288.684L71.8516 252.655M71.8516 288.684L35.8229 288.684M71.8516 252.655L71.8516 216.627M71.8516 252.655L35.8229 252.655M71.8516 216.627L71.8516 180.598M71.8516 216.627L35.8229 216.627M71.8516 180.598L71.8516 144.569M71.8516 180.598L35.8229 180.598M71.8516 144.569L71.8516 108.541M71.8516 144.569L35.8229 144.569M71.8516 108.541L71.8516 72.5118M71.8516 108.541L35.8229 108.541M71.8516 72.5118L71.8516 36.4831M71.8516 72.5118L35.8229 72.5118M71.8516 36.4831L71.8516 0.454403M71.8516 36.4831L35.8229 36.4831M71.8516 0.454403L35.8229 0.4544M35.8229 685L35.8229 648.971M35.8229 685L-0.205811 685M35.8229 648.971L35.8229 612.942M35.8229 648.971L-0.205807 648.971M35.8229 612.942L35.8229 576.914M35.8229 612.942L-0.205804 612.942M35.8229 576.914L35.8229 540.885M35.8229 576.914L-0.205801 576.914M35.8229 540.885L35.8229 504.856M35.8229 540.885L-0.205798 540.885M35.8229 504.856L35.8229 468.828M35.8229 504.856L-0.205795 504.856M35.8229 468.828L35.8229 432.799M35.8229 468.828L-0.205792 468.828M35.8229 432.799L35.8229 396.77M35.8229 432.799L-0.205788 432.799M35.8229 396.77L35.8229 360.741M35.8229 396.77L-0.205785 396.77M35.8229 360.741L35.8229 324.713M35.8229 360.741L-0.205782 360.741M35.8229 324.713L35.8229 288.684M35.8229 324.713L-0.205779 324.713M35.8229 288.684L35.8229 252.655M35.8229 288.684L-0.205776 288.684M35.8229 252.655L35.8229 216.627M35.8229 252.655L-0.205773 252.655M35.8229 216.627L35.8229 180.598M35.8229 216.627L-0.20577 216.627M35.8229 180.598L35.8229 144.569M35.8229 180.598L-0.205766 180.598M35.8229 144.569L35.8229 108.541M35.8229 144.569L-0.205763 144.569M35.8229 108.541L35.8229 72.5118M35.8229 108.541L-0.20576 108.541M35.8229 72.5118L35.8229 36.4831M35.8229 72.5118L-0.205757 72.5118M35.8229 36.4831L35.8229 0.4544M35.8229 36.4831L-0.205754 36.4831M35.8229 0.4544L-0.205751 0.454397M-0.205811 685L-0.205807 648.971M-0.205811 685L-36.2345 685M-0.205807 648.971L-0.205804 612.942M-0.205807 648.971L-36.2345 648.971M-0.205804 612.942L-0.205801 576.914M-0.205804 612.942L-36.2345 612.942M-0.205801 576.914L-0.205798 540.885M-0.205801 576.914L-36.2345 576.914M-0.205798 540.885L-0.205795 504.856M-0.205798 540.885L-36.2345 540.885M-0.205795 504.856L-0.205792 468.828M-0.205795 504.856L-36.2345 504.856M-0.205792 468.828L-0.205788 432.799M-0.205792 468.828L-36.2345 468.828M-0.205788 432.799L-0.205785 396.77M-0.205788 432.799L-36.2345 432.799M-0.205785 396.77L-0.205782 360.741M-0.205785 396.77L-36.2345 396.77M-0.205782 360.741L-0.205779 324.713M-0.205782 360.741L-36.2345 360.741M-0.205779 324.713L-0.205776 288.684M-0.205779 324.713L-36.2345 324.713M-0.205776 288.684L-0.205773 252.655M-0.205776 288.684L-36.2345 288.684M-0.205773 252.655L-0.20577 216.627M-0.205773 252.655L-36.2345 252.655M-0.20577 216.627L-0.205766 180.598M-0.20577 216.627L-36.2345 216.627M-0.205766 180.598L-0.205763 144.569M-0.205766 180.598L-36.2345 180.598M-0.205763 144.569L-0.20576 108.541M-0.205763 144.569L-36.2344 144.569M-0.20576 108.541L-0.205757 72.5118M-0.20576 108.541L-36.2344 108.541M-0.205757 72.5118L-0.205754 36.4831M-0.205757 72.5118L-36.2344 72.5118M-0.205754 36.4831L-0.205751 0.454397M-0.205754 36.4831L-36.2344 36.4831M-0.205751 0.454397L-36.2344 0.454393M-36.2345 685L-36.2345 648.971M-36.2345 685L-72.2632 685L-72.2632 648.971M-36.2345 648.971L-36.2345 612.942M-36.2345 648.971L-72.2632 648.971M-36.2345 612.942L-36.2345 576.914M-36.2345 612.942L-72.2632 612.942M-36.2345 576.914L-36.2345 540.885M-36.2345 576.914L-72.2632 576.914M-36.2345 540.885L-36.2345 504.856M-36.2345 540.885L-72.2632 540.885M-36.2345 504.856L-36.2345 468.828M-36.2345 504.856L-72.2632 504.856M-36.2345 468.828L-36.2345 432.799M-36.2345 468.828L-72.2632 468.828M-36.2345 432.799L-36.2345 396.77M-36.2345 432.799L-72.2632 432.799M-36.2345 396.77L-36.2345 360.741M-36.2345 396.77L-72.2632 396.77M-36.2345 360.741L-36.2345 324.713M-36.2345 360.741L-72.2632 360.741M-36.2345 324.713L-36.2345 288.684M-36.2345 324.713L-72.2632 324.713M-36.2345 288.684L-36.2345 252.655M-36.2345 288.684L-72.2631 288.684M-36.2345 252.655L-36.2345 216.627M-36.2345 252.655L-72.2631 252.655M-36.2345 216.627L-36.2345 180.598M-36.2345 216.627L-72.2631 216.627M-36.2345 180.598L-36.2344 144.569M-36.2345 180.598L-72.2631 180.598M-36.2344 144.569L-36.2344 108.541M-36.2344 144.569L-72.2631 144.569M-36.2344 108.541L-36.2344 72.5118M-36.2344 108.541L-72.2631 108.541M-36.2344 72.5118L-36.2344 36.4831M-36.2344 72.5118L-72.2631 72.5118M-36.2344 36.4831L-36.2344 0.454393M-36.2344 36.4831L-72.2631 36.4831M-36.2344 0.454393L-72.2631 0.45439L-72.2631 36.4831M-72.2632 648.971L-72.2632 612.942M-72.2632 612.942L-72.2632 576.914M-72.2632 576.914L-72.2632 540.885M-72.2632 540.885L-72.2632 504.856M-72.2632 504.856L-72.2632 468.828M-72.2632 468.828L-72.2632 432.799M-72.2632 432.799L-72.2632 396.77M-72.2632 396.77L-72.2632 360.741M-72.2632 360.741L-72.2632 324.713M-72.2632 324.713L-72.2631 288.684M-72.2631 288.684L-72.2631 252.655M-72.2631 252.655L-72.2631 216.627M-72.2631 216.627L-72.2631 180.598M-72.2631 180.598L-72.2631 144.569M-72.2631 144.569L-72.2631 108.541M-72.2631 108.541L-72.2631 72.5118M-72.2631 72.5118L-72.2631 36.4831" stroke="url(#paint0_radial_820_1456)" stroke-width="0.900718"/>
<defs>
<radialGradient id="paint0_radial_820_1456" cx="0" cy="0" r="1" gradientUnits="userSpaceOnUse" gradientTransform="translate(720.368 342.727) rotate(-90) scale(342.273 640.064)">
<stop stop-color="#732A2F" stop-opacity="0.45"/>
<stop offset="1" stop-color="#732A2F" stop-opacity="0"/>
</radialGradient>
</defs>
</svg>
