<svg width="34" height="30" viewBox="0 0 34 30" fill="none" xmlns="http://www.w3.org/2000/svg">
<path d="M20.9362 0.976373C21.3403 1.09004 21.6828 1.35955 21.8882 1.72565C22.0937 2.09174 22.1453 2.52445 22.0318 2.92862L15.0177 27.9263C14.9615 28.1265 14.8665 28.3137 14.738 28.4772C14.6095 28.6408 14.4501 28.7774 14.2688 28.8792C14.0875 28.9811 13.8879 29.0463 13.6815 29.0711C13.475 29.0958 13.2657 29.0797 13.0654 29.0235C12.8652 28.9674 12.678 28.8724 12.5145 28.7439C12.351 28.6154 12.2144 28.4559 12.1125 28.2747C12.0106 28.0934 11.9454 27.8938 11.9206 27.6873C11.8959 27.4809 11.912 27.2715 11.9682 27.0713L18.9823 2.07362C19.0385 1.8732 19.1335 1.68581 19.2621 1.52216C19.3907 1.35851 19.5503 1.22183 19.7318 1.11992C19.9132 1.018 20.113 0.952872 20.3197 0.928241C20.5263 0.903611 20.7358 0.919966 20.9362 0.976373ZM9.41109 7.16246C9.70792 7.45938 9.87467 7.86203 9.87467 8.28187C9.87467 8.70172 9.70792 9.10437 9.41109 9.40129L3.81401 15L9.41109 20.597C9.5582 20.744 9.67492 20.9186 9.75457 21.1107C9.83422 21.3028 9.87526 21.5087 9.87533 21.7167C9.87541 21.9247 9.83452 22.1306 9.755 22.3228C9.67548 22.5149 9.55889 22.6896 9.41189 22.8367C9.26488 22.9838 9.09034 23.1005 8.89823 23.1801C8.70612 23.2598 8.50021 23.3008 8.29224 23.3009C8.08427 23.301 7.87832 23.2601 7.68616 23.1806C7.49399 23.101 7.31937 22.9845 7.17226 22.8375L0.454179 16.1194C0.15735 15.8225 -0.00939941 15.4198 -0.00939941 15C-0.00939941 14.5801 0.15735 14.1775 0.454179 13.8805L7.17226 7.16246C7.46918 6.86563 7.87184 6.69888 8.29168 6.69888C8.71152 6.69888 9.11418 6.86563 9.41109 7.16246ZM24.5889 9.40129C24.4377 9.25523 24.3171 9.08052 24.2341 8.88735C24.1511 8.69417 24.1074 8.48641 24.1056 8.27618C24.1038 8.06594 24.1438 7.85745 24.2235 7.66286C24.3031 7.46828 24.4206 7.29149 24.5693 7.14283C24.718 6.99417 24.8947 6.8766 25.0893 6.79699C25.2839 6.71738 25.4924 6.67732 25.7026 6.67914C25.9129 6.68097 26.1206 6.72465 26.3138 6.80763C26.507 6.89061 26.6817 7.01123 26.8278 7.16246L33.5458 13.8805C33.8427 14.1775 34.0094 14.5801 34.0094 15C34.0094 15.4198 33.8427 15.8225 33.5458 16.1194L26.8278 22.8375C26.5307 23.1343 26.1278 23.3011 25.7078 23.3009C25.2878 23.3008 24.885 23.1338 24.5881 22.8367C24.2912 22.5396 24.1245 22.1367 24.1247 21.7167C24.1248 21.2967 24.2918 20.8939 24.5889 20.597L30.186 15L24.5889 9.40129Z" fill="#6C5BE7"/>
</svg>
