<svg width="38" height="38" viewBox="0 0 38 38" fill="none" xmlns="http://www.w3.org/2000/svg">
<path d="M12.6667 18.6041V11.875C12.6667 11.2152 12.8978 10.6547 13.3602 10.1935C13.8225 9.73219 14.383 9.50102 15.0417 9.49996C15.7003 9.49891 16.2614 9.73007 16.7247 10.1935C17.1881 10.6569 17.4188 11.2174 17.4167 11.875V18.6041C17.4167 19.2639 17.186 19.8249 16.7247 20.2872C16.2635 20.7495 15.7024 20.9802 15.0417 20.9791C14.3809 20.9781 13.8204 20.7474 13.3602 20.2872C12.8999 19.827 12.6688 19.266 12.6667 18.6041ZM20.5833 18.2479V5.54163C20.5833 4.88191 20.8145 4.32141 21.2768 3.86013C21.7392 3.39885 22.2997 3.16769 22.9583 3.16663C23.617 3.16557 24.178 3.39674 24.6414 3.86013C25.1048 4.32352 25.3354 4.88402 25.3333 5.54163V18.2479C25.3333 19.0395 25.0895 19.6333 24.6018 20.0291C24.1142 20.425 23.5663 20.6229 22.9583 20.6229C22.3503 20.6229 21.803 20.425 21.3164 20.0291C20.8298 19.6333 20.5854 19.0395 20.5833 18.2479ZM4.75 23.7104V18.2083C4.75 17.5486 4.98117 16.9881 5.4435 16.5268C5.90583 16.0655 6.46633 15.8344 7.125 15.8333C7.78367 15.8322 8.34469 16.0634 8.80808 16.5268C9.27147 16.9902 9.50211 17.5507 9.5 18.2083V23.7104C9.5 24.502 9.25617 25.0958 8.7685 25.4916C8.28083 25.8875 7.733 26.0854 7.125 26.0854C6.517 26.0854 5.96969 25.8875 5.48308 25.4916C4.99647 25.0958 4.75211 24.502 4.75 23.7104ZM8.55 33.3291C7.86389 33.3291 7.38203 33.0061 7.10442 32.3601C6.82681 31.7141 6.93922 31.1399 7.44167 30.6375L13.9333 24.1458C14.2236 23.8555 14.5735 23.6972 14.9831 23.6708C15.3926 23.6444 15.7552 23.7764 16.0708 24.0666L20.5833 27.9458L29.45 19.0791H28.5C28.0514 19.0791 27.6756 18.9271 27.3727 18.6231C27.0697 18.3191 26.9177 17.9434 26.9167 17.4958C26.9156 17.0482 27.0676 16.6725 27.3727 16.3685C27.6777 16.0645 28.0535 15.9125 28.5 15.9125H33.25C33.6986 15.9125 34.0749 16.0645 34.3789 16.3685C34.6829 16.6725 34.8344 17.0482 34.8333 17.4958V22.2458C34.8333 22.6944 34.6813 23.0707 34.3773 23.3747C34.0733 23.6787 33.6976 23.8302 33.25 23.8291C32.8024 23.8281 32.4267 23.6761 32.1227 23.3731C31.8187 23.0702 31.6667 22.6944 31.6667 22.2458V21.2958L21.7708 31.1916C21.4806 31.4819 21.1306 31.6402 20.7211 31.6666C20.3115 31.693 19.9489 31.5611 19.6333 31.2708L15.1208 27.3916L9.65833 32.8541C9.52639 32.9861 9.36172 33.0985 9.16433 33.1914C8.96694 33.2843 8.76217 33.3302 8.55 33.3291Z" fill="#6C5BE7"/>
</svg>
