<svg width="38" height="38" viewBox="0 0 38 38" fill="none" xmlns="http://www.w3.org/2000/svg">
<path d="M21.375 30.875H35.625V33.25H21.375V30.875ZM21.375 24.9375H35.625V27.3125H21.375V24.9375ZM21.375 19H35.625V21.375H21.375V19Z" fill="#6C5BE7"/>
<path d="M16.6251 29.6875H11.2814C9.05523 29.69 6.90895 28.8583 5.2658 27.3564C3.62265 25.8545 2.60189 23.7914 2.40483 21.574C2.20778 19.3566 2.84873 17.1458 4.20128 15.3777C5.55383 13.6095 7.5198 12.4124 9.71149 12.0223C10.2666 9.1196 11.8841 6.52823 14.2479 4.75452C16.6117 2.9808 19.5519 2.15221 22.494 2.43066C25.4361 2.70911 28.1687 4.07459 30.1577 6.26026C32.1468 8.44594 33.2494 11.2947 33.2501 14.25H30.8751C30.8736 11.8213 29.9419 9.48551 28.2714 7.72256C26.601 5.95961 24.3187 4.90347 21.8937 4.7712C19.4686 4.63892 17.085 5.44056 15.2327 7.01136C13.3804 8.58216 12.2001 10.8028 11.9345 13.2169L11.8276 14.2073L10.8337 14.2738C9.14228 14.3856 7.56076 15.1512 6.42378 16.4084C5.2868 17.6656 4.68357 19.3159 4.74174 21.01C4.7999 22.7041 5.5149 24.3091 6.73544 25.4854C7.95597 26.6616 9.58628 27.3169 11.2814 27.3125H16.6251V29.6875Z" fill="#6C5BE7"/>
</svg>
