<svg width="38" height="38" viewBox="0 0 38 38" fill="none" xmlns="http://www.w3.org/2000/svg">
<path d="M28.5001 28.5C31.9979 28.5 34.8334 22.8289 34.8334 15.8333C34.8334 8.83769 31.9979 3.16663 28.5001 3.16663C25.0023 3.16663 22.1667 8.83769 22.1667 15.8333C22.1667 22.8289 25.0023 28.5 28.5001 28.5Z" stroke="#6C5BE7" stroke-width="1.5" stroke-linecap="round" stroke-linejoin="round"/>
<path d="M28.5001 3.16663C23.587 3.16663 13.403 6.93179 7.55416 9.26879C4.87516 10.3391 3.16675 12.9485 3.16675 15.8333C3.16675 18.7181 4.87675 21.3275 7.55416 22.3978C13.403 24.7348 23.587 28.5 28.5001 28.5M17.4167 34.8333L14.3403 33.1391C12.6979 32.2302 11.3657 30.8497 10.5156 29.1761C9.66548 27.5024 9.33658 25.6124 9.57133 23.75" stroke="#6C5BE7" stroke-width="1.5" stroke-linecap="round" stroke-linejoin="round"/>
</svg>
