<svg width="38" height="38" viewBox="0 0 38 38" fill="none" xmlns="http://www.w3.org/2000/svg">
<path d="M18.0491 3.32582L3.49434 17.8806C3.19751 18.1775 3.03076 18.5802 3.03076 19C3.03076 19.4199 3.19751 19.8225 3.49434 20.1194L18.0499 34.675C18.3468 34.9719 18.7495 35.1386 19.1693 35.1386C19.5892 35.1386 19.9918 34.9719 20.2888 34.675L34.8435 20.1202C35.1404 19.8233 35.3071 19.4207 35.3071 19.0008C35.3071 18.581 35.1404 18.1783 34.8435 17.8814L20.288 3.32503C19.991 3.0282 19.5884 2.86145 19.1685 2.86145C18.7487 2.86145 18.3461 3.0282 18.0491 3.32503V3.32582Z" stroke="#6C5BE7" stroke-width="2" stroke-linejoin="round"/>
<path d="M14.25 19H23.75M19 14.25V23.75" stroke="#6C5BE7" stroke-width="2" stroke-linecap="round"/>
</svg>
