<svg width="38" height="38" viewBox="0 0 38 38" fill="none" xmlns="http://www.w3.org/2000/svg">
<path d="M15.4358 3.94879L28.7516 11.59M28.7516 11.59L25.178 17.7586M28.7516 11.59L30.0832 12.3563M19.8707 26.9182L17.5036 31.0032C16.4803 32.7634 14.8014 34.0465 12.8343 34.5717C10.8673 35.0969 8.77221 34.8215 7.00771 33.8057C6.13495 33.3051 5.36963 32.6371 4.75566 31.84C4.14168 31.0429 3.69114 30.1324 3.42988 29.1607C3.16862 28.1891 3.10178 27.1754 3.2332 26.1779C3.36462 25.1804 3.69172 24.2186 4.19571 23.3478L15.4374 3.94879L14.1121 3.16663M19.8707 26.9182L22.4658 22.4421L25.178 17.7586M19.8707 26.9182L15.7335 24.5369M25.178 17.7586L21.1279 15.4295M22.4642 22.4421L15.8095 18.6136" stroke="#6C5BE7" stroke-width="1.5" stroke-linecap="round"/>
<path d="M34.8333 23.6185C34.8333 25.4394 33.4163 26.9166 31.6667 26.9166C29.9171 26.9166 28.5 25.4394 28.5 23.6185C28.5 22.4785 29.7398 20.957 30.6692 19.9769C30.7969 19.8401 30.9513 19.7311 31.1229 19.6566C31.2945 19.582 31.4796 19.5436 31.6667 19.5436C31.8538 19.5436 32.0388 19.582 32.2104 19.6566C32.382 19.7311 32.5365 19.8401 32.6642 19.9769C33.5936 20.957 34.8333 22.4785 34.8333 23.6185Z" stroke="#6C5BE7" stroke-width="1.5"/>
</svg>
