<svg width="107" height="16" viewBox="0 0 107 16" fill="none" xmlns="http://www.w3.org/2000/svg">
<path d="M25.2421 9.07396C25.2421 11.1999 24.3597 12.0774 22.6618 12.0774C20.7843 12.0774 19.9237 11.0033 19.9237 8.94213V0.985107H16.3477V9.40246C16.3477 13.2602 18.8829 15.0145 22.5717 15.0145C26.3738 15.0145 28.8182 13.0636 28.8182 9.09483V0.985107H25.2421V9.07396Z" fill="white" style="mix-blend-mode:plus-lighter"/>
<path d="M41.2023 7.67434C42.9085 7.22559 43.9553 6.23808 43.9553 4.64454C43.9553 2.57937 42.7697 0.985107 38.3601 0.985107H31.9355V15.0145H38.4078C43.1496 15.0145 44.4061 13.1738 44.4061 10.9293C44.4061 9.20068 43.1019 8.01089 41.2054 7.67434M35.5863 3.65625H38.0052C39.4282 3.65625 40.1868 4.19501 40.1868 5.22763C40.1868 6.28234 39.3805 6.88826 37.8156 6.88826H35.5869L35.5863 3.65625ZM38.1233 12.3434H35.5863V9.11065H38.0052C39.594 9.11065 40.6132 9.53723 40.6132 10.7263C40.6132 11.8268 39.8301 12.3427 38.1239 12.3427" fill="white" style="mix-blend-mode:plus-lighter"/>
<path d="M50.3814 0.985107H46.7441V15.0145H50.3814V0.985107Z" fill="white" style="mix-blend-mode:plus-lighter"/>
<path d="M106.501 0.985107H102.863V15.0145H106.501V0.985107Z" fill="white" style="mix-blend-mode:plus-lighter"/>
<path d="M84.6763 11.3772H81.0391V15.0145H84.6763V11.3772Z" fill="white" style="mix-blend-mode:plus-lighter"/>
<path d="M61.7992 0.985107L58.886 6.5296L55.8797 0.985107H51.9414L57.0209 9.6723V15.0145H60.655V9.69446L65.711 0.985107H61.7992Z" fill="white" style="mix-blend-mode:plus-lighter"/>
<path d="M74.3424 0.985107H69.6478L64.4121 15.0145H68.1387L69.1993 12.029H74.6704L75.7548 15.0145H79.4807L74.3424 0.985107ZM70.0031 9.24572L71.9589 3.74627L73.8465 9.24572H70.0031Z" fill="white" style="mix-blend-mode:plus-lighter"/>
<path d="M96.1647 0.985107H91.47L86.2344 15.0145H89.9609L91.0216 12.029H96.4927L97.5771 15.0145H101.303L96.1647 0.985107ZM91.8254 9.24572L93.7812 3.74627L95.6688 9.24572H91.8254Z" fill="white" style="mix-blend-mode:plus-lighter"/>
<path d="M4.13725 0.985107H0.5V15.0145H4.13725V0.985107Z" fill="white" style="mix-blend-mode:plus-lighter"/>
<path d="M14.2689 15.0145H10.343L5.43555 7.96663L10.343 0.985107H14.2689L9.36139 7.98035L14.2689 15.0145Z" fill="white" style="mix-blend-mode:plus-lighter"/>
</svg>
